<?xml version="1.0" encoding="UTF-8" standalone="no"?>
<svg
   xmlns:dc="http://purl.org/dc/elements/1.1/"
   xmlns:cc="http://creativecommons.org/ns#"
   xmlns:rdf="http://www.w3.org/1999/02/22-rdf-syntax-ns#"
   xmlns:svg="http://www.w3.org/2000/svg"
   xmlns="http://www.w3.org/2000/svg"
   xmlns:sodipodi="http://sodipodi.sourceforge.net/DTD/sodipodi-0.dtd"
   xmlns:inkscape="http://www.inkscape.org/namespaces/inkscape"
   width="413.78397"
   height="432.17496"
   id="svg1"
   sodipodi:version="0.32"
   inkscape:version="0.48.3.1 r9886"
   sodipodi:docname="contour_camel.svg"
   inkscape:output_extension="org.inkscape.output.svg.inkscape"
   version="1.1">
  <metadata
     id="metadata33" />
  <defs
     id="defs6" />
  <sodipodi:namedview
     id="base"
     pagecolor="#ffffff"
     bordercolor="#666666"
     borderopacity="1.0"
     inkscape:pageopacity="0.0"
     inkscape:pageshadow="2"
     inkscape:zoom="1"
     inkscape:cx="178.93532"
     inkscape:cy="260.85791"
     inkscape:window-width="1280"
     inkscape:window-height="741"
     inkscape:window-x="0"
     inkscape:window-y="27"
     inkscape:current-layer="svg1"
     showgrid="false"
     fit-margin-top="0"
     fit-margin-left="0"
     fit-margin-right="0"
     fit-margin-bottom="0"
     inkscape:window-maximized="1" />
  <path
     style="fill:#000000;stroke:none"
     d="m 4.8134389,161.19204 c -0.6631,2.49 -1.2359,7.037 2.9259,6.534 5.3698001,-0.649 13.6170001,-13.507 18.3743001,-16.934 3.6165,-2.606 8.5717,-1.177 12.6998,-2.129 7.4256,-1.714 13.7504,-6.275 19,-11.471 0.6146,17.081 -2.1988,33.962 -1.9961,51 0.2615,21.991 4.412,43.195 5.9066,65 0.642,9.367 -1.3401,18.757 -0.8171,28 0.3996,7.063 -0.4681,16.221 1.3395,23 2.9858,11.198 6.5671,18.785 6.5671,31 0,10.548 -2.4344,21.934 -1.892,32 0.3281,6.089 3.0681,11.926 3.7184,18 0.6468,6.042 -1.8914,16.215 5.2785,19.258 6.6924,2.84 32.146091,5.509 28.191091,-6.254 -2.391,-7.113 -11.045995,-8.429 -14.457295,-15.019 -4.168496,-8.051 -1.0328,-20.806 -11.838696,-23.985 l -2.6173,-46 3.5278,-20 0.5077,-26 11.176696,-43 10.405095,-32 2,0 c 1.68,19.268 5.28,38.456 3.91,58 -0.704,10.053 -8.167995,20.229 -7.270995,30 0.655995,7.145 6.561995,13.233 8.766995,20 6.609,20.289 14.484,41.779 23.513,61 3.834,8.162 10.997,17.048 12.728,26 0.754,3.902 -2.803,10.995 0.956,13.972 2.302,1.824 6.673,0.976 9.397,1.043 6.44,0.158 27.463,4.689 30.149,-4.124 1.979,-6.491 -9.848,-13.009 -14.149,-15.89 -17.406,-11.661 -27.531,-26.688 -35.104,-46.001 -5.983,-15.259 -11.71,-37.515 -9.823,-54 2.693,-23.534 13.404,-45.679 17.927,-69 13.854,11.354 41.382,18.408 59,21 0,13.609 0.325,30.378 8.649,41.985 3.994,5.57 12.451,7.657 15.234,14.019 1.354,3.097 -0.14,6.728 0.511,9.996 1.966,9.871 5.586,19.937 6.381,30 0.796,10.064 -5.058,19.961 -8.165,29 -4.058,11.804 -4.562,24.944 -5.496,37 -0.297,3.833 -3.189,8.202 -2.663,11.891 0.983,6.905 17.02,4.187 21.549,3.109 -0.089,4.307 -2.404,10.852 0.028,14.721 3.787,6.028 20.685,5.266 26.972,5.279 4.344,0.009 16.31601,3.325 18.33801,-2.275 1.147,-3.178 -2.069,-5.656 -3.709,-7.895 -6.25901,-8.541 -14.54801,-9.792 -21.35001,-17.043 -8.992,-9.584 -9.351,-28.54 -10.189,-40.787 -0.74,-10.792 -2.146,-25.82 2.054,-35.985 2.219,-5.371 7.568,-8.238 9.337,-14.015 2.705,-8.83 -0.508,-18.847 4.594,-26.957 8.148,-12.953 24.13401,-12.911 24.92501,-31.043 l 1,0 c 10.482,28.58 47.747,19.275 63.471,0.896 19.482,-22.772 27.219,-51.671 26.514,-80.896 -0.372,-15.439 0.38,-30.603 1.845,-46 0.822,-8.634 -0.913,-13.428 4.17,-21 l 1,0 c 9.646,9.038 28.849,1.244 25.606,-13.000002 -3.628,-15.9322 -23.14,-21.4444 -36.606,-26 1.095,-3.8593 2.772,-7.9562 2.863,-11.999995 0.21,-9.2159 -7.793,-13.2299 -15.863,-12.2778 -14.08,1.6614 -28.355,7.8711 -40,15.9221 -11.008,7.610195 -24.675,22.148795 -25.776,36.355695 -0.598,7.718002 3.019,15.188002 1.776,23.000002 -18.044,-19.592 -27.89401,-52.182002 -31.78701,-77.999997 -1.383,-9.1723 6.12,-19.2679 1.33,-27.8951 -2.154,-3.8801 -6.74,-5.1690999 -10.543,-6.8710999 -10.356,-4.6348 -26.623,-8.7561 -38,-7.02080003 -25.854,3.94320003 -17.961,50.90249993 -47.957,42.35259993 -13.802,-3.9341 -7.203,-20.4451 -10.646,-29.551 -5.719,-15.1234999 -22.516,-12.45589993 -34.397,-12.1433999 -4.12,0.1083 -8,-1.49640003 -11.999,0.2191 -7.455,3.1974 -11.732,12.4109999 -13.332,19.9096999 -3.463995,16.2293 -1.081,32.3586 -8.163995,47.910495 -1.8738,4.1134 -5.7588,7.1114 -7.975696,11.0895 -11.1384,19.987002 -20.2115,37.856002 -40.5293,50.816002 -9.0787,5.791 -18.6409,6.308 -28,10.854 -6.6453,3.228 -27.0070001,10.6 -13.0000001,19.33 z"
     id="path3"
     inkscape:connector-curvature="0" />
  <metadata
     id="metadata35">
    <rdf:RDF>
      <cc:Work
         rdf:about="">
        <dc:title>Clipart by Nicu Buculei - contour_chipmunk</dc:title>
        <dc:rights>
          <cc:Agent>
            <dc:title>Nicu Buculei</dc:title>
          </cc:Agent>
        </dc:rights>
        <dc:type
           rdf:resource="http://purl.org/dc/dcmitype/StillImage" />
        <cc:license
           rdf:resource="http://web.resource.org/cc/PublicDomain" />
        <dc:format>image/svg+xml</dc:format>
      </cc:Work>
      <cc:License
         rdf:about="http://web.resource.org/cc/PublicDomain">
        <cc:permits
           rdf:resource="http://web.resource.org/cc/Reproduction" />
        <cc:permits
           rdf:resource="http://web.resource.org/cc/Distribution" />
        <cc:permits
           rdf:resource="http://web.resource.org/cc/DerivativeWorks" />
      </cc:License>
    </rdf:RDF>
  </metadata>
</svg>
