<?xml version="1.0" encoding="UTF-8" standalone="no"?>
<!-- Created with Inkscape (http://www.inkscape.org/) -->
<svg
   xmlns:dc="http://purl.org/dc/elements/1.1/"
   xmlns:cc="http://web.resource.org/cc/"
   xmlns:rdf="http://www.w3.org/1999/02/22-rdf-syntax-ns#"
   xmlns:svg="http://www.w3.org/2000/svg"
   xmlns="http://www.w3.org/2000/svg"
   xmlns:xlink="http://www.w3.org/1999/xlink"
   xmlns:sodipodi="http://sodipodi.sourceforge.net/DTD/sodipodi-0.dtd"
   xmlns:inkscape="http://www.inkscape.org/namespaces/inkscape"
   width="128.00000pt"
   height="128.00000pt"
   id="svg2"
   sodipodi:version="0.32"
   inkscape:version="0.45pre1"
   sodipodi:docbase="/home/nicu/Desktop/clipart"
   sodipodi:docname="lizard_logo.svg"
   inkscape:export-filename="/home/nicu/Desktop/seamonkey/green_lizard_simple/lizard_logo.png"
   inkscape:export-xdpi="72.000000"
   inkscape:export-ydpi="72.000000"
   inkscape:output_extension="org.inkscape.output.svg.inkscape"
   sodipodi:modified="true">
  <defs
     id="defs4">
    <linearGradient
       inkscape:collect="always"
       id="linearGradient3593">
      <stop
         style="stop-color:#ffffff;stop-opacity:1;"
         offset="0"
         id="stop3595" />
      <stop
         style="stop-color:#ffffff;stop-opacity:0;"
         offset="1"
         id="stop3597" />
    </linearGradient>
    <linearGradient
       id="linearGradient3575">
      <stop
         style="stop-color:#004c32;stop-opacity:1;"
         offset="0"
         id="stop3577" />
      <stop
         style="stop-color:#1b3129;stop-opacity:1.0000000;"
         offset="1.0000000"
         id="stop3579" />
    </linearGradient>
    <linearGradient
       id="linearGradient3565">
      <stop
         style="stop-color:#000000;stop-opacity:1;"
         offset="0"
         id="stop3567" />
      <stop
         style="stop-color:#ffffff;stop-opacity:1.0000000;"
         offset="1.0000000"
         id="stop3569" />
    </linearGradient>
    <linearGradient
       inkscape:collect="always"
       xlink:href="#linearGradient3565"
       id="linearGradient3571"
       x1="118.71795"
       y1="26.923077"
       x2="118.20513"
       y2="34.358978"
       gradientUnits="userSpaceOnUse" />
    <linearGradient
       inkscape:collect="always"
       xlink:href="#linearGradient3565"
       id="linearGradient3573"
       x1="123.62759"
       y1="43.511833"
       x2="124.90033"
       y2="53.168610"
       gradientUnits="userSpaceOnUse" />
    <linearGradient
       inkscape:collect="always"
       xlink:href="#linearGradient3575"
       id="linearGradient3581"
       x1="88.974365"
       y1="79.850166"
       x2="34.871796"
       y2="22.051281"
       gradientUnits="userSpaceOnUse" />
    <linearGradient
       inkscape:collect="always"
       xlink:href="#linearGradient3593"
       id="linearGradient3599"
       x1="202.30769"
       y1="131.28204"
       x2="101.79487"
       y2="73.333328"
       gradientUnits="userSpaceOnUse" />
    <linearGradient
       inkscape:collect="always"
       xlink:href="#linearGradient3593"
       id="linearGradient4426"
       gradientUnits="userSpaceOnUse"
       x1="202.30769"
       y1="131.28204"
       x2="101.79487"
       y2="98.333328" />
    <linearGradient
       inkscape:collect="always"
       xlink:href="#linearGradient3593"
       id="linearGradient1343"
       x1="-33.740685"
       y1="-22.593853"
       x2="112.65625"
       y2="73.406143"
       gradientUnits="userSpaceOnUse" />
  </defs>
  <sodipodi:namedview
     id="base"
     pagecolor="#ffffff"
     bordercolor="#666666"
     borderopacity="1.0"
     inkscape:pageopacity="0.0"
     inkscape:pageshadow="2"
     inkscape:zoom="1"
     inkscape:cx="80"
     inkscape:cy="79.5"
     inkscape:document-units="px"
     inkscape:current-layer="layer1"
     inkscape:window-width="1152"
     inkscape:window-height="791"
     inkscape:window-x="0"
     inkscape:window-y="24" />
  <metadata
     id="metadata7">
    <rdf:RDF>
      <cc:Work
         rdf:about="">
        <dc:format>image/svg+xml</dc:format>
        <dc:type
           rdf:resource="http://purl.org/dc/dcmitype/StillImage" />
      </cc:Work>
    </rdf:RDF>
  </metadata>
  <g
     inkscape:label="Layer 1"
     inkscape:groupmode="layer"
     id="layer1">
    <g
       id="g4399"
       transform="translate(2.051282,1.794872)">
      <path
         style="opacity:0.20000000;fill:#000000;fill-opacity:1.0000000"
         d="M 78.156250,10.687500 C 81.426000,17.333662 75.019430,15.467123 72.093750,16.718750 C 76.448537,19.850321 86.116870,20.458044 75.598770,22.110629 C 69.525771,26.389575 78.531243,22.321636 80.500000,24.687500 C 84.534328,28.498802 81.209546,34.515065 75.962924,34.305913 C 67.032471,39.067285 59.375028,48.039246 59.278381,58.623750 C 58.606608,66.319601 49.121609,57.153135 47.151075,64.081265 C 44.456233,69.542279 43.817497,76.339786 37.031250,70.312500 C 32.314645,73.450732 45.318717,74.943677 39.375000,78.562500 C 31.276295,80.121840 39.648297,82.797926 43.431248,80.458259 C 45.925075,78.848161 37.771777,92.196848 44.454393,85.594593 C 46.983073,79.664892 52.115055,95.218991 52.722528,86.407976 C 51.583464,83.357638 47.491399,76.605323 53.531250,76.093750 C 63.354638,77.444791 62.676342,89.371613 65.459305,96.484692 C 68.828371,107.59258 82.102114,109.36819 88.437500,117.78125 C 92.660179,129.04101 81.001682,138.68287 71.274397,141.67473 C 62.895027,145.06713 52.866116,146.21594 45.375000,140.12500 C 40.157278,136.38155 33.712428,132.22069 33.531250,125.06250 C 33.903158,140.53984 50.118034,151.38709 64.808165,149.01060 C 78.947735,148.31012 94.903084,142.25444 99.955074,127.79569 C 104.14269,116.32730 99.464103,101.55292 87.152864,97.545182 C 81.432051,95.417642 74.165019,90.782292 77.250000,83.625000 C 81.147856,80.396037 86.546389,77.497696 90.625000,73.937500 C 97.057486,71.822628 97.355076,82.285404 96.000000,85.937500 C 90.239018,90.900531 95.404009,91.534920 99.156250,87.843750 C 100.68650,89.703532 105.49314,96.604984 105.53125,90.687500 C 101.98621,83.507382 109.49337,86.845839 113.00000,87.906250 C 116.07492,84.612644 103.85406,84.770711 107.53125,80.156250 C 114.88759,77.161265 107.91673,72.961996 104.06067,77.683836 C 100.76973,80.125078 99.238619,72.442948 97.093750,70.375000 C 95.714766,64.916484 87.503667,67.634662 87.312500,62.093750 C 87.471091,58.878096 93.672651,50.966345 94.584219,54.679009 C 94.467827,60.257586 98.569164,63.590899 103.92332,63.324049 C 107.64163,63.723243 107.70774,69.723696 111.78125,69.250000 C 108.84677,61.488933 116.51309,69.282940 117.75402,66.970965 C 108.98836,62.939642 124.97427,61.563831 118.84476,60.267229 C 111.80812,61.695321 111.48897,63.234370 114.68750,55.750000 C 110.45713,53.303766 109.15809,62.254789 104.21875,57.593750 C 98.981070,54.032924 105.68665,47.323666 110.56250,49.062500 C 119.73230,51.366915 128.41591,45.626402 136.15625,41.468750 C 142.12847,35.231023 133.55231,28.834055 127.97594,26.714939 C 121.93018,23.322972 114.03651,19.711724 108.15625,25.468750 C 102.52835,29.567505 97.209993,22.520723 91.164804,23.565227 C 86.906633,23.675199 82.500332,18.507021 87.906250,16.031250 C 91.850117,10.102214 81.857146,14.876333 81.968750,19.187500 C 81.533407,16.240266 82.195606,10.853621 78.156250,10.687500 z "
         id="path4401" />
      <path
         style="opacity:0.20000000;fill:#000000;fill-opacity:1.0000000"
         d="M 77.843750,9.8437500 C 78.882088,15.380927 77.039371,15.571970 71.802885,15.451923 C 69.144637,18.823592 79.040472,19.675766 78.118922,20.661426 C 73.716677,19.804421 69.867011,26.758220 76.079805,25.149263 C 80.684498,21.466075 84.244192,32.046880 78.656250,32.750000 C 70.572448,34.588149 64.771718,41.774481 60.716889,48.563108 C 58.146753,52.376329 60.332949,58.218198 56.906250,61.281250 C 53.483658,61.359243 49.030231,58.455748 47.086090,62.931286 C 44.421483,65.122165 44.481517,70.938929 42.193201,71.968759 C 39.971228,69.460789 32.934366,68.692245 35.865679,73.303298 C 39.665490,74.200266 41.705052,78.511691 36.468750,78.562500 C 31.676751,80.870092 38.325024,83.407004 40.800936,81.719411 C 46.666873,79.823309 37.950475,85.712143 41.281250,88.187500 C 44.553008,90.183960 45.508104,82.005051 47.807234,86.450525 C 48.614102,91.120424 55.106344,90.978656 53.437500,85.687500 C 52.623608,83.022208 48.543094,78.130273 53.156250,76.781250 C 61.374696,77.642528 62.516996,87.529224 63.687500,94.000000 C 66.057551,104.76464 76.777415,109.57523 85.125000,115.03125 C 91.991991,120.51266 87.666114,130.83390 81.650359,135.06745 C 74.395153,140.89392 64.738700,143.89542 55.527090,143.73775 C 47.867206,141.87719 40.930076,136.83131 36.028548,130.81945 C 34.270244,128.97883 33.997687,119.11294 32.872516,124.23204 C 32.479624,138.13495 45.537099,149.76488 59.129800,149.91335 C 70.749801,149.95623 83.433923,147.68512 92.492473,139.96493 C 102.55205,131.49202 105.59597,115.11998 97.669678,104.31231 C 93.163611,97.046154 82.655757,97.092581 78.097360,90.229127 C 76.389925,86.867472 77.539449,82.196629 81.609076,81.374801 C 85.792669,79.775958 88.441543,74.682641 92.875000,74.312500 C 96.621819,76.243365 95.935854,82.037264 95.531250,85.375000 C 91.567364,86.368514 91.711147,94.689671 96.281250,90.562500 C 98.757544,86.770616 101.07494,90.467930 101.97445,93.178864 C 106.70562,95.817809 107.48429,90.495927 105.18750,87.406250 C 107.73796,84.299388 111.10984,91.319529 114.28125,88.031250 C 116.42550,83.659454 105.29262,84.684544 108.40625,80.281250 C 113.30321,79.056755 112.56085,73.085462 107.23665,74.974597 C 103.89866,77.276286 101.62760,78.667675 99.937500,73.750000 C 97.703121,69.872676 95.112159,64.744701 89.906250,64.937500 C 85.360561,62.175854 90.574569,56.787508 93.265903,54.612044 C 94.856840,55.761622 94.464709,63.558219 99.343750,63.187500 C 102.72663,63.608375 106.36203,64.211715 107.68750,67.875000 C 110.34646,71.322395 113.73379,70.377085 112.28125,66.187500 C 114.86737,69.251168 121.53482,69.244162 116.98673,64.675180 C 114.42610,62.874728 125.76525,61.618025 120.38689,59.804506 C 115.35751,58.602649 112.02560,62.764006 115.44279,56.094641 C 113.75282,50.928932 109.30639,58.100823 107.31194,57.725134 C 103.53278,57.865638 101.62541,53.723519 104.53125,51.250000 C 109.92048,47.550263 117.00562,52.820700 122.51718,48.802910 C 127.84118,46.244481 134.79260,45.037326 138.21199,39.908897 C 141.29654,33.321236 134.08414,28.835812 129.05222,26.426925 C 123.10987,23.488788 115.72148,18.880064 109.50624,23.682239 C 106.45046,26.542847 102.23624,26.693390 98.875080,24.288099 C 94.963602,21.974743 88.207830,24.347595 86.031250,19.562500 C 86.357091,16.851392 93.004822,14.905247 88.593750,12.312500 C 84.277833,10.154241 82.069233,21.368203 82.156250,13.312500 C 81.508676,11.765052 79.777665,9.3812772 77.843750,9.8437500 z "
         id="path4406" />
      <path
         style="opacity:0.20000000;fill:#000000;fill-opacity:1.0000000"
         d="M 118.06814,20.745674 C 116.70958,20.346771 115.31178,21.022793 113.82511,21.085194 C 108.76342,21.297647 106.34417,27.771805 101.24118,24.488719 C 94.769889,20.410319 91.142632,23.922870 87.456214,20.476791 C 84.054064,18.541856 93.726096,16.045591 90.424546,12.946046 C 88.945021,10.591292 84.919131,10.110422 83.060332,14.826817 C 83.552326,10.143374 76.091889,5.8638390 76.512991,11.916794 C 78.495250,15.965755 77.589377,14.781891 73.135844,14.098521 C 66.418943,15.856060 73.248458,20.173907 76.178325,20.404339 C 73.255104,19.866752 67.680281,25.924711 75.685868,26.445500 C 79.773761,21.421552 83.285343,31.601521 78.430978,32.037547 C 72.881325,32.672925 68.950203,37.049555 65.304554,40.776599 C 59.749239,46.455945 58.292823,51.280942 58.089566,57.294838 C 57.898268,62.954851 54.356663,59.634289 50.943539,59.509274 C 46.688300,58.995029 43.530670,67.361839 42.434515,71.241489 C 37.418724,68.712621 36.234248,67.389188 34.621963,70.500232 C 32.018016,75.524788 42.253343,75.178002 38.417553,77.421541 C 31.107602,77.961281 32.777702,85.092833 41.754072,82.306150 C 36.218337,88.925969 43.645293,91.242816 45.202204,87.328736 C 46.458959,83.757333 47.219068,87.170711 48.236712,88.950713 C 53.836111,95.059740 56.419009,86.196900 52.264138,81.506123 C 49.907533,76.433913 55.210015,76.535066 58.244161,80.022084 C 62.046634,84.392100 61.498441,88.915172 62.932320,94.167321 C 67.047299,111.72704 87.814311,111.65703 87.961927,121.49674 C 88.214232,138.31473 62.273630,143.58096 56.429963,143.22791 C 50.972464,142.89819 41.185521,136.06689 37.036266,131.19997 C 34.294412,127.98388 35.957153,120.87772 32.509991,121.09624 C 30.764367,127.19032 33.266044,133.72989 36.786994,138.83015 C 51.958088,160.80618 87.049059,146.67326 91.867486,141.65449 C 95.399299,137.97583 101.69710,132.80844 102.67189,122.44162 C 103.43929,114.28037 101.87861,109.35183 99.280928,105.12235 C 91.915090,93.129467 74.402115,96.162130 78.721300,83.861616 C 82.511577,82.160922 85.881303,79.701644 89.026816,77.010548 C 94.958058,70.726877 95.384732,80.449499 95.073238,84.781527 C 89.386669,88.067611 91.581164,95.727640 96.701120,91.195422 C 101.18889,86.203965 98.615968,93.979800 103.11707,94.499550 C 113.13367,95.335210 101.77006,84.603500 108.02924,87.738851 C 112.33558,92.749927 120.86608,86.440167 110.99422,83.369986 C 103.57890,80.702747 114.83615,79.877152 112.74766,75.964424 C 111.38245,72.951143 106.64720,72.964302 102.85976,76.698801 C 99.684993,73.014875 97.534746,65.570236 92.413977,64.537282 C 85.357177,64.805098 90.278611,57.648916 93.245758,55.643131 C 93.224605,57.472353 94.231760,60.810427 96.032115,62.835644 C 97.674903,64.278180 100.59526,63.753036 102.65414,64.627721 C 107.36018,64.214668 105.95761,72.934823 113.98913,70.383706 C 109.23925,61.603729 120.11447,75.819152 119.35003,65.986307 C 116.88113,63.308767 116.80410,64.484296 119.42213,63.297066 C 128.90545,59.772076 116.55441,57.313968 115.08740,59.229001 C 119.36882,52.830283 111.14987,51.282496 108.23831,57.232931 C 106.57415,57.020660 102.60965,56.034042 103.92639,53.620085 C 103.92995,53.613545 103.93066,53.608082 103.93429,53.601536 C 103.95613,53.562235 103.95705,53.530316 103.98172,53.490250 C 106.19868,47.755922 113.87775,52.234732 118.43684,51.147168 C 121.18182,50.492364 131.95616,45.866056 135.32566,43.967727 C 141.14561,40.688853 141.05408,33.638300 136.28764,30.088337 C 131.54671,25.772520 118.52099,20.878647 118.06814,20.745674 z "
         id="path4411" />
      <path
         style="opacity:0.20000000;fill:#000000;fill-opacity:1.0000000"
         d="M 78.375000,8.1875000 C 73.413989,7.9229523 78.409266,15.690025 74.313600,13.526081 C 71.101663,12.302472 67.485746,16.971200 71.208174,18.867597 C 76.064470,20.332969 70.297120,21.584030 70.875000,24.437500 C 71.797665,27.622158 76.208226,27.648280 78.218236,25.909741 C 82.012709,28.049056 79.052505,32.589861 75.272572,32.171035 C 68.900790,35.021758 63.839132,40.699197 60.139172,46.505335 C 57.242833,50.383207 58.268895,55.751712 56.375000,59.781250 C 52.821073,59.028653 47.972413,57.523494 45.980228,61.890534 C 43.263049,63.759230 43.558846,70.350492 40.647121,69.539643 C 37.956021,66.925480 33.582060,67.956497 33.468750,71.968750 C 32.580336,75.151894 41.506781,76.467244 35.937500,77.187500 C 31.642634,78.060193 32.948842,84.091838 37.123907,83.571731 C 41.592512,82.689744 38.307578,85.165850 39.312500,88.187500 C 41.025135,91.288931 45.507972,89.915073 46.343750,86.843750 C 47.039907,90.396039 52.833481,94.165352 54.625000,89.437500 C 56.389983,85.601393 52.956073,82.370401 52.531250,78.906250 C 57.337605,77.294230 60.458077,84.232879 61.010536,88.377597 C 61.880027,97.637102 67.020442,106.25722 75.370198,110.59496 C 80.261622,114.03733 88.863731,116.91170 86.968750,124.46875 C 83.581656,136.13376 70.258963,140.91772 59.282145,142.13066 C 50.713797,142.99592 43.495239,136.27489 37.656250,130.75000 C 34.943000,127.66160 37.222003,120.48271 31.843750,120.18750 C 28.510890,135.24444 41.887969,150.10273 56.708769,151.14151 C 69.069019,152.22265 82.213436,149.41622 92.406250,142.18750 C 100.50310,135.26107 105.32459,124.49607 103.20660,113.80634 C 102.22638,104.37263 94.444119,97.596248 85.984732,94.447548 C 81.786337,92.962773 77.258401,89.276444 79.406250,84.343750 C 84.311964,82.357682 87.915417,78.125001 92.437500,75.750000 C 94.527875,78.029645 95.653094,83.766952 92.687500,85.781250 C 89.734899,88.087198 90.807984,94.926999 95.343750,92.968750 C 98.578523,89.499748 99.290004,91.105632 101.15625,94.500000 C 104.21992,96.793867 110.18842,94.222609 107.68750,90.000000 C 105.84469,85.827819 111.29436,92.334519 113.71875,90.093750 C 118.13570,88.847316 115.84321,83.424203 112.13235,83.052866 C 106.37801,81.619454 112.76416,80.181865 113.75000,77.437500 C 113.46025,71.864699 105.96319,72.290963 103.06250,75.625000 C 99.584898,71.135723 97.355463,63.566648 90.562500,63.593750 C 87.398208,62.171532 93.700741,54.039891 93.312500,59.531250 C 94.447296,64.648253 99.649620,64.995719 103.90625,65.593750 C 106.33094,68.736196 109.35924,73.303871 114.12500,71.125000 C 113.82106,67.194189 116.73129,72.074040 119.68750,69.156250 C 121.10524,65.591333 117.05373,63.732851 122.37500,62.718750 C 126.31978,59.284597 119.40726,57.251558 116.59375,57.906250 C 118.99064,53.318432 112.06996,51.010333 109.46471,54.442425 C 108.03837,58.546797 101.82401,54.203973 106.23071,51.916549 C 111.63519,50.252471 117.77500,53.816667 122.92496,50.244432 C 128.92437,47.274298 137.48263,46.116901 140.18750,39.187500 C 142.14187,31.251729 133.76597,26.943229 127.81883,24.143789 C 122.35968,21.394942 115.96784,18.022038 110.03125,21.531250 C 107.01950,24.302584 102.97398,25.500147 99.463174,22.926182 C 95.883979,20.506882 90.454570,22.783437 87.593750,19.343750 C 89.704421,17.557170 93.977147,14.453007 90.373781,11.880308 C 88.196328,7.9560176 83.529559,13.677134 82.937518,11.355153 C 81.734286,10.025002 80.351543,8.2306481 78.375000,8.1875000 z "
         id="path4414" />
      <path
         style="opacity:0.20000000;fill:#000000;fill-opacity:1.0000000"
         d="M 78.250000,7.4687500 C 73.355036,8.8509975 76.779529,14.345186 70.711890,13.477197 C 65.817117,15.592149 71.770725,19.860792 71.550375,21.214510 C 66.713382,25.080405 74.950184,30.504932 78.093750,26.656250 C 82.278945,31.887342 72.391379,30.828548 70.250000,34.062500 C 62.820578,40.031004 56.312554,48.110235 56.343872,58.093277 C 54.562083,60.296057 48.135288,55.652098 46.161351,60.440932 C 42.463899,62.739820 43.286533,72.249440 37.929043,67.417254 C 32.579872,65.962700 30.652441,75.168497 36.250000,76.343750 C 30.614896,76.939979 31.822345,85.083950 37.311042,84.335225 C 39.690737,84.360713 37.175520,91.279806 42.093750,90.718750 C 46.224858,89.389094 46.422257,88.220808 49.781250,92.000000 C 56.278346,94.564360 57.404535,84.349981 53.656250,80.937500 C 53.304611,75.686140 61.250393,85.071069 60.226550,88.199494 C 60.963920,98.759210 67.604695,107.89345 76.971409,112.53253 C 82.325658,115.14661 89.096033,119.80972 85.531250,126.65625 C 79.770202,137.29963 66.028809,142.10794 54.571133,141.15885 C 46.720650,138.09152 37.037952,132.88291 36.205633,123.50399 C 35.155519,117.22741 28.665252,119.40366 30.437500,125.53125 C 31.296485,142.34214 48.495800,154.45921 64.683505,152.01891 C 79.350029,151.29885 95.714208,145.34589 101.91267,130.88479 C 107.76757,118.26786 103.43662,100.42977 89.453541,95.336146 C 85.290640,93.450309 76.394542,89.763419 80.933168,84.351879 C 85.317531,82.669970 88.535510,78.357118 92.562500,76.687500 C 95.134240,81.171750 92.760421,84.725119 90.504089,88.367074 C 88.478633,93.717447 95.737902,95.963162 98.451543,91.600799 C 98.799768,96.924005 109.58828,98.021207 108.87500,91.500000 C 107.59200,88.862337 116.10541,93.343206 116.81250,88.218750 C 118.42997,84.190180 112.47644,82.687056 110.75000,81.343750 C 116.93552,79.623563 114.09816,71.210700 108.34375,72.375000 C 103.74482,74.831778 101.50320,74.009769 99.625000,68.781250 C 94.932630,63.388815 95.378332,64.707226 101.84901,65.989499 C 105.98672,66.656035 107.20185,74.078133 112.60943,72.136709 C 115.20233,70.014280 120.84226,72.704546 120.79874,66.723833 C 119.14844,63.741767 128.73442,60.899680 121.90625,57.781250 C 117.81986,59.615019 114.41716,50.860116 118.43750,52.656250 C 125.70029,49.530742 134.75634,47.921145 139.96875,41.531250 C 144.30239,34.117845 136.86748,27.099512 130.36740,24.574323 C 123.60201,20.953246 114.93749,16.304441 107.93819,22.028353 C 103.05579,26.623568 97.993680,19.547522 92.441516,20.660473 C 84.030779,20.393398 95.405402,16.331155 91.912644,12.474064 C 90.317596,9.0629359 85.769849,9.5921198 83.562500,10.906250 C 82.174431,9.4053013 80.546162,7.2879913 78.250000,7.4687500 z M 111.81250,52.312500 C 109.69855,54.112184 102.96383,57.141719 106.98830,52.320300 C 108.59951,52.243507 110.21445,51.908765 111.81250,52.312500 z M 92.500000,59.468750 C 98.771056,64.595425 89.597454,64.658945 90.987728,60.645212 C 91.390293,60.429136 92.484903,57.158854 92.500000,59.468750 z "
         id="path4419" />
    </g>
    <path
       style="fill:url(#linearGradient3581);fill-opacity:1.0"
       d="M 118.06814,20.745674 C 116.70958,20.346771 115.31178,21.022793 113.82511,21.085194 C 108.76342,21.297647 106.34417,27.771805 101.24118,24.488719 C 94.769889,20.410319 91.142632,23.922870 87.456214,20.476791 C 84.054064,18.541856 93.726096,16.045591 90.424546,12.946046 C 88.945021,10.591292 84.919131,10.110422 83.060332,14.826817 C 83.552326,10.143374 76.091889,5.8638390 76.512991,11.916794 C 78.495250,15.965755 77.589377,14.781891 73.135844,14.098521 C 66.418943,15.856060 73.248458,20.173907 76.178325,20.404339 C 73.255104,19.866752 67.680281,25.924711 75.685868,26.445500 C 79.773761,21.421552 83.285343,31.601521 78.430978,32.037547 C 72.881325,32.672925 68.950203,37.049555 65.304554,40.776599 C 59.749239,46.455945 58.292823,51.280942 58.089566,57.294838 C 57.898268,62.954851 54.356663,59.634289 50.943539,59.509274 C 46.688300,58.995029 43.530670,67.361839 42.434515,71.241489 C 37.418724,68.712621 36.234248,67.389188 34.621963,70.500232 C 32.018016,75.524788 42.253343,75.178002 38.417553,77.421541 C 31.107602,77.961281 32.777702,85.092833 41.754072,82.306150 C 36.218337,88.925969 43.645293,91.242816 45.202204,87.328736 C 46.458959,83.757333 47.219068,87.170711 48.236712,88.950713 C 53.836111,95.059740 56.419009,86.196900 52.264138,81.506123 C 49.907533,76.433913 55.210015,76.535066 58.244161,80.022084 C 62.046634,84.392100 61.498441,88.915172 62.932320,94.167321 C 67.047299,111.72704 87.814311,111.65703 87.961927,121.49674 C 88.214232,138.31473 62.273630,143.58096 56.429963,143.22791 C 50.972464,142.89819 41.185521,136.06689 37.036266,131.19997 C 34.294412,127.98388 35.957153,120.87772 32.509991,121.09624 C 30.764367,127.19032 33.266044,133.72989 36.786994,138.83015 C 51.958088,160.80618 87.049059,146.67326 91.867486,141.65449 C 95.399299,137.97583 101.69710,132.80844 102.67189,122.44162 C 103.43929,114.28037 101.87861,109.35183 99.280928,105.12235 C 91.915090,93.129467 74.402115,96.162130 78.721300,83.861616 C 82.511577,82.160922 85.881303,79.701644 89.026816,77.010548 C 94.958058,70.726877 95.384732,80.449499 95.073238,84.781527 C 89.386669,88.067611 91.581164,95.727640 96.701120,91.195422 C 101.18889,86.203965 98.615968,93.979800 103.11707,94.499550 C 113.13367,95.335210 101.77006,84.603500 108.02924,87.738851 C 112.33558,92.749927 120.86608,86.440167 110.99422,83.369986 C 103.57890,80.702747 114.83615,79.877152 112.74766,75.964424 C 111.38245,72.951143 106.64720,72.964302 102.85976,76.698801 C 99.684993,73.014875 97.534746,65.570236 92.413977,64.537282 C 85.357177,64.805098 90.278611,57.648916 93.245758,55.643131 C 93.224605,57.472353 94.231760,60.810427 96.032115,62.835644 C 97.674903,64.278180 100.59526,63.753036 102.65414,64.627721 C 107.36018,64.214668 105.95761,72.934823 113.98913,70.383706 C 109.23925,61.603729 120.11447,75.819152 119.35003,65.986307 C 116.88113,63.308767 116.80410,64.484296 119.42213,63.297066 C 128.90545,59.772076 116.55441,57.313968 115.08740,59.229001 C 119.36882,52.830283 111.14987,51.282496 108.23831,57.232931 C 106.57415,57.020660 102.60965,56.034042 103.92639,53.620085 C 103.92995,53.613545 103.93066,53.608082 103.93429,53.601536 C 103.95613,53.562235 103.95705,53.530316 103.98172,53.490250 C 106.19868,47.755922 113.87775,52.234732 118.43684,51.147168 C 121.18182,50.492364 131.95616,45.866056 135.32566,43.967727 C 141.14561,40.688853 141.05408,33.638300 136.28764,30.088337 C 131.54671,25.772520 118.52099,20.878647 118.06814,20.745674 z "
       id="path1316"
       sodipodi:nodetypes="cscccccccccssccscccccscssscssssccccccccccccccccccsscsscs" />
    <path
       style="fill:url(#linearGradient3571);fill-opacity:1.0;fill-rule:evenodd;stroke:none;stroke-width:1.0000000px;stroke-linecap:butt;stroke-linejoin:miter;stroke-opacity:1.0000000"
       d="M 125.64103,28.461538 C 125.90770,27.507435 117.14661,25.095319 115.89744,26.410256 C 114.44115,27.943219 112.89152,29.159756 114.72452,30.408921 C 116.06461,31.322176 125.24251,29.887382 125.64103,28.461538 z "
       id="path1383"
       sodipodi:nodetypes="csss" />
    <path
       sodipodi:nodetypes="csss"
       id="path2111"
       d="M 129.91183,44.166141 C 130.17850,45.120244 123.27098,48.632630 121.64093,47.837382 C 121.21552,47.629840 118.71127,45.605944 120.54427,44.356779 C 121.88436,43.443524 129.51331,42.740297 129.91183,44.166141 z "
       style="fill:url(#linearGradient3573);fill-opacity:1.0000000;fill-rule:evenodd;stroke:none;stroke-width:1.0000000px;stroke-linecap:butt;stroke-linejoin:miter;stroke-opacity:1.0000000" />
    <path
       sodipodi:nodetypes="cscccccccccssccscccccscssscssssccccccccccccccccccsscsscs"
       id="path3583"
       d="M 118.06814,20.745674 C 116.70958,20.346771 115.31178,21.022793 113.82511,21.085194 C 108.76342,21.297647 106.34417,27.771805 101.24118,24.488719 C 94.769889,20.410319 91.142632,23.922870 87.456214,20.476791 C 84.054064,18.541856 93.726096,16.045591 90.424546,12.946046 C 88.945021,10.591292 84.919131,10.110422 83.060332,14.826817 C 83.552326,10.143374 76.091889,5.8638390 76.512991,11.916794 C 78.495250,15.965755 77.589377,14.781891 73.135844,14.098521 C 66.418943,15.856060 73.248458,20.173907 76.178325,20.404339 C 73.255104,19.866752 67.680281,25.924711 75.685868,26.445500 C 79.773761,21.421552 83.285343,31.601521 78.430978,32.037547 C 72.881325,32.672925 68.950203,37.049555 65.304554,40.776599 C 59.749239,46.455945 58.292823,51.280942 58.089566,57.294838 C 57.898268,62.954851 54.356663,59.634289 50.943539,59.509274 C 46.688300,58.995029 43.530670,67.361839 42.434515,71.241489 C 37.418724,68.712621 36.234248,67.389188 34.621963,70.500232 C 32.018016,75.524788 42.253343,75.178002 38.417553,77.421541 C 31.107602,77.961281 32.777702,85.092833 41.754072,82.306150 C 36.218337,88.925969 43.645293,91.242816 45.202204,87.328736 C 46.458959,83.757333 47.219068,87.170711 48.236712,88.950713 C 53.836111,95.059740 56.419009,86.196900 52.264138,81.506123 C 49.907533,76.433913 55.210015,76.535066 58.244161,80.022084 C 62.046634,84.392100 61.498441,88.915172 62.932320,94.167321 C 67.047299,111.72704 87.814311,111.65703 87.961927,121.49674 C 88.214232,138.31473 62.273630,143.58096 56.429963,143.22791 C 50.972464,142.89819 41.185521,136.06689 37.036266,131.19997 C 34.294412,127.98388 35.957153,120.87772 32.509991,121.09624 C 30.764367,127.19032 33.266044,133.72989 36.786994,138.83015 C 51.958088,160.80618 87.049059,146.67326 91.867486,141.65449 C 95.399299,137.97583 101.69710,132.80844 102.67189,122.44162 C 103.43929,114.28037 101.87861,109.35183 99.280928,105.12235 C 91.915090,93.129467 74.402115,96.162130 78.721300,83.861616 C 82.511577,82.160922 85.881303,79.701644 89.026816,77.010548 C 94.958058,70.726877 95.384732,80.449499 95.073238,84.781527 C 89.386669,88.067611 91.581164,95.727640 96.701120,91.195422 C 101.18889,86.203965 98.615968,93.979800 103.11707,94.499550 C 113.13367,95.335210 101.77006,84.603500 108.02924,87.738851 C 112.33558,92.749927 120.86608,86.440167 110.99422,83.369986 C 103.57890,80.702747 114.83615,79.877152 112.74766,75.964424 C 111.38245,72.951143 106.64720,72.964302 102.85976,76.698801 C 99.684993,73.014875 97.534746,65.570236 92.413977,64.537282 C 85.357177,64.805098 90.278611,57.648916 93.245758,55.643131 C 93.224605,57.472353 94.231760,60.810427 96.032115,62.835644 C 97.674903,64.278180 100.59526,63.753036 102.65414,64.627721 C 107.36018,64.214668 105.95761,72.934823 113.98913,70.383706 C 109.23925,61.603729 120.11447,75.819152 119.35003,65.986307 C 116.88113,63.308767 116.80410,64.484296 119.42213,63.297066 C 128.90545,59.772076 116.55441,57.313968 115.08740,59.229001 C 119.36882,52.830283 111.14987,51.282496 108.23831,57.232931 C 106.57415,57.020660 102.60965,56.034042 103.92639,53.620085 C 103.92995,53.613545 103.93066,53.608082 103.93429,53.601536 C 103.95613,53.562235 103.95705,53.530316 103.98172,53.490250 C 106.19868,47.755922 113.87775,52.234732 118.43684,51.147168 C 121.18182,50.492364 131.95616,45.866056 135.32566,43.967727 C 141.14561,40.688853 141.05408,33.638300 136.28764,30.088337 C 131.54671,25.772520 118.52099,20.878647 118.06814,20.745674 z "
       style="fill:url(#linearGradient3599);fill-opacity:1.0" />
    <path
       style="fill:url(#linearGradient4426);fill-opacity:1.0"
       d="M 118.06814,20.745674 C 116.70958,20.346771 115.31178,21.022793 113.82511,21.085194 C 108.76342,21.297647 106.34417,27.771805 101.24118,24.488719 C 94.769889,20.410319 91.142632,23.922870 87.456214,20.476791 C 84.054064,18.541856 93.726096,16.045591 90.424546,12.946046 C 88.945021,10.591292 84.919131,10.110422 83.060332,14.826817 C 83.552326,10.143374 76.091889,5.8638390 76.512991,11.916794 C 78.495250,15.965755 77.589377,14.781891 73.135844,14.098521 C 66.418943,15.856060 73.248458,20.173907 76.178325,20.404339 C 73.255104,19.866752 67.680281,25.924711 75.685868,26.445500 C 79.773761,21.421552 83.285343,31.601521 78.430978,32.037547 C 72.881325,32.672925 68.950203,37.049555 65.304554,40.776599 C 59.749239,46.455945 58.292823,51.280942 58.089566,57.294838 C 57.898268,62.954851 54.356663,59.634289 50.943539,59.509274 C 46.688300,58.995029 43.530670,67.361839 42.434515,71.241489 C 37.418724,68.712621 36.234248,67.389188 34.621963,70.500232 C 32.018016,75.524788 42.253343,75.178002 38.417553,77.421541 C 31.107602,77.961281 32.777702,85.092833 41.754072,82.306150 C 36.218337,88.925969 43.645293,91.242816 45.202204,87.328736 C 46.458959,83.757333 47.219068,87.170711 48.236712,88.950713 C 53.836111,95.059740 56.419009,86.196900 52.264138,81.506123 C 49.907533,76.433913 55.210015,76.535066 58.244161,80.022084 C 62.046634,84.392100 61.498441,88.915172 62.932320,94.167321 C 67.047299,111.72704 87.814311,111.65703 87.961927,121.49674 C 88.214232,138.31473 62.273630,143.58096 56.429963,143.22791 C 50.972464,142.89819 41.185521,136.06689 37.036266,131.19997 C 34.294412,127.98388 35.957153,120.87772 32.509991,121.09624 C 30.764367,127.19032 33.266044,133.72989 36.786994,138.83015 C 51.958088,160.80618 87.049059,146.67326 91.867486,141.65449 C 95.399299,137.97583 101.69710,132.80844 102.67189,122.44162 C 103.43929,114.28037 101.87861,109.35183 99.280928,105.12235 C 91.915090,93.129467 74.402115,96.162130 78.721300,83.861616 C 82.511577,82.160922 85.881303,79.701644 89.026816,77.010548 C 94.958058,70.726877 95.384732,80.449499 95.073238,84.781527 C 89.386669,88.067611 91.581164,95.727640 96.701120,91.195422 C 101.18889,86.203965 98.615968,93.979800 103.11707,94.499550 C 113.13367,95.335210 101.77006,84.603500 108.02924,87.738851 C 112.33558,92.749927 120.86608,86.440167 110.99422,83.369986 C 103.57890,80.702747 114.83615,79.877152 112.74766,75.964424 C 111.38245,72.951143 106.64720,72.964302 102.85976,76.698801 C 99.684993,73.014875 97.534746,65.570236 92.413977,64.537282 C 85.357177,64.805098 90.278611,57.648916 93.245758,55.643131 C 93.224605,57.472353 94.231760,60.810427 96.032115,62.835644 C 97.674903,64.278180 100.59526,63.753036 102.65414,64.627721 C 107.36018,64.214668 105.95761,72.934823 113.98913,70.383706 C 109.23925,61.603729 120.11447,75.819152 119.35003,65.986307 C 116.88113,63.308767 116.80410,64.484296 119.42213,63.297066 C 128.90545,59.772076 116.55441,57.313968 115.08740,59.229001 C 119.36882,52.830283 111.14987,51.282496 108.23831,57.232931 C 106.57415,57.020660 102.60965,56.034042 103.92639,53.620085 C 103.92995,53.613545 103.93066,53.608082 103.93429,53.601536 C 103.95613,53.562235 103.95705,53.530316 103.98172,53.490250 C 106.19868,47.755922 113.87775,52.234732 118.43684,51.147168 C 121.18182,50.492364 131.95616,45.866056 135.32566,43.967727 C 141.14561,40.688853 141.05408,33.638300 136.28764,30.088337 C 131.54671,25.772520 118.52099,20.878647 118.06814,20.745674 z "
       id="path4424"
       sodipodi:nodetypes="cscccccccccssccscccccscssscssssccccccccccccccccccsscsscs" />
    <path
       style="fill:url(#linearGradient1343);fill-opacity:1.0000000"
       d="M 78.000000,10.062500 C 80.047242,16.604400 74.861338,15.071808 71.375000,16.500000 C 72.831202,18.958422 82.775473,19.826445 73.593750,22.687500 C 70.816103,27.862571 78.858919,22.001498 80.468750,25.375000 C 83.785387,29.141187 80.430195,33.999410 75.843750,33.843750 C 66.701446,38.548248 58.917987,47.780714 58.812500,58.500000 C 58.192824,65.526797 49.565252,57.050342 47.406250,62.906250 C 43.747878,65.537722 45.157046,75.983577 39.312500,70.843750 C 32.506339,66.654091 35.534207,75.539933 40.031250,75.781250 C 40.640593,78.931939 27.886351,80.782783 38.656250,81.906250 C 47.339390,78.916412 39.953042,83.606319 41.406250,87.937500 C 46.121124,84.620111 47.362969,84.966210 51.656250,89.937500 C 57.487071,86.903511 45.891283,78.393564 53.406250,76.593750 C 63.388872,78.033107 62.073737,90.467121 65.312500,97.500000 C 68.428124,106.44214 78.090985,109.18325 84.781250,114.75000 C 42.665033,62.712736 99.344612,22.913304 138.65625,36.500000 C 138.62224,35.641463 138.45531,34.729566 138.06250,33.718750 C 132.85321,27.151618 123.95339,23.790738 116.15625,21.750000 C 110.07446,21.615820 105.10276,29.774703 99.000000,24.625000 C 95.050472,22.267090 87.653167,24.592511 85.781250,19.500000 C 89.519208,17.107480 91.149447,9.6448253 84.937500,13.843750 C 80.720593,22.547047 83.949032,10.004061 78.000000,10.062500 z "
       id="path1331"
       sodipodi:nodetypes="cccccccccccccccccccccc" />
  </g>
</svg>
