<?xml version="1.0" encoding="UTF-8" standalone="no"?>
<!-- Created with Inkscape (http://www.inkscape.org/) -->

<svg
   xmlns:dc="http://purl.org/dc/elements/1.1/"
   xmlns:cc="http://creativecommons.org/ns#"
   xmlns:rdf="http://www.w3.org/1999/02/22-rdf-syntax-ns#"
   xmlns:svg="http://www.w3.org/2000/svg"
   xmlns="http://www.w3.org/2000/svg"
   xmlns:xlink="http://www.w3.org/1999/xlink"
   xmlns:sodipodi="http://sodipodi.sourceforge.net/DTD/sodipodi-0.dtd"
   xmlns:inkscape="http://www.inkscape.org/namespaces/inkscape"
   width="128"
   height="128"
   id="svg2997"
   version="1.1"
   inkscape:version="0.47 r22583"
   sodipodi:docname="sheep.svg">
  <defs
     id="defs2999">
    <linearGradient
       inkscape:collect="always"
       xlink:href="#linearGradient4240"
       id="linearGradient4246"
       x1="501.12982"
       y1="339.79626"
       x2="471.16116"
       y2="256.13382"
       gradientUnits="userSpaceOnUse"
       gradientTransform="matrix(1.1667328,0,0,1.1667328,-85.758151,-63.599108)" />
    <linearGradient
       id="linearGradient4240">
      <stop
         style="stop-color:#e6e3e1;stop-opacity:1;"
         offset="0"
         id="stop4242" />
      <stop
         style="stop-color:#ffffff;stop-opacity:1;"
         offset="1"
         id="stop4244" />
    </linearGradient>
    <linearGradient
       inkscape:collect="always"
       xlink:href="#linearGradient4256"
       id="linearGradient4276"
       gradientUnits="userSpaceOnUse"
       x1="398.73697"
       y1="301.71112"
       x2="432.45169"
       y2="344.16672"
       gradientTransform="matrix(1.1667328,0,0,1.1667328,-85.758151,-63.599108)" />
    <linearGradient
       id="linearGradient4256">
      <stop
         style="stop-color:#6e4527;stop-opacity:1;"
         offset="0"
         id="stop4258" />
      <stop
         style="stop-color:#b97443;stop-opacity:1;"
         offset="1"
         id="stop4260" />
    </linearGradient>
    <linearGradient
       inkscape:collect="always"
       xlink:href="#linearGradient4256"
       id="linearGradient4294"
       gradientUnits="userSpaceOnUse"
       x1="552.95062"
       y1="300.46243"
       x2="572.30536"
       y2="326.685"
       gradientTransform="matrix(1.1667328,0,0,1.1667328,-85.758151,-63.599108)" />
    <linearGradient
       inkscape:collect="always"
       xlink:href="#linearGradient4256"
       id="linearGradient4282"
       gradientUnits="userSpaceOnUse"
       x1="518.61151"
       y1="367.26752"
       x2="534.84454"
       y2="364.14581"
       gradientTransform="matrix(1.1667328,0,0,1.1667328,-85.758151,-63.599108)" />
    <linearGradient
       inkscape:collect="always"
       xlink:href="#linearGradient4256"
       id="linearGradient4280"
       gradientUnits="userSpaceOnUse"
       x1="526.72803"
       y1="368.5162"
       x2="558.56976"
       y2="359.15103"
       gradientTransform="matrix(1.1667328,0,0,1.1667328,-85.758151,-63.599108)" />
    <linearGradient
       inkscape:collect="always"
       xlink:href="#linearGradient4256"
       id="linearGradient4284"
       gradientUnits="userSpaceOnUse"
       x1="456.6683"
       y1="372.92188"
       x2="469.75043"
       y2="372.92188"
       gradientTransform="matrix(1.1667328,0,0,1.1667328,-85.758151,-63.599108)" />
    <linearGradient
       inkscape:collect="always"
       xlink:href="#linearGradient4256"
       id="linearGradient4278"
       gradientUnits="userSpaceOnUse"
       x1="428.7056"
       y1="367.26752"
       x2="454.30383"
       y2="374.7597"
       gradientTransform="matrix(1.1667328,0,0,1.1667328,-85.758151,-63.599108)" />
  </defs>
  <sodipodi:namedview
     id="base"
     pagecolor="#ffffff"
     bordercolor="#666666"
     borderopacity="1.0"
     inkscape:pageopacity="0.0"
     inkscape:pageshadow="2"
     inkscape:zoom="3.9921875"
     inkscape:cx="64"
     inkscape:cy="64"
     inkscape:document-units="px"
     inkscape:current-layer="g4232"
     showgrid="false"
     inkscape:window-width="1013"
     inkscape:window-height="734"
     inkscape:window-x="285"
     inkscape:window-y="117"
     inkscape:window-maximized="0" />
  <metadata
     id="metadata3002">
    <rdf:RDF>
      <cc:Work
         rdf:about="">
        <dc:format>image/svg+xml</dc:format>
        <dc:type
           rdf:resource="http://purl.org/dc/dcmitype/StillImage" />
        <dc:title></dc:title>
      </cc:Work>
    </rdf:RDF>
  </metadata>
  <g
     inkscape:label="Layer 1"
     inkscape:groupmode="layer"
     id="layer1"
     transform="translate(0,-924.36218)">
    <g
       id="g4232"
       transform="matrix(0.56177396,0.06089917,-0.06089917,0.56177396,-183.08967,774.00306)">
      <path
         id="path4174"
         d="m 481.52924,255.4294 c -8.66186,0.33825 -16.56083,5.59008 -21.32934,12.76114 1.65066,0.3678 1.41777,1.19581 0.98443,2.36993 -0.2646,0.84723 -2.34386,-1.17692 -2.77099,-1.7501 -2.60244,-4.36192 -8.22015,-4.51158 -12.68822,-5.46906 -5.30539,-0.33085 -9.42623,4.10961 -13.23513,7.14624 -3.01661,2.2839 -3.20181,6.72345 -0.36477,9.20603 2.90228,2.91535 0.33311,1.87501 -2.29683,0.8935 -3.99186,-1.12756 -8.41966,-0.7851 -12.50592,-0.32814 -5.31454,0.99731 -5.19448,7.56761 -3.42728,11.48502 3.24285,0.34976 6.6726,0.4662 9.26095,2.66161 5.59924,-4.31144 12.93254,-7.96315 19.94383,-5.35967 3.83928,0.64333 8.1295,4.76633 5.68783,8.85987 -2.71273,4.1987 -7.4772,8.48776 -5.72429,14.0008 1.04122,10.58457 -6.60132,19.34566 -14.14663,25.70458 -5.77095,2.53023 -12.52274,2.2377 -17.79268,6.01597 -1.35937,1.00891 -1.27161,4.74473 -1.55217,7.18232 5.7e-4,9.45768 10.20995,15.88617 19.08376,13.91867 7.76929,-1.06545 13.65111,-6.82386 19.11111,-12.05881 -1.03368,-0.4958 -1.91912,-3.20313 -0.29168,-1.60426 5.36316,7.14424 14.12145,11.85726 23.26174,11.30272 5.6871,0.2255 11.67279,-3.08366 13.49035,-8.45881 -0.71997,-1.8954 -0.24033,-3.35026 0.98443,-0.69275 1.9249,3.74007 4.57918,7.61315 9.22448,7.69314 10.58453,0.83647 20.70404,-6.45561 25.08475,-15.78734 -0.3583,-1.73792 0.23417,-3.99017 1.7501,-1.3855 6.58199,7.52124 18.49977,9.67745 27.05363,4.26586 7.18909,-4.16448 12.01136,-11.72851 13.85494,-19.76153 6.5231,-5.05239 11.42178,-14.40086 7.40147,-22.42315 -1.57508,-2.99791 -4.52582,-7.55786 -8.45882,-5.14092 -2.71255,-0.17513 -5.36786,-2.99157 -8.48258,-3.00142 -2.22889,-0.40842 -6.80108,-1.16384 -5.0056,-4.29718 2.01118,-7.65916 -1.97015,-16.94062 -9.84647,-19.24457 -9.11033,-3.16145 -19.58597,-0.0864 -27.163,4.92215 -0.44867,-3.83073 4.11428,-5.38408 7.0004,-6.52641 -5.46203,-4.88762 -10.81927,-10.30041 -17.14398,-13.89038 -6.08516,-2.04545 -12.45134,-3.67032 -18.95182,-3.20955 z"
         style="fill:url(#linearGradient4246);fill-opacity:1;fill-rule:nonzero;stroke:none" />
      <path
         style="fill:url(#linearGradient4276);fill-opacity:1;fill-rule:nonzero;stroke:none"
         d="m 438.6518,289.99386 c -6.80326,0.5847 -12.50145,5.68249 -18.99586,6.8181 1.05425,-0.82875 2.23083,-1.56095 -0.002,-2.5605 -6.89864,-3.91739 -15.55647,-0.69532 -21.94656,2.9251 -10.62339,7.09695 -20.82514,17.08451 -23.55342,30.00691 -1.08458,6.34328 1.79636,13.6496 7.87545,16.1155 5.01591,1.3567 10.63118,1.36182 15.71443,0.5469 4.49429,-4.95612 9.23797,-9.95178 12.433,-15.75088 1.10121,0.83636 -1.04338,3.83754 -1.31257,5.25029 -1.61136,3.73562 -4.0061,7.02595 -6.45349,10.24537 6.71025,-1.31062 13.58159,-2.75698 19.32401,-6.63578 3.44872,0.97664 7.98479,1.76284 9.99015,-2.07825 5.07496,-6.14064 11.07846,-13.47274 10.24537,-21.87624 -0.34218,-1.66818 -1.34245,-3.19936 -2.77099,-4.12003 3.08226,-4.48033 7.18924,-10.33059 4.95861,-15.96965 -1.06418,-1.88022 -3.35587,-2.98468 -5.50552,-2.91684 z"
         id="path4274" />
      <path
         style="fill:url(#linearGradient4294);fill-opacity:1;fill-rule:nonzero;stroke:none"
         d="m 579.13374,292.83778 c -5.64812,1.31672 -10.36121,4.84278 -15.71444,6.96393 3.31086,1.5463 7.13895,2.81267 9.15156,6.05243 5.0944,-1.83703 8.80531,-7.05523 7.29208,-12.54238 -0.002,-0.67749 -0.0714,-0.84752 -0.7292,-0.47398 z"
         id="path4272" />
      <path
         style="fill:url(#linearGradient4282);fill-opacity:1;fill-rule:nonzero;stroke:none"
         d="m 519.73974,345.15846 c 0.10559,2.17943 -3.32333,5.75214 -1.09381,6.74517 2.2854,0.45469 2.65456,2.22484 2.17437,4.41155 -0.14639,8.08105 1.41984,16.09369 4.46142,23.55358 3.33876,-2.2786 9.87234,-1.87931 9.95369,-7.07332 -2.00159,-6.79729 2.93664,-13.95606 0.43753,-20.78244 -5.58081,-1.34628 -12.64206,-2.66802 -15.60505,-8.20359 -0.10933,0.44969 -0.21877,0.89936 -0.32815,1.34905 z"
         id="path4270" />
      <path
         style="fill:url(#linearGradient4280);fill-opacity:1;fill-rule:nonzero;stroke:none"
         d="m 552.7364,348.40343 c -4.34868,2.54828 -9.56113,3.24362 -14.54769,2.47931 1.57201,6.74708 5.03024,13.10971 6.19826,19.94383 4.96209,-1.94489 10.13401,-3.55092 15.24045,-4.81277 0.70052,-5.77944 -4.15524,-10.47809 -5.63522,-15.78749 -0.54528,-0.57424 0.0189,-3.00317 -1.2558,-1.82288 z"
         id="path4268" />
      <path
         style="fill:url(#linearGradient4284);fill-opacity:1;fill-rule:nonzero;stroke:none"
         d="m 447.40231,353.69019 c -1.04401,2.4142 0.53304,4.84108 0.98443,6.92747 -0.6055,9.89902 0.78977,19.80242 0.51044,29.71523 4.3757,-0.41474 8.65397,-1.45585 12.94344,-2.36993 0.53642,-8.31162 1.01287,-16.79761 -0.91151,-24.97537 -5.36398,-1.97012 -9.70394,-5.83627 -13.23512,-10.31829 l -0.16027,0.56091 -0.13141,0.45998 z"
         id="path4266" />
      <path
         style="fill:url(#linearGradient4278);fill-opacity:1;fill-rule:nonzero;stroke:none"
         d="m 444.41255,359.01341 c -3.87645,5.10359 -9.96042,8.38326 -16.40719,8.24005 -2.85563,4.487 -8.55518,10.02237 -4.88568,15.60505 1.65935,2.68999 5.75888,0.93241 8.45881,2.00532 3.12583,0.37917 5.90772,1.6894 8.64112,3.24498 1.70441,-7.45753 4.02251,-14.97241 6.00115,-22.31151 -0.34251,-2.68214 -1.07798,-5.31908 -0.78732,-8.06001 -0.3403,0.42537 -0.68059,0.85075 -1.02089,1.27612 z"
         id="path4172" />
      <path
         id="path4168"
         d="m 434.76206,293.5842 c -2.37525,-0.0584 -4.91385,1.27408 -6.72995,3.40944 l 0.32613,0.47437 c 2.95933,-1.76692 7.46983,-2.05718 8.39019,1.24517 -0.33899,1.83607 -0.33442,1.37867 -1.21555,3.02404 l -0.17788,0.5633 c 0.87231,-1.66699 6.66947,-1.26674 4.20992,-5.75159 -1.22914,-2.03687 -2.95544,-2.9193 -4.80286,-2.96473 z"
         style="fill:#000000;fill-opacity:1;fill-rule:nonzero;stroke:none" />
      <path
         id="path4166"
         d="m 406.83427,304.7909 c -3.09606,0.31567 -5.26568,2.91915 -2.84616,5.69229 2.34626,1.57382 5.23089,1.80245 7.8269,2.81649 2.92827,0.35365 3.23144,-3.44461 3.82451,-4.80287 -1.64413,-2.25977 -5.5152,-3.37792 -8.80525,-3.70591 z"
         style="fill:#000000;fill-opacity:1;fill-rule:nonzero;stroke:none" />
      <path
         id="path4156"
         d="m 561.34106,368.1285 c -5.72177,1.2819 -11.73206,2.94454 -16.69886,5.50553 -2.19734,2.25672 -1.04388,6.05172 -0.51045,8.85987 3.50638,0.84428 5.71738,-2.18153 6.74517,-5.06799 0.68633,-1.67207 4.24142,-2.25647 3.82834,0.3646 0.75819,2.69439 3.90044,6.08657 6.67226,3.57312 4.0056,-2.03022 2.14982,-7.07913 0.94797,-10.20891 -0.8451,-0.7362 0.52777,-3.83682 -0.98443,-3.02622 z m -24.72016,8.53174 c -4.48493,1.70711 -8.95254,3.45928 -13.3445,5.39614 1.0794,4.14896 1.0878,9.1972 3.20851,12.72468 4.28968,0.94869 4.50622,-4.48838 5.17738,-7.25562 0.9424,-3.06579 4.95264,-0.71261 6.48995,0.69274 1.75485,2.31345 4.72419,-0.48337 3.17205,-2.62514 -1.10246,-3.13099 -3.23583,-5.89769 -4.12002,-9.15156 l -0.54622,0.20483 -0.0371,0.0138 z m -108.90722,9.26094 c -4.27329,1.15988 -7.92368,4.4562 -10.13599,8.20359 -1.29562,1.57056 -0.12575,4.4412 2.00532,3.24498 2.39464,-0.93207 4.3489,-2.84465 5.87013,-4.81277 2.22979,0.32091 5.54793,1.29695 5.03153,4.19294 1.63979,3.22697 7.036,2.57845 7.43792,-1.20319 0.56375,-2.79438 -0.3556,-5.68718 0.40107,-8.45881 -3.43741,-0.95331 -7.07156,-1.17521 -10.60998,-1.16674 z m 35.65828,4.33879 c -4.77054,0.6983 -9.77615,2.69136 -14.43832,1.20319 -2.45746,0.0814 -2.07253,1.0105 -0.61983,2.55223 0.6635,1.79478 0.33842,3.76784 -1.64071,4.33879 -2.14597,1.15097 -3.56904,5.79964 -0.58338,6.59933 3.59474,-1.72367 5.37481,-6.2165 9.40679,-7.1827 2.00457,1.76763 3.36097,5.77671 6.34411,5.65137 2.14817,-2.51826 0.72526,-6.58109 1.71364,-9.62555 -0.35709,-0.92671 1.7312,-4.31662 -0.1823,-3.53666 z"
         style="fill:#28170b;fill-opacity:1;fill-rule:nonzero;stroke:none" />
      <path
         sodipodi:nodetypes="ccccccccccccccccccccccccccccccccccccccccccccccccccccccccccccccccccccccccccccccccccccccccccccccccccscccccccccccccccccccccccccccccccccccccccccccccccccccccccccccccccccccccccccccccccccccccccccccccc"
         id="path4006"
         d="m 483.68017,254.15323 c -10.01108,-0.0325 -19.11437,3.02262 -27.51273,11.23634 -4.29568,-2.38695 -9.28945,-3.71016 -14.20107,-2.84614 -6.13449,0.98472 -12.18074,5.17186 -13.90461,11.35494 -0.7691,1.19502 0.21439,4.16707 -0.94872,4.15063 -4.79994,-1.22681 -10.63422,-1.08035 -14.29002,2.72755 -2.71019,2.71312 -4.13222,6.79595 -3.2612,10.58409 -6.10865,0.39481 -11.80561,3.01755 -16.78039,6.46312 -12.00402,7.00837 -36.47283,33.81177 -14.94228,44.58962 6.00502,3.28122 7.89691,3.60193 12.24437,3.85414 5.82524,0.64339 11.73855,0.2962 17.49193,-0.77082 -0.77359,2.60063 -0.90097,5.51773 -0.0889,8.15301 2.76186,7.50235 10.39339,11.32397 17.75877,13.16342 -2.97177,5.22309 -5.18435,10.89381 -6.64101,16.72111 -0.91019,1.5071 0.40438,1.82627 1.54166,2.22355 -0.2404,1.32281 -1.62727,2.95137 -2.40144,4.32851 -1.48484,2.38584 -3.32502,4.55849 -4.71393,6.99677 -0.97486,2.86122 3.51792,2.97538 5.30688,3.85417 2.76389,-0.36146 4.34061,-3.38664 6.87819,-4.47676 2.37445,1.60179 5.05437,3.62547 8.56807,4.00239 3.20059,0.0105 6.31748,-1.96578 7.38219,-5.04005 0.89803,-2.15555 1.20997,-4.48621 1.8085,-6.72995 -1.88583,-0.65374 -0.93469,-2.34393 -0.32613,-1.86777 0.37286,-1.66256 3.28532,-16.27469 3.61698,-16.98794 0.0557,2.94027 -1.84154,18.65268 -2.10496,21.58326 0.24791,0.10221 0.45564,0.18846 0.62259,0.29649 -1.01832,2.93999 -2.47089,8.08078 -4.29886,10.5841 -1.40582,6.41257 7.2967,3.94088 10.43587,2.25319 1.61992,-0.62418 3.79299,-3.01244 5.01039,-2.54967 1.11067,2.49212 4.14611,2.84221 6.37419,3.79486 2.54962,-0.10722 2.25622,-3.41774 3.23156,-5.12899 0.75133,-2.15705 0.25196,-6.17868 0.32611,-8.95349 -1.79939,-0.78328 4.11121,-0.90874 0.6226,-3.46875 0.33746,-6.85947 -1.89846,-16.78968 -3.70591,-23.9847 8.74335,3.15048 16.56597,-0.18247 22.11691,-7.56007 7.91163,10.79612 20.72496,9.45972 30.65535,2.22355 1.34157,-1.16558 2.65196,-4.65574 3.40944,-4.74357 2.10546,8.93835 -0.0349,18.30783 2.28284,27.21625 0.0793,0.0286 0.15791,0.0603 0.23719,0.089 0.0571,4.53523 -0.54409,10.68647 1.03765,13.37096 1.24775,2.07055 3.80529,2.50993 5.84053,3.46873 2.5184,0.84043 3.53147,-2.23865 4.59534,-3.8838 1.00031,-1.8486 -0.60096,-6.12502 0.77083,-7.73796 1.84485,1.69991 6.62787,5.56804 9.10174,6.07771 2.88324,-0.1695 1.36997,-3.65896 0.88941,-5.36616 -0.66584,-1.70019 -4.14058,-8.54562 -4.71392,-10.99917 0.6111,-0.81446 0.67561,-2.17947 0.26682,-3.26122 -3.60384,-1.96082 -1.45706,-15.59174 -1.33413,-18.3517 0.7746,3.70637 2.15536,17.68966 2.60897,21.43503 -3.6674,3.30834 10.59491,11.24817 7.41183,7.35254 1.95563,1.57261 2.13318,-2.94325 3.46874,-3.85415 1.33489,-1.24337 3.38722,1.69566 5.18829,1.92708 2.10543,0.92632 4.22958,1.87863 6.25559,2.93508 2.90451,0.65755 1.79853,-2.93205 2.34214,-4.59534 0.12759,-2.91471 -0.15844,-5.94504 1.15625,-8.65702 0.83922,-2.14276 -0.32561,-2.40941 -1.63061,-4.65463 -3.30007,-1.91342 -1.94544,-2.85229 -2.2532,-3.4391 -1.70441,-3.76268 -6.69372,-11.09452 -8.3902,-15.00154 5.36888,-3.95111 7.40438,-11.1373 9.19069,-17.25476 0.0589,0.0241 0.10955,0.0697 0.17787,0.0889 8.68908,-4.62043 8.99291,-16.98886 13.04484,-21.96867 2.2926,-3.22881 5.05011,-12.84819 6.19629,-16.66181 -0.95087,-0.38359 -1.2038,-0.35777 -1.51201,-0.35578 -0.19789,-0.28288 -0.23264,-0.48009 -1.18589,-1.03765 -6.57946,0.71083 -12.79794,3.21806 -18.91501,5.60335 -7.4153,1.37572 -8.40028,0.73151 -8.47915,-5.129 0.38437,-4.41797 -1.08258,-10.68491 -4.38779,-13.72671 -4.59765,-4.46938 -10.89154,-4.82735 -16.89898,-6.61136 -2.67361,-0.9719 -7.54455,-0.81966 -11.97753,0.26683 -0.25163,-0.97782 -1.0598,-2.33999 -2.84616,-4.18028 -3.67982,-4.75087 -8.34484,-8.07006 -13.75636,-10.16903 -6.71768,-1.80168 -13.05658,-2.94527 -19.06323,-2.96474 z m -0.71153,1.77884 c 6.63398,-0.14465 12.98683,1.79461 17.87734,3.4391 2.18065,1.10525 12.21682,9.44795 15.7131,12.95588 -4.49002,1.62355 -7.75314,4.30501 -6.22595,7.82691 13.09103,-10.11803 37.95308,-10.40977 37.14812,10.55445 0.44359,1.72923 -1.88131,4.66309 -0.20752,5.57369 2.72015,2.23933 6.50454,1.66367 9.27961,3.14263 1.40886,0.6955 2.71648,1.58171 4.18028,2.13461 1.73285,-0.92684 3.68539,-1.72126 5.15864,0.20753 5.84778,5.55688 7.71936,16.21427 -4.5064,26.41577 0.0626,0.0248 0.12339,0.0307 0.17788,0.0593 -4.73907,20.5109 -27.1443,31.18865 -42.03993,12.68907 -0.30444,1.49321 -0.96929,2.40359 -0.5633,3.97272 -3.99459,9.86912 -18.69118,18.95345 -28.25392,14.31968 -3.25985,-1.42238 -5.25024,-8.70675 -7.38219,-8.53844 -0.1064,1.15156 0.0385,2.2877 0.35577,3.3798 -4.26393,8.34695 -11.88776,8.58808 -21.01996,6.90783 -5.40699,-1.6809 -10.60283,-4.78695 -13.87496,-9.5168 -2.81544,-2.71784 -2.0118,-1.21476 -3.29086,-0.85977 0.47943,0.70858 0.96237,1.36258 1.45272,2.01602 -6.26015,6.02095 -12.35445,11.7982 -21.43503,11.77001 -7.22137,0.28325 -13.91753,-4.65214 -15.20908,-11.59212 -0.53224,-1.45571 0.37444,-5.57617 0.41506,-7.97514 0.94769,-0.21679 1.64928,-0.46866 1.21554,-1.00801 2.94164,-2.09058 7.05781,-2.83591 9.87257,-3.49838 2.75984,-0.5701 6.54983,-1.65496 7.94549,-2.46073 14.8248,-13.32974 14.67084,-22.03134 13.54883,-28.58005 -0.46425,-2.70963 3.80291,-7.98482 6.04806,-11.11775 3.70846,-8.24998 -8.1801,-11.35651 -14.34932,-10.34693 -4.37259,0.9313 -8.22388,3.3721 -11.85893,5.87019 -2.48911,-1.93422 -5.77022,-2.19419 -8.80526,-2.46073 -3.31563,-9.9921 2.56642,-11.10306 8.36055,-10.6434 5.59982,-0.55212 7.08311,0.78674 12.60012,2.37178 -4.05689,-6.24415 -10.54457,-8.1948 6.25559,-18.32205 3.61588,-1.69323 7.3783,-0.009 11.29564,0.88942 6.03021,1.63464 3.54984,4.76449 9.60573,6.46312 -2.07985,-2.54673 1.47679,-2.39687 -1.36378,-3.97275 6.48695,-9.04601 14.36123,-11.90253 21.87975,-12.06647 z m -43.75948,34.59845 c 9.94034,1.59511 2.77889,14.11499 -0.88942,18.49995 8.62843,4.80178 -1.80921,20.5965 -9.13138,27.66097 -1.93804,1.13568 -5.5716,-0.005 -7.56007,-0.35578 -5.28371,3.64915 -11.60938,5.144 -17.81806,6.37418 3.39486,-4.369 6.49872,-9.79687 7.53042,-15.12015 -1.53088,-0.62287 0.0169,0.37252 -1.48236,-0.26681 -2.95836,5.95145 -7.98138,11.01532 -12.54083,16.12815 -1.40655,0.12392 -2.76463,0.23704 -4.03204,0.32611 -4.23421,0.002 -8.64277,0.0525 -12.62975,-1.5713 -16.03642,-12.99527 3.11531,-35.17192 15.68343,-43.37406 5.33531,-4.05382 18.02971,-8.74203 24.04399,-3.29086 -1.41376,0.69391 -2.27219,1.3818 -0.47435,2.04567 5.60627,-1.37272 13.84396,-7.02421 19.30042,-7.05607 z m 140.05404,2.84614 c 1.55974,8.04819 -4.26957,10.54128 -6.49275,11.7107 -1.84287,-2.73308 -5.05227,-3.93675 -7.91585,-5.27722 5.43299,-2.33237 9.13557,-5.16056 14.4086,-6.43348 z m -144.50114,0.20754 c -2.37525,-0.0584 -4.91385,1.27408 -6.72995,3.40944 l 0.32613,0.47437 c 2.95933,-1.76692 7.46983,-2.05718 8.39019,1.24517 -0.33899,1.83607 -0.33442,1.37867 -1.21555,3.02404 l -0.17788,0.5633 c 0.87231,-1.66699 6.66947,-1.26674 4.20992,-5.75159 -1.22914,-2.03687 -2.95544,-2.9193 -4.80286,-2.96473 z m -27.92779,11.2067 c -3.09606,0.31567 -5.26568,2.91915 -2.84616,5.69229 2.34626,1.57382 5.23089,1.80245 7.8269,2.81649 2.92827,0.35365 3.23144,-3.44461 3.82451,-4.80287 -1.64413,-2.25977 -5.5152,-3.37792 -8.80525,-3.70591 z m 113.46036,40.52791 c 2.3588,3.85213 9.54961,6.08743 14.91263,7.2043 1.88716,5.75678 -1.45569,12.43185 -1.15625,18.23313 2.90168,6.21319 -5.45005,6.43497 -8.47914,8.24196 -3.55964,-8.89745 -4.69144,-18.29393 -3.97275,-26.32685 -1.63485,-0.57734 -1.59927,-0.98365 -3.23155,-1.54167 -0.15063,0.53858 1.1687,-2.95926 1.92706,-5.81087 z m 32.73068,3.58733 c 1.15853,5.30116 7.00689,13.01946 6.07771,16.63216 -4.05426,0.97258 -10.40685,2.94246 -14.26038,4.47674 -0.68678,-4.59663 -4.57964,-13.27172 -5.87018,-18.44064 4.81966,0.60096 9.8636,-0.21296 14.05285,-2.66826 z m -105.07018,4.98076 c 3.66812,4.53981 7.70106,7.64112 12.48152,9.54644 1.77585,7.36005 1.37384,16.71561 0.85979,24.044 -3.91586,0.81622 -7.817,1.75692 -11.79965,2.1939 0.0105,-7.01116 -0.31683,-14.02052 -0.68189,-21.01996 -0.0986,-3.0378 -0.0859,-6.07963 0.26682,-9.10175 -1.1396,-0.68048 -1.75934,-3.76549 -1.12659,-5.66263 z m -3.11298,5.48475 c -0.0765,3.76997 0.59129,3.29598 0.83013,7.05607 -0.79354,1.07057 -5.25528,18.14645 -5.87017,20.84208 -0.92681,-0.43785 -1.84277,-0.90402 -2.69792,-1.48236 -4.03383,-1.57991 -8.40881,-1.99084 -12.68905,-2.19391 -5.07066,-5.5396 1.03921,-11.1362 3.91345,-15.74274 7.1495,-0.25414 12.02035,-2.92809 16.51356,-8.47914 z m 116.60301,9.33892 c -0.54319,4.37718 5.80542,10.08876 -2.34214,13.07447 -2.72352,-0.87046 -3.92359,-3.53754 -4.29887,-6.16664 -6.88084,-1.41161 -3.41205,6.88 -10.19868,6.34452 -2.49725,-10.80366 3.10971,-7.65016 3.29084,-9.2796 3.59516,-1.44813 9.73956,-3.19242 13.54885,-3.97275 z m -24.6073,8.50878 c 0.98101,3.7857 7.30362,11.85012 2.40144,11.17706 -1.79388,-1.62407 -4.50044,-3.58263 -7.02643,-2.72757 -2.70132,2.2072 -0.58852,9.47546 -5.60334,8.53845 -1.1189,-2.90445 -2.01155,-8.5303 -2.66827,-11.79965 7.97443,-3.45499 9.70481,-3.90743 12.8966,-5.18829 z m -108.98363,9.24997 c 3.28377,0.0318 6.58902,0.26669 9.78361,1.06731 -0.80552,3.28134 1.24059,8.70053 -2.10496,10.43586 -1.23292,0.94383 -5.20951,-0.48985 -4.50638,-2.34214 -0.11003,-2.79323 -3.72845,-3.14796 -5.84053,-3.73557 -3.08428,4.55937 -10.23489,8.22369 -6.49278,1.21555 2.69178,-2.87855 5.34407,-5.72416 9.16104,-6.64101 z m 35.63611,4.35816 c -2.32784,10.55239 1.05819,17.71056 -7.67867,6.40382 -3.01228,-0.54115 -7.19087,6.01605 -9.81327,7.14502 -0.82007,0.31226 -2.81189,-3.94006 2.84615,-6.67065 0.55209,-1.46426 0.46895,-4.2814 -1.1266,-5.39582 0.91922,-0.48388 2.54079,-0.26921 3.35014,0.35577 4.1856,0.0895 8.30005,-1.16306 12.42225,-1.83814 z"
         style="fill:#000000;fill-opacity:1;fill-rule:nonzero;stroke:none" />
    </g>
  </g>
</svg>
