<?xml version="1.0" encoding="UTF-8" standalone="no"?>
<!-- Created with Inkscape (http://www.inkscape.org/) -->

<svg
   xmlns:dc="http://purl.org/dc/elements/1.1/"
   xmlns:cc="http://creativecommons.org/ns#"
   xmlns:rdf="http://www.w3.org/1999/02/22-rdf-syntax-ns#"
   xmlns:svg="http://www.w3.org/2000/svg"
   xmlns="http://www.w3.org/2000/svg"
   xmlns:sodipodi="http://sodipodi.sourceforge.net/DTD/sodipodi-0.dtd"
   xmlns:inkscape="http://www.inkscape.org/namespaces/inkscape"
   width="17.545"
   height="17.547001"
   id="svg8291"
   version="1.1"
   inkscape:version="0.48.3.1 r9886"
   sodipodi:docname="New document 10">
  <defs
     id="defs8293" />
  <sodipodi:namedview
     id="base"
     pagecolor="#ffffff"
     bordercolor="#666666"
     borderopacity="1.0"
     inkscape:pageopacity="0.0"
     inkscape:pageshadow="2"
     inkscape:zoom="44.8"
     inkscape:cx="5.062387"
     inkscape:cy="13.302763"
     inkscape:document-units="px"
     inkscape:current-layer="layer1"
     showgrid="false"
     fit-margin-top="0"
     fit-margin-left="0"
     fit-margin-right="0"
     fit-margin-bottom="0"
     inkscape:window-width="1280"
     inkscape:window-height="741"
     inkscape:window-x="0"
     inkscape:window-y="27"
     inkscape:window-maximized="1" />
  <metadata
     id="metadata8296">
    <rdf:RDF>
      <cc:Work
         rdf:about="">
        <dc:format>image/svg+xml</dc:format>
        <dc:type
           rdf:resource="http://purl.org/dc/dcmitype/StillImage" />
        <dc:title></dc:title>
      </cc:Work>
    </rdf:RDF>
  </metadata>
  <g
     inkscape:label="Layer 1"
     inkscape:groupmode="layer"
     id="layer1"
     transform="translate(-366.2275,-523.58868)">
    <polygon
       points="217.508,252.213 217.479,252.061 217.445,251.917 217.406,251.783 217.363,251.656 217.315,251.538 217.265,251.427 217.209,251.324 217.15,251.228 217.089,251.14 217.025,251.058 216.959,250.983 216.89,250.916 216.819,250.854 216.748,250.799 216.675,250.75 216.602,250.707 216.527,250.669 216.453,250.637 216.379,250.611 216.305,250.589 216.231,250.572 216.159,250.56 216.089,250.552 216.02,250.549 215.952,250.549 215.888,250.554 215.825,250.562 215.766,250.573 215.71,250.588 215.593,250.627 215.479,250.671 215.367,250.719 215.259,250.771 215.051,250.887 214.856,251.012 214.676,251.145 214.509,251.28 214.355,251.416 214.218,251.546 214.146,251.371 214.105,251.291 214.063,251.216 214.021,251.147 213.976,251.082 213.929,251.022 213.881,250.967 213.831,250.917 213.78,250.87 213.729,250.828 213.677,250.79 213.623,250.756 213.569,250.727 213.462,250.678 213.353,250.643 213.244,250.621 213.139,250.612 213.035,250.613 212.937,250.624 212.843,250.644 212.757,250.672 212.678,250.707 212.577,250.761 212.479,250.819 212.293,250.945 212.12,251.083 211.959,251.228 211.812,251.376 211.677,251.525 211.557,251.669 211.45,251.806 211.378,251.632 211.34,251.554 211.299,251.481 211.257,251.415 211.213,251.354 211.168,251.298 211.121,251.247 211.074,251.202 211.025,251.161 210.977,251.125 210.927,251.093 210.877,251.065 210.826,251.042 210.775,251.023 210.724,251.008 210.673,250.996 210.622,250.988 210.522,250.981 210.424,250.987 210.33,251.003 210.24,251.028 210.156,251.062 210.079,251.102 210.01,251.147 209.854,251.274 209.708,251.412 209.573,251.557 209.45,251.706 209.338,251.856 209.236,252.004 209.065,252.28 208.982,252.108 208.938,252.032 208.894,251.962 208.848,251.898 208.801,251.84 208.753,251.788 208.705,251.74 208.656,251.698 208.606,251.661 208.557,251.628 208.507,251.601 208.457,251.577 208.407,251.558 208.357,251.543 208.308,251.532 208.259,251.525 208.21,251.521 208.162,251.521 208.114,251.523 208.023,251.537 207.936,251.561 207.854,251.594 207.779,251.634 207.711,251.681 207.652,251.731 207.526,251.86 207.412,251.997 207.308,252.14 207.215,252.285 207.131,252.429 207.058,252.571 206.936,252.835 206.842,252.688 206.747,252.564 206.698,252.511 206.65,252.463 206.602,252.42 206.553,252.382 206.505,252.349 206.456,252.32 206.407,252.296 206.359,252.276 206.313,252.26 206.265,252.248 206.219,252.24 206.173,252.235 206.128,252.233 206.083,252.235 205.998,252.247 205.917,252.269 205.841,252.3 205.771,252.338 205.708,252.383 205.652,252.432 205.604,252.483 205.509,252.609 205.424,252.741 205.349,252.876 205.281,253.012 205.223,253.147 205.172,253.28 205.09,253.525 204.991,253.403 204.893,253.302 204.795,253.222 204.747,253.188 204.699,253.16 204.652,253.135 204.605,253.115 204.56,253.098 204.515,253.085 204.471,253.076 204.427,253.07 204.384,253.068 204.343,253.068 204.263,253.078 204.188,253.098 204.117,253.127 204.053,253.163 203.994,253.205 203.942,253.252 203.897,253.302 203.86,253.354 203.787,253.48 203.724,253.612 203.67,253.745 203.625,253.878 203.588,254.01 203.558,254.137 203.514,254.369 203.411,254.27 203.311,254.19 203.215,254.128 203.122,254.083 203.077,254.065 203.032,254.052 202.99,254.042 202.948,254.036 202.907,254.032 202.867,254.032 202.792,254.039 202.722,254.056 202.656,254.082 202.597,254.115 202.543,254.154 202.495,254.198 202.453,254.246 202.419,254.295 202.392,254.345 202.352,254.436 202.317,254.528 202.288,254.621 202.264,254.715 202.228,254.899 202.205,255.075 202.193,255.237 202.188,255.379 202.187,255.578 202.188,255.791 202.205,256.016 202.266,256.485 202.397,257.328 202.822,260.37 202.935,261.34 203.017,262.281 203.042,262.723 203.054,263.137 203.05,263.516 203.029,263.853 203.239,263.583 203.268,263.206 203.282,262.81 203.285,262.399 203.278,261.978 203.238,261.123 203.174,260.275 203.01,258.737 202.872,257.625 202.771,256.94 202.716,256.575 202.668,256.201 202.638,255.827 202.631,255.641 202.633,255.458 202.644,255.277 202.663,255.1 202.694,254.927 202.738,254.76 202.755,254.712 202.774,254.669 202.797,254.63 202.823,254.597 202.853,254.57 202.868,254.56 202.886,254.55 202.903,254.543 202.923,254.538 202.942,254.535 202.963,254.533 202.985,254.534 203.008,254.538 203.057,254.551 203.11,254.575 203.168,254.609 203.23,254.654 203.297,254.711 203.369,254.781 203.446,254.864 203.432,255.087 203.427,255.321 203.436,255.797 203.464,256.643 203.521,260.055 203.514,261.14 203.478,262.189 203.445,262.68 203.402,263.138 203.347,263.556 203.278,263.924 203.548,263.656 203.63,263.243 203.7,262.808 203.759,262.356 203.808,261.891 203.88,260.942 203.922,259.999 203.949,258.28 203.949,257.035 203.931,256.266 203.918,255.854 203.916,255.437 203.933,255.02 203.951,254.813 203.979,254.611 204.014,254.414 204.061,254.221 204.118,254.035 204.189,253.856 204.214,253.806 204.24,253.761 204.271,253.722 204.304,253.689 204.339,253.664 204.358,253.653 204.378,253.646 204.398,253.64 204.42,253.637 204.442,253.635 204.465,253.637 204.489,253.641 204.514,253.647 204.565,253.668 204.621,253.7 204.68,253.745 204.742,253.802 204.808,253.874 204.878,253.959 204.951,254.06 204.902,254.306 204.863,254.566 204.807,255.102 204.721,256.058 204.321,259.829 204.166,261.024 203.984,262.176 203.883,262.713 203.773,263.213 203.656,263.666 203.594,263.871 203.53,264.062 203.861,263.804 204.008,263.359 204.145,262.889 204.271,262.398 204.388,261.893 204.596,260.855 204.771,259.821 204.916,258.832 205.034,257.929 205.202,256.556 205.286,255.705 205.328,255.25 205.383,254.789 205.458,254.331 205.506,254.106 205.563,253.887 205.629,253.674 205.706,253.468 205.795,253.271 205.897,253.083 205.931,253.031 205.967,252.985 206.005,252.946 206.046,252.915 206.089,252.891 206.111,252.883 206.134,252.876 206.157,252.873 206.182,252.872 206.206,252.874 206.231,252.878 206.257,252.886 206.283,252.896 206.31,252.909 206.338,252.926 206.394,252.969 206.453,253.025 206.514,253.097 206.577,253.184 206.643,253.287 206.71,253.407 206.624,253.671 206.547,253.95 206.414,254.525 206.3,255.078 206.192,255.552 205.242,259.657 204.91,260.955 204.554,262.2 204.369,262.779 204.182,263.315 203.991,263.798 203.896,264.017 203.799,264.219 204.198,263.979 204.42,263.509 204.634,263.009 204.84,262.484 205.038,261.942 205.407,260.827 205.74,259.71 206.034,258.638 206.286,257.659 206.657,256.167 206.763,255.719 206.865,255.24 206.974,254.744 207.096,254.242 207.165,253.994 207.24,253.748 207.324,253.507 207.417,253.272 207.519,253.046 207.632,252.83 207.757,252.624 207.896,252.431 207.938,252.378 207.984,252.333 208.031,252.295 208.079,252.266 208.104,252.255 208.13,252.246 208.155,252.24 208.181,252.236 208.207,252.235 208.233,252.237 208.26,252.242 208.287,252.25 208.314,252.261 208.341,252.275 208.369,252.293 208.396,252.314 208.452,252.368 208.509,252.437 208.565,252.521 208.623,252.623 208.68,252.742 208.737,252.88 208.608,253.159 208.487,253.456 208.265,254.069 208.064,254.66 207.883,255.166 206.28,259.564 205.737,260.949 205.458,261.625 205.176,262.275 204.894,262.888 204.613,263.454 204.338,263.961 204.202,264.189 204.069,264.398 204.543,264.188 204.852,263.699 205.155,263.177 205.454,262.626 205.745,262.055 206.029,261.47 206.304,260.875 206.822,259.688 207.291,258.546 207.702,257.501 208.313,255.906 208.49,255.426 208.668,254.913 208.854,254.38 209.058,253.843 209.167,253.578 209.284,253.317 209.409,253.063 209.542,252.817 209.686,252.581 209.84,252.357 210.005,252.147 210.093,252.048 210.184,251.953 210.235,251.904 210.288,251.862 210.342,251.828 210.396,251.802 210.451,251.784 210.479,251.779 210.506,251.777 210.533,251.777 210.561,251.78 210.588,251.786 210.614,251.795 210.642,251.807 210.669,251.822 210.695,251.84 210.722,251.862 210.773,251.916 210.824,251.983 210.874,252.067 210.922,252.167 210.969,252.283 211.013,252.417 210.834,252.709 210.661,253.024 210.337,253.682 210.042,254.319 209.778,254.862 207.453,259.572 206.678,261.047 206.281,261.764 205.885,262.45 205.491,263.093 205.106,263.683 204.731,264.205 204.55,264.438 204.372,264.649 204.949,264.513 205.359,264.019 205.769,263.485 206.173,262.918 206.572,262.325 206.965,261.713 207.347,261.089 208.074,259.837 208.739,258.626 209.327,257.513 210.206,255.811 210.462,255.297 210.722,254.745 210.994,254.173 211.286,253.6 211.442,253.318 211.605,253.044 211.777,252.779 211.959,252.525 212.15,252.286 212.354,252.063 212.459,251.958 212.568,251.857 212.681,251.763 212.797,251.673 212.856,251.633 212.916,251.599 212.976,251.572 213.036,251.552 213.096,251.542 213.154,251.539 213.184,251.542 213.212,251.547 213.241,251.554 213.27,251.564 213.298,251.577 213.325,251.592 213.353,251.611 213.379,251.632 213.432,251.684 213.481,251.748 213.53,251.825 213.575,251.917 213.618,252.022 213.657,252.143 213.535,252.289 213.414,252.444 213.176,252.775 212.944,253.125 212.721,253.483 212.305,254.177 212.113,254.49 211.936,254.766 211.389,255.611 210.65,256.786 209.766,258.186 208.778,259.707 207.733,261.245 207.204,261.987 206.677,262.695 206.157,263.354 205.652,263.951 205.406,264.223 205.165,264.475 204.932,264.705 204.704,264.911 205.479,264.617 206.003,264.137 206.528,263.616 207.051,263.061 207.567,262.478 208.076,261.875 208.573,261.259 209.524,260.017 210.399,258.808 211.176,257.69 212.346,255.953 212.692,255.415 213.048,254.833 213.42,254.23 213.814,253.631 214.022,253.34 214.239,253.059 214.464,252.789 214.699,252.535 214.946,252.3 215.073,252.189 215.204,252.085 215.337,251.987 215.475,251.895 215.614,251.81 215.758,251.731 215.854,251.688 215.902,251.672 215.95,251.659 215.998,251.649 216.045,251.644 216.092,251.642 216.138,251.645 216.184,251.651 216.228,251.663 216.271,251.68 216.314,251.701 216.356,251.728 216.396,251.76 216.436,251.797 216.474,251.841 216.51,251.89 216.545,251.945 216.578,252.007 216.609,252.075 216.64,252.149 216.667,252.231 216.717,252.416 216.757,252.629 216.787,252.875 216.808,253.152 216.817,253.464 217.56,252.723 217.548,252.543 217.53,252.374 "
       id="polygon677"
       transform="translate(164.0405,273.03968)" />
    <polygon
       points="218.069,252.775 218.222,252.803 218.364,252.837 218.5,252.876 218.626,252.919 218.745,252.966 218.855,253.018 218.959,253.073 219.055,253.131 219.143,253.193 219.224,253.257 219.299,253.323 219.366,253.392 219.428,253.462 219.482,253.534 219.532,253.607 219.575,253.681 219.612,253.755 219.645,253.829 219.671,253.904 219.692,253.978 219.71,254.051 219.722,254.123 219.729,254.194 219.732,254.263 219.732,254.33 219.728,254.395 219.719,254.457 219.707,254.516 219.692,254.572 219.653,254.689 219.61,254.804 219.563,254.915 219.51,255.023 219.396,255.23 219.271,255.425 219.138,255.605 219.002,255.773 218.866,255.925 218.735,256.063 218.911,256.135 218.99,256.175 219.065,256.217 219.135,256.26 219.199,256.305 219.26,256.352 219.314,256.4 219.365,256.45 219.411,256.5 219.454,256.552 219.491,256.604 219.525,256.657 219.556,256.711 219.604,256.819 219.639,256.928 219.661,257.037 219.671,257.143 219.67,257.246 219.659,257.345 219.639,257.438 219.611,257.525 219.577,257.604 219.522,257.705 219.464,257.802 219.337,257.988 219.199,258.162 219.054,258.322 218.905,258.47 218.757,258.604 218.476,258.833 218.649,258.904 218.728,258.942 218.801,258.983 218.867,259.025 218.929,259.068 218.984,259.113 219.035,259.16 219.08,259.207 219.121,259.255 219.157,259.304 219.189,259.354 219.217,259.404 219.239,259.455 219.259,259.506 219.274,259.557 219.286,259.608 219.294,259.659 219.301,259.759 219.295,259.857 219.278,259.952 219.253,260.042 219.22,260.125 219.179,260.203 219.133,260.271 219.007,260.428 218.869,260.574 218.725,260.709 218.576,260.832 218.426,260.945 218.278,261.046 218.003,261.217 218.174,261.3 218.25,261.344 218.319,261.388 218.384,261.434 218.442,261.481 218.494,261.528 218.542,261.577 218.584,261.625 218.621,261.675 218.653,261.725 218.681,261.774 218.704,261.824 218.724,261.875 218.738,261.924 218.749,261.974 218.757,262.023 218.761,262.071 218.761,262.12 218.758,262.167 218.744,262.258 218.72,262.346 218.687,262.427 218.646,262.502 218.6,262.57 218.549,262.629 218.42,262.755 218.283,262.869 218.142,262.973 217.996,263.066 217.852,263.15 217.71,263.225 217.446,263.347 217.593,263.44 217.717,263.535 217.771,263.583 217.818,263.631 217.861,263.68 217.899,263.729 217.933,263.777 217.961,263.826 217.985,263.874 218.005,263.922 218.021,263.97 218.033,264.017 218.042,264.063 218.047,264.109 218.048,264.154 218.047,264.199 218.035,264.284 218.013,264.365 217.981,264.441 217.943,264.511 217.899,264.575 217.851,264.63 217.799,264.678 217.673,264.773 217.541,264.858 217.406,264.934 217.27,265.001 217.135,265.059 217.003,265.109 216.757,265.19 216.878,265.29 216.979,265.388 217.06,265.486 217.093,265.534 217.121,265.582 217.146,265.629 217.166,265.676 217.183,265.722 217.195,265.767 217.205,265.811 217.211,265.854 217.213,265.897 217.213,265.939 217.203,266.019 217.184,266.094 217.154,266.165 217.118,266.229 217.077,266.287 217.03,266.339 216.98,266.383 216.929,266.42 216.802,266.494 216.67,266.557 216.537,266.611 216.403,266.656 216.272,266.694 216.146,266.725 215.914,266.769 216.013,266.872 216.093,266.971 216.154,267.068 216.2,267.161 216.217,267.206 216.23,267.25 216.24,267.292 216.247,267.334 216.25,267.375 216.251,267.415 216.243,267.49 216.226,267.561 216.2,267.626 216.167,267.686 216.127,267.74 216.083,267.788 216.036,267.829 215.986,267.864 215.937,267.891 215.846,267.931 215.754,267.965 215.66,267.994 215.567,268.018 215.383,268.054 215.206,268.076 215.045,268.088 214.902,268.093 214.704,268.096 214.491,268.093 214.266,268.077 213.797,268.017 212.954,267.885 209.912,267.46 208.942,267.347 208.001,267.264 207.559,267.239 207.145,267.227 206.766,267.23 206.43,267.251 206.698,267.042 207.076,267.014 207.473,266.999 207.883,266.996 208.304,267.002 209.159,267.042 210.007,267.108 211.545,267.272 212.657,267.409 213.342,267.51 213.707,267.566 214.081,267.614 214.455,267.645 214.641,267.65 214.824,267.649 215.005,267.638 215.183,267.618 215.354,267.587 215.522,267.543 215.569,267.527 215.613,267.507 215.651,267.485 215.685,267.459 215.711,267.429 215.723,267.413 215.731,267.396 215.738,267.378 215.744,267.359 215.747,267.339 215.749,267.319 215.747,267.297 215.744,267.274 215.73,267.225 215.707,267.171 215.673,267.114 215.628,267.051 215.57,266.984 215.5,266.912 215.417,266.835 215.193,266.849 214.961,266.854 214.485,266.845 213.64,266.817 210.227,266.761 209.142,266.768 208.093,266.804 207.602,266.836 207.144,266.879 206.727,266.934 206.358,267.002 206.626,266.735 207.039,266.653 207.474,266.583 207.926,266.523 208.391,266.474 209.34,266.402 210.283,266.359 211.183,266.338 212.002,266.333 213.247,266.333 214.016,266.352 214.427,266.363 214.846,266.366 215.263,266.349 215.468,266.33 215.67,266.304 215.867,266.268 216.06,266.222 216.245,266.164 216.424,266.093 216.475,266.069 216.52,266.042 216.559,266.012 216.592,265.979 216.617,265.942 216.627,265.923 216.635,265.904 216.641,265.883 216.645,265.861 216.646,265.839 216.645,265.816 216.641,265.792 216.634,265.768 216.613,265.716 216.581,265.661 216.536,265.602 216.479,265.54 216.407,265.474 216.322,265.404 216.222,265.331 215.976,265.379 215.716,265.418 215.18,265.476 214.666,265.518 214.224,265.562 210.453,265.961 209.258,266.116 208.105,266.297 207.568,266.399 207.069,266.509 206.616,266.626 206.41,266.688 206.219,266.751 206.479,266.419 206.923,266.273 207.393,266.136 207.884,266.01 208.39,265.893 209.427,265.685 210.461,265.51 211.45,265.365 212.354,265.248 213.728,265.08 214.577,264.996 215.031,264.954 215.493,264.899 215.95,264.824 216.175,264.776 216.395,264.719 216.607,264.652 216.813,264.575 217.011,264.486 217.198,264.384 217.25,264.351 217.296,264.315 217.335,264.276 217.367,264.236 217.391,264.193 217.398,264.17 217.405,264.148 217.408,264.125 217.409,264.1 217.407,264.076 217.403,264.051 217.396,264.025 217.386,263.999 217.372,263.972 217.355,263.944 217.313,263.888 217.256,263.829 217.185,263.769 217.098,263.706 216.994,263.641 216.874,263.573 216.61,263.658 216.332,263.734 215.756,263.867 215.203,263.981 214.729,264.088 210.624,265.039 209.327,265.372 208.081,265.728 207.502,265.913 206.966,266.102 206.482,266.292 206.264,266.389 206.063,266.485 206.301,266.083 206.771,265.862 207.272,265.647 207.797,265.441 208.339,265.244 209.455,264.874 210.572,264.542 211.644,264.248 212.623,263.996 214.114,263.625 215.041,263.417 215.537,263.309 216.039,263.187 216.288,263.117 216.534,263.042 216.774,262.958 217.009,262.866 217.235,262.764 217.452,262.651 217.657,262.526 217.851,262.389 217.902,262.345 217.948,262.299 217.985,262.251 218.015,262.203 218.026,262.178 218.035,262.152 218.041,262.126 218.045,262.101 218.046,262.075 218.044,262.048 218.039,262.021 218.031,261.995 218.021,261.967 218.006,261.94 217.988,261.912 217.967,261.885 217.914,261.829 217.845,261.772 217.761,261.715 217.659,261.658 217.539,261.601 217.401,261.543 217.122,261.672 216.826,261.793 216.212,262.016 215.622,262.216 215.116,262.397 210.718,264.002 209.333,264.544 208.657,264.824 208.007,265.106 207.394,265.388 206.828,265.668 206.32,265.944 206.092,266.08 205.883,266.213 206.092,265.739 206.581,265.431 207.104,265.126 207.654,264.828 208.226,264.537 208.812,264.253 209.405,263.978 210.593,263.459 211.735,262.991 212.781,262.58 214.376,261.968 214.855,261.792 215.369,261.614 215.902,261.427 216.439,261.225 216.704,261.115 216.965,260.998 217.22,260.873 217.465,260.74 217.701,260.596 217.925,260.442 218.135,260.277 218.233,260.19 218.329,260.099 218.378,260.047 218.42,259.994 218.454,259.94 218.48,259.886 218.497,259.831 218.502,259.804 218.505,259.776 218.505,259.749 218.501,259.721 218.495,259.694 218.486,259.667 218.475,259.64 218.46,259.613 218.441,259.586 218.42,259.56 218.366,259.508 218.299,259.457 218.215,259.407 218.116,259.359 218,259.313 217.866,259.269 217.573,259.448 217.259,259.62 216.6,259.943 215.963,260.238 215.421,260.502 210.71,262.829 209.234,263.604 208.518,264.001 207.832,264.397 207.188,264.791 206.599,265.176 206.076,265.551 205.843,265.732 205.632,265.91 205.769,265.333 206.263,264.923 206.797,264.514 207.364,264.108 207.957,263.709 208.569,263.317 209.192,262.935 210.444,262.207 211.656,261.542 212.77,260.954 214.472,260.077 214.985,259.821 215.538,259.561 216.109,259.288 216.683,258.996 216.964,258.84 217.238,258.676 217.503,258.504 217.757,258.323 217.996,258.131 218.22,257.929 218.324,257.823 218.425,257.713 218.519,257.601 218.608,257.485 218.648,257.426 218.683,257.366 218.71,257.306 218.729,257.246 218.74,257.187 218.742,257.127 218.74,257.099 218.735,257.069 218.728,257.041 218.718,257.013 218.705,256.984 218.689,256.957 218.671,256.93 218.65,256.903 218.599,256.85 218.534,256.8 218.457,256.752 218.366,256.706 218.26,256.664 218.14,256.624 217.993,256.746 217.838,256.868 217.506,257.106 217.156,257.338 216.798,257.561 216.104,257.978 215.792,258.169 215.517,258.348 214.672,258.895 213.497,259.632 212.096,260.517 210.575,261.504 209.037,262.548 208.295,263.078 207.587,263.605 206.928,264.124 206.33,264.63 206.059,264.876 205.807,265.116 205.577,265.351 205.371,265.578 205.666,264.804 206.146,264.279 206.666,263.753 207.222,263.231 207.805,262.715 208.407,262.206 209.022,261.709 210.265,260.758 211.474,259.883 212.592,259.107 214.329,257.937 214.867,257.59 215.449,257.234 216.051,256.862 216.65,256.467 216.941,256.259 217.223,256.042 217.492,255.817 217.746,255.582 217.981,255.335 218.091,255.208 218.195,255.077 218.294,254.943 218.386,254.806 218.471,254.666 218.549,254.522 218.593,254.426 218.609,254.378 218.623,254.331 218.632,254.283 218.638,254.236 218.64,254.189 218.637,254.144 218.63,254.098 218.618,254.054 218.603,254.01 218.581,253.967 218.554,253.926 218.522,253.885 218.484,253.846 218.441,253.809 218.393,253.772 218.337,253.737 218.275,253.704 218.207,253.672 218.133,253.643 218.051,253.615 217.866,253.565 217.652,253.525 217.407,253.494 217.129,253.474 216.817,253.464 217.56,252.724 217.738,252.735 217.908,252.752 "
       id="polygon681"
       transform="translate(164.0405,273.03968)" />
  </g>
</svg>
