<?xml version="1.0" encoding="UTF-8" standalone="no"?>
<svg
   xmlns:dc="http://purl.org/dc/elements/1.1/"
   xmlns:cc="http://creativecommons.org/ns#"
   xmlns:rdf="http://www.w3.org/1999/02/22-rdf-syntax-ns#"
   xmlns:svg="http://www.w3.org/2000/svg"
   xmlns="http://www.w3.org/2000/svg"
   xmlns:sodipodi="http://sodipodi.sourceforge.net/DTD/sodipodi-0.dtd"
   xmlns:inkscape="http://www.inkscape.org/namespaces/inkscape"
   width="327.71698"
   height="301.3353"
   id="svg2"
   sodipodi:version="0.32"
   inkscape:version="0.48.3.1 r9886"
   sodipodi:docname="contour_baboon.svg"
   inkscape:output_extension="org.inkscape.output.svg.inkscape"
   version="1.1">
  <metadata
     id="metadata9" />
  <defs
     id="defs7" />
  <sodipodi:namedview
     inkscape:window-height="741"
     inkscape:window-width="1280"
     inkscape:pageshadow="2"
     inkscape:pageopacity="0.0"
     guidetolerance="10.0"
     gridtolerance="10.0"
     objecttolerance="10.0"
     borderopacity="1.0"
     bordercolor="#666666"
     pagecolor="#ffffff"
     id="base"
     inkscape:zoom="1.2296073"
     inkscape:cx="151.70454"
     inkscape:cy="145.19656"
     inkscape:window-x="0"
     inkscape:window-y="27"
     inkscape:current-layer="svg2"
     showgrid="false"
     fit-margin-top="0"
     fit-margin-left="0"
     fit-margin-right="0"
     fit-margin-bottom="0"
     inkscape:window-maximized="1" />
  <path
     style="fill:#000000;stroke:none"
     d="m 59.704542,118.2321 c 2.1323,7.263 7.958,14.302 8.386,22 1.006,18.088 -12.3328,36.37 -19.6051,52 -2.854,6.134 -3.7741,14.457 -7.5193,19.965 -4.6933,6.903 -15.4569,-0.172 -22.2616,-0.794 -4.8594,-0.445 -9.3239002,0.146 -8,5.829 -1.9592002,1.728 -1.6473002,3.662 1.1489,4.568 7.8309,2.537 16.0683,3.078 23.8511,6.432 -3.1791,1.709 -7.0073,5.658 -0.9414,6.768 5.9445,1.088 7.4561,-3.128 12.0703,-5.208 5.6816,-2.561 10.7178,-2.759 15.6859,-7.229 5.0102,-4.508 6.8352,-11.574 10.0472,-17.331 4.21,-7.547 10.428,-14.333 14.138,-22 l 1,0 c 0,22.724 3.647,50.568 -5.879,71.941 -2.994,6.718 -18.9549,2.447 -20.1997,9.189 -0.7791,4.22 7.2497,2.304 9.0787,1.87 l 0,1 c -9.6907,4.065 -14.8666,17.754 0,14 0.678,4.06 3.401,5.973 6,2 6.404,1.444 7.53,-4.922 12.44,-7.812 5.452,-3.209 10.914998,-4.164 15.334998,-9.228 11.194,-12.822 12.177,-36.444 19.086,-51.96 3.368,-7.563 10.575,-13.572 13.26,-21.004 1.952,-5.401 -5.32,-14.715 -3.29,-17.406 3.056,-4.053 15.08,0.983 19.169,1.567 12.084,1.724 29.953,-4.672 42,-7.157 l 0,1 c -31.219,15.472 -32.716,48.25 -21.077,77 4.055,10.016 13.498,17.832 14.077,29 -10.081,0 -20.487,-6.239 -29.995,-4.848 -10.869,1.59 -8.338,22.195 -1.549,27.284 5.4,4.047 9.463,-1.631 14.544,-2.523 11.85,-2.08 30.68,2.915 40.772,-6.332 4.325,-3.963 2.659,-9.453 3.441,-14.581 1.442,-9.456 3.982,-19.414 5.787,-29 l 2,0 c 4.345,9.1 20.247,19.715 30,22.1 7.496,1.833 18.94,1.157 23,8.9 -9.198,-3.957 -26.719,-8.583 -35.852,-2.142 -11.498,8.109 12.615,13.856 17.852,14.142 -1.183,6.473 0.558,13.58 8.961,10.258 10.622,-4.2 23.209,-13.534 30.899,-22.038 2.181,-2.411 5.886,-3.86 6.662,-7.275 1.39,-6.114 -5.811,-10.919 -9.692,-14.405 -10.237,-9.195 -29.224,-14.199 -30.725,-29.54 -2.238,-22.87 16.404,-35.198 25.352,-54 7.582,-15.933 4.79,-39.258 1.543,-56 11.717,6.275 15.402,21.353 15.961,34 1.177,26.643 -15.027,48.478 -7.251,76 2.105,7.452 4.891,20.956 12.395,24.968 5.252,2.807 8.421,-2.233 7.501,-6.968 -3.718,-19.14 -7.059,-33.189 -2.37,-53 3.854,-16.284 8.709,-31.283 9.854,-48 0.363,-5.306 1.978,-10.848 -0.176,-16 -3.792,-9.073 -12.921,-21.802 -21.914,-26.08 -7.135,-3.394002 -15.644,-3.181002 -23,-6.025002 -6.028,-2.33 -10.168,-7.4653 -16,-10.1211 -11.413,-5.197 -23.458,-7.7214 -35,-12.2376 -20.181,-7.8963 -41.841,-17.4819 -58.961,-31.1343 -9.614,-7.6667 -15.362,-19.5918 -26.039,-26.4321 C 116.45854,-2.5340118 68.892542,-5.0281818 37.704542,8.7606982 23.432542,15.070698 13.827342,28.176698 6.2763418,41.232098 c -2.0448,3.5352 -6.29170003,7.7136 -6.276300030819,12 0.01540000082,4.2638 4.200500030819,7.4337 6.020100030819,11 3.0176,5.9142 5.1906002,13.4557 6.1042002,20 1.052,7.537 -4.6426002,12.687 -3.9514002,20.000002 0.5866,6.206 2.7719002,19.341 7.7592002,23.436 11.4546,9.406 33.9066,-2.453 43.7724,-9.436 z"
     id="path4"
     inkscape:connector-curvature="0" />
  <metadata
     id="metadata11">
    <rdf:RDF>
      <cc:Work
         rdf:about="">
        <dc:title>Clipart by Nicu Buculei - contour_chipmunk</dc:title>
        <dc:rights>
          <cc:Agent>
            <dc:title>Nicu Buculei</dc:title>
          </cc:Agent>
        </dc:rights>
        <dc:type
           rdf:resource="http://purl.org/dc/dcmitype/StillImage" />
        <cc:license
           rdf:resource="http://web.resource.org/cc/PublicDomain" />
        <dc:format>image/svg+xml</dc:format>
      </cc:Work>
      <cc:License
         rdf:about="http://web.resource.org/cc/PublicDomain">
        <cc:permits
           rdf:resource="http://web.resource.org/cc/Reproduction" />
        <cc:permits
           rdf:resource="http://web.resource.org/cc/Distribution" />
        <cc:permits
           rdf:resource="http://web.resource.org/cc/DerivativeWorks" />
      </cc:License>
    </rdf:RDF>
  </metadata>
</svg>
