<?xml version="1.0" encoding="UTF-8" standalone="no"?>
<!-- Created with Inkscape (http://www.inkscape.org/) -->
<svg
   xmlns:dc="http://purl.org/dc/elements/1.1/"
   xmlns:cc="http://web.resource.org/cc/"
   xmlns:rdf="http://www.w3.org/1999/02/22-rdf-syntax-ns#"
   xmlns:svg="http://www.w3.org/2000/svg"
   xmlns="http://www.w3.org/2000/svg"
   xmlns:xlink="http://www.w3.org/1999/xlink"
   xmlns:sodipodi="http://sodipodi.sourceforge.net/DTD/sodipodi-0.dtd"
   xmlns:inkscape="http://www.inkscape.org/namespaces/inkscape"
   width="320"
   height="320"
   id="svg2"
   sodipodi:version="0.32"
   inkscape:version="0.45pre1"
   sodipodi:docbase="/home/nicu/Desktop/clipart"
   sodipodi:docname="donkey.svg"
   inkscape:export-filename="/home/nicu/Desktop/donkey.png"
   inkscape:export-xdpi="90.000000"
   inkscape:export-ydpi="90.000000"
   inkscape:output_extension="org.inkscape.output.svg.inkscape"
   version="1.0"
   sodipodi:modified="true">
  <defs
     id="defs4">
    <linearGradient
       id="linearGradient3072">
      <stop
         style="stop-color:#e10000;stop-opacity:1.0000000;"
         offset="0.0000000"
         id="stop3074" />
      <stop
         style="stop-color:#ff4f4f;stop-opacity:1.0000000;"
         offset="1.0000000"
         id="stop3076" />
    </linearGradient>
    <linearGradient
       id="linearGradient3010">
      <stop
         style="stop-color:#494949;stop-opacity:1;"
         offset="0"
         id="stop3012" />
      <stop
         style="stop-color:#9c9c9c;stop-opacity:1.0000000;"
         offset="1.0000000"
         id="stop3014" />
    </linearGradient>
    <linearGradient
       id="linearGradient3000">
      <stop
         style="stop-color:#eaeaea;stop-opacity:1;"
         offset="0"
         id="stop3002" />
      <stop
         style="stop-color:#ffffff;stop-opacity:1.0000000;"
         offset="1.0000000"
         id="stop3004" />
    </linearGradient>
    <linearGradient
       id="linearGradient2986">
      <stop
         style="stop-color:#656565;stop-opacity:1;"
         offset="0"
         id="stop2988" />
      <stop
         style="stop-color:#989898;stop-opacity:1.0000000;"
         offset="1.0000000"
         id="stop2990" />
    </linearGradient>
    <linearGradient
       id="linearGradient2968">
      <stop
         style="stop-color:#9fa4a7;stop-opacity:1;"
         offset="0"
         id="stop2970" />
      <stop
         style="stop-color:#c5c8c9;stop-opacity:1.0000000;"
         offset="1.0000000"
         id="stop2972" />
    </linearGradient>
    <linearGradient
       inkscape:collect="always"
       xlink:href="#linearGradient3010"
       id="linearGradient2318"
       gradientUnits="userSpaceOnUse"
       gradientTransform="matrix(1.2310312,0,0,1.2310312,-27.793737,8.9804145)"
       x1="213.19652"
       y1="202.11934"
       x2="244.07664"
       y2="178.29134" />
    <linearGradient
       inkscape:collect="always"
       xlink:href="#linearGradient3000"
       id="linearGradient2321"
       gradientUnits="userSpaceOnUse"
       gradientTransform="matrix(1.1329401,0,0,1.1329401,-51.684556,-22.127756)"
       x1="173.71292"
       y1="102.98176"
       x2="165.43414"
       y2="94.120323" />
    <linearGradient
       inkscape:collect="always"
       xlink:href="#linearGradient3072"
       id="linearGradient2324"
       gradientUnits="userSpaceOnUse"
       gradientTransform="matrix(1.2310312,0,0,1.2310312,-38.918469,16.220321)"
       x1="79.715439"
       y1="149.05193"
       x2="84.765816"
       y2="148.68959" />
    <linearGradient
       inkscape:collect="always"
       xlink:href="#linearGradient3010"
       id="linearGradient2330"
       gradientUnits="userSpaceOnUse"
       gradientTransform="matrix(1.1329401,0,0,1.1329401,-51.684556,-22.127756)"
       x1="121.50361"
       y1="249.00771"
       x2="151.19272"
       y2="239.30232" />
    <linearGradient
       inkscape:collect="always"
       xlink:href="#linearGradient3010"
       id="linearGradient2333"
       gradientUnits="userSpaceOnUse"
       gradientTransform="matrix(1.1329401,0,0,1.1329401,-51.684556,-22.127756)"
       x1="157.38478"
       y1="252.36961"
       x2="196.20633"
       y2="219.84213" />
    <linearGradient
       inkscape:collect="always"
       xlink:href="#linearGradient3010"
       id="linearGradient2336"
       gradientUnits="userSpaceOnUse"
       gradientTransform="matrix(1.2310312,0,0,1.2310312,-27.793737,8.9804145)"
       x1="189.31229"
       y1="201.77264"
       x2="218.95021"
       y2="183.06894" />
    <linearGradient
       inkscape:collect="always"
       xlink:href="#linearGradient2986"
       id="linearGradient2339"
       gradientUnits="userSpaceOnUse"
       gradientTransform="matrix(1.1329401,0,0,1.1329401,-51.684556,-22.127756)"
       x1="303.95071"
       y1="124.03152"
       x2="279.60266"
       y2="97.447205" />
    <linearGradient
       inkscape:collect="always"
       xlink:href="#linearGradient2986"
       id="linearGradient2342"
       gradientUnits="userSpaceOnUse"
       gradientTransform="matrix(1.1329401,0,0,1.1329401,-51.684556,-22.127756)"
       x1="125.31483"
       y1="113.11847"
       x2="85.227371"
       y2="86.112183" />
    <linearGradient
       inkscape:collect="always"
       xlink:href="#linearGradient2986"
       id="linearGradient2345"
       gradientUnits="userSpaceOnUse"
       gradientTransform="matrix(1.1329401,0,0,1.1329401,-51.684556,-22.127756)"
       x1="165.14684"
       y1="147.77379"
       x2="145.3141"
       y2="125.04402" />
    <linearGradient
       inkscape:collect="always"
       xlink:href="#linearGradient3000"
       id="linearGradient2348"
       gradientUnits="userSpaceOnUse"
       gradientTransform="matrix(1.1329401,0,0,1.1329401,-51.684556,-22.127756)"
       x1="207.17763"
       y1="205.10863"
       x2="195.36237"
       y2="196.24719" />
    <linearGradient
       inkscape:collect="always"
       xlink:href="#linearGradient2968"
       id="linearGradient2351"
       gradientUnits="userSpaceOnUse"
       gradientTransform="matrix(1.1329401,0,0,1.1329401,-51.684556,-22.127756)"
       x1="257.9621"
       y1="220.86932"
       x2="-4.9904923"
       y2="-37.736946" />
  </defs>
  <sodipodi:namedview
     id="base"
     pagecolor="#ffffff"
     bordercolor="#666666"
     borderopacity="1.0"
     inkscape:pageopacity="0.0"
     inkscape:pageshadow="2"
     inkscape:zoom="1"
     inkscape:cx="238.03038"
     inkscape:cy="53.29207"
     inkscape:document-units="px"
     inkscape:current-layer="layer1"
     inkscape:window-width="1019"
     inkscape:window-height="785"
     inkscape:window-x="36"
     inkscape:window-y="24"
     showgrid="false"
     showguides="true"
     inkscape:guide-bbox="true"
     height="320px"
     width="320px" />
  <metadata
     id="metadata7">
    <rdf:RDF>
      <cc:Work
         rdf:about="">
        <dc:format>image/svg+xml</dc:format>
        <dc:type
           rdf:resource="http://purl.org/dc/dcmitype/StillImage" />
      </cc:Work>
    </rdf:RDF>
  </metadata>
  <g
     inkscape:label="Layer 1"
     inkscape:groupmode="layer"
     id="layer1">
    <path
       sodipodi:nodetypes="ccssssccccccsssssscscccsccsssscscccscccssscscscccccccccssccsscscssssssscsscccccssscccccccccccccccccccccsccccccccccscccsccccccsccccscccccccssccccsc"
       id="path2224"
       d="M 48.82848,37.705646 L 49.32414,39.688291 C 49.387054,39.939931 49.303938,40.816386 49.076309,41.989577 C 48.848681,43.162768 48.530322,44.695315 48.226605,46.450528 C 47.619158,49.960954 47.152417,54.449859 47.978773,59.373129 C 49.055748,65.789522 54.01118,73.046363 59.060344,80.297118 C 64.089715,87.519444 69.179052,94.730427 70.708385,100.72544 C 70.649121,100.91073 70.574348,101.05497 70.531363,101.2565 C 68.757167,106.55408 61.844125,103.71532 58.635492,107.20445 C 59.920565,108.87526 63.155131,110.30228 58.670897,110.17842 C 54.707036,110.40946 50.116847,117.14971 55.30748,119.17112 C 56.164868,119.39442 57.183097,119.41666 58.13983,119.59597 C 46.918367,143.61834 37.414262,148.42995 29.317934,154.98256 C 24.621452,158.78355 20.586935,161.18118 16.264826,165.43844 C 12.41121,169.23423 15.162549,175.94253 15.689979,178.57968 C 17.150125,185.88039 24.332694,190.63906 32.43625,193.20168 C 40.539811,195.76431 49.639538,196.16008 55.413694,194.47625 C 71.368673,189.82349 79.783158,181.99703 88.127337,169.48075 C 88.720539,168.59092 89.618725,166.62295 90.251597,165.65708 C 94.161332,188.21811 89.881704,211.25468 86.038485,225.24265 C 84.434748,231.07967 81.319039,237.38729 78.391135,243.58212 L 76.762535,245.17532 C 77.625869,245.95234 73.00149,255.42806 72.159964,260.22217 C 72.159964,260.22217 76.565233,263.57336 78.17871,264.04584 C 78.401934,264.11122 91.910023,267.2061 92.871536,267.30305 L 108.73269,265.60364 C 109.65691,262.02556 110.25538,258.27569 110.78615,253.88479 C 110.78615,253.88478 110.39669,253.45488 110.39669,252.39782 C 110.39669,252.37972 111.80936,238.57225 112.9458,232.88999 C 113.17557,231.74125 114.29044,226.5383 115.35332,221.56058 C 116.14887,217.83476 116.61061,215.72997 116.98191,213.98405 C 118.15645,218.31993 120.36548,228.69371 120.38073,231.58002 C 120.39597,234.46634 120.59278,238.15697 120.20371,242.13053 L 119.07076,253.63695 L 118.68132,255.15934 C 118.68132,255.15934 119.25779,263.71084 118.92915,267.12603 C 118.92917,267.12603 129.93986,268.50627 132.13498,268.29437 C 132.22058,268.33905 142.35551,267.40584 145.73027,266.0639 L 157.98018,261.2135 C 157.98018,261.2135 155.84581,251.1719 154.26273,246.20204 C 154.26272,246.20204 153.13454,246.07802 152.63412,244.50263 C 150.40449,237.4836 147.78579,228.5456 147.14644,225.34886 C 146.78592,223.54624 145.71501,215.88926 144.91595,207.50504 C 150.16701,214.21451 159.49033,218.38175 172.46057,218.86984 C 181.23883,219.20019 191.80718,217.69337 203.75805,214.3735 C 203.74701,214.4834 203.49314,217.00702 203.29778,218.72823 C 202.90706,222.17069 200.94618,242.37388 198.97845,244.39642 L 194.90694,259.37245 C 194.90694,259.37245 204.5582,261.61274 206.48418,261.99239 C 208.84957,260.85786 221.02988,261.64623 223.47828,261.67376 C 224.95413,260.42275 225.74107,261.18538 226.84169,260.93027 C 232.40848,261.61911 235.75956,261.3933 237.28599,261.60294 C 238.85376,261.06514 251.28498,258.11268 252.72229,258.45194 L 262.42312,254.0264 C 260.37937,249.29339 260.81725,242.2354 259.1659,239.54601 C 257.01385,236.95677 257.57498,212.5137 257.50189,202.22979 C 257.4288,191.94591 257.05192,181.69148 255.44845,172.80876 C 254.08339,165.24677 251.72764,158.76901 247.9073,154.00904 C 248.02159,153.81588 245.19814,151.86128 239.16243,146.68032 C 236.21583,145.22852 233.01325,144.33206 229.60324,143.95419 C 223.35686,143.26201 216.48539,144.10254 209.52895,145.44117 C 195.61608,148.11843 181.29873,152.86987 171.07981,152.168 C 156.54517,150.6002 149.7851,148.06643 144.27868,143.06909 C 139.40414,138.64519 140.40642,139.30314 134.50708,131.73968 C 134.49979,131.71318 134.47767,131.62204 134.47167,131.59806 C 134.08829,130.06454 133.39321,129.00446 132.66605,128.02222 C 131.93889,127.03999 131.15478,126.09721 130.43559,124.6588 C 129.28386,122.35535 125.44246,119.35585 124.91249,119.27734 C 124.38251,119.19883 121.58202,119.80999 121.08036,119.9433 C 120.12777,120.1964 135.74065,109.25635 144.59733,103.09753 C 156.72692,94.662774 168.31399,85.503515 170.33631,75.340507 C 171.03391,71.834746 175.21641,60.548585 175.50534,58.417205 C 171.57702,58.853321 164.19385,60.435776 158.33423,61.603601 C 152.46199,62.773941 146.6901,64.20657 142.86252,66.347788 C 126.70349,75.387386 116.55318,93.403206 103.84688,108.16036 C 102.43904,106.54708 95.433916,101.21408 92.729903,98.034711 C 90.595639,97.219629 88.326785,96.815463 86.038485,96.512316 L 85.613636,94.352648 L 85.578228,94.352648 C 81.824794,76.015295 70.588349,56.937671 65.822581,51.088502 C 64.397207,49.339091 61.003168,46.874431 57.679575,44.538691 C 56.01778,43.370821 54.411925,42.26522 53.077004,41.316893 C 51.742086,40.368566 50.680269,39.55743 50.280059,39.157226 L 48.82848,37.705646 z M 82.462635,97.291211 C 87.302635,97.275045 92.321398,98.12519 95.243617,102.14162 C 97.162074,101.53484 101.5472,107.71796 103.24502,108.86845 C 102.70362,109.48857 102.13267,110.06731 101.581,110.67407 C 101.60809,110.60925 90.63328,113.98534 86.746576,111.7008 C 81.464428,115.05776 74.831936,109.47127 69.964892,114.24991 C 65.99395,118.3126 58.594162,121.36425 54.103731,116.58661 C 53.591158,111.0315 60.969959,112.53704 62.388358,109.36411 C 57.111928,105.94501 67.171085,105.65699 69.894085,105.75287 C 73.435144,106.31362 73.065126,102.95422 69.787872,104.23047 C 71.836125,102.72957 72.440923,95.623815 74.921506,100.86706 C 76.20932,104.27063 84.088192,104.36398 78.568158,100.83165 C 76.215517,99.559542 72.906687,97.7444 77.753857,97.503649 C 79.245167,97.395803 80.84931,97.296609 82.462635,97.291211 z M 258.91806,241.49324 C 259.58676,245.89252 258.98329,249.99121 260.51127,253.03508 C 259.68971,253.764 253.28728,256.60674 252.15582,256.92957 C 252.3188,256.44224 249.88996,246.87473 249.88996,246.87473 L 249.35889,247.93685 C 249.35889,247.93685 251.17618,256.72428 250.77506,256.96497 C 250.53722,257.10766 240.38118,259.42284 237.64004,259.6911 C 237.57274,259.50738 236.1844,252.58949 235.65738,247.58281 L 234.91389,248.18468 C 235.44394,253.22018 236.39914,259.51983 236.5071,259.83271 C 232.35549,260.17471 228.39664,260.22189 225.2839,259.6203 C 225.23329,258.96086 224.65263,249.66071 225.63795,247.68902 C 229.16443,247.18653 256.17811,241.35005 258.91806,241.49324 z M 78.072495,245.38774 C 80.656994,244.52912 109.00241,251.16759 109.08673,253.70777 C 108.54646,258.23224 108.69407,260.91322 107.77677,264.5415 C 107.54079,264.71607 93.831964,266.35164 93.225569,265.74526 C 93.172016,265.69168 96.022524,255.33637 96.022524,255.33637 L 95.066587,254.73449 C 95.066587,254.73449 91.157286,264.99218 91.419959,265.3204 C 91.015231,265.27243 80.713368,263.67735 80.586207,263.55018 C 80.578866,263.48406 84.976349,251.58351 84.976349,251.58351 L 83.949621,251.72513 C 83.949621,251.72513 79.023317,262.85784 79.028414,262.98371 C 77.559105,262.54354 73.69869,260.61746 73.363712,260.18677 C 74.197773,255.6876 75.603343,250.67111 78.072495,245.38774 z M 199.75736,245.45856 C 210.57588,245.46504 222.13811,246.44763 224.25718,247.44118 C 224.36629,247.49236 224.04616,259.40069 224.15095,260.18677 C 224.15095,260.18677 210.38337,260.36306 207.79414,260.4346 C 207.7851,260.40803 211.29918,248.92817 211.29918,248.92817 L 210.6619,248.57413 C 210.6619,248.57413 206.17267,260.61489 206.27174,260.82405 C 206.27816,260.83753 196.31293,258.72955 196.1461,258.59357 C 197.55665,255.57712 198.6615,250.70989 199.75736,245.45856 z M 153.37761,246.62689 C 154.84228,247.8891 155.7798,257.67372 156.70561,260.93027 C 156.39754,261.26678 146.87506,264.26222 144.73894,264.71853 C 144.03492,261.89997 139.35746,254.16802 139.35746,254.16802 L 138.96803,254.94692 C 138.96802,254.94693 143.98201,265.29173 143.92463,265.3204 C 142.86756,265.84895 132.78568,267.76122 132.06418,266.73658 C 130.50645,264.52446 129.93991,254.55746 129.93991,254.55746 L 129.55047,255.30096 C 129.55047,255.30098 129.72982,263.83152 130.71881,267.09063 C 130.48611,267.78894 120.17403,266.62745 119.88506,266.34713 C 120.21349,262.87665 119.82132,258.89311 120.06211,254.87611 C 120.06211,254.87613 147.77058,246.69887 153.37761,246.62689 z "
       style="fill:url(#linearGradient2351);fill-opacity:1;fill-rule:evenodd;stroke:none;stroke-width:0.99999976px;stroke-linecap:butt;stroke-linejoin:miter;stroke-opacity:1" />
    <path
       style="fill:url(#linearGradient2348);fill-opacity:1;fill-rule:evenodd;stroke:none;stroke-width:1px;stroke-linecap:butt;stroke-linejoin:miter;stroke-opacity:1"
       d="M 222.75739,205.69088 L 214.56508,202.12326 L 202.40878,198.55564 L 184.70283,196.70579 L 172.41439,198.2914 L 161.31515,202.38754 L 152.4622,208.20143 L 149.15885,211.2405 L 157.08689,215.73304 L 168.71464,218.11145 L 187.74192,217.4508 L 212.45095,211.6369 L 222.62524,207.54074 L 222.75739,205.69088 z "
       id="path2961" />
    <path
       style="fill:url(#linearGradient2345);fill-opacity:1;fill-rule:evenodd;stroke:none;stroke-width:1px;stroke-linecap:butt;stroke-linejoin:miter;stroke-opacity:1"
       d="M 128.54598,123.10725 L 132.90639,129.1854 L 134.75626,133.81008 L 135.41693,137.50983 L 133.43492,142.79517 L 129.86732,150.32681 L 128.14957,155.7443 L 125.90329,153.49802 L 124.05341,146.89134 L 120.88221,146.09852 L 121.41074,139.09544 L 121.01433,135.79208 L 119.56086,133.67795 L 120.35367,121.12525 L 124.71409,119.53964 L 128.54598,123.10725 z "
       id="path3697" />
    <path
       style="fill:url(#linearGradient2342);fill-opacity:1;fill-rule:evenodd;stroke:none;stroke-width:1px;stroke-linecap:butt;stroke-linejoin:miter;stroke-opacity:1"
       d="M 103.44053,108.57252 L 98.155193,103.55144 L 93.79477,99.719562 L 86.395274,96.680478 L 74.106843,97.605421 L 71.199901,100.2481 L 69.48216,103.94785 L 62.743329,105.92985 L 59.836387,106.98692 L 61.421992,109.2332 L 61.421992,110.15813 L 56.533042,112.008 L 53.75823,114.38641 L 53.626098,116.89696 L 56.665175,118.87896 L 61.289858,119.53964 L 66.971609,117.4255 L 71.992699,113.32934 L 81.638472,113.19721 L 87.452358,112.66868 C 87.452358,112.66868 97.890913,112.53655 100.79787,111.74374 C 102.51562,110.4224 103.57267,108.57252 103.44053,108.57252 z "
       id="path4425"
       sodipodi:nodetypes="cccccccccccccccccccccc" />
    <path
       style="fill:url(#linearGradient2339);fill-opacity:1;fill-rule:evenodd;stroke:none;stroke-width:1px;stroke-linecap:butt;stroke-linejoin:miter;stroke-opacity:1"
       d="M 239.12956,146.97384 L 247.02222,139.53653 L 257.49518,127.84932 L 263.26289,120.56379 L 271.76266,107.35876 L 276.46792,96.582253 L 280.41423,78.368414 L 281.02136,69.413285 L 280.71781,65.01161 L 281.93206,65.163387 L 284.81591,70.627544 L 291.49431,67.743682 L 292.55679,69.565076 L 295.13709,75.332775 L 298.62806,76.698823 L 303.02974,74.270306 L 305.30646,78.671982 L 309.10101,79.73445 L 312.89555,84.287916 L 311.52953,86.109298 L 301.36013,90.359183 L 289.67293,100.22502 L 277.83394,113.27826 L 270.24486,122.68874 L 260.07546,136.65267 L 253.0935,146.51849 L 247.47757,154.56292 L 239.12956,146.97384 z "
       id="path4427" />
    <path
       style="fill:url(#linearGradient2336);fill-opacity:1;fill-rule:evenodd;stroke:none;stroke-width:1px;stroke-linecap:butt;stroke-linejoin:miter;stroke-opacity:1"
       d="M 225.33955,247.18134 L 216.15135,245.80311 L 199.15319,245.11401 L 195.47793,258.43688 L 206.04435,261.42304 L 224.88015,260.73394 L 225.33955,247.18134 z "
       id="path4439"
       sodipodi:nodetypes="ccccccc" />
    <path
       style="fill:url(#linearGradient2333);fill-opacity:1;fill-rule:evenodd;stroke:none;stroke-width:1px;stroke-linecap:butt;stroke-linejoin:miter;stroke-opacity:1"
       d="M 119.67529,254.07249 L 134.60612,250.16752 L 144.71314,247.87046 L 153.44192,246.26253 L 155.27956,250.39722 L 157.11719,260.50423 L 157.11719,261.19335 L 146.32106,264.63891 L 144.25372,266.24685 L 131.84965,267.85478 L 119.67529,266.93596 C 119.67529,266.93596 119.4456,255.68043 119.67529,254.07249 z "
       id="path4441" />
    <path
       style="fill:url(#linearGradient2330);fill-opacity:1;fill-rule:evenodd;stroke:none;stroke-width:1px;stroke-linecap:butt;stroke-linejoin:miter;stroke-opacity:1"
       d="M 109.56828,253.15366 L 92.340423,246.49223 L 77.86901,244.88429 L 74.653136,252.23487 L 72.585791,260.04482 L 78.787824,263.72009 L 92.110709,266.47656 L 108.19005,265.09831 L 109.56828,253.15366 z "
       id="path4443" />
    <path
       style="fill:#ffffff;fill-opacity:1;fill-rule:evenodd;stroke:none;stroke-width:1px;stroke-linecap:butt;stroke-linejoin:miter;stroke-opacity:1"
       d="M 66.553544,125.72437 L 71.25878,124.6619 L 77.330059,126.02793 L 81.579955,130.42962 L 82.035297,133.92059 L 79.151442,139.08118 C 79.151442,139.08118 74.749763,142.87572 73.231942,142.87572 C 71.71413,142.87572 66.553544,143.78641 65.03572,142.72393 C 63.517909,141.66148 61.39296,141.50969 61.241176,139.53653 C 61.089395,137.56336 61.39296,131.18851 62.607218,129.6707 C 63.821469,128.15288 66.705322,125.87614 66.553544,125.72437 z "
       id="path4429" />
    <path
       style="fill:#000000;fill-opacity:1;fill-rule:evenodd;stroke:none;stroke-width:1px;stroke-linecap:butt;stroke-linejoin:miter;stroke-opacity:1"
       d="M 65.680963,131.38564 C 64.376055,131.37719 63.068132,131.67267 61.786483,131.98751 C 61.268157,134.50788 61.146819,138.1169 61.255417,139.52864 C 61.407199,141.5018 63.525874,141.65256 65.043685,142.71504 C 66.561507,143.77751 71.704285,142.89206 73.222095,142.89206 C 74.388696,142.89206 76.773127,140.99886 78.037092,139.95349 C 76.559013,134.41758 71.253422,131.42166 65.680963,131.38564 z "
       id="path4431" />
    <path
       sodipodi:nodetypes="ccccccscscc"
       id="path1566"
       d="M 42.1786,145.03879 C 47.551345,147.23717 49.932545,147.77054 54.156347,151.20625 L 61.21593,165.34404 C 65.609545,171.12358 69.555614,177.66083 69.534919,187.76568 C 60.187258,195.24868 53.318382,195.79158 39.114687,194.26886 L 22.656427,188.41549 C 22.656427,188.41549 17.409861,187.07098 16.985306,186.31964 C 15.864113,184.33543 13.533321,177.93624 13.533321,177.93624 C 13.533321,177.93624 13.779892,168.93643 13.903177,168.44329 C 14.026462,167.95014 20.709275,161.63254 20.709275,161.63254 C 30.11692,154.51536 34.813433,151.5563 42.1786,145.03879 z "
       style="fill:#eaeaea;fill-opacity:1;fill-rule:evenodd;stroke:none;stroke-width:1px;stroke-linecap:butt;stroke-linejoin:miter;stroke-opacity:1" />
    <path
       style="fill:url(#linearGradient2324);fill-opacity:1;fill-rule:evenodd;stroke:none;stroke-width:1px;stroke-linecap:butt;stroke-linejoin:miter;stroke-opacity:1"
       d="M 60.101871,183.74618 C 60.34807,183.93084 62.256054,185.65416 62.256054,185.65416 L 65.702731,190.76265 L 69.272511,199.44089 L 68.964771,204.05698 L 66.195117,207.56522 C 66.195117,207.56522 62.502242,208.98082 62.194502,208.79617 C 61.886761,208.61152 58.87092,206.70354 58.87092,206.70354 C 58.87092,206.70354 57.024478,202.57982 57.024478,202.14899 C 57.024478,201.71817 56.532101,194.94788 56.593642,194.45551 C 56.655194,193.96312 55.978162,189.96251 56.347454,189.65477 C 56.716736,189.34703 60.163423,183.86927 60.101871,183.74618 z "
       id="path5940" />
    <path
       style="fill:url(#linearGradient2321);fill-opacity:1;fill-rule:evenodd;stroke:none;stroke-width:1px;stroke-linecap:butt;stroke-linejoin:miter;stroke-opacity:1"
       d="M 115.7979,116.23837 L 134.89277,100.13428 L 153.06737,86.100723 L 164.11018,70.686813 L 168.25122,64.245181 L 155.82807,69.306473 L 142.02456,75.978164 L 133.5124,84.720371 C 133.5124,84.720371 114.87768,105.65568 113.72739,107.49615 C 112.57709,109.33662 111.65686,110.48691 111.65686,110.48691 L 115.7979,116.23837 z "
       id="path7416" />
    <path
       id="path3058"
       d="M 258.87647,240.74961 L 231.77128,245.34369 L 225.33955,247.18134 L 224.88015,260.73394 L 237.2842,260.96364 L 251.98533,257.97748 L 261.63292,253.8428 L 258.87647,240.74961 z "
       style="fill:url(#linearGradient2318);fill-opacity:1;fill-rule:evenodd;stroke:none;stroke-width:1px;stroke-linecap:butt;stroke-linejoin:miter;stroke-opacity:1"
       sodipodi:nodetypes="cccccccc" />
    <path
       style="fill:#000000;fill-opacity:1;fill-rule:evenodd;stroke:none;stroke-width:0.99999976px;stroke-linecap:butt;stroke-linejoin:miter;stroke-opacity:1"
       d="M 48.837955,37.717299 L 49.338061,39.679255 C 49.400974,39.930893 49.296403,40.814247 49.068773,41.987438 C 48.841149,43.160628 48.526157,44.694713 48.222439,46.449926 C 47.61499,49.960353 47.165265,54.452488 47.99162,59.375758 C 49.068597,65.792151 54.021739,73.052526 59.0709,80.303281 C 64.100272,87.52562 69.197895,94.735696 70.727228,100.73071 C 70.667962,100.916 70.577863,101.06776 70.534879,101.26929 C 68.76068,106.56685 61.856367,103.7045 58.647734,107.19363 C 59.932812,108.86444 63.170439,110.31812 58.686205,110.19425 C 54.722345,110.42531 50.110235,117.13628 55.300868,119.1577 C 56.158257,119.381 57.190894,119.40157 58.147629,119.58088 C 46.926161,143.60324 36.706848,148.64173 28.52594,155.08842 C 27.543096,155.86293 25.280686,157.79173 24.717437,158.35836 C 17.457546,163.39158 13.477076,165.45195 12.868763,172.20746 C 12.525037,176.02462 13.053899,179.63758 14.215202,182.47887 C 15.36887,185.30149 17.157882,187.37661 19.485554,188.09545 C 19.493254,188.09783 19.519028,188.08777 19.524025,188.09545 C 20.918198,188.7092 22.247637,189.69362 23.486406,189.62651 C 26.147719,191.40845 29.167028,192.17379 32.449852,193.21193 C 40.55341,195.77455 51.753583,196.34844 55.416278,194.48143 C 55.603457,194.66617 55.872688,195.19337 55.993323,196.86655 C 56.019043,197.64673 55.944115,198.29459 56.031793,199.13626 C 56.344929,202.14231 57.107874,205.39072 58.840082,207.52265 C 60.620481,209.71393 63.467755,209.74935 65.764634,208.48441 C 68.061507,207.21944 69.919363,204.65749 69.919363,201.48291 C 69.919367,198.26899 65.809956,190.81264 65.726163,190.67293 C 72.79304,187.62834 84.681675,177.60065 88.115547,169.4761 C 88.531886,168.49105 89.636972,166.63348 90.269844,165.66759 C 94.179579,188.22862 89.881398,211.26924 86.038179,225.25721 C 84.434454,231.09423 81.310606,237.37398 78.382703,243.5688 L 76.766974,245.18452 C 77.630311,245.96154 72.992132,255.43208 72.150607,260.22619 C 72.15061,260.2262 76.576876,263.5622 78.190354,264.03469 C 78.413578,264.10007 91.924289,267.20766 92.885789,267.30462 L 108.7353,265.61195 C 109.65952,262.03386 110.24345,258.26958 110.77421,253.87868 C 110.77421,253.87867 110.38951,253.4739 110.38951,252.41683 C 110.38951,252.39874 111.79207,238.55646 112.92851,232.8742 C 113.15826,231.72547 114.28923,226.54182 115.3521,221.56412 C 116.14766,217.83827 116.59653,215.73149 116.96783,213.98558 C 118.14237,218.32146 120.3764,228.67993 120.39164,231.56624 C 120.40686,234.45256 120.58837,238.17185 120.1993,242.14542 L 119.08367,253.64787 L 118.69898,255.14818 C 118.69898,255.14819 119.25843,263.69709 118.92979,267.11227 C 118.9298,267.11227 129.92978,268.51672 132.1249,268.30482 C 132.21048,268.34949 142.36844,267.41553 145.74318,266.07358 L 157.97656,261.2264 C 157.97656,261.2264 155.82809,251.15459 154.24499,246.18474 C 154.24498,246.18476 153.1297,246.06747 152.62927,244.49207 C 150.39964,237.47304 147.76744,228.53091 147.1281,225.33415 C 146.76759,223.53152 145.69591,215.90688 144.89685,207.52265 C 150.14789,214.23212 159.50942,218.38313 172.47966,218.87123 C 181.25792,219.20156 191.80467,217.69014 203.75554,214.37027 C 203.74451,214.48017 203.48925,216.99613 203.2939,218.71735 C 202.90318,222.15981 200.95302,242.3926 198.98529,244.41513 L 194.9075,259.37986 C 194.90749,259.37986 204.56091,261.61615 206.48688,261.9958 C 208.85229,260.86125 221.04212,261.66051 223.49049,261.68802 C 224.96634,260.43703 225.73675,261.17376 226.83737,260.91863 C 232.40415,261.60747 235.7747,261.40145 237.30114,261.61109 C 238.86889,261.07329 251.29018,258.11731 252.72749,258.45657 L 262.42185,254.03257 C 260.37812,249.29956 260.80329,242.21885 259.15193,239.52946 C 256.99988,236.94022 257.57082,212.49774 257.49773,202.21383 C 257.42467,191.92996 257.06231,181.7057 255.45885,172.82297 C 254.09379,165.26099 252.08535,159.1944 248.265,154.43445 C 248.37931,154.24128 264.72774,130.37784 273.92431,118.84995 C 283.76605,106.51335 294.52122,96.641356 300.27607,91.998087 C 303.55329,89.353853 305.82032,88.829822 307.54685,88.228045 C 309.27337,87.626269 310.81837,86.991598 311.89393,86.343031 C 312.43171,86.018741 312.8703,85.72149 313.12496,85.265876 C 313.25229,85.038076 313.32233,84.741871 313.27885,84.458017 C 313.23781,84.190317 313.07733,83.959556 312.89414,83.765557 C 312.91643,83.805431 312.58399,83.155193 312.43252,82.880756 C 312.12955,82.331894 311.70571,81.594774 311.12454,80.880329 C 309.96221,79.451439 308.16974,78.033572 305.66183,78.033572 C 305.32282,78.033572 303.37815,73.676377 303.00742,73.648025 C 302.6367,73.61966 297.91712,76.186148 296.73686,75.686922 C 295.55662,75.187683 294.27395,72.590227 294.04397,71.839939 C 293.81403,71.089665 293.52176,70.15482 293.15917,69.339406 C 292.79659,68.523993 291.07663,66.952639 290.65865,66.992756 C 290.24065,67.032886 289.8078,67.228072 289.46608,67.569804 C 287.72426,69.311628 285.15084,70.025244 285.19593,70.070337 C 285.26089,70.135272 283.62626,67.152394 283.15704,66.338767 C 282.68782,65.525152 282.26953,64.817253 281.77214,64.376824 C 281.64779,64.266707 280.07924,64.864898 280.041,65.069271 C 280.04099,65.069271 280.42572,67.588714 280.4257,69.839513 C 279.27715,80.474556 279.49041,91.832988 270.19275,109.23252 C 262.0163,124.53387 248.17415,137.81094 239.14768,146.66356 C 236.20109,145.21176 233.01721,144.34855 229.60718,143.97068 C 223.3608,143.2785 216.48242,144.09389 209.52599,145.43253 C 195.61312,148.1098 181.31366,152.8666 171.09474,152.16472 C 156.5601,150.59692 149.78775,148.08322 144.28135,143.08588 C 139.4068,138.66197 140.40937,139.30077 134.51004,131.73731 C 134.50275,131.71081 134.47755,131.60739 134.47155,131.58343 C 134.08817,130.0499 133.39066,128.98797 132.66348,128.00574 C 131.93633,127.0235 131.15145,126.09728 130.43224,124.65887 C 129.28051,122.35543 125.46102,119.35162 124.93107,119.27311 C 124.40111,119.1946 123.81701,119.25522 123.31534,119.38853 C 122.36274,119.64164 122.35206,119.25408 121.66114,119.54241 C 121.66114,119.5424 135.73244,109.27464 144.5891,103.11583 C 156.71869,94.681072 168.30301,85.503706 170.32535,75.340686 C 171.02294,71.834925 175.22982,60.545382 175.51875,58.414015 C 171.59043,58.850131 164.18241,60.43917 158.32279,61.606996 C 152.45056,62.777335 146.68554,64.197549 142.85797,66.338767 C 126.69895,75.378365 116.55595,93.398204 103.84966,108.15537 C 102.44181,106.54209 95.435919,101.21719 92.731906,98.037824 C 90.597642,97.222742 88.326479,96.80218 86.038179,96.499034 L 85.615014,94.344737 L 85.576543,94.344737 C 81.823113,76.007384 71.030508,56.800057 66.26474,50.950884 C 64.839365,49.201475 61.009585,46.86218 57.685991,44.526439 C 56.024194,43.358569 54.404545,42.281779 53.069624,41.333453 C 51.734704,40.385127 50.661545,39.540882 50.261335,39.140679 L 48.837955,37.717299 z M 50.222864,40.025482 C 50.802611,40.501296 55.376453,44.286235 57.032006,45.449714 C 60.34311,47.776672 64.124104,50.119514 65.302996,51.566399 C 75.580774,64.180578 82.008068,82.276874 84.884083,96.383634 C 84.450251,96.203606 83.565513,96.172358 82.922127,96.114339 C 79.058868,96.339166 73.611053,96.155438 71.381212,99.307332 C 69.468456,93.226547 64.720177,86.435986 59.994175,79.649304 C 54.950192,72.405976 50.303965,65.167266 49.299591,59.183404 C 48.503576,54.440927 48.74168,50.088763 49.338061,46.642274 C 49.636251,44.919033 50.180821,40.521183 50.222864,40.025482 z M 174.71089,59.183404 C 174.71092,59.183404 169.98709,71.396563 169.24819,75.109874 C 167.36477,84.574743 156.06113,93.787033 143.97359,102.19256 C 131.88604,110.59807 119.5987,118.35352 114.81354,125.3898 L 115.23669,125.81297 C 116.28059,124.27797 117.66904,123.08471 119.50684,121.42742 C 119.50683,121.42741 120.36528,127.38033 119.73766,129.89075 C 119.40842,131.20764 118.56656,133.57375 118.77592,133.93008 C 119.19459,134.64273 120.41162,135.01023 120.89175,136.93071 C 121.29563,138.54626 120.45856,141.34155 120.16082,143.54751 C 120.01196,144.65048 119.95039,145.65929 120.54552,146.43274 C 120.84307,146.81945 122.95181,147.18222 123.58462,147.04826 C 123.59881,147.07892 123.56843,147.0341 123.58462,147.08673 C 123.66293,147.34108 124.15659,150.84661 124.35402,151.24145 C 124.84709,152.22759 125.27248,153.19785 125.70047,154.01128 C 126.12843,154.8247 127.66634,156.24156 128.04711,156.16558 C 128.42789,156.08959 129.60573,153.8736 129.93212,152.24167 C 130.08075,151.49859 132.34719,146.29593 132.70195,145.58641 C 133.87438,143.24153 134.40125,141.64923 135.54872,139.35431 C 136.15612,138.13954 135.92695,136.64542 135.58718,135.27653 C 141.48028,142.75384 138.40196,139.25972 143.55041,143.93221 C 149.26015,149.11408 156.50509,151.80686 171.17168,152.85719 C 187.68438,154.0397 194.01702,148.88323 209.7568,146.54815 C 216.71133,145.51642 223.39472,144.41494 229.4533,145.0863 C 232.63842,145.43925 237.11566,146.26649 239.37849,148.08694 C 242.11795,150.07776 246.72289,154.63406 246.91856,154.85761 C 251.47152,160.05876 253.23621,166.84439 254.34322,172.97685 C 255.92479,181.73825 256.30918,191.95094 256.38212,202.21383 C 256.45509,212.47675 256.1987,222.81518 256.65141,231.874 C 256.80418,234.93102 257.18496,237.58761 257.53621,240.29888 C 247.61346,242.03899 230.77039,244.61794 225.6448,246.91565 C 225.85109,241.89487 226.0603,235.89369 225.87563,229.56581 C 225.66517,222.35538 225.04729,214.72248 223.49049,207.715 C 222.28316,202.28049 219.36452,193.44884 215.3734,188.51862 L 214.98869,188.86484 C 218.28258,192.93376 219.91545,198.83601 221.49008,204.86825 C 212.11601,199.94137 199.31512,196.39064 186.40569,196.21256 C 173.21175,196.03058 159.53383,200.51636 149.55169,210.6387 L 144.89685,206.59939 C 144.19546,199.00291 142.97834,190.93521 143.47347,186.2489 L 143.05031,186.17196 C 141.93988,196.68147 145.24621,221.7337 146.01248,225.56496 C 146.68393,228.9222 148.78222,235.65957 151.01354,242.684 C 151.40047,243.90206 151.62731,244.70471 152.01376,245.91545 C 151.70642,245.91754 127.58083,251.04238 120.23776,253.10928 C 120.4075,250.99049 121.2323,245.87328 121.35338,242.18389 C 121.48471,238.18293 121.54492,233.29407 121.31491,229.52734 C 121.13765,226.62457 118.99023,216.89564 117.50641,211.52352 C 117.50708,211.52024 117.50584,211.44946 117.50641,211.44657 L 117.46794,211.44657 C 116.65114,208.49065 116.29129,206.78067 115.42904,203.75263 C 114.20926,199.46891 111.6486,191.97606 111.58207,191.75008 C 111.54905,191.63793 109.68489,187.95468 109.65859,187.90309 C 109.66285,187.91751 109.65004,187.9511 109.65859,187.98003 C 109.67566,188.03791 113.09449,199.77971 114.31342,204.06039 C 115.16216,207.04102 115.54807,208.67821 116.35232,211.60046 C 116.22356,212.21751 115.29713,216.5076 114.27495,221.29482 C 113.21201,226.27292 112.08933,231.45366 111.85136,232.64339 C 110.73907,238.20493 110.10473,244.98712 109.35082,251.49356 C 109.13943,251.40406 87.458738,243.6794 79.498324,244.06889 C 82.400036,237.91059 85.510818,231.54482 87.153805,225.56496 C 91.03039,211.45552 95.176487,187.95827 91.116174,165.01363 C 93.263976,161.77055 95.495163,158.5188 97.732972,156.28099 L 96.925112,156.01171 C 93.460553,159.47624 89.302346,164.17015 87.153805,168.86058 C 82.800374,178.36449 72.597858,186.20618 65.033709,189.51883 C 63.401497,186.93528 61.686842,184.40236 61.686842,184.40236 L 61.456024,184.13306 C 64.236968,177.594 68.168809,172.64003 70.034773,169.39916 L 68.88068,169.4761 C 66.759597,172.83256 53.526469,193.56898 42.913617,194.05826 C 40.865809,194.15267 40.24778,194.49126 32.796079,192.13477 C 29.891287,191.21618 27.288265,189.89306 24.909786,188.40321 C 25.466354,188.23681 27.398668,187.57726 27.564197,184.90247 C 28.20037,181.35899 24.974692,177.71634 24.063452,173.5539 L 23.255588,173.09226 C 23.142741,178.00355 25.891615,183.21037 25.648444,186.03129 C 24.564833,186.40238 23.173863,188.57141 20.25495,187.32606 C 17.541051,186.16816 16.29344,184.69324 15.215415,182.05571 C 14.137388,179.41816 13.822848,175.98725 13.984384,172.32287 C 14.294267,165.29327 19.077749,164.05134 20.447297,162.66696 C 21.882537,161.21618 25.547792,158.82591 26.356525,158.36591 L 28.654057,156.0299 C 36.485517,150.41524 48.356694,143.34244 59.224779,119.96557 C 59.224781,119.96557 65.270242,120.34181 66.995665,117.77279 C 71.423404,112.76197 77.589914,112.92347 83.537646,114.00276 C 87.068429,112.58195 96.963532,112.66194 99.579528,112.73326 C 98.818114,113.52652 98.133859,114.35726 97.348278,115.11839 L 98.31002,114.88757 C 114.56717,99.136734 125.03109,77.612895 143.39654,67.33898 C 146.98153,65.333475 152.71563,63.886121 158.55361,62.722621 C 164.39157,61.559108 170.55593,60.222152 174.71089,59.183404 z M 169.17125,63.530481 C 167.36786,63.778416 157.0359,68.398105 152.62927,70.108808 C 148.22264,71.819498 141.33335,76.09216 140.93448,76.494782 C 140.13674,77.300026 131.68436,86.119301 128.12405,89.99766 C 124.56375,93.876007 120.89199,98.039036 117.85264,101.73092 C 114.8133,105.42281 112.43509,108.62236 111.35125,110.84824 L 112.23605,110.27119 C 113.21651,108.25765 115.7191,106.08977 118.73744,102.42337 C 121.75579,98.756991 125.38021,94.63603 128.93192,90.767049 C 132.48363,86.898056 140.75641,77.795934 141.54999,76.994888 C 141.94677,76.594359 148.68052,72.844695 153.05244,71.147492 C 157.00043,69.614839 164.31285,66.278528 167.32471,65.338566 C 166.50433,67.498311 161.59747,72.436408 159.74617,75.379156 C 157.60834,78.77734 155.32706,82.027867 154.05265,83.727086 C 153.24439,84.804751 150.37626,87.342198 146.628,90.382355 C 142.87973,93.422499 138.18522,97.063564 133.58675,100.6153 C 128.98828,104.16703 115.61997,115.77523 115.46752,116.08013 L 115.69834,116.46483 C 115.70573,116.45006 129.67947,105.05283 134.27921,101.5001 C 138.87896,97.94737 143.55664,94.319932 147.32044,91.267156 C 151.08424,88.21438 154.32002,85.922431 155.36062,84.534958 C 156.65956,82.803023 158.54893,79.426468 160.70791,75.994675 C 162.86689,72.562883 168.82813,65.858374 169.17125,63.530481 z M 281.15661,65.415495 C 281.42189,65.704542 281.80114,66.23235 282.19529,66.915815 C 282.64451,67.694735 284.22685,70.678506 284.42655,70.878197 C 284.67343,71.125047 285.23883,71.427071 286.19616,71.185963 C 287.1535,70.944854 291.5679,68.347934 291.65885,68.339206 C 291.74984,68.330465 293.31608,73.449917 293.46692,73.801895 C 293.82347,74.633832 294.68301,76.05212 296.27522,76.725606 C 297.86744,77.39908 300.08042,77.157091 302.73814,74.87905 C 302.85166,74.781744 304.85808,79.149198 305.66183,79.149198 C 307.73272,79.149185 309.19733,80.329809 310.23972,81.61126 C 310.76095,82.251979 311.18756,82.94472 311.47076,83.457804 C 311.61237,83.714339 312.43001,85.104427 311.97087,85.381289 C 311.05258,85.935012 308.82523,86.557829 307.12368,87.150891 C 305.42215,87.743952 301.08913,89.213827 299.16045,90.882461 C 293.295,95.957049 281.33254,107.36234 271.46224,119.73475 C 262.9054,130.46077 248.21926,152.52523 247.64948,153.31882 C 245.47965,150.9194 241.09538,147.76554 240.14789,147.2406 C 249.27658,138.21778 265.32607,121.09687 273.30879,105.73178 C 281.55191,89.865495 281.56347,75.965034 281.15661,65.415495 z M 82.460491,97.306906 C 87.300491,97.290727 92.310221,98.137657 95.232439,102.15409 C 97.150897,101.54732 101.53633,107.7358 103.23414,108.88629 C 102.69276,109.50641 102.13161,110.04912 101.57994,110.6559 C 101.60703,110.59108 90.617343,113.97912 86.730627,111.69459 C 81.448489,115.05154 74.824876,109.45494 69.957834,114.23358 C 65.986887,118.29626 58.598738,121.35788 54.108306,116.58024 C 53.595732,111.02513 60.9609,112.52084 62.379298,109.34792 C 57.102866,105.92883 67.157894,105.67437 69.880894,105.77023 C 73.421958,106.331 73.081208,102.9552 69.803955,104.23146 C 71.852205,102.73054 72.439845,95.641334 74.920428,100.88458 C 76.20824,104.28815 84.095095,104.37844 78.575052,100.84612 C 76.22241,99.574012 72.920017,97.740011 77.767187,97.499247 C 79.258495,97.391414 80.847165,97.312291 82.460491,97.306906 z M 124.70025,120.35027 C 125.02262,120.39141 130.71723,125.71212 131.74021,128.6982 C 132.12203,129.81275 133.0179,130.50054 133.35593,131.85272 C 133.55678,132.65605 134.11108,133.92475 134.47155,135.27653 C 134.83206,136.62831 134.96348,137.9858 134.5485,138.81573 C 133.36816,141.1764 132.84106,142.76918 131.70174,145.04783 C 131.34175,145.7678 129.00875,151.01119 128.81651,151.97238 C 128.50108,153.54961 128.16978,154.53083 127.93171,154.89608 C 127.81269,155.0787 127.10841,154.24771 126.70067,153.4727 C 126.29291,152.69769 124.55614,146.39023 124.39249,146.20192 C 124.22885,146.01363 122.37388,146.09775 122.04584,146.04805 C 121.71781,145.99836 121.17837,144.71312 121.31491,143.7014 C 121.58802,141.6779 122.55549,138.89235 122.00737,136.6999 C 121.48346,134.60425 120.69115,133.96271 120.46858,133.58385 C 120.35728,133.39442 120.56935,131.44968 120.89175,130.16005 C 121.56541,127.46541 121.59114,123.07693 121.43032,121.31201 C 122.14053,121.00572 124.37788,120.30913 124.70025,120.35027 z M 72.496835,124.00488 C 69.154321,123.60633 66.186705,124.67804 64.110435,127.12094 C 62.034164,129.56385 60.789893,133.26348 60.532751,138.20022 C 60.451364,139.7627 61.362351,141.20057 62.802465,142.20108 C 64.242579,143.20157 66.258483,143.85994 68.495985,143.93221 C 72.970979,144.07674 82.431629,140.94742 82.691316,132.96833 C 82.729046,131.82473 81.842685,130.55939 80.998645,129.31372 C 79.310562,126.82236 76.489996,124.48103 72.496835,124.00488 z M 72.342956,125.08204 C 75.956472,125.51292 78.491526,127.68696 80.036901,129.96769 C 80.809591,131.10806 81.709863,132.26028 81.57569,133.23763 C 80.633865,140.09772 72.583404,142.91014 68.495985,142.77811 C 66.452276,142.71209 64.715798,142.12598 63.494918,141.27779 C 62.27404,140.42961 61.63041,139.36052 61.686842,138.27715 C 61.935592,133.50154 63.107596,130.02756 64.956769,127.85187 C 66.805955,125.67617 69.306903,124.72002 72.342956,125.08204 z M 61.302145,185.82574 C 61.633525,186.27553 66.957309,192.38725 68.803741,201.48291 C 69.34766,204.16227 67.214454,206.4488 65.264527,207.52265 C 63.314604,208.59654 61.106512,208.53955 59.686417,206.79175 C 58.218131,204.98462 57.488232,201.96185 57.185885,199.05932 C 57.071528,197.96143 57.065394,193.2869 57.108945,192.75028 C 56.53016,190.84619 57.779903,189.5918 59.263249,188.86484 C 59.565971,189.5113 59.879191,190.13284 60.532751,191.78855 C 60.66123,192.11402 62.609454,195.83021 63.533389,202.79088 C 63.552747,202.93677 64.148962,202.90637 64.148904,202.9063 C 64.148847,202.90622 64.01027,201.19697 63.764207,198.98238 C 63.569252,197.22775 61.653776,191.57398 61.571433,191.36538 C 60.744606,189.27072 60.159177,188.01391 59.994175,187.67228 C 60.035122,186.69666 60.360546,186.08802 61.302145,185.82574 z M 55.07005,192.13477 C 55.070152,191.55679 55.281032,193.77237 55.300868,193.28887 C 54.37997,194.57762 52.779237,194.1703 51.453895,194.48143 C 53.16613,193.28256 54.04747,192.70153 55.07005,192.13477 z M 186.36722,197.32819 C 199.50518,197.81616 207.70805,198.82503 221.8363,206.02234 C 221.92081,206.37061 222.10252,206.67068 222.18254,207.02256 C 209.70334,213.19905 181.26232,218.08611 172.47966,217.75562 C 162.65247,217.38579 155.04807,214.89668 149.78251,210.86953 C 158.99654,202.13651 173.49079,196.84995 186.36722,197.32819 z M 222.37488,208.09971 C 223.8407,215.0014 224.5523,222.48803 224.76,229.60428 C 224.94189,235.83658 224.72445,241.35581 224.52918,246.33861 C 221.36972,245.32972 203.3275,244.12955 200.4856,244.41513 C 201.29312,240.40639 202.06816,236.23981 202.67838,232.14327 C 203.43433,227.06846 204.05599,222.32493 204.44798,218.87123 C 204.64399,217.14439 204.88869,214.27651 204.90962,214.06252 C 210.43632,212.47944 216.21617,210.55918 222.37488,208.09971 z M 258.92112,241.49143 C 259.58982,245.89069 258.97039,249.98848 260.49837,253.03234 C 259.67682,253.76128 253.28191,256.59496 252.15045,256.91779 C 252.31343,256.43046 249.88073,246.87719 249.88073,246.87719 L 249.34215,247.95433 C 249.34214,247.95433 251.16665,256.71556 250.76553,256.95626 C 250.52769,257.09894 240.38852,259.41935 237.64736,259.68761 C 237.58005,259.50388 236.17395,252.57633 235.64693,247.56964 L 234.91602,248.18516 C 235.44606,253.22066 236.3853,259.5286 236.49328,259.84149 C 232.34167,260.18349 228.41131,260.21225 225.29858,259.61068 C 225.24796,258.95125 224.65949,249.65674 225.6448,247.68506 C 229.1713,247.18256 256.18118,241.34821 258.92112,241.49143 z M 78.074945,245.37687 C 80.659444,244.51827 108.99721,251.18462 109.08154,253.7248 C 108.54127,258.24929 108.69088,260.90651 107.77356,264.5348 C 107.53758,264.70937 93.838408,266.33375 93.232013,265.72736 C 93.17846,265.67379 96.040299,255.34052 96.040299,255.34052 L 95.078556,254.72501 C 95.078556,254.725 91.16128,264.97597 91.42394,265.30419 C 91.019225,265.25623 80.702638,263.66173 80.575477,263.53458 C 80.56814,263.46846 84.961024,251.5705 84.961024,251.5705 L 83.960811,251.72437 C 83.960811,251.72437 79.03159,262.87011 79.036689,262.996 C 77.567378,262.55583 73.716616,260.61842 73.381639,260.18772 C 74.215703,255.68853 75.605792,250.66022 78.074945,245.37687 z M 199.75468,245.45381 C 210.57321,245.46029 222.14084,246.46067 224.25989,247.45424 C 224.36902,247.5054 224.03967,259.40164 224.14448,260.18772 C 224.14448,260.1877 210.38409,260.34698 207.79486,260.41853 C 207.78581,260.39196 211.29561,248.91609 211.29561,248.91609 L 210.68009,248.56986 C 210.68009,248.56988 206.15699,260.63253 206.25606,260.8417 C 206.26247,260.85518 196.30536,258.74643 196.13854,258.61045 C 197.54907,255.594 198.65884,250.70516 199.75468,245.45381 z M 153.36019,246.6079 C 154.82487,247.8701 155.78125,257.66208 156.70706,260.91863 C 156.39898,261.25516 146.87911,264.27084 144.74298,264.72715 C 144.03896,261.90859 139.35722,254.18644 139.35722,254.18644 L 138.97253,254.95582 C 138.97251,254.95582 143.99249,265.2755 143.93511,265.30419 C 142.87804,265.83274 132.76948,267.75221 132.04797,266.72757 C 130.49022,264.51546 129.93212,254.57113 129.93212,254.57113 L 129.54743,255.30206 C 129.54743,255.30207 129.71254,263.81468 130.70153,267.0738 C 130.46883,267.77211 120.18049,266.6232 119.89153,266.34288 C 120.21994,262.87238 119.80464,258.89589 120.04542,254.8789 C 120.04542,254.87891 147.75316,246.67987 153.36019,246.6079 z "
       id="path1308"
       sodipodi:nodetypes="ccssssccccccscsssscsccsssscscsccssccsssscscccscccssscscscccccccccsscsssssssssssssssssssscscsscscsssssssscsscccccssscccsscccsssccssccsssssscssssssscsssscssssccsscccsccccssccsssccssssscssccscccscccccsscccccssssccscccccssccssssccsssscssssccssssccssssssssssssssccsccccccccccccccccsssssssssssssscccssssssccssssssccssssccssssscccccccccscccsccsscccccccsccccccccccscccsccccccsscccscccccccssccccsc" />
    <path
       style="fill:#ffffff;fill-opacity:0.50196078;fill-rule:evenodd;stroke:none;stroke-width:1px;stroke-linecap:butt;stroke-linejoin:miter;stroke-opacity:1"
       d="M 100.79763,250.94455 C 100.79763,250.94455 80.616173,245.89918 79.494982,246.64663 C 78.373789,247.39409 74.636482,257.1111 75.383939,258.97975 C 76.131407,260.8484 97.060341,258.41915 100.79763,250.94455 z "
       id="path6668" />
    <path
       id="path7396"
       d="M 136.29658,251.7844 C 136.29658,251.7844 121.64772,254.52147 120.94196,255.66935 C 120.2362,256.81723 120.53202,263.65619 121.99252,265.0409 C 123.45304,266.42562 136.02822,260.13696 136.29658,251.7844 z "
       style="fill:#ffffff;fill-opacity:0.50196078;fill-rule:evenodd;stroke:none;stroke-width:1px;stroke-linecap:butt;stroke-linejoin:miter;stroke-opacity:1"
       sodipodi:nodetypes="cssc" />
    <path
       id="path7398"
       d="M 245.36008,245.47053 C 245.36008,245.47053 228.43142,247.66359 227.645,248.7578 C 226.85859,249.85203 226.40638,255.59106 227.76366,257.07709 C 229.12095,258.56315 244.49244,253.78224 245.36008,245.47053 z "
       style="fill:#ffffff;fill-opacity:0.50196078;fill-rule:evenodd;stroke:none;stroke-width:1px;stroke-linecap:butt;stroke-linejoin:miter;stroke-opacity:1"
       sodipodi:nodetypes="cssc" />
    <path
       style="fill:#ffffff;fill-opacity:0.50196078;fill-rule:evenodd;stroke:none;stroke-width:1px;stroke-linecap:butt;stroke-linejoin:miter;stroke-opacity:1"
       d="M 215.44944,247.08812 C 215.44944,247.08812 202.34515,245.3537 201.30265,246.20746 C 200.26014,247.06126 198.42782,253.36053 199.35487,255.14692 C 200.28194,256.93328 212.46295,254.89312 215.44944,247.08812 z "
       id="path7400"
       sodipodi:nodetypes="cssc" />
    <path
       style="fill:#ffffff;fill-opacity:0.50196078;fill-rule:evenodd;stroke:none;stroke-width:1px;stroke-linecap:butt;stroke-linejoin:miter;stroke-opacity:1"
       d="M 24.97881,161.10919 C 24.97881,161.10919 15.773866,165.52925 15.026406,173.3703 C 14.154606,182.51571 17.158725,184.69539 18.950579,184.04671 C 27.254586,181.04045 17.877924,173.44229 24.97881,161.10919 z "
       id="path7404"
       sodipodi:nodetypes="cssc" />
    <path
       style="fill:#ffffff;fill-opacity:0.50196078;fill-rule:evenodd;stroke:none;stroke-width:1px;stroke-linecap:butt;stroke-linejoin:miter;stroke-opacity:1"
       d="M 64.172011,133.2193 C 64.172011,133.2193 61.555898,135.27482 63.798289,139.19901 C 64.985577,141.27673 66.974997,137.14348 72.020365,137.33035 C 73.742003,137.3941 68.096188,132.09812 64.172011,133.2193 z "
       id="path7406"
       sodipodi:nodetypes="cssc" />
    <path
       style="fill:#ffffff;fill-opacity:0.50196078;fill-rule:evenodd;stroke:none;stroke-width:1px;stroke-linecap:butt;stroke-linejoin:miter;stroke-opacity:1"
       d="M 57.37603,190.83488 C 57.37603,190.83488 56.532908,205.43074 61.300205,206.15784 C 66.669946,206.97683 59.431558,197.00143 57.37603,190.83488 z "
       id="path7408"
       sodipodi:nodetypes="csc" />
    <path
       style="fill:#ffffff;fill-opacity:0.50196078;fill-rule:evenodd;stroke:none;stroke-width:1px;stroke-linecap:butt;stroke-linejoin:miter;stroke-opacity:1"
       d="M 282.61771,77.346548 C 281.1228,101.57677 263.74428,125.80699 244.49715,144.6181 C 241.15618,147.88339 246.36582,149.85033 246.36582,149.85033 C 266.98331,122.75483 279.3787,105.18949 287.84994,81.270714 C 288.5974,77.159681 287.28934,80.149526 282.61771,77.346548 z "
       id="path7412"
       sodipodi:nodetypes="csccc" />
    <path
       style="fill:#000000;fill-opacity:1;fill-rule:evenodd;stroke:none;stroke-width:1px;stroke-linecap:butt;stroke-linejoin:miter;stroke-opacity:1"
       d="M 42.260187,145.01139 L 41.888236,145.18016 C 55.448317,149.54697 57.256486,156.45178 58.993962,162.35921 C 59.928519,165.5367 62.561977,167.89681 64.721804,171.37255 C 66.881629,174.8483 68.650236,179.802 68.99609,187.87192 L 70.227121,187.47994 C 69.873263,179.22328 67.649485,174.7693 65.406964,171.16047 C 63.164444,167.55166 61.001239,164.78301 60.186523,162.01297 C 58.425448,156.02532 56.222042,149.50757 42.260187,145.01139 z "
       id="path1570"
       sodipodi:nodetypes="ccssccssc" />
  </g>
</svg>
