<?xml version="1.0" encoding="UTF-8" standalone="no"?>
<!-- Created with Inkscape (http://www.inkscape.org/) -->

<svg
   xmlns:dc="http://purl.org/dc/elements/1.1/"
   xmlns:cc="http://creativecommons.org/ns#"
   xmlns:rdf="http://www.w3.org/1999/02/22-rdf-syntax-ns#"
   xmlns:svg="http://www.w3.org/2000/svg"
   xmlns="http://www.w3.org/2000/svg"
   xmlns:sodipodi="http://sodipodi.sourceforge.net/DTD/sodipodi-0.dtd"
   xmlns:inkscape="http://www.inkscape.org/namespaces/inkscape"
   width="128"
   height="128"
   id="svg2"
   version="1.1"
   inkscape:version="0.48.0 r9654"
   sodipodi:docname="panda-nicu-01.svg">
  <defs
     id="defs4" />
  <sodipodi:namedview
     id="base"
     pagecolor="#ffffff"
     bordercolor="#666666"
     borderopacity="1.0"
     inkscape:pageopacity="0.0"
     inkscape:pageshadow="2"
     inkscape:zoom="1"
     inkscape:cx="57.708102"
     inkscape:cy="63.142136"
     inkscape:document-units="px"
     inkscape:current-layer="layer1"
     showgrid="false"
     inkscape:window-width="1137"
     inkscape:window-height="929"
     inkscape:window-x="2"
     inkscape:window-y="24"
     inkscape:window-maximized="0" />
  <metadata
     id="metadata7">
    <rdf:RDF>
      <cc:Work
         rdf:about="">
        <dc:format>image/svg+xml</dc:format>
        <dc:type
           rdf:resource="http://purl.org/dc/dcmitype/StillImage" />
        <dc:title></dc:title>
      </cc:Work>
    </rdf:RDF>
  </metadata>
  <g
     inkscape:label="Layer 1"
     inkscape:groupmode="layer"
     id="layer1"
     transform="translate(0,-924.36218)">
    <path
       style="color:#000000;fill:#000000;stroke:#000000;stroke-width:1px;stroke-linecap:butt;stroke-linejoin:miter;stroke-miterlimit:4;stroke-opacity:1;stroke-dasharray:none;stroke-dashoffset:0;marker:none;visibility:visible;display:inline;overflow:visible;enable-background:accumulate"
       d="m 75.56342,1035.8385 c -2.272164,0.9917 -4.422485,2.45 -4.422485,5.0293 0,2.1768 2.422401,4.1336 4.422485,4.778 13.934556,4.49 25.75244,-10.3103 6.763801,-10.3103 -2.248087,0 -4.670745,-0.3063 -6.763801,0.503 z"
       id="path3015"
       inkscape:connector-curvature="0" />
    <path
       style="color:#000000;fill:#000000;stroke:#000000;stroke-width:1px;stroke-linecap:butt;stroke-linejoin:miter;stroke-miterlimit:4;stroke-opacity:1;stroke-dasharray:none;stroke-dashoffset:0;marker:none;visibility:visible;display:inline;overflow:visible;enable-background:accumulate"
       d="m 41.01561,1034.6495 c -3.815624,0.9567 -7.366138,4.9548 -4.568561,9.1633 5.394139,8.1142 30.171791,-0.6679 22.385937,-8.4762 -2.692034,-0.9822 -15.334933,-1.2453 -17.817376,-0.6871 z"
       id="path3011"
       inkscape:connector-curvature="0"
       sodipodi:nodetypes="cccc" />
    <path
       style="color:#000000;fill:#000000;stroke:#000000;stroke-width:1px;stroke-linecap:butt;stroke-linejoin:miter;stroke-miterlimit:4;stroke-opacity:1;stroke-dasharray:none;stroke-dashoffset:0;marker:none;visibility:visible;display:inline;overflow:visible;enable-background:accumulate"
       d="m 53.46553,985.58819 c -15.605028,11.30775 -19.294736,-5.98955 -22.385934,-7.33066 -6.59818,-1.32343 -9.390242,1.41394 -7.860257,9.08581 3.667909,3.96446 8.292029,12.73796 12.428818,14.28056 7.853964,2.6254 14.688286,-1.8109 17.132084,-9.16325 0.65228,-1.96246 1.124607,-4.66962 0.685289,-6.87246 z"
       id="path2999"
       inkscape:connector-curvature="0"
       sodipodi:nodetypes="ccccsc" />
    <path
       style="color:#000000;fill:#000000;stroke:#000000;stroke-width:1px;stroke-linecap:butt;stroke-linejoin:miter;stroke-miterlimit:4;stroke-opacity:1;stroke-dasharray:none;stroke-dashoffset:0;marker:none;visibility:visible;display:inline;overflow:visible;enable-background:accumulate"
       d="m 57.112968,974.96036 c -1.143841,3.49595 -2.337815,3.8472 -3.177937,7.38973 -2.506413,10.56861 -14.227229,18.71141 -11.904562,30.68181 3.167578,16.3246 30.225769,21.3239 41.181204,7.2086 4.554736,-5.0408 3.404516,-13.8472 2.488973,-19.082 -1.331445,-6.86186 -12.589744,-24.96054 -20.217464,-28.53424 -4.225061,-1.97954 -4.347409,1.70785 -8.370214,2.3361 z"
       id="path2995"
       inkscape:connector-curvature="0"
       sodipodi:nodetypes="cssccsc" />
    <path
       style="color:#000000;fill:#000000;stroke:#000000;stroke-width:1px;stroke-linecap:butt;stroke-linejoin:miter;stroke-miterlimit:4;stroke-opacity:1;stroke-dasharray:none;stroke-dashoffset:0;marker:none;visibility:visible;display:inline;overflow:visible;enable-background:accumulate"
       d="m 40.135985,931.83349 c -8.284004,-1.38331 -11.564185,8.61556 -9.05056,13.27552 1.001031,1.85578 3.425906,0.39688 5.735671,1.55397 7.304195,3.65909 8.571293,-5.8711 6.163221,-8.28379 -1.403561,-1.28048 -0.638621,-6.17673 -2.848332,-6.5457 z"
       id="path2989"
       inkscape:connector-curvature="0"
       sodipodi:nodetypes="csscc" />
    <path
       sodipodi:nodetypes="csscc"
       inkscape:connector-curvature="0"
       id="path3081"
       d="m 86.226306,932.50957 c 7.188174,-3.40916 11.630989,1.87694 11.648263,7.11914 0.0091,2.76505 -2.573936,1.11135 -5.34111,2.93398 -12.269178,8.08125 -9.99534,-0.3147 -8.06484,-3.77955 1.030583,-1.66636 -0.336923,-5.28019 1.757687,-6.27357 z"
       style="color:#000000;fill:#000000;stroke:#000000;stroke-width:1px;stroke-linecap:butt;stroke-linejoin:miter;stroke-miterlimit:4;stroke-opacity:1;stroke-dasharray:none;stroke-dashoffset:0;marker:none;visibility:visible;display:inline;overflow:visible;enable-background:accumulate" />
    <path
       style="color:#000000;fill:#ffffff;stroke:#000000;stroke-width:1px;stroke-linecap:butt;stroke-linejoin:miter;stroke-miterlimit:4;stroke-opacity:1;stroke-dasharray:none;stroke-dashoffset:0;marker:none;visibility:visible;display:inline;overflow:visible;enable-background:accumulate"
       d="m 37.494949,948.00083 c -8.005029,32.10722 33.103518,44.0072 47.350788,23.36321 13.386558,-19.39684 4.435379,-36.91462 -16.942754,-36.91462 -15.222672,-0.51747 -26.386471,-1.7494 -30.408034,13.55141 z"
       id="path2985"
       inkscape:connector-curvature="0"
       sodipodi:nodetypes="cscc" />
    <path
       style="color:#000000;fill:#000000;stroke:#000000;stroke-width:1px;stroke-linecap:butt;stroke-linejoin:miter;stroke-miterlimit:4;stroke-opacity:1;stroke-dasharray:none;stroke-dashoffset:0;marker:none;visibility:visible;display:inline;overflow:visible;enable-background:accumulate"
       d="m 55.507883,21.580429 c -4.692289,-1.373967 -12.148056,-2.39717 -14.49569,2.298098 -3.177577,6.355154 -0.635718,19.195002 5.303301,18.561552 15.119758,-1.612658 16.755878,-12.467823 9.192389,-20.85965 z"
       id="path3103"
       inkscape:connector-curvature="0"
       transform="translate(0,924.36218)"
       sodipodi:nodetypes="cssc" />
    <path
       style="color:#000000;fill:#000000;stroke:#000000;stroke-width:1px;stroke-linecap:butt;stroke-linejoin:miter;stroke-miterlimit:4;stroke-opacity:1;stroke-dasharray:none;stroke-dashoffset:0;marker:none;visibility:visible;display:inline;overflow:visible;enable-background:accumulate"
       d="m 51.18097,1015.4066 c -2.548065,0.2543 -5.253704,5.2238 -5.968552,8.0916 -1.210431,4.8555 5.096178,21.3335 12.335105,16.4938 2.695144,-1.802 -1.269703,-8.6528 0,-10.7668 3.621733,-6.0302 4.645794,-13.8186 -6.366553,-13.8186 z"
       id="path3005"
       inkscape:connector-curvature="0"
       sodipodi:nodetypes="ccssc" />
    <path
       style="color:#000000;fill:#000000;stroke:#000000;stroke-width:1px;stroke-linecap:butt;stroke-linejoin:miter;stroke-miterlimit:4;stroke-opacity:1;stroke-dasharray:none;stroke-dashoffset:0;marker:none;visibility:visible;display:inline;overflow:visible;enable-background:accumulate"
       d="m 75.965432,1014.5313 c 6.895753,0.4027 11.15156,7.3122 10.683944,12.1943 -0.953835,9.9582 -14.344516,20.0472 -14.53715,9.2619 -0.04827,-2.7029 2.683551,-7.7441 2.683551,-10.728 0,-2.5819 -7.167726,-5.3592 -6.866705,-7.6072 0.158838,-1.1863 7.030362,-1.6077 8.03636,-3.121 z"
       id="path3007"
       inkscape:connector-curvature="0"
       sodipodi:nodetypes="cssssc" />
    <path
       style="color:#000000;fill:#ffffff;stroke:#000000;stroke-width:1px;stroke-linecap:butt;stroke-linejoin:miter;stroke-miterlimit:4;stroke-opacity:1;stroke-dasharray:none;stroke-dashoffset:0;marker:none;visibility:visible;display:inline;overflow:visible;enable-background:accumulate"
       d="m 62.126087,989.37769 c -10.979951,1.67769 -21.029247,16.47621 -17.927883,29.11631 7.384151,11.7944 29.409469,14.1362 39.025039,1.7473 0.503758,-0.5575 0.911968,-1.1789 1.284188,-1.8187 2.968127,-7.8807 -1.368107,-14.0141 -3.852563,-17.0951 -5.530766,-7.92596 -10.735021,-12.08203 -18.528781,-11.94981 z"
       id="path3085"
       inkscape:connector-curvature="0"
       sodipodi:nodetypes="cccccc" />
    <path
       style="color:#000000;fill:#000000;stroke:#000000;stroke-width:1px;stroke-linecap:butt;stroke-linejoin:miter;stroke-miterlimit:4;stroke-opacity:1;stroke-dasharray:none;stroke-dashoffset:0;marker:none;visibility:visible;display:inline;overflow:visible;enable-background:accumulate"
       d="m 75.646069,983.2234 c 3.205279,0.56041 9.471573,1.14449 12.690047,2.22036 10.465434,3.49854 6.941422,20.14054 2.512709,26.80274 -1.470952,2.2125 -7.554476,1.8079 -8.90869,-0.2293 -2.90148,-4.3646 3.196545,-10.0838 1.598996,-14.89024 -1.068573,-3.21489 -9.149603,-10.7532 -7.893062,-13.90356 z"
       id="path2997"
       inkscape:connector-curvature="0"
       sodipodi:nodetypes="ccccsc" />
    <path
       style="fill:#ffffff;fill-rule:evenodd;stroke:#000000;stroke-width:1px;stroke-linecap:butt;stroke-linejoin:miter;stroke-opacity:1"
       d="m 58.513085,954.60467 c -0.707107,6.6915 -2.735727,7.95495 -6.98268,7.95495 -5.130835,0 -6.452349,-3.73833 -6.452349,-8.13172 0,-4.3934 2.205397,-7.77818 6.452349,-7.77818 4.246952,0 7.444371,3.58588 6.98268,7.95495 z"
       id="path3090"
       inkscape:connector-curvature="0"
       sodipodi:nodetypes="sssss" />
    <path
       sodipodi:type="arc"
       style="fill:#000000;fill-rule:evenodd;stroke:#000000;stroke-width:0.8897565px;stroke-linecap:butt;stroke-linejoin:miter;stroke-opacity:1"
       id="path3093"
       sodipodi:cx="55.684658"
       sodipodi:cy="32.805748"
       sodipodi:rx="3.3587573"
       sodipodi:ry="5.3916893"
       d="m 59.043415,32.805748 a 3.3587573,5.3916893 0 1 1 -6.717514,0 3.3587573,5.3916893 0 1 1 6.717514,0 z"
       transform="matrix(1.2631579,0,0,1,-17.305507,922.59441)" />
    <path
       sodipodi:type="arc"
       style="fill:#ffffff;fill-rule:evenodd;stroke:#000000;stroke-width:1px;stroke-linecap:butt;stroke-linejoin:miter;stroke-opacity:1"
       id="path3095"
       sodipodi:cx="55.507881"
       sodipodi:cy="31.303148"
       sodipodi:rx="3.0052037"
       sodipodi:ry="3.0052037"
       d="m 58.513085,31.303148 a 3.0052037,3.0052037 0 1 1 -6.010408,0 3.0052037,3.0052037 0 1 1 6.010408,0 z"
       transform="translate(-2.4748738,922.41764)" />
    <path
       sodipodi:nodetypes="cssc"
       inkscape:connector-curvature="0"
       id="path3105"
       d="m 70.198753,944.35162 c 4.692289,-1.37397 12.148056,-2.39717 14.49569,2.2981 3.177577,6.35515 0.635718,19.195 -5.303301,18.56155 -15.119758,-1.61266 -16.755878,-12.46782 -9.192389,-20.85965 z"
       style="color:#000000;fill:#000000;stroke:#000000;stroke-width:1px;stroke-linecap:butt;stroke-linejoin:miter;stroke-miterlimit:4;stroke-opacity:1;stroke-dasharray:none;stroke-dashoffset:0;marker:none;visibility:visible;display:inline;overflow:visible;enable-background:accumulate" />
    <path
       sodipodi:nodetypes="sssss"
       inkscape:connector-curvature="0"
       id="path3107"
       d="m 67.193551,953.01368 c 0.707107,6.6915 2.735727,7.95495 6.98268,7.95495 5.130835,0 6.452349,-3.73833 6.452349,-8.13172 0,-4.3934 -2.205397,-7.77818 -6.452349,-7.77818 -4.246952,0 -7.444371,3.58588 -6.98268,7.95495 z"
       style="fill:#ffffff;fill-rule:evenodd;stroke:#000000;stroke-width:1px;stroke-linecap:butt;stroke-linejoin:miter;stroke-opacity:1" />
    <path
       transform="matrix(-1.2631579,0,0,1,145.48701,921.00342)"
       d="m 59.043415,32.805748 a 3.3587573,5.3916893 0 1 1 -6.717514,0 3.3587573,5.3916893 0 1 1 6.717514,0 z"
       sodipodi:ry="5.3916893"
       sodipodi:rx="3.3587573"
       sodipodi:cy="32.805748"
       sodipodi:cx="55.684658"
       id="path3109"
       style="fill:#000000;fill-rule:evenodd;stroke:#000000;stroke-width:0.8897565px;stroke-linecap:butt;stroke-linejoin:miter;stroke-opacity:1"
       sodipodi:type="arc" />
    <path
       transform="matrix(-1,0,0,1,131.18672,920.82665)"
       d="m 58.513085,31.303148 a 3.0052037,3.0052037 0 1 1 -6.010408,0 3.0052037,3.0052037 0 1 1 6.010408,0 z"
       sodipodi:ry="3.0052037"
       sodipodi:rx="3.0052037"
       sodipodi:cy="31.303148"
       sodipodi:cx="55.507881"
       id="path3111"
       style="fill:#ffffff;fill-rule:evenodd;stroke:#000000;stroke-width:1px;stroke-linecap:butt;stroke-linejoin:miter;stroke-opacity:1"
       sodipodi:type="arc" />
    <path
       style="color:#000000;fill:#000000;stroke:#000000;stroke-width:1px;stroke-linecap:butt;stroke-linejoin:miter;stroke-miterlimit:4;stroke-opacity:1;stroke-dasharray:none;stroke-dashoffset:0;marker:none;visibility:visible;display:inline;overflow:visible;enable-background:accumulate"
       d="m 59.220193,963.62028 c -14.528128,8.03864 15.753146,9.92952 10.429825,1.94454 -3.146805,-3.39441 -6.478743,-3.48036 -10.429825,-1.94454 z"
       id="path3113"
       inkscape:connector-curvature="0"
       sodipodi:nodetypes="ccc" />
    <path
       sodipodi:type="arc"
       style="fill:#ffffff;fill-rule:evenodd;stroke:#000000;stroke-width:1px;stroke-linecap:butt;stroke-linejoin:miter;stroke-opacity:1"
       id="path3115"
       sodipodi:cx="63.993164"
       sodipodi:cy="41.467808"
       sodipodi:rx="3.7123106"
       sodipodi:ry="1.8561553"
       d="m 67.705475,41.467808 a 3.7123106,1.8561553 0 1 1 -7.424621,0 3.7123106,1.8561553 0 1 1 7.424621,0 z"
       transform="translate(0.35355339,922.94797)" />
    <path
       style="color:#000000;fill:none;stroke:#000000;stroke-width:1px;stroke-linecap:butt;stroke-linejoin:miter;stroke-miterlimit:4;stroke-opacity:1;stroke-dasharray:none;stroke-dashoffset:0;marker:none;visibility:visible;display:inline;overflow:visible;enable-background:accumulate"
       d="m 53.866956,972.88405 c 0.146927,2.4542 9.719651,4.42843 10.010092,0.66605 1.934326,3.9037 9.017576,1.85976 10.076271,-1.41421"
       id="path3117"
       inkscape:connector-curvature="0"
       sodipodi:nodetypes="ccc" />
    <path
       style="color:#000000;fill:none;stroke:#000000;stroke-width:1px;stroke-linecap:butt;stroke-linejoin:miter;stroke-miterlimit:4;stroke-opacity:1;stroke-dasharray:none;stroke-dashoffset:0;marker:none;visibility:visible;display:inline;overflow:visible;enable-background:accumulate"
       d="m 63.9375,49.3125 -0.3125,-3.25"
       id="path3119"
       inkscape:connector-curvature="0"
       transform="translate(0,924.36218)" />
  </g>
</svg>
