<?xml version="1.0" encoding="UTF-8" standalone="no"?>
<!-- Created with Inkscape (http://www.inkscape.org/) -->

<svg
   xmlns:dc="http://purl.org/dc/elements/1.1/"
   xmlns:cc="http://creativecommons.org/ns#"
   xmlns:rdf="http://www.w3.org/1999/02/22-rdf-syntax-ns#"
   xmlns:svg="http://www.w3.org/2000/svg"
   xmlns="http://www.w3.org/2000/svg"
   xmlns:sodipodi="http://sodipodi.sourceforge.net/DTD/sodipodi-0.dtd"
   xmlns:inkscape="http://www.inkscape.org/namespaces/inkscape"
   width="210.3141"
   height="210.9287"
   id="svg9474"
   version="1.1"
   inkscape:version="0.48.3.1 r9886"
   sodipodi:docname="border.svg">
  <defs
     id="defs9476" />
  <sodipodi:namedview
     id="base"
     pagecolor="#ffffff"
     bordercolor="#666666"
     borderopacity="1.0"
     inkscape:pageopacity="0.0"
     inkscape:pageshadow="2"
     inkscape:zoom="1.4"
     inkscape:cx="38.735431"
     inkscape:cy="108.34576"
     inkscape:document-units="px"
     inkscape:current-layer="layer1"
     showgrid="false"
     fit-margin-top="0"
     fit-margin-left="0"
     fit-margin-right="0"
     fit-margin-bottom="0"
     inkscape:window-width="639"
     inkscape:window-height="741"
     inkscape:window-x="0"
     inkscape:window-y="27"
     inkscape:window-maximized="0" />
  <metadata
     id="metadata9479">
    <rdf:RDF>
      <cc:Work
         rdf:about="">
        <dc:format>image/svg+xml</dc:format>
        <dc:type
           rdf:resource="http://purl.org/dc/dcmitype/StillImage" />
        <dc:title></dc:title>
      </cc:Work>
    </rdf:RDF>
  </metadata>
  <g
     inkscape:label="Layer 1"
     inkscape:groupmode="layer"
     id="layer1"
     transform="translate(-723.41438,-426.89784)">
    <g
       id="g180"
       transform="matrix(1.25,0,0,-1.25,924.44676,490.68638)">
      <path
         d="m 0,0 c -0.02,0.03 -0.04,0.06 -0.062,0.089 -1.77,2.242 -2.924,4.964 -3.296,7.797 -0.032,0.243 -0.146,0.43 -0.3,0.563 l 0,4.291 c 0.013,0.01 0.026,0.02 0.038,0.031 0.206,-0.634 0.412,-1.28 0.612,-1.91 C -1.816,7.109 -0.584,3.23 1.485,-0.02 2.151,-1.09 3.032,-2 3.885,-2.879 3.794,-2.938 3.711,-3.017 3.637,-3.12 2.542,-4.688 1.446,-6.255 0.351,-7.823 l 0,7.149 C 0.351,-0.355 0.205,-0.131 0,0 m 0.351,-68.449 0,7.149 c 1.095,-1.568 2.191,-3.135 3.286,-4.702 0.074,-0.103 0.157,-0.183 0.248,-0.242 -0.853,-0.879 -1.734,-1.789 -2.402,-2.862 -2.067,-3.247 -3.299,-7.126 -4.491,-10.877 -0.2,-0.63 -0.406,-1.277 -0.612,-1.911 -0.012,0.011 -0.025,0.021 -0.038,0.031 l 0,4.292 c 0.154,0.132 0.268,0.32 0.3,0.562 0.372,2.833 1.526,5.555 3.296,7.798 0.022,0.029 0.042,0.058 0.062,0.088 0.205,0.131 0.351,0.355 0.351,0.674 m -3.397,-15.667 c 1.152,-1.467 1.671,-3.037 1.505,-4.569 -0.155,-1.428 -0.882,-2.766 -2.117,-3.917 l 0,6.836 c 0.216,0.559 0.419,1.111 0.612,1.65 m -16.833,-24.699 c -1.312,-1.419 -2.886,-2.191 -4.517,-2.191 -1.345,0 -2.72,0.529 -4.004,1.536 0.575,0.206 1.164,0.424 1.759,0.655 l 6.762,0 z m -31.294,-4.009 7.149,0 c 0.319,0 0.542,0.146 0.673,0.351 0.03,0.018 0.06,0.039 0.089,0.062 2.242,1.769 4.965,2.923 7.797,3.296 0.244,0.032 0.431,0.146 0.563,0.3 l 4.213,0 c 0.022,-0.028 0.043,-0.055 0.066,-0.082 -0.637,-0.207 -1.286,-0.414 -1.919,-0.614 -3.748,-1.191 -7.624,-2.423 -10.873,-4.491 -1.05,-0.655 -1.948,-1.517 -2.814,-2.357 -0.06,0.091 -0.138,0.175 -0.242,0.248 -1.567,1.095 -3.134,2.192 -4.702,3.287 m -1.53,4.009 12.261,0 c -1.379,-0.604 -2.683,-1.381 -3.903,-2.33 l -7.647,0 c -0.206,0.777 -0.437,1.562 -0.711,2.33 m 29.118,15.226 c -1.443,1.722 -2.086,4.057 -1.784,6.441 0.384,0.048 0.769,0.073 1.152,0.073 4.027,0 8.151,-2.741 8.29,-8.864 0.005,-0.203 0.002,-0.411 -0.009,-0.642 -0.165,-0.007 -0.316,-0.01 -0.463,-0.01 -0.059,0 -0.119,0 -0.179,10e-4 -2.996,0.068 -5.419,1.105 -7.007,3.001 m -5.616,-6.721 c 0.428,0.252 0.925,0.392 1.396,0.392 0.571,0 1.076,-0.197 1.464,-0.568 0.581,-0.547 0.708,-1.349 0.318,-1.999 -0.31,-0.513 -0.797,-0.762 -1.491,-0.762 -1.158,0 -2.518,0.704 -3.289,1.262 0.365,0.682 0.914,1.258 1.602,1.675 m -1.268,-6.827 c -0.503,0.878 -0.809,1.822 -0.881,2.766 -0.02,0.349 -0.002,0.697 0.054,1.026 0.508,-0.31 1.089,-0.583 1.789,-0.845 0.771,-0.288 1.445,-0.427 2.06,-0.427 0.892,0 1.631,0.302 2.198,0.9 0.941,1.006 1.05,2.551 0.26,3.676 -0.633,0.898 -1.652,1.412 -2.799,1.412 -0.721,0 -1.435,-0.201 -2.062,-0.582 -0.769,-0.468 -1.413,-1.112 -1.886,-1.877 -1.581,1.974 -2.11,5.002 -1.278,7.541 0.951,2.905 3.078,5.067 5.88,5.995 -0.141,-2.146 0.417,-4.245 1.595,-5.959 1.409,-2.052 3.648,-3.501 6.472,-4.191 0.978,-0.238 1.941,-0.359 2.862,-0.359 l 0.094,0 c -0.522,-2.605 -2.152,-4.791 -4.975,-6.672 -1.422,-0.949 -3.028,-1.734 -4.649,-2.404 l -4.734,0 z m 11.499,27.633 c 0.79,0.259 1.637,0.391 2.515,0.391 1.866,0 3.709,-0.617 5.027,-1.667 -0.766,-0.473 -1.409,-1.118 -1.876,-1.887 -0.478,-0.784 -0.673,-1.702 -0.547,-2.584 0.133,-0.936 0.62,-1.744 1.374,-2.276 0.496,-0.348 1.077,-0.531 1.68,-0.531 0.743,0 1.452,0.28 1.995,0.789 1.014,0.961 1.173,2.394 0.475,4.26 -0.261,0.701 -0.534,1.281 -0.845,1.789 0.243,0.041 0.494,0.061 0.755,0.061 0.092,0 0.186,-0.003 0.277,-0.008 0.955,-0.073 1.913,-0.388 2.803,-0.907 l 0,-4.601 c -0.679,-1.657 -1.477,-3.302 -2.446,-4.755 -1.881,-2.822 -4.069,-4.454 -6.673,-4.976 0.008,0.949 -0.113,1.942 -0.359,2.955 -1.219,4.991 -4.855,8.091 -9.493,8.091 -0.217,0 -0.437,-0.008 -0.656,-0.022 0.928,2.801 3.089,4.928 5.994,5.878 m 9.667,-5.908 c -0.085,-0.483 -0.323,-0.837 -0.73,-1.082 -0.249,-0.15 -0.518,-0.226 -0.798,-0.226 -0.443,0 -0.869,0.192 -1.199,0.542 -0.797,0.832 -0.661,2.039 -0.174,2.867 0.415,0.685 0.99,1.233 1.673,1.598 0.643,-0.886 1.44,-2.493 1.228,-3.699 m -44.091,-21.725 c -0.979,2.057 -2.392,3.829 -4.619,4.753 -2.024,0.84 -4.252,0.774 -6.16,-0.324 -1.639,-0.942 -2.688,-2.639 -2.851,-4.493 l -10.657,0 c -0.039,0 -0.076,-0.002 -0.112,-0.006 -0.037,0.004 -0.074,0.006 -0.112,0.006 l -10.658,0 c -0.163,1.854 -1.212,3.551 -2.85,4.493 -1.909,1.098 -4.137,1.164 -6.16,0.324 -2.227,-0.924 -3.641,-2.696 -4.619,-4.753 l -21.615,0 c 0.427,0.861 0.692,1.766 0.769,2.67 0.056,0.653 -0.004,1.305 -0.18,1.941 2.308,2.192 3.195,6.002 2.158,9.356 -1.167,3.77 -4.034,6.555 -7.691,7.488 -0.935,3.658 -3.72,6.524 -7.49,7.692 -0.916,0.284 -1.883,0.427 -2.872,0.427 -2.536,0 -4.941,-0.962 -6.483,-2.584 -0.481,0.132 -0.975,0.2 -1.47,0.2 -0.157,0 -0.315,-0.007 -0.472,-0.021 -0.919,-0.079 -1.839,-0.351 -2.712,-0.791 l 0,21.68 c 2.057,0.977 3.828,2.392 4.753,4.62 0.839,2.022 0.773,4.251 -0.324,6.16 -0.942,1.637 -2.638,2.687 -4.492,2.85 l 0,10.657 c 0,0.084 -0.012,0.16 -0.03,0.23 0.018,0.071 0.03,0.148 0.03,0.231 l 0,10.657 c 1.854,0.163 3.55,1.214 4.492,2.851 1.097,1.909 1.163,4.137 0.324,6.16 -0.925,2.227 -2.696,3.642 -4.753,4.62 l 0,21.679 c 0.873,-0.44 1.793,-0.712 2.712,-0.791 0.157,-0.013 0.315,-0.02 0.472,-0.02 0.495,0 0.988,0.067 1.47,0.199 1.542,-1.622 3.947,-2.585 6.483,-2.585 0.989,0 1.956,0.144 2.872,0.428 3.77,1.168 6.555,4.034 7.49,7.692 3.657,0.933 6.524,3.718 7.691,7.488 1.037,3.354 0.15,7.164 -2.158,9.356 0.176,0.636 0.236,1.288 0.18,1.941 -0.077,0.904 -0.342,1.809 -0.769,2.67 l 21.615,0 c 0.978,-2.057 2.392,-3.829 4.619,-4.753 2.023,-0.839 4.251,-0.774 6.16,0.324 1.638,0.943 2.687,2.638 2.85,4.493 l 10.658,0 c 0.038,0 0.075,0.002 0.112,0.006 0.036,-0.004 0.073,-0.006 0.112,-0.006 l 10.657,0 c 0.163,-1.855 1.212,-3.55 2.851,-4.493 1.908,-1.098 4.136,-1.163 6.16,-0.324 2.227,0.924 3.64,2.696 4.619,4.753 l 21.615,0 c -0.429,-0.861 -0.692,-1.766 -0.77,-2.669 -0.055,-0.654 0.005,-1.306 0.18,-1.942 -2.307,-2.192 -3.195,-6.002 -2.158,-9.356 1.168,-3.77 4.034,-6.555 7.692,-7.488 0.933,-3.658 3.719,-6.524 7.488,-7.692 0.917,-0.284 1.885,-0.428 2.874,-0.428 2.535,0 4.94,0.963 6.482,2.585 0.482,-0.132 0.975,-0.199 1.47,-0.199 0.157,0 0.315,0.007 0.472,0.02 0.919,0.079 1.839,0.351 2.712,0.791 l 0,-21.679 c -2.057,-0.978 -3.828,-2.393 -4.752,-4.62 -0.84,-2.023 -0.774,-4.251 0.324,-6.16 0.942,-1.637 2.639,-2.688 4.492,-2.851 l 0,-10.657 c 0,-0.083 0.012,-0.16 0.03,-0.231 -0.018,-0.07 -0.03,-0.146 -0.03,-0.23 l 0,-10.657 c -1.853,-0.163 -3.55,-1.213 -4.492,-2.85 -1.098,-1.909 -1.164,-4.138 -0.324,-6.16 0.924,-2.228 2.695,-3.643 4.752,-4.62 l 0,-21.68 c -0.873,0.44 -1.794,0.712 -2.712,0.791 -0.157,0.014 -0.315,0.021 -0.472,0.021 -0.495,0 -0.988,-0.068 -1.47,-0.2 -1.542,1.622 -3.947,2.584 -6.482,2.584 -0.989,0 -1.957,-0.143 -2.874,-0.427 -3.769,-1.168 -6.555,-4.034 -7.488,-7.692 -3.658,-0.933 -6.524,-3.718 -7.692,-7.488 -1.037,-3.353 -0.149,-7.164 2.158,-9.356 -0.175,-0.636 -0.235,-1.288 -0.18,-1.941 0.078,-0.904 0.341,-1.809 0.77,-2.67 l -21.615,0 z m -5.358,-4.008 c 1.14,1.339 1.244,3.35 0.44,4.874 -0.836,1.586 -3.366,2.491 -4.669,0.946 -0.843,-1 -0.697,-2.606 0.457,-3.285 0.934,-0.551 1.778,0.9 0.847,1.449 -0.323,0.189 -0.159,0.693 0.107,0.869 0.645,0.427 1.497,-0.326 1.809,-0.827 0.695,-1.114 0.221,-2.724 -0.817,-3.434 -1.221,-0.837 -2.923,-0.456 -3.902,0.55 -1.008,1.035 -1.117,2.776 -0.528,4.035 1.464,3.135 5.624,3.008 7.967,1.046 1.844,-1.544 2.711,-3.901 3.325,-6.223 l -5.036,0 z m -18.846,0 c -0.069,0 -0.134,-0.007 -0.195,-0.02 -0.061,0.013 -0.127,0.02 -0.197,0.02 l -11.911,0 c 0.586,0.635 1.006,1.423 1.214,2.267 l 10.782,0 c 0.038,0 0.075,0.002 0.112,0.006 0.036,-0.004 0.073,-0.006 0.112,-0.006 l 10.782,0 c 0.207,-0.844 0.628,-1.632 1.213,-2.267 l -11.912,0 z m -13.508,1.142 c -0.98,-1.006 -2.681,-1.387 -3.903,-0.55 -1.038,0.71 -1.511,2.32 -0.818,3.434 0.314,0.501 1.166,1.254 1.811,0.827 0.265,-0.176 0.429,-0.68 0.107,-0.869 -0.932,-0.549 -0.088,-2 0.846,-1.449 1.154,0.679 1.3,2.285 0.457,3.285 -1.303,1.545 -3.832,0.64 -4.669,-0.946 -0.804,-1.524 -0.699,-3.535 0.441,-4.874 l -5.037,0 c 0.615,2.322 1.48,4.679 3.326,6.223 2.342,1.962 6.502,2.089 7.966,-1.046 0.588,-1.259 0.48,-3 -0.527,-4.035 m -12.489,-1.142 -7.646,0 c -1.22,0.949 -2.525,1.726 -3.904,2.33 l 12.262,0 c -0.274,-0.768 -0.506,-1.553 -0.712,-2.33 m -5.521,-4.966 c -0.104,-0.073 -0.183,-0.157 -0.241,-0.248 -0.866,0.84 -1.764,1.702 -2.819,2.359 -3.245,2.066 -7.121,3.298 -10.869,4.489 -0.633,0.2 -1.283,0.407 -1.919,0.614 0.023,0.027 0.045,0.054 0.067,0.082 l 4.213,0 c 0.132,-0.154 0.319,-0.268 0.562,-0.3 2.833,-0.373 5.555,-1.527 7.797,-3.296 0.029,-0.023 0.058,-0.044 0.089,-0.062 0.131,-0.205 0.355,-0.351 0.673,-0.351 l 7.149,0 c -1.566,-1.095 -3.135,-2.192 -4.702,-3.287 m -19.83,7.296 c 0.595,-0.231 1.185,-0.449 1.76,-0.655 -1.285,-1.007 -2.659,-1.536 -4.005,-1.536 -1.632,0 -3.205,0.772 -4.517,2.191 l 6.762,0 z m -22.983,16.213 c -1.235,1.151 -1.963,2.489 -2.117,3.917 -0.166,1.532 0.354,3.102 1.505,4.569 0.193,-0.539 0.397,-1.091 0.612,-1.65 l 0,-6.836 z m -7.296,26.6 c 1.096,1.567 2.193,3.134 3.288,4.702 l 0,-7.149 c 0,-0.319 0.145,-0.543 0.35,-0.674 0.019,-0.03 0.04,-0.059 0.063,-0.088 1.769,-2.243 2.923,-4.965 3.295,-7.798 0.032,-0.242 0.146,-0.43 0.3,-0.562 l 0,-4.292 c -0.012,-0.01 -0.026,-0.02 -0.038,-0.031 -0.206,0.634 -0.412,1.281 -0.612,1.911 -1.191,3.751 -2.423,7.63 -4.493,10.88 -0.666,1.07 -1.546,1.98 -2.4,2.859 0.091,0.059 0.175,0.139 0.247,0.242 m 4.967,57.361 0,7.646 c 0.949,1.22 1.726,2.525 2.329,3.904 l 0,-12.262 c -0.768,0.274 -1.552,0.505 -2.329,0.712 m 1.142,-12.489 c -1.006,0.98 -1.387,2.681 -0.551,3.903 0.71,1.038 2.321,1.511 3.435,0.816 0.501,-0.311 1.253,-1.164 0.827,-1.809 -0.176,-0.265 -0.68,-0.428 -0.87,-0.107 -0.548,0.932 -2,0.088 -1.449,-0.847 0.68,-1.154 2.286,-1.299 3.286,-0.456 1.545,1.303 0.64,3.833 -0.947,4.669 -1.524,0.804 -3.534,0.698 -4.873,-0.441 l 0,5.037 c 2.321,-0.615 4.679,-1.481 6.223,-3.326 1.96,-2.342 2.089,-6.502 -1.046,-7.966 -1.259,-0.589 -3.002,-0.481 -4.035,0.527 m -1.142,-37.627 0,5.036 c 1.339,-1.139 3.349,-1.245 4.873,-0.441 1.587,0.837 2.492,3.367 0.947,4.67 -1,0.843 -2.606,0.697 -3.286,-0.457 -0.551,-0.935 0.901,-1.779 1.449,-0.847 0.19,0.322 0.694,0.158 0.87,-0.106 0.426,-0.646 -0.326,-1.498 -0.827,-1.81 -1.114,-0.695 -2.725,-0.221 -3.435,0.816 -0.836,1.222 -0.455,2.923 0.551,3.903 1.033,1.008 2.776,1.116 4.035,0.528 3.135,-1.465 3.006,-5.624 1.046,-7.967 -1.544,-1.845 -3.902,-2.711 -6.223,-3.325 m 2.295,24.195 c -0.018,-0.07 -0.029,-0.146 -0.029,-0.23 l 0,-10.781 c -0.843,-0.208 -1.632,-0.629 -2.266,-1.215 l 0,11.912 c 0,0.118 -0.021,0.222 -0.057,0.314 0.036,0.093 0.057,0.197 0.057,0.315 l 0,11.912 c 0.634,-0.585 1.423,-1.006 2.266,-1.214 l 0,-10.782 c 0,-0.083 0.011,-0.16 0.029,-0.231 m 0.034,-37.47 c -0.603,1.38 -1.38,2.684 -2.329,3.904 l 0,7.647 c 0.777,0.206 1.561,0.438 2.329,0.711 l 0,-12.262 z m 12.268,-23.906 c 0.14,6.122 4.265,8.862 8.292,8.863 0.382,0 0.768,-0.025 1.151,-0.073 0.302,-2.384 -0.34,-4.719 -1.784,-6.441 -1.589,-1.896 -4.011,-2.933 -7.008,-3.001 -0.059,-10e-4 -0.118,-10e-4 -0.178,-10e-4 -0.147,0 -0.297,0.003 -0.463,0.01 -0.011,0.231 -0.014,0.44 -0.01,0.643 m 11.588,-7.309 c -0.693,0 -1.181,0.249 -1.49,0.763 -0.391,0.649 -0.264,1.451 0.314,1.996 0.392,0.373 0.896,0.57 1.467,0.57 0.471,0 0.969,-0.14 1.4,-0.394 0.685,-0.415 1.234,-0.991 1.598,-1.673 -0.771,-0.558 -2.131,-1.262 -3.289,-1.262 m -1.778,-3.89 c -1.622,0.67 -3.228,1.455 -4.649,2.404 -2.823,1.881 -4.454,4.067 -4.975,6.672 l 0.092,0 c 0.923,0 1.885,0.121 2.863,0.359 2.825,0.69 5.063,2.139 6.472,4.191 1.178,1.714 1.736,3.813 1.595,5.959 2.802,-0.928 4.929,-3.09 5.88,-5.995 0.833,-2.539 0.304,-5.567 -1.278,-7.541 -0.472,0.765 -1.117,1.409 -1.886,1.877 -0.626,0.38 -1.34,0.582 -2.062,0.582 -1.147,0 -2.166,-0.514 -2.799,-1.411 -0.79,-1.126 -0.681,-2.671 0.258,-3.675 0.569,-0.6 1.308,-0.902 2.2,-0.902 0.616,0 1.29,0.139 2.06,0.428 0.701,0.261 1.281,0.534 1.789,0.844 0.056,-0.33 0.074,-0.68 0.054,-1.032 -0.072,-0.94 -0.378,-1.883 -0.881,-2.76 l -4.733,0 z m -13.705,20.961 c -0.331,-0.352 -0.756,-0.544 -1.2,-0.544 -0.279,0 -0.548,0.076 -0.8,0.226 -0.404,0.245 -0.643,0.599 -0.728,1.082 -0.115,0.663 0.124,2.221 1.226,3.7 0.683,-0.365 1.26,-0.914 1.678,-1.603 0.485,-0.824 0.621,-2.031 -0.176,-2.861 m -6.694,4.102 c 0.891,0.519 1.85,0.834 2.809,0.907 0.086,0.005 0.18,0.008 0.272,0.008 0.26,0 0.512,-0.02 0.754,-0.061 -0.31,-0.508 -0.584,-1.088 -0.845,-1.789 -0.698,-1.866 -0.538,-3.299 0.473,-4.259 0.545,-0.51 1.254,-0.79 1.997,-0.79 0.603,0 1.184,0.183 1.679,0.53 0.755,0.533 1.242,1.341 1.375,2.277 0.126,0.882 -0.069,1.8 -0.546,2.584 -0.468,0.769 -1.111,1.414 -1.877,1.887 1.318,1.05 3.161,1.667 5.028,1.667 0.877,0 1.724,-0.132 2.514,-0.39 2.905,-0.951 5.066,-3.078 5.994,-5.879 -0.219,0.014 -0.439,0.022 -0.655,0.022 -4.638,0 -8.275,-3.1 -9.493,-8.091 -0.247,-1.013 -0.368,-2.006 -0.359,-2.955 -2.606,0.522 -4.792,2.154 -6.674,4.976 -0.968,1.453 -1.767,3.098 -2.446,4.755 l 0,4.601 z m -5.687,81.4 0,-7.149 c -1.095,1.568 -2.192,3.135 -3.288,4.703 -0.072,0.103 -0.156,0.182 -0.247,0.241 0.854,0.879 1.734,1.789 2.402,2.862 2.068,3.247 3.3,7.126 4.491,10.878 0.2,0.63 0.406,1.276 0.612,1.91 0.012,-0.011 0.026,-0.021 0.038,-0.031 l 0,-4.291 c -0.154,-0.133 -0.268,-0.32 -0.3,-0.563 -0.372,-2.833 -1.526,-5.555 -3.295,-7.797 -0.023,-0.029 -0.044,-0.059 -0.063,-0.089 -0.205,-0.131 -0.35,-0.355 -0.35,-0.674 m 3.396,15.667 c -1.151,1.467 -1.671,3.037 -1.505,4.569 0.154,1.429 0.882,2.766 2.117,3.917 l 0,-6.836 c -0.215,-0.559 -0.419,-1.111 -0.612,-1.65 m 16.833,24.7 c 1.312,1.418 2.885,2.19 4.517,2.19 1.346,0 2.72,-0.529 4.005,-1.536 -0.575,-0.205 -1.165,-0.423 -1.76,-0.654 l -6.762,0 z m -6.574,-26.149 c 0.477,0.784 0.672,1.702 0.546,2.585 -0.133,0.935 -0.62,1.744 -1.374,2.276 -0.496,0.347 -1.077,0.531 -1.68,0.531 -0.743,0 -1.452,-0.281 -1.995,-0.79 -1.013,-0.96 -1.173,-2.393 -0.475,-4.26 0.261,-0.7 0.535,-1.281 0.845,-1.789 -0.242,-0.041 -0.494,-0.061 -0.754,-0.061 -0.092,0 -0.186,0.003 -0.278,0.007 -0.956,0.074 -1.913,0.389 -2.803,0.908 l 0,4.601 c 0.679,1.657 1.478,3.302 2.446,4.756 1.882,2.822 4.068,4.453 6.674,4.975 -0.009,-0.949 0.112,-1.941 0.359,-2.955 1.218,-4.991 4.854,-8.091 9.493,-8.091 0.216,0 0.436,0.008 0.655,0.022 -0.928,-2.801 -3.089,-4.928 -5.994,-5.878 -0.79,-0.259 -1.637,-0.391 -2.514,-0.391 -1.867,0 -3.71,0.617 -5.028,1.668 0.766,0.472 1.409,1.117 1.877,1.886 m -4.002,2.745 c 0.085,0.482 0.324,0.836 0.729,1.083 0.251,0.149 0.52,0.226 0.799,0.226 0.444,0 0.869,-0.193 1.199,-0.543 0.798,-0.832 0.662,-2.038 0.175,-2.867 -0.416,-0.685 -0.992,-1.233 -1.673,-1.597 -0.643,0.885 -1.44,2.492 -1.229,3.698 m 19.899,14.898 c -0.428,-0.252 -0.926,-0.392 -1.397,-0.392 -0.571,0 -1.075,0.197 -1.464,0.568 -0.581,0.547 -0.708,1.349 -0.317,2 0.309,0.512 0.797,0.762 1.49,0.762 1.158,0 2.518,-0.705 3.289,-1.263 -0.364,-0.682 -0.913,-1.258 -1.601,-1.675 m 1.267,6.827 c 0.503,-0.878 0.809,-1.822 0.882,-2.766 0.019,-0.348 0.001,-0.696 -0.055,-1.026 -0.508,0.31 -1.088,0.584 -1.789,0.845 -0.77,0.287 -1.444,0.428 -2.06,0.428 -0.892,0 -1.631,-0.304 -2.198,-0.901 -0.941,-1.006 -1.05,-2.551 -0.26,-3.677 0.633,-0.896 1.652,-1.411 2.799,-1.411 0.722,0 1.435,0.202 2.062,0.583 0.769,0.468 1.414,1.111 1.886,1.877 1.582,-1.975 2.111,-5.003 1.278,-7.542 -0.951,-2.905 -3.078,-5.066 -5.88,-5.995 0.141,2.147 -0.417,4.245 -1.595,5.959 -1.409,2.052 -3.647,3.502 -6.472,4.191 -0.978,0.238 -1.94,0.359 -2.863,0.359 l -0.092,0 c 0.521,2.605 2.152,4.791 4.975,6.672 1.421,0.949 3.027,1.734 4.649,2.404 l 4.733,0 z m -6.884,-13.548 c 1.444,-1.721 2.086,-4.056 1.784,-6.441 -0.384,-0.047 -0.77,-0.072 -1.151,-0.072 -4.027,0 -8.152,2.74 -8.292,8.863 -0.004,0.203 -0.001,0.412 0.01,0.642 0.165,0.007 0.316,0.011 0.463,0.011 0.06,0 0.119,-0.001 0.179,-0.002 2.996,-0.068 5.418,-1.105 7.007,-3.001 m 27.588,19.235 -7.149,0 c -0.318,0 -0.542,-0.146 -0.673,-0.351 -0.031,-0.018 -0.06,-0.039 -0.089,-0.062 -2.242,-1.769 -4.964,-2.923 -7.797,-3.295 -0.243,-0.032 -0.43,-0.146 -0.562,-0.3 l -4.213,0 c -0.022,0.027 -0.044,0.054 -0.067,0.081 0.636,0.208 1.286,0.414 1.919,0.615 3.748,1.191 7.624,2.422 10.872,4.49 1.052,0.655 1.95,1.517 2.816,2.358 0.058,-0.091 0.137,-0.176 0.241,-0.248 1.567,-1.096 3.136,-2.192 4.702,-3.288 m 1.531,-4.008 -12.262,0 c 1.379,0.603 2.684,1.381 3.904,2.329 l 7.646,0 c 0.206,-0.777 0.438,-1.562 0.712,-2.329 m 6.049,2.329 c -1.14,-1.339 -1.245,-3.35 -0.441,-4.874 0.837,-1.586 3.366,-2.491 4.669,-0.946 0.843,1 0.697,2.606 -0.457,3.286 -0.934,0.551 -1.778,-0.901 -0.846,-1.449 0.322,-0.19 0.158,-0.694 -0.107,-0.869 -0.645,-0.427 -1.497,0.325 -1.811,0.826 -0.693,1.114 -0.22,2.724 0.818,3.434 1.222,0.838 2.923,0.456 3.903,-0.55 1.007,-1.034 1.115,-2.776 0.527,-4.034 -1.464,-3.136 -5.624,-3.008 -7.966,-1.047 -1.846,1.545 -2.711,3.902 -3.326,6.223 l 5.037,0 z m 18.844,0 c 0.07,0 0.136,0.008 0.197,0.021 0.061,-0.013 0.126,-0.021 0.195,-0.021 l 11.912,0 c -0.585,-0.635 -1.006,-1.423 -1.213,-2.266 l -10.782,0 c -0.039,0 -0.076,-0.003 -0.112,-0.007 -0.037,0.004 -0.074,0.007 -0.112,0.007 l -10.782,0 c -0.208,0.843 -0.628,1.631 -1.214,2.266 l 11.911,0 z m 13.51,-1.142 c 0.979,1.006 2.681,1.388 3.902,0.55 1.038,-0.71 1.512,-2.32 0.817,-3.434 -0.312,-0.501 -1.164,-1.253 -1.809,-0.826 -0.266,0.175 -0.43,0.679 -0.107,0.869 0.931,0.548 0.087,2 -0.847,1.449 -1.154,-0.68 -1.3,-2.286 -0.457,-3.286 1.303,-1.545 3.833,-0.64 4.669,0.946 0.804,1.524 0.7,3.535 -0.44,4.874 l 5.036,0 c -0.614,-2.321 -1.481,-4.678 -3.325,-6.223 -2.343,-1.961 -6.503,-2.089 -7.967,1.047 -0.589,1.258 -0.48,3 0.528,4.034 m 12.488,1.142 7.647,0 c 1.22,-0.948 2.524,-1.726 3.903,-2.329 l -12.261,0 c 0.274,0.767 0.505,1.552 0.711,2.329 m 5.521,4.967 c 0.104,0.072 0.182,0.157 0.242,0.248 0.866,-0.841 1.764,-1.703 2.818,-2.36 3.245,-2.066 7.121,-3.297 10.869,-4.488 0.633,-0.201 1.282,-0.407 1.919,-0.615 -0.023,-0.027 -0.044,-0.054 -0.066,-0.081 l -4.213,0 c -0.132,0.154 -0.319,0.268 -0.563,0.3 -2.832,0.372 -5.555,1.526 -7.797,3.295 -0.029,0.023 -0.059,0.044 -0.089,0.062 -0.131,0.205 -0.354,0.351 -0.673,0.351 l -7.149,0 c 1.568,1.096 3.135,2.192 4.702,3.288 m 19.83,-7.296 c -0.595,0.231 -1.184,0.449 -1.759,0.654 1.284,1.007 2.659,1.536 4.004,1.536 1.631,0 3.205,-0.772 4.517,-2.19 l -6.762,0 z M -3.658,23.479 c 1.235,-1.151 1.962,-2.488 2.117,-3.917 0.166,-1.532 -0.353,-3.102 -1.505,-4.569 -0.193,0.539 -0.396,1.091 -0.612,1.65 l 0,6.836 z m -12.269,3.336 c -0.138,-6.122 -4.263,-8.862 -8.29,-8.862 -0.383,0 -0.768,0.025 -1.152,0.072 -0.302,2.385 0.341,4.72 1.784,6.441 1.588,1.896 4.011,2.933 7.008,3.001 0.059,0.001 0.119,0.002 0.178,0.002 0.147,0 0.298,-0.004 0.463,-0.011 0.011,-0.23 0.014,-0.439 0.009,-0.643 m -11.587,7.31 c 0.694,0 1.181,-0.25 1.492,-0.764 0.389,-0.649 0.262,-1.451 -0.316,-1.996 -0.391,-0.373 -0.896,-0.57 -1.467,-0.57 -0.471,0 -0.968,0.14 -1.4,0.394 -0.685,0.415 -1.233,0.991 -1.598,1.673 0.77,0.558 2.131,1.262 3.289,1.263 m 1.779,3.889 c 1.621,-0.67 3.227,-1.455 4.649,-2.404 2.823,-1.881 4.453,-4.067 4.975,-6.672 l -0.094,0 c -0.921,0 -1.884,-0.121 -2.862,-0.359 -2.824,-0.689 -5.063,-2.139 -6.472,-4.191 -1.178,-1.714 -1.736,-3.812 -1.595,-5.959 -2.802,0.929 -4.929,3.09 -5.88,5.995 -0.832,2.539 -0.303,5.567 1.278,7.542 0.473,-0.766 1.117,-1.409 1.887,-1.877 0.626,-0.381 1.34,-0.583 2.061,-0.583 1.147,0 2.166,0.515 2.799,1.411 0.79,1.126 0.681,2.671 -0.259,3.675 -0.568,0.599 -1.307,0.903 -2.199,0.903 -0.615,0 -1.289,-0.14 -2.06,-0.428 -0.7,-0.261 -1.281,-0.535 -1.789,-0.845 -0.056,0.33 -0.074,0.68 -0.054,1.032 0.072,0.94 0.378,1.883 0.881,2.76 l 4.734,0 z m 13.704,-20.961 c 0.331,0.352 0.757,0.545 1.2,0.545 0.28,0 0.549,-0.077 0.8,-0.227 0.405,-0.246 0.643,-0.6 0.728,-1.082 0.116,-0.663 -0.124,-2.22 -1.226,-3.7 -0.683,0.365 -1.26,0.914 -1.678,1.603 -0.484,0.825 -0.62,2.031 0.176,2.861 m 6.694,-4.101 c -0.89,-0.52 -1.849,-0.835 -2.809,-0.909 -0.085,-0.004 -0.179,-0.007 -0.271,-0.007 -0.261,0 -0.512,0.02 -0.755,0.061 0.311,0.508 0.584,1.089 0.845,1.789 0.698,1.867 0.539,3.3 -0.473,4.259 -0.545,0.51 -1.254,0.791 -1.997,0.791 -0.603,0 -1.184,-0.184 -1.679,-0.53 -0.755,-0.533 -1.242,-1.342 -1.375,-2.277 -0.126,-0.883 0.069,-1.801 0.547,-2.585 0.467,-0.769 1.11,-1.414 1.876,-1.886 -1.318,-1.051 -3.161,-1.668 -5.027,-1.668 -0.878,0 -1.725,0.132 -2.515,0.391 -2.905,0.95 -5.066,3.077 -5.994,5.878 0.219,-0.014 0.439,-0.022 0.656,-0.022 4.638,0 8.274,3.1 9.493,8.091 0.246,1.014 0.367,2.006 0.359,2.955 2.604,-0.522 4.792,-2.153 6.673,-4.975 0.969,-1.454 1.767,-3.099 2.446,-4.756 l 0,-4.6 z m 4.009,-21.593 c -0.778,-0.207 -1.562,-0.438 -2.33,-0.712 l 0,12.262 c 0.603,-1.379 1.381,-2.684 2.33,-3.904 l 0,-7.646 z m -2.267,-36.932 0,10.781 c 0,0.084 -0.01,0.16 -0.029,0.23 0.019,0.071 0.029,0.148 0.029,0.231 l 0,10.782 c 0.844,0.208 1.632,0.629 2.267,1.214 l 0,-11.912 c 0,-0.118 0.021,-0.222 0.056,-0.315 -0.035,-0.092 -0.056,-0.196 -0.056,-0.314 l 0,-11.912 c -0.635,0.586 -1.423,1.007 -2.267,1.215 m -3.553,25.943 c 1,-0.843 2.606,-0.698 3.285,0.456 0.55,0.935 -0.901,1.779 -1.45,0.847 -0.189,-0.321 -0.692,-0.158 -0.868,0.107 -0.427,0.645 0.326,1.498 0.827,1.809 1.113,0.695 2.724,0.222 3.434,-0.816 0.837,-1.222 0.455,-2.923 -0.55,-3.903 -1.034,-1.008 -2.777,-1.116 -4.035,-0.527 -3.136,1.464 -3.008,5.624 -1.047,7.966 1.545,1.845 3.902,2.711 6.224,3.326 l 0,-5.037 c -1.339,1.139 -3.35,1.245 -4.874,0.441 -1.587,-0.836 -2.491,-3.366 -0.946,-4.669 m 5.82,-40.851 0,-7.647 c -0.949,-1.22 -1.727,-2.524 -2.33,-3.904 l 0,12.262 c 0.768,-0.273 1.552,-0.505 2.33,-0.711 m -6.224,5.049 c -1.961,2.343 -2.089,6.502 1.047,7.967 1.258,0.588 3.001,0.48 4.035,-0.528 1.005,-0.98 1.387,-2.681 0.55,-3.903 -0.71,-1.037 -2.321,-1.511 -3.434,-0.816 -0.501,0.312 -1.254,1.164 -0.827,1.81 0.176,0.264 0.679,0.428 0.868,0.106 0.549,-0.932 2,-0.088 1.45,0.847 -0.679,1.154 -2.285,1.3 -3.285,0.457 -1.545,-1.303 -0.641,-3.833 0.946,-4.67 1.524,-0.804 3.535,-0.698 4.874,0.441 l 0,-5.036 c -2.322,0.614 -4.679,1.48 -6.224,3.325 M 0.351,-9.95 c 0.097,0.024 0.194,0.047 0.291,0.07 0.245,0.058 0.408,0.191 0.502,0.356 0.075,0.056 0.146,0.126 0.209,0.214 1.245,1.781 2.489,3.562 3.734,5.343 0.305,0.434 0.112,0.856 -0.236,1.071 -0.176,0.213 -0.352,0.425 -0.526,0.631 -0.724,0.862 -1.474,1.754 -2.041,2.725 -1.746,2.966 -2.754,6.328 -3.729,9.579 -0.368,1.23 -0.748,2.498 -1.164,3.733 1.622,1.852 2.338,3.885 2.074,5.892 -0.254,1.951 -1.452,3.733 -3.374,5.045 -0.051,0.046 -0.11,0.085 -0.173,0.117 -0.013,0.009 -0.026,0.019 -0.04,0.028 -0.057,0.036 -0.12,0.054 -0.183,0.054 -0.004,0 -0.008,-0.002 -0.014,-0.002 -0.47,0.088 -1.018,-0.176 -1.018,-0.795 l 0,-3.634 c -0.517,1.024 -1.089,2.023 -1.732,2.959 -2.119,3.085 -4.648,4.89 -7.521,5.368 -0.478,2.873 -2.283,5.402 -5.368,7.521 -0.91,0.625 -1.88,1.184 -2.875,1.689 l 3.594,0 c 0.849,0 1.031,1.032 0.549,1.478 -1.504,2.206 -3.569,3.42 -5.84,3.42 -1.743,0 -3.5,-0.735 -5.091,-2.127 -1.235,0.416 -2.503,0.796 -3.731,1.164 -3.252,0.974 -6.615,1.982 -9.58,3.727 -0.973,0.569 -1.865,1.319 -2.727,2.043 -0.196,0.165 -0.396,0.332 -0.597,0.498 -0.219,0.338 -0.635,0.52 -1.062,0.221 -1.781,-1.245 -3.561,-2.49 -5.343,-3.735 -0.088,-0.062 -0.158,-0.133 -0.214,-0.208 -0.165,-0.094 -0.297,-0.257 -0.355,-0.502 -0.024,-0.097 -0.047,-0.195 -0.07,-0.292 l -24.298,0 c -0.069,0 -0.134,-0.007 -0.195,-0.021 -0.061,0.014 -0.127,0.021 -0.197,0.021 l -24.297,0 c -0.023,0.097 -0.047,0.195 -0.069,0.292 -0.059,0.245 -0.191,0.408 -0.356,0.502 -0.056,0.075 -0.126,0.146 -0.214,0.208 -1.781,1.245 -3.561,2.49 -5.343,3.735 -0.427,0.299 -0.843,0.117 -1.061,-0.221 -0.202,-0.166 -0.402,-0.333 -0.598,-0.498 -0.862,-0.724 -1.754,-1.474 -2.726,-2.042 -2.966,-1.746 -6.328,-2.754 -9.58,-3.728 -1.228,-0.368 -2.496,-0.748 -3.732,-1.164 -1.59,1.392 -3.347,2.126 -5.09,2.127 -2.272,0 -4.336,-1.214 -5.84,-3.42 -0.483,-0.446 -0.3,-1.478 0.548,-1.478 l 3.594,0 c -0.995,-0.505 -1.964,-1.064 -2.875,-1.689 -3.084,-2.119 -4.889,-4.648 -5.368,-7.521 -2.874,-0.478 -5.402,-2.283 -7.521,-5.368 -0.643,-0.936 -1.215,-1.935 -1.732,-2.959 l 0,3.634 c 0,0.619 -0.548,0.883 -1.018,0.795 -0.004,0 -0.01,0.002 -0.015,0.002 -0.062,0 -0.125,-0.018 -0.181,-0.054 -0.015,-0.009 -0.028,-0.019 -0.041,-0.028 -0.063,-0.032 -0.121,-0.071 -0.173,-0.117 -1.923,-1.312 -3.119,-3.094 -3.374,-5.045 -0.264,-2.007 0.453,-4.04 2.074,-5.892 -0.416,-1.235 -0.796,-2.503 -1.165,-3.733 -0.975,-3.251 -1.982,-6.613 -3.727,-9.578 -0.567,-0.972 -1.317,-1.863 -2.041,-2.726 -0.174,-0.206 -0.352,-0.418 -0.526,-0.631 -0.349,-0.215 -0.542,-0.637 -0.237,-1.071 1.245,-1.781 2.49,-3.562 3.736,-5.343 0.061,-0.088 0.132,-0.158 0.207,-0.214 0.094,-0.165 0.257,-0.298 0.502,-0.356 0.097,-0.023 0.194,-0.046 0.292,-0.07 l 0,-24.297 c 0,-0.118 0.02,-0.222 0.057,-0.315 -0.037,-0.092 -0.057,-0.196 -0.057,-0.314 l 0,-24.297 c -0.098,-0.024 -0.195,-0.047 -0.292,-0.07 -0.245,-0.058 -0.408,-0.191 -0.502,-0.356 -0.075,-0.055 -0.146,-0.126 -0.207,-0.214 -1.246,-1.781 -2.491,-3.562 -3.736,-5.342 -0.305,-0.435 -0.112,-0.857 0.237,-1.072 0.174,-0.212 0.352,-0.425 0.526,-0.631 0.724,-0.862 1.474,-1.754 2.04,-2.725 1.746,-2.966 2.753,-6.328 3.728,-9.579 0.369,-1.229 0.749,-2.498 1.165,-3.734 -1.621,-1.85 -2.338,-3.883 -2.074,-5.892 0.255,-1.95 1.451,-3.732 3.374,-5.044 0.052,-0.046 0.11,-0.085 0.173,-0.117 0.013,-0.009 0.026,-0.019 0.041,-0.028 0.056,-0.036 0.119,-0.054 0.181,-0.054 0.005,0 0.011,0.002 0.015,0.002 0.47,-0.088 1.018,0.176 1.018,0.795 l 0,3.634 c 0.517,-1.024 1.089,-2.023 1.732,-2.959 2.119,-3.084 4.647,-4.889 7.521,-5.368 0.479,-2.873 2.284,-5.402 5.368,-7.521 0.911,-0.625 1.88,-1.183 2.875,-1.689 l -3.594,0 c -0.848,0 -1.032,-1.032 -0.548,-1.478 1.504,-2.206 3.568,-3.42 5.84,-3.42 1.743,0 3.499,0.735 5.09,2.127 1.236,-0.416 2.504,-0.796 3.732,-1.163 3.252,-0.975 6.614,-1.983 9.58,-3.728 0.972,-0.568 1.864,-1.319 2.726,-2.043 0.196,-0.164 0.396,-0.332 0.598,-0.498 0.218,-0.338 0.634,-0.52 1.061,-0.221 1.782,1.245 3.562,2.49 5.343,3.735 0.088,0.062 0.158,0.133 0.214,0.209 0.165,0.094 0.297,0.256 0.356,0.501 0.022,0.097 0.046,0.195 0.069,0.292 l 24.297,0 c 0.07,0 0.136,0.008 0.197,0.021 0.061,-0.013 0.126,-0.021 0.195,-0.021 l 24.298,0 c 0.023,-0.097 0.046,-0.195 0.07,-0.292 0.058,-0.245 0.19,-0.407 0.355,-0.501 0.056,-0.076 0.126,-0.147 0.214,-0.209 1.782,-1.245 3.562,-2.49 5.343,-3.735 0.427,-0.299 0.843,-0.117 1.062,0.221 0.201,0.166 0.401,0.334 0.597,0.498 0.862,0.724 1.754,1.475 2.725,2.042 2.967,1.746 6.33,2.754 9.582,3.729 1.228,0.367 2.496,0.747 3.731,1.163 1.591,-1.392 3.348,-2.127 5.091,-2.127 2.27,0 4.336,1.214 5.84,3.42 0.482,0.446 0.3,1.478 -0.549,1.478 l -3.594,0 c 0.995,0.506 1.965,1.064 2.875,1.689 3.085,2.119 4.89,4.648 5.368,7.521 2.873,0.479 5.402,2.284 7.521,5.368 0.643,0.936 1.215,1.935 1.732,2.959 l 0,-3.634 c 0,-0.619 0.548,-0.883 1.018,-0.795 0.006,0 0.01,-0.002 0.014,-0.002 0.063,0 0.126,0.018 0.183,0.054 0.014,0.009 0.027,0.019 0.04,0.028 0.063,0.032 0.122,0.071 0.173,0.117 1.922,1.312 3.12,3.094 3.374,5.044 0.264,2.009 -0.452,4.042 -2.074,5.892 0.416,1.236 0.796,2.505 1.164,3.734 0.975,3.251 1.983,6.613 3.728,9.578 0.568,0.972 1.318,1.864 2.042,2.726 0.174,0.206 0.35,0.419 0.527,0.631 0.347,0.215 0.54,0.637 0.235,1.072 -1.245,1.78 -2.489,3.561 -3.734,5.342 -0.063,0.088 -0.134,0.159 -0.209,0.214 -0.094,0.165 -0.257,0.298 -0.502,0.356 -0.097,0.023 -0.194,0.046 -0.291,0.07 l 0,24.297 c 0,0.118 -0.021,0.222 -0.058,0.314 0.037,0.093 0.058,0.197 0.058,0.315 l 0,24.297 z"
         style="fill:#434040;fill-opacity:1;fill-rule:nonzero;stroke:none"
         id="path182"
         inkscape:connector-curvature="0" />
    </g>
  </g>
</svg>
