<?xml version="1.0" encoding="UTF-8" standalone="no"?>
<!-- Created with Inkscape (http://www.inkscape.org/) -->
<svg
   xmlns:dc="http://purl.org/dc/elements/1.1/"
   xmlns:cc="http://web.resource.org/cc/"
   xmlns:rdf="http://www.w3.org/1999/02/22-rdf-syntax-ns#"
   xmlns:svg="http://www.w3.org/2000/svg"
   xmlns="http://www.w3.org/2000/svg"
   xmlns:xlink="http://www.w3.org/1999/xlink"
   xmlns:sodipodi="http://sodipodi.sourceforge.net/DTD/sodipodi-0.dtd"
   xmlns:inkscape="http://www.inkscape.org/namespaces/inkscape"
   width="400"
   height="200"
   id="svg2"
   sodipodi:version="0.32"
   inkscape:version="0.45.1"
   version="1.0"
   sodipodi:docbase="/home/nicu/Desktop"
   sodipodi:docname="corner02.svg"
   inkscape:output_extension="org.inkscape.output.svg.inkscape">
  <defs
     id="defs4">
    <linearGradient
       id="linearGradient4212">
      <stop
         style="stop-color:#d38d5f;stop-opacity:1;"
         offset="0"
         id="stop4214" />
      <stop
         style="stop-color:#eed2bf;stop-opacity:1;"
         offset="1"
         id="stop4216" />
    </linearGradient>
    <linearGradient
       inkscape:collect="always"
       xlink:href="#linearGradient4212"
       id="linearGradient4218"
       x1="59.125"
       y1="33.549679"
       x2="59.125"
       y2="36.280327"
       gradientUnits="userSpaceOnUse" />
    <linearGradient
       inkscape:collect="always"
       xlink:href="#linearGradient4212"
       id="linearGradient4220"
       x1="60.8125"
       y1="43.362179"
       x2="60.8125"
       y2="46.27961"
       gradientUnits="userSpaceOnUse" />
    <linearGradient
       inkscape:collect="always"
       xlink:href="#linearGradient4212"
       id="linearGradient4222"
       x1="50.5625"
       y1="35.362179"
       x2="53.51062"
       y2="35.362179"
       gradientUnits="userSpaceOnUse" />
    <linearGradient
       inkscape:collect="always"
       xlink:href="#linearGradient4212"
       id="linearGradient4230"
       x1="40.75"
       y1="35.549679"
       x2="43.5"
       y2="35.549679"
       gradientUnits="userSpaceOnUse" />
    <linearGradient
       inkscape:collect="always"
       xlink:href="#linearGradient4212"
       id="linearGradient5236"
       gradientUnits="userSpaceOnUse"
       x1="59.125"
       y1="33.549679"
       x2="59.125"
       y2="36.280327" />
    <linearGradient
       inkscape:collect="always"
       xlink:href="#linearGradient4212"
       id="linearGradient5238"
       gradientUnits="userSpaceOnUse"
       x1="50.5625"
       y1="35.362179"
       x2="53.51062"
       y2="35.362179" />
    <linearGradient
       inkscape:collect="always"
       xlink:href="#linearGradient4212"
       id="linearGradient5240"
       gradientUnits="userSpaceOnUse"
       x1="60.8125"
       y1="43.362179"
       x2="60.8125"
       y2="46.27961" />
    <linearGradient
       inkscape:collect="always"
       xlink:href="#linearGradient4212"
       id="linearGradient5242"
       gradientUnits="userSpaceOnUse"
       x1="40.75"
       y1="35.549679"
       x2="43.5"
       y2="35.549679" />
    <linearGradient
       inkscape:collect="always"
       xlink:href="#linearGradient4212"
       id="linearGradient5246"
       gradientUnits="userSpaceOnUse"
       x1="40.75"
       y1="35.549679"
       x2="43.5"
       y2="35.549679"
       gradientTransform="matrix(-1,0,0,-1,458.32335,223.63583)" />
    <linearGradient
       inkscape:collect="always"
       xlink:href="#linearGradient4212"
       id="linearGradient5249"
       gradientUnits="userSpaceOnUse"
       x1="60.8125"
       y1="43.362179"
       x2="60.8125"
       y2="46.27961"
       gradientTransform="matrix(-1,0,0,-1,458.32335,223.63583)" />
    <linearGradient
       inkscape:collect="always"
       xlink:href="#linearGradient4212"
       id="linearGradient5252"
       gradientUnits="userSpaceOnUse"
       x1="50.5625"
       y1="35.362179"
       x2="53.51062"
       y2="35.362179"
       gradientTransform="matrix(-1,0,0,-1,458.32335,223.63583)" />
    <linearGradient
       inkscape:collect="always"
       xlink:href="#linearGradient4212"
       id="linearGradient5255"
       gradientUnits="userSpaceOnUse"
       x1="59.125"
       y1="33.549679"
       x2="59.125"
       y2="36.280327"
       gradientTransform="matrix(-1,0,0,-1,458.32335,223.63583)" />
    <linearGradient
       inkscape:collect="always"
       xlink:href="#linearGradient4212"
       id="linearGradient5266"
       gradientUnits="userSpaceOnUse"
       gradientTransform="matrix(-1,0,0,-1,458.32335,223.63583)"
       x1="59.125"
       y1="33.549679"
       x2="59.125"
       y2="36.280327" />
    <linearGradient
       inkscape:collect="always"
       xlink:href="#linearGradient4212"
       id="linearGradient5268"
       gradientUnits="userSpaceOnUse"
       gradientTransform="matrix(-1,0,0,-1,458.32335,223.63583)"
       x1="50.5625"
       y1="35.362179"
       x2="53.51062"
       y2="35.362179" />
    <linearGradient
       inkscape:collect="always"
       xlink:href="#linearGradient4212"
       id="linearGradient5270"
       gradientUnits="userSpaceOnUse"
       gradientTransform="matrix(-1,0,0,-1,458.32335,223.63583)"
       x1="60.8125"
       y1="43.362179"
       x2="60.8125"
       y2="46.27961" />
    <linearGradient
       inkscape:collect="always"
       xlink:href="#linearGradient4212"
       id="linearGradient5272"
       gradientUnits="userSpaceOnUse"
       gradientTransform="matrix(-1,0,0,-1,458.32335,223.63583)"
       x1="40.75"
       y1="35.549679"
       x2="43.5"
       y2="35.549679" />
  </defs>
  <sodipodi:namedview
     id="base"
     pagecolor="#ffffff"
     bordercolor="#666666"
     borderopacity="1.0"
     gridtolerance="10000"
     guidetolerance="10"
     objecttolerance="10"
     inkscape:pageopacity="0.0"
     inkscape:pageshadow="2"
     inkscape:zoom="1"
     inkscape:cx="180"
     inkscape:cy="80"
     inkscape:document-units="px"
     inkscape:current-layer="layer1"
     showgrid="false"
     width="400px"
     height="200px"
     inkscape:window-width="872"
     inkscape:window-height="627"
     inkscape:window-x="400"
     inkscape:window-y="139" />
  <metadata
     id="metadata7">
    <rdf:RDF>
      <cc:Work
         rdf:about="">
        <dc:format>image/svg+xml</dc:format>
        <dc:type
           rdf:resource="http://purl.org/dc/dcmitype/StillImage" />
      </cc:Work>
    </rdf:RDF>
  </metadata>
  <g
     inkscape:label="Layer 1"
     inkscape:groupmode="layer"
     id="layer1"
     transform="translate(-93.784995,-59.737649)">
    <g
       id="g5214"
       transform="translate(69.999641,44.839468)">
      <path
         id="path4232"
         d="M 42.780896,22.750002 C 41.848273,22.798531 40.987843,23.361097 40.999646,24.281252 L 40.999646,33.781252 L 31.499646,33.781252 C 29.518292,33.602993 28.92761,37.431424 31.499646,37.781252 L 40.999646,37.781252 L 40.999646,43.781252 L 31.499646,43.781252 C 29.519444,44.186677 28.932029,46.916882 31.499646,47.781252 L 40.999646,47.781252 L 40.999646,152.96875 C 42.214521,156.16714 44.689342,154.53445 44.999646,152.96875 L 44.999646,47.781252 L 50.999646,47.781252 L 50.999646,162.875 C 51.46429,165.97414 54.910858,165.13887 54.999646,162.875 L 54.999646,47.781252 L 363.49965,47.781252 C 366.66804,47.510419 365.72639,43.927085 363.49965,43.781252 L 54.999646,43.781252 L 54.999646,37.781252 L 352.18715,37.781252 C 354.73747,36.716356 354.44166,34.307823 352.18715,33.781252 L 54.999646,33.781252 L 54.999646,24.281252 C 54.291313,22.132172 51.582979,22.316119 50.999646,24.281252 L 50.999646,33.781252 L 44.999646,33.781252 L 44.999646,24.281252 C 44.718334,23.16698 43.713519,22.701473 42.780896,22.750002 z M 44.999646,37.781252 L 50.999646,37.781252 L 50.999646,43.781252 L 44.999646,43.781252 L 44.999646,37.781252 z "
         style="fill:#000000;fill-opacity:0.49803922;fill-rule:evenodd;stroke:none;stroke-width:1;stroke-linecap:butt;stroke-linejoin:miter;stroke-miterlimit:4;stroke-dasharray:none;stroke-opacity:1" />
      <path
         sodipodi:nodetypes="ccccc"
         id="path2162"
         d="M 30.5,36.27961 C 28.757973,35.192509 28.910132,33.700117 30.5,33.27961 L 351.25,33.27961 C 352.29746,34.27961 353.14855,35.27961 351.25,36.27961 L 30.5,36.27961 z "
         style="fill:url(#linearGradient4218);fill-opacity:1;fill-rule:evenodd;stroke:none;stroke-width:1;stroke-linecap:butt;stroke-linejoin:miter;stroke-miterlimit:4;stroke-dasharray:none;stroke-opacity:1" />
      <path
         sodipodi:nodetypes="ccccc"
         style="fill:url(#linearGradient4222);fill-opacity:1;fill-rule:evenodd;stroke:none;stroke-width:1;stroke-linecap:butt;stroke-linejoin:miter;stroke-miterlimit:4;stroke-dasharray:none;stroke-opacity:1"
         d="M 53.5,161.86218 C 52.5,163.61218 51.5,163.61218 50.5,161.86218 L 50.5,23.279603 C 51.271211,22.084899 52.279725,21.407267 53.5,23.279603 L 53.5,161.86218 z "
         id="path4117" />
      <path
         sodipodi:nodetypes="ccccc"
         id="path2160"
         d="M 30.5,46.27961 C 29.152347,45.396339 28.793012,43.502966 30.5,43.27961 L 362.5,43.27961 C 364.86594,44.27961 364.45936,45.27961 362.5,46.27961 L 30.5,46.27961 z "
         style="fill:url(#linearGradient4220);fill-opacity:1;fill-rule:evenodd;stroke:none;stroke-width:1;stroke-linecap:butt;stroke-linejoin:miter;stroke-miterlimit:4;stroke-dasharray:none;stroke-opacity:1" />
      <path
         sodipodi:nodetypes="ccccc"
         style="fill:url(#linearGradient4230);fill-opacity:1;fill-rule:evenodd;stroke:none;stroke-width:1;stroke-linecap:butt;stroke-linejoin:miter;stroke-miterlimit:4;stroke-dasharray:none;stroke-opacity:1"
         d="M 43.5,152.31624 C 42.405754,153.63568 41.428225,153.32108 40.5,152.31624 L 40.5,23.279603 C 41.5,21.779603 42.5,21.779603 43.5,23.279603 L 43.5,152.31624 z "
         id="path4119" />
      <path
         sodipodi:nodetypes="cccccccccccccccccccccccccccccccccccccccccccccccccccccccccccccccccccccccccc"
         id="path4159"
         d="M 40,23.28125 L 40,32.78125 L 30.5,32.78125 C 28.518646,32.602991 27.927964,36.431422 30.5,36.78125 L 40,36.78125 L 40,42.78125 L 30.5,42.78125 C 28.519798,43.186675 27.932383,45.91688 30.5,46.78125 L 40,46.78125 L 40,151.97551 C 41.214875,155.1739 43.689696,153.54121 44,151.97551 L 44,46.78125 L 50,46.78125 L 50,161.875 C 50.464644,164.97414 53.911212,164.13887 54,161.875 L 54,46.78125 L 362.5,46.78125 C 365.66839,46.510417 364.72674,42.927083 362.5,42.78125 L 54,42.78125 L 54,36.78125 L 351.18198,36.78125 C 353.7323,35.716354 353.43649,33.307821 351.18198,32.78125 L 54,32.78125 L 54,23.28125 C 53.291667,21.13217 50.583333,21.316117 50,23.28125 L 50,32.78125 L 44,32.78125 L 44,23.28125 C 43.437375,21.052706 39.976395,21.44094 40,23.28125 z M 41,23.78125 C 41.025786,22.001536 43.09509,22.33571 43,23.78125 L 43,42.78125 L 41,42.78125 L 41,23.78125 z M 51,23.78125 C 50.854167,22.664352 52.333333,21.658611 53,23.78125 L 53,32.78125 L 51,32.78125 L 51,23.78125 z M 31,33.78125 L 40,33.78125 L 40,35.78125 L 31,35.78125 C 29.10307,35.927083 29.325811,33.510417 31,33.78125 z M 44,33.78125 L 350.68198,33.78125 C 352.1464,33.555052 352.62075,35.670438 350.68198,35.78125 L 44,35.78125 L 44,33.78125 z M 44,36.78125 L 50,36.78125 L 50,42.78125 L 44,42.78125 L 44,36.78125 z M 51,36.78125 L 53,36.78125 L 53,161.375 C 52.502921,163.45275 50.823484,162.85039 51,161.375 L 51,36.78125 z M 31,43.78125 L 50,43.78125 L 50,45.78125 L 31,45.78125 C 28.783486,45.824511 29.387559,43.511015 31,43.78125 z M 54,43.78125 L 362,43.78125 C 363.85173,43.197917 364.87867,46.052083 362,45.78125 L 54,45.78125 L 54,43.78125 z M 41,46.78125 L 43,46.78125 L 43,151.47551 C 42.79696,153.4166 41.287748,152.98747 41,151.47551 L 41,46.78125 z "
         style="fill:#000000;fill-opacity:1;fill-rule:evenodd;stroke:none;stroke-width:1;stroke-linecap:butt;stroke-linejoin:miter;stroke-miterlimit:4;stroke-dasharray:none;stroke-opacity:1" />
    </g>
    <g
       id="g5258"
       transform="translate(55,46.83947)">
      <path
         style="fill:#000000;fill-opacity:0.49803922;fill-rule:evenodd;stroke:none;stroke-width:1;stroke-linecap:butt;stroke-linejoin:miter;stroke-miterlimit:4;stroke-dasharray:none;stroke-opacity:1"
         d="M 417.5421,202.88583 C 418.47473,202.8373 419.33516,202.27473 419.32335,201.35458 L 419.32335,191.85458 L 428.82335,191.85458 C 430.80471,192.03284 431.39539,188.20441 428.82335,187.85458 L 419.32335,187.85458 L 419.32335,181.85458 L 428.82335,181.85458 C 430.80356,181.44915 431.39097,178.71895 428.82335,177.85458 L 419.32335,177.85458 L 419.32335,72.667084 C 418.10848,69.468694 415.63366,71.101384 415.32335,72.667084 L 415.32335,177.85458 L 409.32335,177.85458 L 409.32335,62.760834 C 408.85871,59.661694 405.41214,60.496964 405.32335,62.760834 L 405.32335,177.85458 L 96.823355,177.85458 C 93.654965,178.12541 94.596615,181.70874 96.823355,181.85458 L 405.32335,181.85458 L 405.32335,187.85458 L 108.13585,187.85458 C 105.58553,188.91947 105.88134,191.32801 108.13585,191.85458 L 405.32335,191.85458 L 405.32335,201.35458 C 406.03169,203.50366 408.74002,203.31971 409.32335,201.35458 L 409.32335,191.85458 L 415.32335,191.85458 L 415.32335,201.35458 C 415.60467,202.46885 416.60948,202.93436 417.5421,202.88583 z M 415.32335,187.85458 L 409.32335,187.85458 L 409.32335,181.85458 L 415.32335,181.85458 L 415.32335,187.85458 z "
         id="path5224" />
      <path
         style="fill:url(#linearGradient5266);fill-opacity:1;fill-rule:evenodd;stroke:none;stroke-width:1;stroke-linecap:butt;stroke-linejoin:miter;stroke-miterlimit:4;stroke-dasharray:none;stroke-opacity:1"
         d="M 427.82335,187.35622 C 429.56538,188.44332 429.41322,189.93571 427.82335,190.35622 L 107.07335,190.35622 C 106.02589,189.35622 105.1748,188.35622 107.07335,187.35622 L 427.82335,187.35622 z "
         id="path5226"
         sodipodi:nodetypes="ccccc" />
      <path
         id="path5228"
         d="M 404.82335,61.77365 C 405.82335,60.02365 406.82335,60.02365 407.82335,61.77365 L 407.82335,200.35623 C 407.05214,201.55093 406.04363,202.22856 404.82335,200.35623 L 404.82335,61.77365 z "
         style="fill:url(#linearGradient5268);fill-opacity:1;fill-rule:evenodd;stroke:none;stroke-width:1;stroke-linecap:butt;stroke-linejoin:miter;stroke-miterlimit:4;stroke-dasharray:none;stroke-opacity:1"
         sodipodi:nodetypes="ccccc" />
      <path
         style="fill:url(#linearGradient5270);fill-opacity:1;fill-rule:evenodd;stroke:none;stroke-width:1;stroke-linecap:butt;stroke-linejoin:miter;stroke-miterlimit:4;stroke-dasharray:none;stroke-opacity:1"
         d="M 427.82335,177.35622 C 429.171,178.23949 429.53034,180.13286 427.82335,180.35622 L 95.82335,180.35622 C 93.45741,179.35622 93.86399,178.35622 95.82335,177.35622 L 427.82335,177.35622 z "
         id="path5230"
         sodipodi:nodetypes="ccccc" />
      <path
         id="path5232"
         d="M 414.82335,71.31959 C 415.9176,70.00015 416.89513,70.31475 417.82335,71.31959 L 417.82335,200.35623 C 416.82335,201.85623 415.82335,201.85623 414.82335,200.35623 L 414.82335,71.31959 z "
         style="fill:url(#linearGradient5272);fill-opacity:1;fill-rule:evenodd;stroke:none;stroke-width:1;stroke-linecap:butt;stroke-linejoin:miter;stroke-miterlimit:4;stroke-dasharray:none;stroke-opacity:1"
         sodipodi:nodetypes="ccccc" />
      <path
         style="fill:#000000;fill-opacity:1;fill-rule:evenodd;stroke:none;stroke-width:1;stroke-linecap:butt;stroke-linejoin:miter;stroke-miterlimit:4;stroke-dasharray:none;stroke-opacity:1"
         d="M 418.32335,200.35458 L 418.32335,190.85458 L 427.82335,190.85458 C 429.8047,191.03284 430.39539,187.20441 427.82335,186.85458 L 418.32335,186.85458 L 418.32335,180.85458 L 427.82335,180.85458 C 429.80355,180.44915 430.39097,177.71895 427.82335,176.85458 L 418.32335,176.85458 L 418.32335,71.66032 C 417.10847,68.46193 414.63365,70.09462 414.32335,71.66032 L 414.32335,176.85458 L 408.32335,176.85458 L 408.32335,61.76083 C 407.85871,58.66169 404.41214,59.49696 404.32335,61.76083 L 404.32335,176.85458 L 95.82335,176.85458 C 92.65496,177.12541 93.59661,180.70875 95.82335,180.85458 L 404.32335,180.85458 L 404.32335,186.85458 L 107.14137,186.85458 C 104.59105,187.91948 104.88686,190.32801 107.14137,190.85458 L 404.32335,190.85458 L 404.32335,200.35458 C 405.03168,202.50366 407.74002,202.31971 408.32335,200.35458 L 408.32335,190.85458 L 414.32335,190.85458 L 414.32335,200.35458 C 414.88598,202.58312 418.34695,202.19489 418.32335,200.35458 z M 417.32335,199.85458 C 417.29756,201.63429 415.22826,201.30012 415.32335,199.85458 L 415.32335,180.85458 L 417.32335,180.85458 L 417.32335,199.85458 z M 407.32335,199.85458 C 407.46918,200.97148 405.99002,201.97722 405.32335,199.85458 L 405.32335,190.85458 L 407.32335,190.85458 L 407.32335,199.85458 z M 427.32335,189.85458 L 418.32335,189.85458 L 418.32335,187.85458 L 427.32335,187.85458 C 429.22028,187.70875 428.99754,190.12541 427.32335,189.85458 z M 414.32335,189.85458 L 107.64137,189.85458 C 106.17695,190.08078 105.7026,187.96539 107.64137,187.85458 L 414.32335,187.85458 L 414.32335,189.85458 z M 414.32335,186.85458 L 408.32335,186.85458 L 408.32335,180.85458 L 414.32335,180.85458 L 414.32335,186.85458 z M 407.32335,186.85458 L 405.32335,186.85458 L 405.32335,62.26083 C 405.82043,60.18308 407.49987,60.78544 407.32335,62.26083 L 407.32335,186.85458 z M 427.32335,179.85458 L 408.32335,179.85458 L 408.32335,177.85458 L 427.32335,177.85458 C 429.53986,177.81132 428.93579,180.12482 427.32335,179.85458 z M 404.32335,179.85458 L 96.32335,179.85458 C 94.47162,180.43791 93.44468,177.58375 96.32335,177.85458 L 404.32335,177.85458 L 404.32335,179.85458 z M 417.32335,176.85458 L 415.32335,176.85458 L 415.32335,72.16032 C 415.52639,70.21923 417.0356,70.64836 417.32335,72.16032 L 417.32335,176.85458 z "
         id="path5234"
         sodipodi:nodetypes="cccccccccccccccccccccccccccccccccccccccccccccccccccccccccccccccccccccccccc" />
    </g>
  </g>
</svg>
