<?xml version="1.0" encoding="UTF-8" standalone="no"?>
<!-- Created with Inkscape (http://www.inkscape.org/) -->
<svg
   xmlns:dc="http://purl.org/dc/elements/1.1/"
   xmlns:cc="http://web.resource.org/cc/"
   xmlns:rdf="http://www.w3.org/1999/02/22-rdf-syntax-ns#"
   xmlns:svg="http://www.w3.org/2000/svg"
   xmlns="http://www.w3.org/2000/svg"
   xmlns:xlink="http://www.w3.org/1999/xlink"
   xmlns:sodipodi="http://sodipodi.sourceforge.net/DTD/sodipodi-0.dtd"
   xmlns:inkscape="http://www.inkscape.org/namespaces/inkscape"
   width="40"
   height="40"
   id="svg2"
   sodipodi:version="0.32"
   inkscape:version="0.45.1"
   version="1.0"
   sodipodi:docbase="/home/nicu/public_html/pictures/games/borders/dark_border"
   sodipodi:docname="dark_bottom_right.svg"
   inkscape:output_extension="org.inkscape.output.svg.inkscape">
  <defs
     id="defs4">
    <linearGradient
       id="linearGradient2166">
      <stop
         style="stop-color:#666666;stop-opacity:1;"
         offset="0"
         id="stop2168" />
      <stop
         style="stop-color:#a7a7a7;stop-opacity:1;"
         offset="1"
         id="stop2170" />
    </linearGradient>
    <linearGradient
       inkscape:collect="always"
       xlink:href="#linearGradient2166"
       id="linearGradient2258"
       gradientUnits="userSpaceOnUse"
       gradientTransform="matrix(1,0,0,0.7647059,0,2.2352941)"
       x1="21.344917"
       y1="15.21217"
       x2="21.344917"
       y2="2.1145835" />
    <linearGradient
       y2="2.5912144"
       x2="21.492229"
       y1="15.1633"
       x1="21.492229"
       gradientTransform="matrix(1,0,0,0.7647059,0,2.2352941)"
       gradientUnits="userSpaceOnUse"
       id="linearGradient2215"
       xlink:href="#linearGradient2166"
       inkscape:collect="always" />
    <linearGradient
       inkscape:collect="always"
       xlink:href="#linearGradient2166"
       id="linearGradient2230"
       gradientUnits="userSpaceOnUse"
       gradientTransform="matrix(1,0,0,0.7647059,0,2.2352941)"
       x1="17.235727"
       y1="3.0536706"
       x2="17.235727"
       y2="16.846785" />
    <linearGradient
       inkscape:collect="always"
       xlink:href="#linearGradient2166"
       id="linearGradient2232"
       gradientUnits="userSpaceOnUse"
       gradientTransform="matrix(1,0,0,0.7647059,0,2.2352941)"
       x1="17.235727"
       y1="3.0536706"
       x2="17.235727"
       y2="16.846785" />
    <linearGradient
       inkscape:collect="always"
       xlink:href="#linearGradient2166"
       id="linearGradient2271"
       gradientUnits="userSpaceOnUse"
       gradientTransform="matrix(1,0,0,0.7647059,0,2.2352941)"
       x1="21.344917"
       y1="15.21217"
       x2="21.344917"
       y2="2.1145835" />
  </defs>
  <sodipodi:namedview
     id="base"
     pagecolor="#ffffff"
     bordercolor="#666666"
     borderopacity="1.0"
     gridtolerance="10000"
     guidetolerance="10"
     objecttolerance="10"
     inkscape:pageopacity="0.0"
     inkscape:pageshadow="2"
     inkscape:zoom="1"
     inkscape:cx="32.459291"
     inkscape:cy="6.0907287"
     inkscape:document-units="px"
     inkscape:current-layer="layer1"
     width="40px"
     height="40px"
     inkscape:window-width="1256"
     inkscape:window-height="971"
     inkscape:window-x="383"
     inkscape:window-y="69" />
  <metadata
     id="metadata7">
    <rdf:RDF>
      <cc:Work
         rdf:about="">
        <dc:format>image/svg+xml</dc:format>
        <dc:type
           rdf:resource="http://purl.org/dc/dcmitype/StillImage" />
      </cc:Work>
    </rdf:RDF>
  </metadata>
  <g
     inkscape:label="Layer 1"
     inkscape:groupmode="layer"
     id="layer1">
    <g
       id="g4839"
       transform="translate(0,20)">
      <rect
         y="-3.6177658e-15"
         x="0"
         height="20"
         width="40"
         id="rect2160"
         style="fill:#000000;fill-opacity:1;stroke:none;stroke-width:2;stroke-miterlimit:4;stroke-dasharray:none;stroke-opacity:1" />
      <rect
         style="fill:#333333;fill-opacity:1;stroke:none;stroke-width:2;stroke-miterlimit:4;stroke-dasharray:none;stroke-opacity:1"
         id="rect2176"
         width="40"
         height="19"
         x="0"
         y="2.8865799e-15" />
      <path
         id="rect2162"
         d="M 0,1 L 0,18 L 20.09375,18 L 20.5625,14.6875 L 14.1875,12.875 L 20.8125,14 L 20.0625,11.625 L 17.75,9.5625 C 17.8125,9.6875 20.184133,11.394635 20.28125,11.625 L 22.09375,15.875 L 23.6875,16.5625 L 24.34375,14.1875 L 23.4375,11.375 L 23.6875,5.4375 L 20.375,3.625 L 24.25,5.3125 L 24.21875,11.875 L 32.75,7.4375 L 24.25,12.875 L 25.3125,15.6875 L 30.25,16.8125 L 34.125,13.75 L 30.1875,17.25 L 25.1875,16.5 L 25.71875,18 L 40,18 L 40,1 L 35.9375,1 L 35.03125,3.71875 L 37.25,4.125 L 34.625,4 L 35.5625,4.875 L 33.875,4.125 L 31.0625,5.875 L 33.4375,3.8125 L 32.25,1 L 6.59375,1 L 7.375,4.125 L 13.0625,5.34375 L 7.46875,4.6875 L 6.3125,6.90625 L 8.1875,8.8125 L 11.65625,10.46875 L 7.75,9.25 L 6,7.46875 L 5.4375,6.5 L 2.1875,11.1875 L 3.6875,8.34375 L 6.21875,4.59375 L 4.65625,1 L 0,1 z "
         style="fill:#cccccc;fill-opacity:1;stroke:none;stroke-width:2;stroke-miterlimit:4;stroke-dasharray:none;stroke-opacity:1" />
      <path
         id="rect2174"
         d="M 0,2 L 0,17 L 20.25,17 L 20.5625,14.6875 L 14.1875,12.875 L 20.8125,14 L 20.0625,11.625 L 17.75,9.5625 C 17.8125,9.6875 20.184133,11.394635 20.28125,11.625 L 22.09375,15.875 L 23.6875,16.5625 L 24.34375,14.1875 L 23.4375,11.375 L 23.6875,5.4375 L 20.375,3.625 L 24.25,5.3125 L 24.21875,11.875 L 32.75,7.4375 L 24.25,12.875 L 25.3125,15.6875 L 30.25,16.8125 L 34.125,13.75 L 30.46875,17 L 40,17 L 40,2 L 35.625,2 L 35.03125,3.71875 L 37.25,4.125 L 34.625,4 L 35.5625,4.875 L 33.875,4.125 L 31.0625,5.875 L 33.4375,3.8125 L 32.65625,2 L 6.84375,2 L 7.375,4.125 L 13.0625,5.34375 L 7.46875,4.6875 L 6.3125,6.90625 L 8.1875,8.8125 L 11.65625,10.46875 L 7.75,9.25 L 6,7.46875 L 5.4375,6.5 L 2.1875,11.1875 L 3.6875,8.34375 L 6.21875,4.59375 L 5.09375,2 L 0,2 z M 25.1875,16.5 L 25.375,17 L 28.53125,17 L 25.1875,16.5 z "
         style="fill:#333333;fill-opacity:1;stroke:none;stroke-width:2;stroke-miterlimit:4;stroke-dasharray:none;stroke-opacity:1" />
      <path
         id="rect2164"
         d="M 0,3 L 0,16 L 20.375,16 L 20.5625,14.6875 L 14.1875,12.875 L 20.8125,14 L 20.0625,11.625 L 17.75,9.5625 C 17.8125,9.6875 20.184133,11.394635 20.28125,11.625 L 22.09375,15.875 L 22.375,16 L 23.84375,16 L 24.34375,14.1875 L 23.4375,11.375 L 23.6875,5.4375 L 20.375,3.625 L 24.25,5.3125 L 24.21875,11.875 L 32.75,7.4375 L 24.25,12.875 L 25.3125,15.6875 L 26.6875,16 L 31.28125,16 L 33.757812,14.09375 L 31.59375,16 L 40,16 L 40,3 L 35.28125,3 L 35.03125,3.71875 L 37.25,4.125 L 34.625,4 L 35.5625,4.875 L 33.875,4.125 L 31.0625,5.875 L 33.4375,3.8125 L 33.09375,3 L 7.09375,3 L 7.375,4.125 L 13.0625,5.34375 L 7.46875,4.6875 L 6.3125,6.90625 L 8.1875,8.8125 L 11.65625,10.46875 L 7.75,9.25 L 6,7.46875 L 5.4375,6.5 L 2.1875,11.1875 L 3.6875,8.34375 L 6.21875,4.59375 L 5.53125,3 L 0,3 z "
         style="fill:url(#linearGradient2258);fill-opacity:1;stroke:none;stroke-width:2;stroke-miterlimit:4;stroke-dasharray:none;stroke-opacity:1"
         sodipodi:nodetypes="ccccccccccccccccccccccccccccccccccccccccccccccccccc" />
    </g>
    <g
       id="g2257"
       inkscape:label="Layer 1">
      <g
         transform="matrix(0,-1,1,0,20,40)"
         id="g2259">
        <path
           style="fill:#000000;fill-opacity:1;stroke:none;stroke-width:2;stroke-miterlimit:4;stroke-opacity:1"
           d="M 20.1875,-3.5527137e-15 L 40,-3.5527137e-15 L 40,20 L 0,20 L 20.1875,-3.5527137e-15 z "
           id="rect2261"
           sodipodi:nodetypes="ccccc" />
        <path
           style="fill:#333333;fill-opacity:1;stroke:none;stroke-width:2;stroke-miterlimit:4;stroke-opacity:1"
           d="M 20,3.5527137e-15 L 40,3.5527137e-15 L 40,19 L 0.9375,19 L 20,3.5527137e-15 z "
           id="rect2263"
           sodipodi:nodetypes="ccccc" />
        <path
           style="fill:#cccccc;fill-opacity:1;stroke:none;stroke-width:2;stroke-miterlimit:4;stroke-dasharray:none;stroke-opacity:1"
           d="M 19,1 L 1.9375,18 L 20.09375,18 L 20.5625,14.6875 L 14.1875,12.875 L 20.8125,14 L 20.0625,11.625 L 17.75,9.5625 C 17.8125,9.6875 20.184133,11.394635 20.28125,11.625 L 22.09375,15.875 L 23.6875,16.5625 L 24.34375,14.1875 L 23.4375,11.375 L 23.6875,5.4375 L 20.375,3.625 L 24.25,5.3125 L 24.21875,11.875 L 32.75,7.4375 L 24.25,12.875 L 25.3125,15.6875 L 30.25,16.8125 L 34.125,13.75 L 30.1875,17.25 L 25.1875,16.5 L 25.71875,18 L 40,18 L 40,1 L 35.9375,1 L 35.03125,3.71875 L 37.25,4.125 L 34.625,4 L 35.5625,4.875 L 33.875,4.125 L 31.0625,5.875 L 33.4375,3.8125 L 32.25,1 L 19,1 z "
           id="path2265"
           sodipodi:nodetypes="ccccccccccccccccccccccccccccccccccccc" />
        <path
           style="fill:#333333;fill-opacity:1;stroke:none;stroke-width:2;stroke-miterlimit:4;stroke-dasharray:none;stroke-opacity:1"
           d="M 17.75,2 L 2.75,16.9375 L 20.25,17 L 20.5625,14.6875 L 14.1875,12.875 L 20.8125,14 L 20.0625,11.625 L 17.75,9.5625 C 17.8125,9.6875 20.184133,11.394635 20.28125,11.625 L 22.09375,15.875 L 23.6875,16.5625 L 24.34375,14.1875 L 23.4375,11.375 L 23.6875,5.4375 L 20.375,3.625 L 24.25,5.3125 L 24.21875,11.875 L 32.75,7.4375 L 24.25,12.875 L 25.3125,15.6875 L 30.25,16.8125 L 34.125,13.75 L 30.46875,17 L 40,17 L 40,2 L 35.625,2 L 35.03125,3.71875 L 37.25,4.125 L 34.625,4 L 35.5625,4.875 L 33.875,4.125 L 31.0625,5.875 L 33.4375,3.8125 L 32.65625,2 L 17.75,2 z M 25.1875,16.5 L 25.375,17 L 28.53125,17 L 25.1875,16.5 z "
           id="path2267"
           sodipodi:nodetypes="ccccccccccccccccccccccccccccccccccccccc" />
        <path
           style="fill:url(#linearGradient2271);fill-opacity:1;stroke:none;stroke-width:2;stroke-miterlimit:4;stroke-dasharray:none;stroke-opacity:1"
           d="M 16.6875,2.875 L 10.607421,9.0135412 L 12.110548,12.03056 L 10.33913,9.2844121 L 3.6875,16 L 20.375,16 L 20.5625,14.6875 L 14.1875,12.875 L 20.8125,14 L 20.0625,11.625 L 17.75,9.5625 C 17.8125,9.6875 20.184133,11.394635 20.28125,11.625 L 22.09375,15.875 L 22.375,16 L 23.84375,16 L 24.34375,14.1875 L 23.4375,11.375 L 23.6875,5.4375 L 20.375,3.625 L 24.25,5.3125 L 24.21875,11.875 L 32.75,7.4375 L 24.25,12.875 L 25.3125,15.6875 L 26.6875,16 L 31.28125,16 L 34.125,13.75 L 31.59375,16 L 40,16 L 40,3 L 35.28125,3 L 35.03125,3.71875 L 37.25,4.125 L 34.625,4 L 35.5625,4.875 L 33.875,4.125 L 31.0625,5.875 L 33.4375,3.8125 L 33.09375,3 L 16.6875,2.875 z "
           id="path2269"
           sodipodi:nodetypes="cccccccccccccccccccccccccccccccccccccccc" />
      </g>
    </g>
  </g>
</svg>
