<?xml version="1.0" encoding="UTF-8" standalone="no"?>
<!-- Created with Inkscape (http://www.inkscape.org/) -->
<svg
   xmlns:dc="http://purl.org/dc/elements/1.1/"
   xmlns:cc="http://web.resource.org/cc/"
   xmlns:rdf="http://www.w3.org/1999/02/22-rdf-syntax-ns#"
   xmlns:svg="http://www.w3.org/2000/svg"
   xmlns="http://www.w3.org/2000/svg"
   xmlns:xlink="http://www.w3.org/1999/xlink"
   xmlns:sodipodi="http://sodipodi.sourceforge.net/DTD/sodipodi-0.dtd"
   xmlns:inkscape="http://www.inkscape.org/namespaces/inkscape"
   width="40"
   height="40"
   id="svg2"
   sodipodi:version="0.32"
   inkscape:version="0.45.1"
   version="1.0"
   sodipodi:docbase="/home/nicu/Desktop/border"
   sodipodi:docname="golden_top_left.svg"
   inkscape:output_extension="org.inkscape.output.svg.inkscape">
  <defs
     id="defs4">
    <linearGradient
       id="linearGradient4112">
      <stop
         style="stop-color:#818100;stop-opacity:1;"
         offset="0"
         id="stop4114" />
      <stop
         id="stop4122"
         offset="0.5"
         style="stop-color:#d7d700;stop-opacity:1;" />
      <stop
         style="stop-color:#a9a900;stop-opacity:1;"
         offset="1"
         id="stop4116" />
    </linearGradient>
    <linearGradient
       inkscape:collect="always"
       xlink:href="#linearGradient4112"
       id="linearGradient2171"
       gradientUnits="userSpaceOnUse"
       gradientTransform="translate(9.9999097,0)"
       x1="11.5"
       y1="3.4375"
       x2="11.5"
       y2="19.1875" />
    <linearGradient
       inkscape:collect="always"
       xlink:href="#linearGradient4112"
       id="linearGradient2174"
       gradientUnits="userSpaceOnUse"
       x1="11.5"
       y1="3.4375"
       x2="11.5"
       y2="19.1875" />
    <linearGradient
       inkscape:collect="always"
       xlink:href="#linearGradient4112"
       id="linearGradient2177"
       gradientUnits="userSpaceOnUse"
       gradientTransform="translate(-9.7160903,0)"
       x1="11.5"
       y1="3.4375"
       x2="11.5"
       y2="19.1875" />
    <linearGradient
       inkscape:collect="always"
       xlink:href="#linearGradient4112"
       id="linearGradient2178"
       gradientUnits="userSpaceOnUse"
       gradientTransform="translate(18.99991,0)"
       x1="11.5"
       y1="3.4375"
       x2="11.5"
       y2="19.1875" />
    <linearGradient
       inkscape:collect="always"
       xlink:href="#linearGradient4112"
       id="linearGradient2180"
       gradientUnits="userSpaceOnUse"
       x1="11.5"
       y1="3.4375"
       x2="11.5"
       y2="19.1875"
       gradientTransform="translate(28.716,0)" />
    <linearGradient
       inkscape:collect="always"
       xlink:href="#linearGradient4112"
       id="linearGradient2182"
       gradientUnits="userSpaceOnUse"
       gradientTransform="translate(38.71591,0)"
       x1="11.5"
       y1="3.4375"
       x2="11.5"
       y2="19.1875" />
  </defs>
  <sodipodi:namedview
     id="base"
     pagecolor="#ffffff"
     bordercolor="#666666"
     borderopacity="1.0"
     gridtolerance="10000"
     guidetolerance="10"
     objecttolerance="10"
     inkscape:pageopacity="0.0"
     inkscape:pageshadow="2"
     inkscape:zoom="1"
     inkscape:cx="10"
     inkscape:cy="10"
     inkscape:document-units="px"
     inkscape:current-layer="layer1"
     width="40px"
     height="40px"
     showgrid="false"
     inkscape:window-width="1274"
     inkscape:window-height="721"
     inkscape:window-x="400"
     inkscape:window-y="139" />
  <metadata
     id="metadata7">
    <rdf:RDF>
      <cc:Work
         rdf:about="">
        <dc:format>image/svg+xml</dc:format>
        <dc:type
           rdf:resource="http://purl.org/dc/dcmitype/StillImage" />
      </cc:Work>
    </rdf:RDF>
  </metadata>
  <g
     inkscape:label="Layer 1"
     inkscape:groupmode="layer"
     id="layer1">
    <path
       id="path4128"
       d="M -8.8580001,3.1826179 L -7.1510723,9.5536789 L -3.5108778,8.5781812 L -2.2916437,13.128939 L -0.58471551,19.5 L 5.7856247,17.792879 L 9.4258197,16.817382 L 7.7188917,10.446321 L 4.0786967,11.421818 L 2.8594637,6.8710606 L 1.1525347,0.49999994 L -5.2178053,2.2071204 L -8.8580001,3.1826179 z "
       style="fill:url(#linearGradient2177);fill-opacity:1;stroke:#4c4b00;stroke-width:0.99999988;stroke-miterlimit:4;stroke-dasharray:none;stroke-opacity:1" />
    <path
       style="fill:url(#linearGradient2174);fill-opacity:1;stroke:#4c4b00;stroke-width:0.99999988;stroke-miterlimit:4;stroke-dasharray:none;stroke-opacity:1"
       d="M 0.85809025,3.1826179 L 2.565018,9.5536789 L 6.2052125,8.5781812 L 7.4244466,13.128939 L 9.1313748,19.5 L 15.501715,17.792879 L 19.14191,16.817382 L 17.434982,10.446321 L 13.794787,11.421818 L 12.575554,6.8710606 L 10.868625,0.49999994 L 4.498285,2.2071204 L 0.85809025,3.1826179 z "
       id="rect2160" />
    <path
       id="path4124"
       d="M 10.858,3.1826179 L 12.564928,9.5536789 L 16.205122,8.5781812 L 17.424356,13.128939 L 19.131284,19.5 L 25.501625,17.792879 L 29.14182,16.817382 L 27.434892,10.446321 L 23.794697,11.421818 L 22.575464,6.8710606 L 20.868535,0.49999994 L 14.498195,2.2071204 L 10.858,3.1826179 z "
       style="fill:url(#linearGradient2171);fill-opacity:1;stroke:#4c4b00;stroke-width:0.99999988;stroke-miterlimit:4;stroke-dasharray:none;stroke-opacity:1" />
    <path
       style="fill:url(#linearGradient2178);fill-opacity:1;stroke:#4c4b00;stroke-width:0.99999988;stroke-miterlimit:4;stroke-dasharray:none;stroke-opacity:1"
       d="M 19.858,3.1826179 L 21.564928,9.5536789 L 25.205122,8.5781812 L 26.424356,13.128939 L 28.131285,19.5 L 34.501625,17.792879 L 38.14182,16.817382 L 36.434892,10.446321 L 32.794697,11.421818 L 31.575464,6.8710606 L 29.868535,0.49999994 L 23.498195,2.2071204 L 19.858,3.1826179 z "
       id="path2172" />
    <path
       id="path2174"
       d="M 29.57409,3.1826179 L 31.281018,9.5536789 L 34.921213,8.5781812 L 36.140447,13.128939 L 37.847375,19.5 L 44.217715,17.792879 L 47.85791,16.817382 L 46.150982,10.446321 L 42.510787,11.421818 L 41.291554,6.8710606 L 39.584625,0.49999994 L 33.214285,2.2071204 L 29.57409,3.1826179 z "
       style="fill:url(#linearGradient2180);fill-opacity:1;stroke:#4c4b00;stroke-width:0.99999988;stroke-miterlimit:4;stroke-dasharray:none;stroke-opacity:1" />
  </g>
</svg>
