<?xml version="1.0" encoding="UTF-8" standalone="no"?>
<!-- Created with Inkscape (http://www.inkscape.org/) -->
<svg
   xmlns:dc="http://purl.org/dc/elements/1.1/"
   xmlns:cc="http://web.resource.org/cc/"
   xmlns:rdf="http://www.w3.org/1999/02/22-rdf-syntax-ns#"
   xmlns:svg="http://www.w3.org/2000/svg"
   xmlns="http://www.w3.org/2000/svg"
   xmlns:xlink="http://www.w3.org/1999/xlink"
   xmlns:sodipodi="http://sodipodi.sourceforge.net/DTD/sodipodi-0.dtd"
   xmlns:inkscape="http://www.inkscape.org/namespaces/inkscape"
   width="40"
   height="40"
   id="svg2"
   sodipodi:version="0.32"
   inkscape:version="0.45.1"
   version="1.0"
   sodipodi:docbase="/home/nicu/Desktop/border"
   sodipodi:docname="golden1_bottom_center.svg"
   inkscape:output_extension="org.inkscape.output.svg.inkscape"
   inkscape:export-filename="/home/nicu/Desktop/border02.png"
   inkscape:export-xdpi="90"
   inkscape:export-ydpi="90">
  <defs
     id="defs4">
    <linearGradient
       id="linearGradient4112">
      <stop
         style="stop-color:#818100;stop-opacity:1;"
         offset="0"
         id="stop4114" />
      <stop
         id="stop4122"
         offset="0.5"
         style="stop-color:#d7d700;stop-opacity:1;" />
      <stop
         style="stop-color:#a9a900;stop-opacity:1;"
         offset="1"
         id="stop4116" />
    </linearGradient>
    <linearGradient
       inkscape:collect="always"
       xlink:href="#linearGradient4112"
       id="linearGradient2206"
       gradientUnits="userSpaceOnUse"
       x1="35.424232"
       y1="-2.021656"
       x2="35.424232"
       y2="19.672342" />
    <linearGradient
       inkscape:collect="always"
       xlink:href="#linearGradient4112"
       id="linearGradient2209"
       gradientUnits="userSpaceOnUse"
       x1="38.010666"
       y1="-0.19328117"
       x2="38.010666"
       y2="22.750227" />
    <linearGradient
       inkscape:collect="always"
       xlink:href="#linearGradient4112"
       id="linearGradient2215"
       gradientUnits="userSpaceOnUse"
       gradientTransform="matrix(-1,0,0,-1,29.99991,39.999999)"
       x1="11.5"
       y1="3.4375"
       x2="11.5"
       y2="19.1875" />
    <linearGradient
       inkscape:collect="always"
       xlink:href="#linearGradient4112"
       id="linearGradient2218"
       gradientUnits="userSpaceOnUse"
       gradientTransform="matrix(-1,0,0,-1,39.99982,39.999999)"
       x1="11.5"
       y1="3.4375"
       x2="11.5"
       y2="19.1875" />
    <linearGradient
       inkscape:collect="always"
       xlink:href="#linearGradient4112"
       id="linearGradient2221"
       gradientUnits="userSpaceOnUse"
       gradientTransform="matrix(-1,0,0,-1,49.71591,39.999999)"
       x1="11.5"
       y1="3.4375"
       x2="11.5"
       y2="19.1875" />
    <linearGradient
       inkscape:collect="always"
       xlink:href="#linearGradient4112"
       id="linearGradient2224"
       gradientUnits="userSpaceOnUse"
       gradientTransform="matrix(1,0,0,-1,9.9999097,39.999999)"
       x1="11.5"
       y1="3.4375"
       x2="11.5"
       y2="19.1875" />
    <linearGradient
       inkscape:collect="always"
       xlink:href="#linearGradient4112"
       id="linearGradient2227"
       gradientUnits="userSpaceOnUse"
       gradientTransform="matrix(1,0,0,-1,0,39.999999)"
       x1="11.5"
       y1="3.4375"
       x2="11.5"
       y2="19.1875" />
    <linearGradient
       inkscape:collect="always"
       xlink:href="#linearGradient4112"
       id="linearGradient2230"
       gradientUnits="userSpaceOnUse"
       gradientTransform="matrix(1,0,0,-1,-9.7160903,39.999999)"
       x1="11.5"
       y1="3.4375"
       x2="11.5"
       y2="19.1875" />
  </defs>
  <sodipodi:namedview
     id="base"
     pagecolor="#ffffff"
     bordercolor="#666666"
     borderopacity="1.0"
     gridtolerance="10000"
     guidetolerance="10"
     objecttolerance="10"
     inkscape:pageopacity="0.0"
     inkscape:pageshadow="2"
     inkscape:zoom="1"
     inkscape:cx="10"
     inkscape:cy="7.69"
     inkscape:document-units="px"
     inkscape:current-layer="layer1"
     width="40px"
     height="40px"
     showgrid="false"
     inkscape:window-width="1274"
     inkscape:window-height="721"
     inkscape:window-x="155"
     inkscape:window-y="133" />
  <metadata
     id="metadata7">
    <rdf:RDF>
      <cc:Work
         rdf:about="">
        <dc:format>image/svg+xml</dc:format>
        <dc:type
           rdf:resource="http://purl.org/dc/dcmitype/StillImage" />
      </cc:Work>
    </rdf:RDF>
  </metadata>
  <g
     inkscape:label="Layer 1"
     inkscape:groupmode="layer"
     id="layer1">
    <path
       style="fill:url(#linearGradient2230);fill-opacity:1;stroke:#4c4b00;stroke-width:0.99999988;stroke-miterlimit:4;stroke-dasharray:none;stroke-opacity:1"
       d="M -8.8580001,36.817381 L -7.1510723,30.44632 L -3.5108778,31.421818 L -2.2916437,26.87106 L -0.58471551,20.499999 L 5.7856247,22.20712 L 9.4258197,23.182617 L 7.7188917,29.553678 L 4.0786967,28.578181 L 2.8594637,33.128939 L 1.1525347,39.499999 L -5.2178053,37.792879 L -8.8580001,36.817381 z "
       id="path5183"
       mask="none" />
    <path
       id="path5185"
       d="M 0.85809025,36.817381 L 2.565018,30.44632 L 6.2052125,31.421818 L 7.4244466,26.87106 L 9.1313748,20.499999 L 15.501715,22.20712 L 19.14191,23.182617 L 17.434982,29.553678 L 13.794787,28.578181 L 12.575554,33.128939 L 10.868625,39.499999 L 4.498285,37.792879 L 0.85809025,36.817381 z "
       style="fill:url(#linearGradient2227);fill-opacity:1;stroke:#4c4b00;stroke-width:0.99999988;stroke-miterlimit:4;stroke-dasharray:none;stroke-opacity:1"
       mask="none" />
    <path
       style="fill:url(#linearGradient2224);fill-opacity:1;stroke:#4c4b00;stroke-width:0.99999988;stroke-miterlimit:4;stroke-dasharray:none;stroke-opacity:1"
       d="M 10.858,36.817381 L 12.564928,30.44632 L 16.205122,31.421818 L 17.424356,26.87106 L 19.131284,20.499999 L 25.501625,22.20712 L 29.14182,23.182617 L 27.434892,29.553678 L 23.794697,28.578181 L 22.575464,33.128939 L 20.868535,39.499999 L 14.498195,37.792879 L 10.858,36.817381 z "
       id="path5187"
       mask="none" />
    <path
       id="path4128"
       d="M 48.85782,36.817381 L 47.150892,30.44632 L 43.510698,31.421818 L 42.291464,26.87106 L 40.584536,20.499999 L 34.214195,22.20712 L 30.574,23.182617 L 32.280928,29.553678 L 35.921123,28.578181 L 37.140356,33.128938 L 38.847285,39.499999 L 45.217625,37.792879 L 48.85782,36.817381 z "
       style="fill:url(#linearGradient2221);fill-opacity:1;stroke:#4c4b00;stroke-width:0.99999988;stroke-miterlimit:4;stroke-dasharray:none;stroke-opacity:1"
       mask="none" />
    <path
       style="fill:url(#linearGradient2218);fill-opacity:1;stroke:#4c4b00;stroke-width:0.99999988;stroke-miterlimit:4;stroke-dasharray:none;stroke-opacity:1"
       d="M 39.14173,36.817381 L 37.434802,30.44632 L 33.794607,31.421818 L 32.575373,26.87106 L 30.868445,20.499999 L 24.498105,22.20712 L 20.85791,23.182617 L 22.564838,29.553678 L 26.205033,28.578181 L 27.424266,33.128938 L 29.131195,39.499999 L 35.501535,37.792879 L 39.14173,36.817381 z "
       id="rect2160"
       mask="none" />
    <path
       id="path4124"
       d="M 29.14182,36.817381 L 27.434892,30.44632 L 23.794698,31.421818 L 22.575464,26.87106 L 20.868536,20.499999 L 14.498195,22.20712 L 10.858,23.182617 L 12.564928,29.553678 L 16.205123,28.578181 L 17.424356,33.128938 L 19.131285,39.499999 L 25.501625,37.792879 L 29.14182,36.817381 z "
       style="fill:url(#linearGradient2215);fill-opacity:1;stroke:#4c4b00;stroke-width:0.99999988;stroke-miterlimit:4;stroke-dasharray:none;stroke-opacity:1"
       mask="none" />
    <path
       sodipodi:type="arc"
       style="fill:url(#linearGradient2206);fill-opacity:1;stroke:#4c4b00;stroke-width:1.27298808;stroke-miterlimit:4;stroke-dasharray:none;stroke-opacity:1"
       id="path4176"
       sodipodi:cx="34.1875"
       sodipodi:cy="8.25"
       sodipodi:rx="12.1875"
       sodipodi:ry="12"
       d="M 46.375 8.25 A 12.1875 12 0 1 1  22,8.25 A 12.1875 12 0 1 1  46.375 8.25 z"
       transform="matrix(0.7794872,0,0,-0.7916667,-6.6487179,36.53125)"
       mask="none" />
    <path
       transform="matrix(0.4923077,0,0,-0.5,3.1692308,34.124999)"
       d="M 46.375 8.25 A 12.1875 12 0 1 1  22,8.25 A 12.1875 12 0 1 1  46.375 8.25 z"
       sodipodi:ry="12"
       sodipodi:rx="12.1875"
       sodipodi:cy="8.25"
       sodipodi:cx="34.1875"
       id="path5159"
       style="fill:url(#linearGradient2209);fill-opacity:1;stroke:#4c4b00;stroke-width:2.01556444;stroke-miterlimit:4;stroke-dasharray:none;stroke-opacity:1"
       sodipodi:type="arc"
       mask="none" />
  </g>
</svg>
