<?xml version="1.0" encoding="UTF-8" standalone="no"?>
<!-- Created with Inkscape (http://www.inkscape.org/) -->
<svg
   xmlns:dc="http://purl.org/dc/elements/1.1/"
   xmlns:cc="http://web.resource.org/cc/"
   xmlns:rdf="http://www.w3.org/1999/02/22-rdf-syntax-ns#"
   xmlns:svg="http://www.w3.org/2000/svg"
   xmlns="http://www.w3.org/2000/svg"
   xmlns:xlink="http://www.w3.org/1999/xlink"
   xmlns:sodipodi="http://sodipodi.sourceforge.net/DTD/sodipodi-0.dtd"
   xmlns:inkscape="http://www.inkscape.org/namespaces/inkscape"
   width="40"
   height="40"
   id="svg2"
   sodipodi:version="0.32"
   inkscape:version="0.45.1"
   version="1.0"
   sodipodi:docbase="/home/nicu/Desktop/border"
   sodipodi:docname="golden1_left_middle.svg"
   inkscape:output_extension="org.inkscape.output.svg.inkscape"
   inkscape:export-filename="/home/nicu/Desktop/border02.png"
   inkscape:export-xdpi="90"
   inkscape:export-ydpi="90">
  <defs
     id="defs4">
    <linearGradient
       id="linearGradient4112">
      <stop
         style="stop-color:#818100;stop-opacity:1;"
         offset="0"
         id="stop4114" />
      <stop
         id="stop4122"
         offset="0.5"
         style="stop-color:#d7d700;stop-opacity:1;" />
      <stop
         style="stop-color:#a9a900;stop-opacity:1;"
         offset="1"
         id="stop4116" />
    </linearGradient>
    <linearGradient
       inkscape:collect="always"
       xlink:href="#linearGradient4112"
       id="linearGradient2197"
       gradientUnits="userSpaceOnUse"
       gradientTransform="matrix(1,0,0,-1,-9.7160903,19.999999)"
       x1="11.5"
       y1="3.4375"
       x2="11.5"
       y2="19.1875" />
    <linearGradient
       inkscape:collect="always"
       xlink:href="#linearGradient4112"
       id="linearGradient2200"
       gradientUnits="userSpaceOnUse"
       gradientTransform="matrix(1,0,0,-1,0,19.999999)"
       x1="11.5"
       y1="3.4375"
       x2="11.5"
       y2="19.1875" />
    <linearGradient
       inkscape:collect="always"
       xlink:href="#linearGradient4112"
       id="linearGradient2203"
       gradientUnits="userSpaceOnUse"
       gradientTransform="matrix(1,0,0,-1,9.9999097,19.999999)"
       x1="11.5"
       y1="3.4375"
       x2="11.5"
       y2="19.1875" />
    <linearGradient
       inkscape:collect="always"
       xlink:href="#linearGradient4112"
       id="linearGradient2206"
       gradientUnits="userSpaceOnUse"
       gradientTransform="matrix(-1,0,0,-1,49.71591,19.999999)"
       x1="11.5"
       y1="3.4375"
       x2="11.5"
       y2="19.1875" />
    <linearGradient
       inkscape:collect="always"
       xlink:href="#linearGradient4112"
       id="linearGradient2209"
       gradientUnits="userSpaceOnUse"
       gradientTransform="matrix(-1,0,0,-1,39.99982,19.999999)"
       x1="11.5"
       y1="3.4375"
       x2="11.5"
       y2="19.1875" />
    <linearGradient
       inkscape:collect="always"
       xlink:href="#linearGradient4112"
       id="linearGradient2211"
       gradientUnits="userSpaceOnUse"
       gradientTransform="matrix(-1,0,0,-1,29.99991,19.999999)"
       x1="11.5"
       y1="3.4375"
       x2="11.5"
       y2="19.1875" />
    <linearGradient
       inkscape:collect="always"
       xlink:href="#linearGradient4112"
       id="linearGradient2213"
       gradientUnits="userSpaceOnUse"
       x1="35.424232"
       y1="-2.021656"
       x2="35.424232"
       y2="19.672342" />
    <linearGradient
       inkscape:collect="always"
       xlink:href="#linearGradient4112"
       id="linearGradient2215"
       gradientUnits="userSpaceOnUse"
       x1="15.41301"
       y1="18.806719"
       x2="38.626747"
       y2="20.25" />
  </defs>
  <sodipodi:namedview
     id="base"
     pagecolor="#ffffff"
     bordercolor="#666666"
     borderopacity="1.0"
     gridtolerance="10000"
     guidetolerance="10"
     objecttolerance="10"
     inkscape:pageopacity="0.0"
     inkscape:pageshadow="2"
     inkscape:zoom="1"
     inkscape:cx="10"
     inkscape:cy="20"
     inkscape:document-units="px"
     inkscape:current-layer="layer1"
     width="40px"
     height="40px"
     showgrid="false"
     inkscape:window-width="1274"
     inkscape:window-height="721"
     inkscape:window-x="90"
     inkscape:window-y="278" />
  <metadata
     id="metadata7">
    <rdf:RDF>
      <cc:Work
         rdf:about="">
        <dc:format>image/svg+xml</dc:format>
        <dc:type
           rdf:resource="http://purl.org/dc/dcmitype/StillImage" />
      </cc:Work>
    </rdf:RDF>
  </metadata>
  <g
     inkscape:label="Layer 1"
     inkscape:groupmode="layer"
     id="layer1">
    <g
       id="g2185"
       transform="matrix(0,1,-1,0,20,9.005e-5)">
      <path
         id="path5183"
         d="M -8.8580001,16.817381 L -7.1510723,10.44632 L -3.5108778,11.421818 L -2.2916437,6.8710601 L -0.58471551,0.49999915 L 5.7856247,2.2071201 L 9.4258197,3.1826171 L 7.7188917,9.5536781 L 4.0786967,8.5781811 L 2.8594637,13.128939 L 1.1525347,19.499999 L -5.2178053,17.792879 L -8.8580001,16.817381 z "
         style="fill:url(#linearGradient2197);fill-opacity:1;stroke:#4c4b00;stroke-width:0.99999988;stroke-miterlimit:4;stroke-dasharray:none;stroke-opacity:1" />
      <path
         style="fill:url(#linearGradient2200);fill-opacity:1;stroke:#4c4b00;stroke-width:0.99999988;stroke-miterlimit:4;stroke-dasharray:none;stroke-opacity:1"
         d="M 0.85809025,16.817381 L 2.565018,10.44632 L 6.2052125,11.421818 L 7.4244466,6.8710601 L 9.1313748,0.49999915 L 15.501715,2.2071201 L 19.14191,3.1826171 L 17.434982,9.5536781 L 13.794787,8.5781811 L 12.575554,13.128939 L 10.868625,19.499999 L 4.498285,17.792879 L 0.85809025,16.817381 z "
         id="path5185" />
      <path
         id="path5187"
         d="M 10.858,16.817381 L 12.564928,10.44632 L 16.205122,11.421818 L 17.424356,6.8710601 L 19.131284,0.49999915 L 25.501625,2.2071201 L 29.14182,3.1826171 L 27.434892,9.5536781 L 23.794697,8.5781811 L 22.575464,13.128939 L 20.868535,19.499999 L 14.498195,17.792879 L 10.858,16.817381 z "
         style="fill:url(#linearGradient2203);fill-opacity:1;stroke:#4c4b00;stroke-width:0.99999988;stroke-miterlimit:4;stroke-dasharray:none;stroke-opacity:1" />
      <path
         style="fill:url(#linearGradient2206);fill-opacity:1;stroke:#4c4b00;stroke-width:0.99999988;stroke-miterlimit:4;stroke-dasharray:none;stroke-opacity:1"
         d="M 48.85782,16.817381 L 47.150892,10.44632 L 43.510698,11.421818 L 42.291464,6.8710601 L 40.584536,0.49999915 L 34.214195,2.2071201 L 30.574,3.1826171 L 32.280928,9.5536781 L 35.921123,8.5781811 L 37.140356,13.128938 L 38.847285,19.499999 L 45.217625,17.792879 L 48.85782,16.817381 z "
         id="path4128" />
      <path
         id="rect2160"
         d="M 39.14173,16.817381 L 37.434802,10.44632 L 33.794607,11.421818 L 32.575373,6.8710601 L 30.868445,0.49999915 L 24.498105,2.2071201 L 20.85791,3.1826171 L 22.564838,9.5536781 L 26.205033,8.5781811 L 27.424266,13.128938 L 29.131195,19.499999 L 35.501535,17.792879 L 39.14173,16.817381 z "
         style="fill:url(#linearGradient2209);fill-opacity:1;stroke:#4c4b00;stroke-width:0.99999988;stroke-miterlimit:4;stroke-dasharray:none;stroke-opacity:1" />
      <path
         style="fill:url(#linearGradient2211);fill-opacity:1;stroke:#4c4b00;stroke-width:0.99999988;stroke-miterlimit:4;stroke-dasharray:none;stroke-opacity:1"
         d="M 29.14182,16.817381 L 27.434892,10.44632 L 23.794698,11.421818 L 22.575464,6.8710601 L 20.868536,0.49999915 L 14.498195,2.2071201 L 10.858,3.1826171 L 12.564928,9.5536781 L 16.205123,8.5781811 L 17.424356,13.128938 L 19.131285,19.499999 L 25.501625,17.792879 L 29.14182,16.817381 z "
         id="path4124" />
      <path
         transform="matrix(0.7794872,0,0,-0.7916667,-6.6487179,16.53125)"
         d="M 46.375 8.25 A 12.1875 12 0 1 1  22,8.25 A 12.1875 12 0 1 1  46.375 8.25 z"
         sodipodi:ry="12"
         sodipodi:rx="12.1875"
         sodipodi:cy="8.25"
         sodipodi:cx="34.1875"
         id="path4176"
         style="opacity:1;fill:url(#linearGradient2213);fill-opacity:1;stroke:#4c4b00;stroke-width:1.27298808;stroke-miterlimit:4;stroke-dasharray:none;stroke-opacity:1"
         sodipodi:type="arc" />
      <path
         sodipodi:type="arc"
         style="opacity:1;fill:url(#linearGradient2215);fill-opacity:1;stroke:#4c4b00;stroke-width:2.01556444;stroke-miterlimit:4;stroke-dasharray:none;stroke-opacity:1"
         id="path5159"
         sodipodi:cx="34.1875"
         sodipodi:cy="8.25"
         sodipodi:rx="12.1875"
         sodipodi:ry="12"
         d="M 46.375 8.25 A 12.1875 12 0 1 1  22,8.25 A 12.1875 12 0 1 1  46.375 8.25 z"
         transform="matrix(0.4923077,0,0,-0.5,3.1692308,14.124999)" />
    </g>
  </g>
</svg>
