<?xml version="1.0" encoding="UTF-8" standalone="no"?>
<!-- Created with Inkscape (http://www.inkscape.org/) -->
<svg
   xmlns:dc="http://purl.org/dc/elements/1.1/"
   xmlns:cc="http://web.resource.org/cc/"
   xmlns:rdf="http://www.w3.org/1999/02/22-rdf-syntax-ns#"
   xmlns:svg="http://www.w3.org/2000/svg"
   xmlns="http://www.w3.org/2000/svg"
   xmlns:xlink="http://www.w3.org/1999/xlink"
   xmlns:sodipodi="http://sodipodi.sourceforge.net/DTD/sodipodi-0.dtd"
   xmlns:inkscape="http://www.inkscape.org/namespaces/inkscape"
   width="40"
   height="40"
   id="svg2"
   sodipodi:version="0.32"
   inkscape:version="0.45.1"
   version="1.0"
   sodipodi:docbase="/home/nicu/Desktop/golden_border"
   sodipodi:docname="corner_top_left1.svg"
   inkscape:output_extension="org.inkscape.output.svg.inkscape">
  <defs
     id="defs4">
    <linearGradient
       id="linearGradient4112">
      <stop
         style="stop-color:#818100;stop-opacity:1;"
         offset="0"
         id="stop4114" />
      <stop
         id="stop4122"
         offset="0.5"
         style="stop-color:#d7d700;stop-opacity:1;" />
      <stop
         style="stop-color:#a9a900;stop-opacity:1;"
         offset="1"
         id="stop4116" />
    </linearGradient>
    <linearGradient
       inkscape:collect="always"
       xlink:href="#linearGradient4112"
       id="linearGradient4120"
       x1="11.5"
       y1="3.4375"
       x2="11.5"
       y2="19.1875"
       gradientUnits="userSpaceOnUse" />
    <linearGradient
       inkscape:collect="always"
       xlink:href="#linearGradient4112"
       id="linearGradient4126"
       gradientUnits="userSpaceOnUse"
       x1="11.5"
       y1="3.4375"
       x2="11.5"
       y2="19.1875"
       gradientTransform="translate(9.9999097,0)" />
    <linearGradient
       inkscape:collect="always"
       xlink:href="#linearGradient4112"
       id="linearGradient4130"
       gradientUnits="userSpaceOnUse"
       x1="11.5"
       y1="3.4375"
       x2="11.5"
       y2="19.1875"
       gradientTransform="translate(-9.7160903,0)" />
    <linearGradient
       inkscape:collect="always"
       xlink:href="#linearGradient4112"
       id="linearGradient2397"
       gradientUnits="userSpaceOnUse"
       x1="35.424232"
       y1="-2.021656"
       x2="35.424232"
       y2="19.672342" />
    <linearGradient
       inkscape:collect="always"
       xlink:href="#linearGradient4112"
       id="linearGradient2399"
       gradientUnits="userSpaceOnUse"
       x1="38.626747"
       y1="-9.4081783"
       x2="38.626747"
       y2="20.25" />
    <linearGradient
       inkscape:collect="always"
       xlink:href="#linearGradient4112"
       id="linearGradient2416"
       gradientUnits="userSpaceOnUse"
       gradientTransform="matrix(0,1,1,0,0,30.0455)"
       x1="11.5"
       y1="3.4375"
       x2="11.5"
       y2="19.1875" />
    <linearGradient
       inkscape:collect="always"
       xlink:href="#linearGradient4112"
       id="linearGradient2419"
       gradientUnits="userSpaceOnUse"
       x1="11.5"
       y1="3.4375"
       x2="11.5"
       y2="19.1875"
       gradientTransform="matrix(0,1,1,0,0,20.04559)" />
    <linearGradient
       inkscape:collect="always"
       xlink:href="#linearGradient4112"
       id="linearGradient2422"
       gradientUnits="userSpaceOnUse"
       gradientTransform="matrix(0,1,1,0,0,10.3295)"
       x1="11.5"
       y1="3.4375"
       x2="11.5"
       y2="19.1875" />
  </defs>
  <sodipodi:namedview
     id="base"
     pagecolor="#ffffff"
     bordercolor="#666666"
     borderopacity="1.0"
     gridtolerance="10000"
     guidetolerance="10"
     objecttolerance="10"
     inkscape:pageopacity="0.0"
     inkscape:pageshadow="2"
     inkscape:zoom="1"
     inkscape:cx="29.745868"
     inkscape:cy="17.665998"
     inkscape:document-units="px"
     inkscape:current-layer="g2392"
     width="40px"
     height="40px"
     showgrid="false"
     inkscape:window-width="1274"
     inkscape:window-height="721"
     inkscape:window-x="73"
     inkscape:window-y="258" />
  <metadata
     id="metadata7">
    <rdf:RDF>
      <cc:Work
         rdf:about="">
        <dc:format>image/svg+xml</dc:format>
        <dc:type
           rdf:resource="http://purl.org/dc/dcmitype/StillImage" />
      </cc:Work>
    </rdf:RDF>
  </metadata>
  <g
     inkscape:label="Layer 1"
     inkscape:groupmode="layer"
     id="layer1">
    <g
       id="g4134"
       mask="none"
       transform="translate(20.06132,5.9604645e-8)">
      <path
         style="opacity:1;fill:url(#linearGradient4130);fill-opacity:1;stroke:#4c4b00;stroke-width:0.99999988;stroke-miterlimit:4;stroke-dasharray:none;stroke-opacity:1"
         d="M -8.8580001,3.1826179 L -7.1510723,9.5536789 L -3.5108778,8.5781812 L -2.2916437,13.128939 L -0.58471551,19.5 L 5.7856247,17.792879 L 9.4258197,16.817382 L 7.7188917,10.446321 L 4.0786967,11.421818 L 2.8594637,6.8710606 L 1.1525347,0.49999994 L -5.2178053,2.2071204 L -8.8580001,3.1826179 z "
         id="path4128" />
      <path
         id="rect2160"
         d="M 0.85809025,3.1826179 L 2.565018,9.5536789 L 6.2052125,8.5781812 L 7.4244466,13.128939 L 9.1313748,19.5 L 15.501715,17.792879 L 19.14191,16.817382 L 17.434982,10.446321 L 13.794787,11.421818 L 12.575554,6.8710606 L 10.868625,0.49999994 L 4.498285,2.2071204 L 0.85809025,3.1826179 z "
         style="opacity:1;fill:url(#linearGradient4120);fill-opacity:1;stroke:#4c4b00;stroke-width:0.99999988;stroke-miterlimit:4;stroke-dasharray:none;stroke-opacity:1" />
      <path
         style="opacity:1;fill:url(#linearGradient4126);fill-opacity:1;stroke:#4c4b00;stroke-width:0.99999988;stroke-miterlimit:4;stroke-dasharray:none;stroke-opacity:1"
         d="M 10.858,3.1826179 L 12.564928,9.5536789 L 16.205122,8.5781812 L 17.424356,13.128939 L 19.131284,19.5 L 25.501625,17.792879 L 29.14182,16.817382 L 27.434892,10.446321 L 23.794697,11.421818 L 22.575464,6.8710606 L 20.868535,0.49999994 L 14.498195,2.2071204 L 10.858,3.1826179 z "
         id="path4124" />
    </g>
    <path
       id="path2270"
       d="M 3.1826179,11.18759 L 9.5536789,12.894518 L 8.5781812,16.534712 L 13.128939,17.753946 L 19.5,19.460874 L 17.792879,25.831215 L 16.817382,29.47141 L 10.446321,27.764482 L 11.421818,24.124287 L 6.8710606,22.905054 L 0.49999994,21.198125 L 2.2071204,14.827785 L 3.1826179,11.18759 z "
       style="fill:url(#linearGradient2422);fill-opacity:1;stroke:#4c4b00;stroke-width:0.99999988;stroke-miterlimit:4;stroke-dasharray:none;stroke-opacity:1" />
    <path
       style="fill:url(#linearGradient2419);fill-opacity:1;stroke:#4c4b00;stroke-width:0.99999988;stroke-miterlimit:4;stroke-dasharray:none;stroke-opacity:1"
       d="M 3.1826179,20.90368 L 9.5536789,22.610608 L 8.5781812,26.250802 L 13.128939,27.470037 L 19.5,29.176965 L 17.792879,35.547305 L 16.817382,39.1875 L 10.446321,37.480572 L 11.421818,33.840377 L 6.8710606,32.621144 L 0.49999994,30.914215 L 2.2071204,24.543875 L 3.1826179,20.90368 z "
       id="path2272" />
    <path
       id="path2274"
       d="M 3.1826179,30.90359 L 9.5536789,32.610518 L 8.5781812,36.250712 L 13.128939,37.469946 L 19.5,39.176874 L 17.792879,45.547215 L 16.817382,49.18741 L 10.446321,47.480482 L 11.421818,43.840287 L 6.8710606,42.621054 L 0.49999994,40.914125 L 2.2071204,34.543785 L 3.1826179,30.90359 z "
       style="fill:url(#linearGradient2416);fill-opacity:1;stroke:#4c4b00;stroke-width:0.99999988;stroke-miterlimit:4;stroke-dasharray:none;stroke-opacity:1" />
    <g
       id="g2392"
       transform="translate(20.5,65.25)">
      <path
         transform="matrix(0.7794872,0,0,0.7916667,-37.148628,-61.781251)"
         d="M 46.375 8.25 A 12.1875 12 0 1 1  22,8.25 A 12.1875 12 0 1 1  46.375 8.25 z"
         sodipodi:ry="12"
         sodipodi:rx="12.1875"
         sodipodi:cy="8.25"
         sodipodi:cx="34.1875"
         id="path4176"
         style="fill:url(#linearGradient2397);fill-opacity:1;stroke:#4c4b00;stroke-width:1.27298808;stroke-miterlimit:4;stroke-dasharray:none;stroke-opacity:1"
         sodipodi:type="arc" />
      <path
         sodipodi:type="arc"
         style="fill:url(#linearGradient2399);fill-opacity:1;stroke:#4c4b00;stroke-width:2.01556442;stroke-miterlimit:4;stroke-dasharray:none;stroke-opacity:1"
         id="path5159"
         sodipodi:cx="34.1875"
         sodipodi:cy="8.25"
         sodipodi:rx="12.1875"
         sodipodi:ry="12"
         d="M 46.375 8.25 A 12.1875 12 0 1 1  22,8.25 A 12.1875 12 0 1 1  46.375 8.25 z"
         transform="matrix(0.4923077,0,0,0.5,-27.330679,-59.375)" />
    </g>
  </g>
</svg>
