<?xml version="1.0" encoding="UTF-8" standalone="no"?>
<!-- Created with Inkscape (http://www.inkscape.org/) -->
<svg
   xmlns:dc="http://purl.org/dc/elements/1.1/"
   xmlns:cc="http://web.resource.org/cc/"
   xmlns:rdf="http://www.w3.org/1999/02/22-rdf-syntax-ns#"
   xmlns:svg="http://www.w3.org/2000/svg"
   xmlns="http://www.w3.org/2000/svg"
   xmlns:xlink="http://www.w3.org/1999/xlink"
   xmlns:sodipodi="http://sodipodi.sourceforge.net/DTD/sodipodi-0.dtd"
   xmlns:inkscape="http://www.inkscape.org/namespaces/inkscape"
   width="40"
   height="40"
   id="svg2"
   sodipodi:version="0.32"
   inkscape:version="0.45.1"
   version="1.0"
   sodipodi:docbase="/home/nicu/Desktop"
   sodipodi:docname="dark_bottom_left.svg"
   inkscape:output_extension="org.inkscape.output.svg.inkscape">
  <defs
     id="defs4">
    <linearGradient
       id="linearGradient2166">
      <stop
         style="stop-color:#666666;stop-opacity:1;"
         offset="0"
         id="stop2168" />
      <stop
         style="stop-color:#a7a7a7;stop-opacity:1;"
         offset="1"
         id="stop2170" />
    </linearGradient>
    <linearGradient
       inkscape:collect="always"
       xlink:href="#linearGradient2166"
       id="linearGradient2258"
       gradientUnits="userSpaceOnUse"
       gradientTransform="matrix(1,0,0,-0.7647059,0,16.764706)"
       x1="17.235727"
       y1="3.0536706"
       x2="17.235727"
       y2="16.846785" />
    <linearGradient
       inkscape:collect="always"
       xlink:href="#linearGradient2166"
       id="linearGradient2192"
       gradientUnits="userSpaceOnUse"
       x1="2.5011485"
       y1="14.915941"
       x2="2.5011485"
       y2="4.0624719"
       gradientTransform="matrix(1.1056374,0,0,-1.0135008,-0.2653632,19.117318)" />
    <linearGradient
       y2="4.0624719"
       x2="2.5011485"
       y1="14.915941"
       x1="2.5011485"
       gradientTransform="matrix(1.1056374,0,0,1.0135008,-0.2653632,-0.1173184)"
       gradientUnits="userSpaceOnUse"
       id="linearGradient2432"
       xlink:href="#linearGradient2166"
       inkscape:collect="always" />
    <linearGradient
       y2="16.846785"
       x2="17.235727"
       y1="3.0536706"
       x1="17.235727"
       gradientTransform="matrix(1,0,0,0.7647059,0,2.2352941)"
       gradientUnits="userSpaceOnUse"
       id="linearGradient2430"
       xlink:href="#linearGradient2166"
       inkscape:collect="always" />
    <linearGradient
       inkscape:collect="always"
       xlink:href="#linearGradient2166"
       id="linearGradient2224"
       gradientUnits="userSpaceOnUse"
       gradientTransform="matrix(0,-1.1056374,1.0135008,0,-0.1173184,40.265363)"
       x1="2.5011485"
       y1="14.915941"
       x2="2.5011485"
       y2="4.0624719" />
    <linearGradient
       inkscape:collect="always"
       xlink:href="#linearGradient2166"
       id="linearGradient2227"
       gradientUnits="userSpaceOnUse"
       gradientTransform="matrix(0,-0.9,0.7647059,0,2.2352941,36)"
       x1="17.235727"
       y1="3.0536706"
       x2="17.235727"
       y2="16.846785" />
    <linearGradient
       inkscape:collect="always"
       xlink:href="#linearGradient2166"
       id="linearGradient2271"
       gradientUnits="userSpaceOnUse"
       gradientTransform="matrix(0,-1.1056374,1.0135008,0,-0.1173184,40.265363)"
       x1="2.5011485"
       y1="14.915941"
       x2="2.5011485"
       y2="4.0624719" />
    <linearGradient
       inkscape:collect="always"
       xlink:href="#linearGradient2166"
       id="linearGradient2273"
       gradientUnits="userSpaceOnUse"
       gradientTransform="matrix(0,-1.1056374,1.0135008,0,-0.1173184,40.265363)"
       x1="2.5011485"
       y1="14.915941"
       x2="2.5011485"
       y2="4.0624719" />
    <linearGradient
       inkscape:collect="always"
       xlink:href="#linearGradient2166"
       id="linearGradient2275"
       gradientUnits="userSpaceOnUse"
       gradientTransform="matrix(0,-1.1056374,1.0135008,0,-0.1173184,40.265363)"
       x1="2.5011485"
       y1="14.915941"
       x2="2.5011485"
       y2="4.0624719" />
    <linearGradient
       inkscape:collect="always"
       xlink:href="#linearGradient2166"
       id="linearGradient2277"
       gradientUnits="userSpaceOnUse"
       gradientTransform="matrix(0,-1.1056374,1.0135008,0,-0.1173184,40.265363)"
       x1="2.5011485"
       y1="14.915941"
       x2="2.5011485"
       y2="4.0624719" />
    <linearGradient
       inkscape:collect="always"
       xlink:href="#linearGradient2166"
       id="linearGradient2279"
       gradientUnits="userSpaceOnUse"
       gradientTransform="matrix(0,-1.1056374,1.0135008,0,-0.1173184,40.265363)"
       x1="2.5011485"
       y1="14.915941"
       x2="2.5011485"
       y2="4.0624719" />
    <linearGradient
       inkscape:collect="always"
       xlink:href="#linearGradient2166"
       id="linearGradient2281"
       gradientUnits="userSpaceOnUse"
       gradientTransform="matrix(0,-1.1056374,1.0135008,0,-0.1173184,40.265363)"
       x1="2.5011485"
       y1="14.915941"
       x2="2.5011485"
       y2="4.0624719" />
    <linearGradient
       inkscape:collect="always"
       xlink:href="#linearGradient2166"
       id="linearGradient2284"
       gradientUnits="userSpaceOnUse"
       gradientTransform="matrix(0,-1.1056374,1.0135008,0,-0.1173184,40.265363)"
       x1="2.5011485"
       y1="14.915941"
       x2="2.5011485"
       y2="4.0624719" />
    <linearGradient
       inkscape:collect="always"
       xlink:href="#linearGradient2166"
       id="linearGradient2286"
       gradientUnits="userSpaceOnUse"
       gradientTransform="matrix(0,-1.1056374,1.0135008,0,-0.1173184,40.265363)"
       x1="2.5011485"
       y1="14.915941"
       x2="2.5011485"
       y2="4.0624719" />
    <linearGradient
       inkscape:collect="always"
       xlink:href="#linearGradient2166"
       id="linearGradient2289"
       gradientUnits="userSpaceOnUse"
       gradientTransform="matrix(0,-1.1056374,1.0135008,0,-0.1173184,40.265363)"
       x1="2.5011485"
       y1="14.915941"
       x2="2.5011485"
       y2="4.0624719" />
    <linearGradient
       inkscape:collect="always"
       xlink:href="#linearGradient2166"
       id="linearGradient2292"
       gradientUnits="userSpaceOnUse"
       gradientTransform="matrix(0,-1.1056374,1.0135008,0,7.5076816,20.640363)"
       x1="2.5011485"
       y1="14.915941"
       x2="2.5011485"
       y2="4.0624719" />
    <linearGradient
       inkscape:collect="always"
       xlink:href="#linearGradient2166"
       id="linearGradient2295"
       gradientUnits="userSpaceOnUse"
       gradientTransform="matrix(0,-1.1056374,1.0135008,0,-0.1173184,20.265363)"
       x1="2.5011485"
       y1="14.915941"
       x2="2.5011485"
       y2="4.0624719" />
    <linearGradient
       inkscape:collect="always"
       xlink:href="#linearGradient2166"
       id="linearGradient2299"
       gradientUnits="userSpaceOnUse"
       gradientTransform="matrix(0,-1.1056374,1.0135008,0,-0.1173184,20.265363)"
       x1="2.5011485"
       y1="14.915941"
       x2="2.5011485"
       y2="4.0624719" />
    <linearGradient
       inkscape:collect="always"
       xlink:href="#linearGradient2166"
       id="linearGradient2302"
       gradientUnits="userSpaceOnUse"
       gradientTransform="matrix(0,-1.1056374,1.0135008,0,-0.1173184,20.265363)"
       x1="2.5011485"
       y1="14.915941"
       x2="2.5011485"
       y2="4.0624719" />
    <linearGradient
       inkscape:collect="always"
       xlink:href="#linearGradient2166"
       id="linearGradient2305"
       gradientUnits="userSpaceOnUse"
       gradientTransform="matrix(0,-1.1056374,1.0135008,0,14.257682,25.015363)"
       x1="2.5011485"
       y1="14.915941"
       x2="2.5011485"
       y2="4.0624719" />
    <linearGradient
       inkscape:collect="always"
       xlink:href="#linearGradient2166"
       id="linearGradient2308"
       gradientUnits="userSpaceOnUse"
       gradientTransform="matrix(0,-1.1056374,1.0135008,0,-0.1173184,20.265363)"
       x1="2.5011485"
       y1="14.915941"
       x2="2.5011485"
       y2="4.0624719" />
    <linearGradient
       inkscape:collect="always"
       xlink:href="#linearGradient2166"
       id="linearGradient2311"
       gradientUnits="userSpaceOnUse"
       gradientTransform="matrix(0,-1.1056374,1.0135008,0,-0.1173184,20.265363)"
       x1="2.5011485"
       y1="14.915941"
       x2="2.5011485"
       y2="4.0624719" />
    <linearGradient
       inkscape:collect="always"
       xlink:href="#linearGradient2166"
       id="linearGradient2314"
       gradientUnits="userSpaceOnUse"
       gradientTransform="matrix(0,-1.1056374,1.0135008,0,-0.1173184,40.265363)"
       x1="2.5011485"
       y1="14.915941"
       x2="2.5011485"
       y2="4.0624719" />
    <linearGradient
       inkscape:collect="always"
       xlink:href="#linearGradient2166"
       id="linearGradient2317"
       gradientUnits="userSpaceOnUse"
       gradientTransform="matrix(0,-1.1056374,1.0135008,0,-0.1173184,20.265363)"
       x1="2.5011485"
       y1="14.915941"
       x2="2.5011485"
       y2="4.0624719" />
    <linearGradient
       inkscape:collect="always"
       xlink:href="#linearGradient2166"
       id="linearGradient2320"
       gradientUnits="userSpaceOnUse"
       gradientTransform="matrix(0,-0.9,0.7647059,0,2.2352941,16)"
       x1="17.235727"
       y1="3.0536706"
       x2="17.235727"
       y2="16.846785" />
    <linearGradient
       inkscape:collect="always"
       xlink:href="#linearGradient2166"
       id="linearGradient2327"
       gradientUnits="userSpaceOnUse"
       gradientTransform="matrix(-0.7818037,-0.7818037,0.7166533,-0.7166533,18.797071,32.648014)"
       x1="2.5011485"
       y1="14.915941"
       x2="2.5011485"
       y2="4.0624719" />
  </defs>
  <sodipodi:namedview
     id="base"
     pagecolor="#ffffff"
     bordercolor="#666666"
     borderopacity="1.0"
     gridtolerance="10000"
     guidetolerance="10"
     objecttolerance="10"
     inkscape:pageopacity="0.0"
     inkscape:pageshadow="2"
     inkscape:zoom="1"
     inkscape:cx="21.055826"
     inkscape:cy="16.82255"
     inkscape:document-units="px"
     inkscape:current-layer="g2224"
     width="40px"
     height="40px"
     inkscape:window-width="1256"
     inkscape:window-height="971"
     inkscape:window-x="418"
     inkscape:window-y="24"
     inkscape:showpageshadow="true"
     showborder="true"
     showguides="true"
     inkscape:guide-bbox="true" />
  <metadata
     id="metadata7">
    <rdf:RDF>
      <cc:Work
         rdf:about="">
        <dc:format>image/svg+xml</dc:format>
        <dc:type
           rdf:resource="http://purl.org/dc/dcmitype/StillImage" />
      </cc:Work>
    </rdf:RDF>
  </metadata>
  <g
     inkscape:label="Layer 1"
     inkscape:groupmode="layer"
     id="layer1">
    <g
       id="g2224"
       transform="translate(0,20)">
      <rect
         y="-3.6177658e-15"
         x="0"
         height="20"
         width="40"
         id="rect2160"
         style="fill:#000000;fill-opacity:1;stroke:none;stroke-width:2;stroke-miterlimit:4;stroke-dasharray:none;stroke-opacity:1" />
      <rect
         style="fill:#333333;fill-opacity:1;stroke:none;stroke-width:2;stroke-miterlimit:4;stroke-dasharray:none;stroke-opacity:1"
         id="rect2176"
         width="40"
         height="19"
         x="0"
         y="2.8865799e-15" />
      <path
         sodipodi:nodetypes="ccccc"
         id="rect2162"
         d="M 0,1 L 0,18 L 40,18 L 40,1 L 0,1 z "
         style="fill:#cccccc;fill-opacity:1;stroke:none;stroke-width:2;stroke-miterlimit:4;stroke-dasharray:none;stroke-opacity:1" />
      <path
         sodipodi:nodetypes="ccccc"
         id="rect2174"
         d="M 0,2 L 0,17 L 40,17 L 40,2 L 0,2 z "
         style="fill:#333333;fill-opacity:1;stroke:none;stroke-width:2;stroke-miterlimit:4;stroke-dasharray:none;stroke-opacity:1" />
      <path
         sodipodi:nodetypes="ccccc"
         id="rect2164"
         d="M 0,16 L 0,3 L 40,3 L 40,16 L 0,16 z "
         style="fill:url(#linearGradient2258);fill-opacity:1;stroke:none;stroke-width:2;stroke-miterlimit:4;stroke-dasharray:none;stroke-opacity:1" />
      <path
         id="rect2172"
         d="M 17.5,15 L 17.3125,14.25 L 16.1875,10.21875 L 16,9.5 L 16.1875,8.75 L 17.3125,4.71875 L 17.5,4 L 17.6875,4.71875 L 18.8125,8.75 L 19,9.5 L 18.8125,10.21875 L 17.6875,14.25 L 17.5,15 z M 22.5,15 L 22.3125,14.25 L 21.1875,10.21875 L 21,9.5 L 21.1875,8.75 L 22.3125,4.71875 L 22.5,4 L 22.6875,4.71875 L 23.8125,8.75 L 24,9.5 L 23.8125,10.21875 L 22.6875,14.25 L 22.5,15 z M 27.5,15 L 27.3125,14.25 L 26.1875,10.21875 L 26,9.5 L 26.1875,8.75 L 27.3125,4.71875 L 27.5,4 L 27.6875,4.71875 L 28.8125,8.75 L 29,9.5 L 28.8125,10.21875 L 27.6875,14.25 L 27.5,15 z M 32.5,15 L 32.3125,14.25 L 31.1875,10.21875 L 31,9.5 L 31.1875,8.75 L 32.3125,4.71875 L 32.5,4 L 32.6875,4.71875 L 33.8125,8.75 L 34,9.5 L 33.8125,10.21875 L 32.6875,14.25 L 32.5,15 z M 37.5,15 L 37.3125,14.25 L 36.1875,10.21875 L 36,9.5 L 36.1875,8.75 L 37.3125,4.71875 L 37.5,4 L 37.6875,4.71875 L 38.8125,8.75 L 39,9.5 L 38.8125,10.21875 L 37.6875,14.25 L 37.5,15 z M 17.5,12.125 L 18.21875,9.5 L 17.5,6.875 L 16.78125,9.5 L 17.5,12.125 z M 22.5,12.125 L 23.21875,9.5 L 22.5,6.875 L 21.78125,9.5 L 22.5,12.125 z M 27.5,12.125 L 28.21875,9.5 L 27.5,6.875 L 26.78125,9.5 L 27.5,12.125 z M 32.5,12.125 L 33.21875,9.5 L 32.5,6.875 L 31.78125,9.5 L 32.5,12.125 z M 37.5,12.125 L 38.21875,9.5 L 37.5,6.875 L 36.78125,9.5 L 37.5,12.125 z "
         style="opacity:1;fill:url(#linearGradient2192);fill-opacity:1;stroke:none;stroke-width:1.4577384;stroke-miterlimit:4;stroke-dasharray:none;stroke-opacity:1"
         sodipodi:nodetypes="cccccccccccccccccccccccccccccccccccccccccccccccccccccccccccccccccccccccccccccccccccccccccc" />
      <rect
         transform="matrix(0,-1,1,0,0,0)"
         y="-3.6177658e-15"
         x="0"
         height="20"
         width="20"
         id="rect2271"
         style="fill:#000000;fill-opacity:1;stroke:none;stroke-width:2;stroke-miterlimit:4;stroke-dasharray:none;stroke-opacity:1" />
      <path
         sodipodi:nodetypes="ccccc"
         id="rect2273"
         d="M 2.8865799e-15,19 L 2.8865799e-15,-20 L 19,-20 L 19,0 L 2.8865799e-15,19 z "
         style="fill:#333333;fill-opacity:1;stroke:none;stroke-width:2;stroke-miterlimit:4;stroke-opacity:1" />
      <path
         sodipodi:nodetypes="ccccc"
         id="path2275"
         d="M 1,18 L 18,1.125 L 18,-20 L 1,-20 L 1,18 z "
         style="fill:#cccccc;fill-opacity:1;stroke:none;stroke-width:2;stroke-miterlimit:4;stroke-dasharray:none;stroke-opacity:1" />
      <path
         sodipodi:nodetypes="ccccc"
         id="path2277"
         d="M 2,17 L 17,2.125 L 17,-20 L 2,-20 L 2,17 z "
         style="fill:#333333;fill-opacity:1;stroke:none;stroke-width:2;stroke-miterlimit:4;stroke-dasharray:none;stroke-opacity:1" />
      <path
         sodipodi:nodetypes="ccccc"
         id="path2279"
         d="M 3,16 L 16,3.25 L 16,-20 L 3,-20 L 3,16 z "
         style="fill:url(#linearGradient2320);fill-opacity:1;stroke:none;stroke-width:2;stroke-miterlimit:4;stroke-dasharray:none;stroke-opacity:1" />
      <path
         sodipodi:nodetypes="cccccccccccccccccccccccccccccccccccccccccccccccccccccccccccccccccccccccc"
         id="path2281"
         d="M 4,-2.5 L 4.75,-2.3125 L 8.78125,-1.1875 L 9.5,-1 L 10.25,-1.1875 L 14.28125,-2.3125 L 15,-2.5 L 14.28125,-2.6875 L 10.25,-3.8125 L 9.5,-4 L 8.78125,-3.8125 L 4.75,-2.6875 L 4,-2.5 z M 4,-7.5 L 4.75,-7.3125 L 8.78125,-6.1875 L 9.5,-6 L 10.25,-6.1875 L 14.28125,-7.3125 L 15,-7.5 L 14.28125,-7.6875 L 10.25,-8.8125 L 9.5,-9 L 8.78125,-8.8125 L 4.75,-7.6875 L 4,-7.5 z M 4,-12.5 L 4.75,-12.3125 L 8.78125,-11.1875 L 9.5,-11 L 10.25,-11.1875 L 14.28125,-12.3125 L 15,-12.5 L 14.28125,-12.6875 L 10.25,-13.8125 L 9.5,-14 L 8.78125,-13.8125 L 4.75,-12.6875 L 4,-12.5 z M 4,-17.5 L 4.75,-17.3125 L 8.78125,-16.1875 L 9.5,-16 L 10.25,-16.1875 L 14.28125,-17.3125 L 15,-17.5 L 14.28125,-17.6875 L 10.25,-18.8125 L 9.5,-19 L 8.78125,-18.8125 L 4.75,-17.6875 L 4,-17.5 z M 6.875,-2.5 L 9.5,-3.21875 L 12.125,-2.5 L 9.5,-1.78125 L 6.875,-2.5 z M 6.875,-7.5 L 9.5,-8.21875 L 12.125,-7.5 L 9.5,-6.78125 L 6.875,-7.5 z M 6.875,-12.5 L 9.5,-13.21875 L 12.125,-12.5 L 9.5,-11.78125 L 6.875,-12.5 z M 6.875,-17.5 L 9.5,-18.21875 L 12.125,-17.5 L 9.5,-16.78125 L 6.875,-17.5 z "
         style="fill:url(#linearGradient2317);fill-opacity:1;stroke:none;stroke-width:1.4577384;stroke-miterlimit:4;stroke-dasharray:none;stroke-opacity:1" />
      <path
         style="fill:url(#linearGradient2327);fill-opacity:1;stroke:none;stroke-width:1.4577384;stroke-miterlimit:4;stroke-dasharray:none;stroke-opacity:1"
         d="M 8.4393398,8.6893398 L 8.0636894,9.3301553 L 6.0086603,12.976175 L 5.6109127,13.639087 L 6.2738253,13.24134 L 9.9198447,11.186311 L 10.56066,10.81066 L 10.958408,10.147748 L 13.013437,6.5017282 L 13.389087,5.8609127 L 12.748272,6.2365632 L 9.1022524,8.2915923 L 8.4393398,8.6893398 z M 8.991767,9.241767 L 11.356155,7.8938447 L 10.008233,10.258233 L 7.6438447,11.606155 L 8.991767,9.241767 z "
         id="path2250" />
    </g>
  </g>
</svg>
