<?xml version="1.0" encoding="UTF-8" standalone="no"?>
<!-- Created with Inkscape (http://www.inkscape.org/) -->
<svg
   xmlns:dc="http://purl.org/dc/elements/1.1/"
   xmlns:cc="http://web.resource.org/cc/"
   xmlns:rdf="http://www.w3.org/1999/02/22-rdf-syntax-ns#"
   xmlns:svg="http://www.w3.org/2000/svg"
   xmlns="http://www.w3.org/2000/svg"
   xmlns:xlink="http://www.w3.org/1999/xlink"
   xmlns:sodipodi="http://sodipodi.sourceforge.net/DTD/sodipodi-0.dtd"
   xmlns:inkscape="http://www.inkscape.org/namespaces/inkscape"
   width="40"
   height="40"
   id="svg2"
   sodipodi:version="0.32"
   inkscape:version="0.45.1"
   version="1.0"
   sodipodi:docbase="/home/nicu/Desktop"
   sodipodi:docname="dark_top_left.svg"
   inkscape:output_extension="org.inkscape.output.svg.inkscape">
  <defs
     id="defs4">
    <linearGradient
       id="linearGradient2166">
      <stop
         style="stop-color:#666666;stop-opacity:1;"
         offset="0"
         id="stop2168" />
      <stop
         style="stop-color:#a7a7a7;stop-opacity:1;"
         offset="1"
         id="stop2170" />
    </linearGradient>
    <linearGradient
       inkscape:collect="always"
       xlink:href="#linearGradient2166"
       id="linearGradient2258"
       gradientUnits="userSpaceOnUse"
       gradientTransform="matrix(1,0,0,0.7647059,0,2.2352941)"
       x1="17.235727"
       y1="3.0536706"
       x2="17.235727"
       y2="16.846785" />
    <linearGradient
       inkscape:collect="always"
       xlink:href="#linearGradient2166"
       id="linearGradient2192"
       gradientUnits="userSpaceOnUse"
       x1="2.5011485"
       y1="14.915941"
       x2="2.5011485"
       y2="4.0624719"
       gradientTransform="matrix(1.1056374,0,0,1.0135008,-0.2653632,-0.1173184)" />
    <linearGradient
       inkscape:collect="always"
       xlink:href="#linearGradient2166"
       id="linearGradient2283"
       gradientUnits="userSpaceOnUse"
       gradientTransform="matrix(1,0,0,0.7647059,0,2.2352941)"
       x1="17.235727"
       y1="3.0536706"
       x2="17.235727"
       y2="16.846785" />
    <linearGradient
       inkscape:collect="always"
       xlink:href="#linearGradient2166"
       id="linearGradient2285"
       gradientUnits="userSpaceOnUse"
       gradientTransform="matrix(1.1056374,0,0,1.0135008,-0.2653632,-0.1173184)"
       x1="2.5011485"
       y1="14.915941"
       x2="2.5011485"
       y2="4.0624719" />
    <linearGradient
       inkscape:collect="always"
       xlink:href="#linearGradient2166"
       id="linearGradient2288"
       gradientUnits="userSpaceOnUse"
       gradientTransform="matrix(0,-1.1056374,1.0135008,0,-40.117318,40.265363)"
       x1="2.5011485"
       y1="14.915941"
       x2="2.5011485"
       y2="4.0624719" />
    <linearGradient
       inkscape:collect="always"
       xlink:href="#linearGradient2166"
       id="linearGradient2291"
       gradientUnits="userSpaceOnUse"
       gradientTransform="matrix(0,-0.925,0.7647059,0,-37.764706,40)"
       x1="17.235727"
       y1="3.0536706"
       x2="17.235727"
       y2="16.846785" />
    <linearGradient
       inkscape:collect="always"
       xlink:href="#linearGradient2166"
       id="linearGradient2298"
       gradientUnits="userSpaceOnUse"
       gradientTransform="matrix(1.1056374,0,0,1.0135008,-40.265363,-0.1173184)"
       x1="2.5011485"
       y1="14.915941"
       x2="2.5011485"
       y2="4.0624719" />
    <linearGradient
       inkscape:collect="always"
       xlink:href="#linearGradient2166"
       id="linearGradient2301"
       gradientUnits="userSpaceOnUse"
       gradientTransform="matrix(1,0,0,0.7647059,-40,2.2352941)"
       x1="17.235727"
       y1="3.0536706"
       x2="17.235727"
       y2="16.846785" />
    <linearGradient
       inkscape:collect="always"
       xlink:href="#linearGradient2166"
       id="linearGradient2337"
       gradientUnits="userSpaceOnUse"
       gradientTransform="matrix(0.7818037,-0.7818037,0.7166533,0.7166533,-49.67498,15.449038)"
       x1="2.5011485"
       y1="14.915941"
       x2="2.5011485"
       y2="4.0624719" />
    <linearGradient
       inkscape:collect="always"
       xlink:href="#linearGradient2166"
       id="linearGradient2421"
       gradientUnits="userSpaceOnUse"
       gradientTransform="matrix(1.1056374,0,0,1.0135008,-40.265363,-0.1173184)"
       x1="2.5011485"
       y1="14.915941"
       x2="2.5011485"
       y2="4.0624719" />
  </defs>
  <sodipodi:namedview
     id="base"
     pagecolor="#ffffff"
     bordercolor="#666666"
     borderopacity="1.0"
     gridtolerance="10000"
     guidetolerance="10"
     objecttolerance="10"
     inkscape:pageopacity="0.0"
     inkscape:pageshadow="2"
     inkscape:zoom="2.8284271"
     inkscape:cx="-7.0624999"
     inkscape:cy="21.82255"
     inkscape:document-units="px"
     inkscape:current-layer="layer1"
     width="40px"
     height="40px"
     inkscape:window-width="1256"
     inkscape:window-height="971"
     inkscape:window-x="418"
     inkscape:window-y="24"
     inkscape:showpageshadow="true"
     showborder="true"
     showguides="true"
     inkscape:guide-bbox="true" />
  <metadata
     id="metadata7">
    <rdf:RDF>
      <cc:Work
         rdf:about="">
        <dc:format>image/svg+xml</dc:format>
        <dc:type
           rdf:resource="http://purl.org/dc/dcmitype/StillImage" />
      </cc:Work>
    </rdf:RDF>
  </metadata>
  <g
     inkscape:label="Layer 1"
     inkscape:groupmode="layer"
     id="layer1">
    <g
       id="g2365"
       transform="translate(40,0)">
      <rect
         style="fill:#000000;fill-opacity:1;stroke:none;stroke-width:2;stroke-miterlimit:4;stroke-dasharray:none;stroke-opacity:1"
         id="rect2234"
         width="40"
         height="20"
         x="-40"
         y="-3.6177658e-15" />
      <rect
         y="2.8865799e-15"
         x="-40"
         height="19"
         width="40"
         id="rect2236"
         style="fill:#333333;fill-opacity:1;stroke:none;stroke-width:2;stroke-miterlimit:4;stroke-dasharray:none;stroke-opacity:1" />
      <path
         style="fill:#cccccc;fill-opacity:1;stroke:none;stroke-width:2;stroke-miterlimit:4;stroke-dasharray:none;stroke-opacity:1"
         d="M -40,1 L -40,18 L 0,18 L 0,1 L -40,1 z "
         id="path2238"
         sodipodi:nodetypes="ccccc" />
      <path
         style="fill:#333333;fill-opacity:1;stroke:none;stroke-width:2;stroke-miterlimit:4;stroke-dasharray:none;stroke-opacity:1"
         d="M -40,2 L -40,17 L 0,17 L 0,2 L -40,2 z "
         id="path2240"
         sodipodi:nodetypes="ccccc" />
      <path
         style="fill:url(#linearGradient2301);fill-opacity:1;stroke:none;stroke-width:2;stroke-miterlimit:4;stroke-dasharray:none;stroke-opacity:1"
         d="M -40,3 L -40,16 L 0,16 L 0,3 L -40,3 z "
         id="path2242"
         sodipodi:nodetypes="ccccc" />
      <path
         sodipodi:nodetypes="cccccccccccccccccccccccccccccccccccccccccccccccccccccccccccccccccccccccccccccccccccccccccc"
         style="fill:url(#linearGradient2421);fill-opacity:1;stroke:none;stroke-width:1.4577384;stroke-miterlimit:4;stroke-dasharray:none;stroke-opacity:1"
         d="M -22.5,4 L -22.6875,4.75 L -23.8125,8.78125 L -24,9.5 L -23.8125,10.25 L -22.6875,14.28125 L -22.5,15 L -22.3125,14.28125 L -21.1875,10.25 L -21,9.5 L -21.1875,8.78125 L -22.3125,4.75 L -22.5,4 z M -17.5,4 L -17.6875,4.75 L -18.8125,8.78125 L -19,9.5 L -18.8125,10.25 L -17.6875,14.28125 L -17.5,15 L -17.3125,14.28125 L -16.1875,10.25 L -16,9.5 L -16.1875,8.78125 L -17.3125,4.75 L -17.5,4 z M -12.5,4 L -12.6875,4.75 L -13.8125,8.78125 L -14,9.5 L -13.8125,10.25 L -12.6875,14.28125 L -12.5,15 L -12.3125,14.28125 L -11.1875,10.25 L -11,9.5 L -11.1875,8.78125 L -12.3125,4.75 L -12.5,4 z M -7.5,4 L -7.6875,4.75 L -8.8125,8.78125 L -9,9.5 L -8.8125,10.25 L -7.6875,14.28125 L -7.5,15 L -7.3125,14.28125 L -6.1875,10.25 L -6,9.5 L -6.1875,8.78125 L -7.3125,4.75 L -7.5,4 z M -2.5,4 L -2.6875,4.75 L -3.8125,8.78125 L -4,9.5 L -3.8125,10.25 L -2.6875,14.28125 L -2.5,15 L -2.3125,14.28125 L -1.1875,10.25 L -1,9.5 L -1.1875,8.78125 L -2.3125,4.75 L -2.5,4 z M -22.5,6.875 L -21.78125,9.5 L -22.5,12.125 L -23.21875,9.5 L -22.5,6.875 z M -17.5,6.875 L -16.78125,9.5 L -17.5,12.125 L -18.21875,9.5 L -17.5,6.875 z M -12.5,6.875 L -11.78125,9.5 L -12.5,12.125 L -13.21875,9.5 L -12.5,6.875 z M -7.5,6.875 L -6.78125,9.5 L -7.5,12.125 L -8.21875,9.5 L -7.5,6.875 z M -2.5,6.875 L -1.78125,9.5 L -2.5,12.125 L -3.21875,9.5 L -2.5,6.875 z "
         id="path2244" />
      <rect
         transform="matrix(0,-1,1,0,0,0)"
         y="-40"
         x="-40"
         height="20"
         width="20"
         id="rect2253"
         style="fill:#000000;fill-opacity:1;stroke:none;stroke-width:2;stroke-miterlimit:4;stroke-dasharray:none;stroke-opacity:1" />
      <path
         sodipodi:nodetypes="ccccc"
         id="rect2255"
         d="M -40,-40 L 0,-40 L -19.125,-21 L -40,-21 L -40,-40 z "
         style="fill:#333333;fill-opacity:1;stroke:none;stroke-width:2;stroke-miterlimit:4;stroke-opacity:1"
         transform="matrix(0,-1,1,0,0,0)" />
      <path
         sodipodi:nodetypes="ccccc"
         id="path2257"
         d="M -39,40 L -22,40 L -22,18.0625 L -39,1 L -39,40 z "
         style="fill:#cccccc;fill-opacity:1;stroke:none;stroke-width:2;stroke-miterlimit:4;stroke-dasharray:none;stroke-opacity:1" />
      <path
         sodipodi:nodetypes="ccccc"
         id="path2259"
         d="M -38,40 L -23,40 L -23,17 L -37.9375,2 L -38,40 z "
         style="fill:#333333;fill-opacity:1;stroke:none;stroke-width:2;stroke-miterlimit:4;stroke-dasharray:none;stroke-opacity:1" />
      <path
         sodipodi:nodetypes="ccccc"
         id="path2261"
         d="M -37,40 L -24,40 L -23.875,15.9375 L -37,2.6875 L -37,40 z "
         style="fill:url(#linearGradient2291);fill-opacity:1;stroke:none;stroke-width:2;stroke-miterlimit:4;stroke-dasharray:none;stroke-opacity:1" />
      <path
         sodipodi:nodetypes="cccccccccccccccccccccccccccccccccccccccccccccccccccccccccccccccccccccccccccccccccccccccccc"
         id="path2263"
         d="M -36,37.5 L -35.25,37.6875 L -31.21875,38.8125 L -30.5,39 L -29.75,38.8125 L -25.71875,37.6875 L -25,37.5 L -25.71875,37.3125 L -29.75,36.1875 L -30.5,36 L -31.21875,36.1875 L -35.25,37.3125 L -36,37.5 z M -36,32.5 L -35.25,32.6875 L -31.21875,33.8125 L -30.5,34 L -29.75,33.8125 L -25.71875,32.6875 L -25,32.5 L -25.71875,32.3125 L -29.75,31.1875 L -30.5,31 L -31.21875,31.1875 L -35.25,32.3125 L -36,32.5 z M -36,27.5 L -35.25,27.6875 L -31.21875,28.8125 L -30.5,29 L -29.75,28.8125 L -25.71875,27.6875 L -25,27.5 L -25.71875,27.3125 L -29.75,26.1875 L -30.5,26 L -31.21875,26.1875 L -35.25,27.3125 L -36,27.5 z M -36,22.5 L -35.25,22.6875 L -31.21875,23.8125 L -30.5,24 L -29.75,23.8125 L -25.71875,22.6875 L -25,22.5 L -25.71875,22.3125 L -29.75,21.1875 L -30.5,21 L -31.21875,21.1875 L -35.25,22.3125 L -36,22.5 z M -36,17.5 L -35.25,17.6875 L -31.21875,18.8125 L -30.5,19 L -29.75,18.8125 L -25.71875,17.6875 L -25,17.5 L -25.71875,17.3125 L -29.75,16.1875 L -30.5,16 L -31.21875,16.1875 L -35.25,17.3125 L -36,17.5 z M -33.125,37.5 L -30.5,36.78125 L -27.875,37.5 L -30.5,38.21875 L -33.125,37.5 z M -33.125,32.5 L -30.5,31.78125 L -27.875,32.5 L -30.5,33.21875 L -33.125,32.5 z M -33.125,27.5 L -30.5,26.78125 L -27.875,27.5 L -30.5,28.21875 L -33.125,27.5 z M -33.125,22.5 L -30.5,21.78125 L -27.875,22.5 L -30.5,23.21875 L -33.125,22.5 z M -33.125,17.5 L -30.5,16.78125 L -27.875,17.5 L -30.5,18.21875 L -33.125,17.5 z "
         style="fill:url(#linearGradient2288);fill-opacity:1;stroke:none;stroke-width:1.4577384;stroke-miterlimit:4;stroke-dasharray:none;stroke-opacity:1" />
      <path
         id="path2332"
         d="M -34.201587,5.7984127 L -33.80384,6.4613253 L -31.748811,10.107345 L -31.37316,10.74816 L -30.710248,11.145908 L -27.064228,13.200937 L -26.423413,13.576587 L -26.799063,12.935772 L -28.854092,9.2897524 L -29.25184,8.6268398 L -29.892655,8.2511894 L -33.538675,6.1961603 L -34.201587,5.7984127 z M -32.168655,7.8313447 L -29.804267,9.179267 L -28.456345,11.543655 L -30.820733,10.195733 L -32.168655,7.8313447 z "
         style="fill:url(#linearGradient2337);fill-opacity:1;stroke:none;stroke-width:1.4577384;stroke-miterlimit:4;stroke-dasharray:none;stroke-opacity:1" />
      <path
         id="path2324"
         d="M -2.5,4 L -2.6875,4.75 L -3.8125,8.78125 L -4,9.5 L -3.8125,10.25 L -2.6875,14.28125 L -2.5,15 L -2.3125,14.28125 L -1.1875,10.25 L -1,9.5 L -1.1875,8.78125 L -2.3125,4.75 L -2.5,4 z "
         style="fill:url(#linearGradient2298);fill-opacity:1;stroke:none;stroke-width:1.4577384;stroke-miterlimit:4;stroke-dasharray:none;stroke-opacity:1" />
    </g>
  </g>
</svg>
