<?xml version="1.0" encoding="UTF-8" standalone="no"?>
<!-- Created with Inkscape (http://www.inkscape.org/) -->
<svg
   xmlns:dc="http://purl.org/dc/elements/1.1/"
   xmlns:cc="http://web.resource.org/cc/"
   xmlns:rdf="http://www.w3.org/1999/02/22-rdf-syntax-ns#"
   xmlns:svg="http://www.w3.org/2000/svg"
   xmlns="http://www.w3.org/2000/svg"
   xmlns:xlink="http://www.w3.org/1999/xlink"
   xmlns:sodipodi="http://sodipodi.sourceforge.net/DTD/sodipodi-0.dtd"
   xmlns:inkscape="http://www.inkscape.org/namespaces/inkscape"
   width="40"
   height="40"
   id="svg2"
   sodipodi:version="0.32"
   inkscape:version="0.45.1"
   version="1.0"
   sodipodi:docbase="/home/nicu/Desktop"
   sodipodi:docname="dark_right.svg"
   inkscape:output_extension="org.inkscape.output.svg.inkscape">
  <defs
     id="defs4">
    <linearGradient
       id="linearGradient2166">
      <stop
         style="stop-color:#666666;stop-opacity:1;"
         offset="0"
         id="stop2168" />
      <stop
         style="stop-color:#a7a7a7;stop-opacity:1;"
         offset="1"
         id="stop2170" />
    </linearGradient>
    <linearGradient
       inkscape:collect="always"
       xlink:href="#linearGradient2166"
       id="linearGradient2258"
       gradientUnits="userSpaceOnUse"
       gradientTransform="matrix(1,0,0,0.7647059,0,2.2352941)"
       x1="17.235727"
       y1="3.0536706"
       x2="17.235727"
       y2="16.846785" />
    <linearGradient
       inkscape:collect="always"
       xlink:href="#linearGradient2166"
       id="linearGradient2192"
       gradientUnits="userSpaceOnUse"
       x1="2.5011485"
       y1="14.915941"
       x2="2.5011485"
       y2="4.0624719"
       gradientTransform="matrix(1.1056374,0,0,1.0135008,-0.2653632,-0.1173184)" />
    <linearGradient
       inkscape:collect="always"
       xlink:href="#linearGradient2166"
       id="linearGradient2283"
       gradientUnits="userSpaceOnUse"
       gradientTransform="matrix(1,0,0,0.7647059,0,2.2352941)"
       x1="17.235727"
       y1="3.0536706"
       x2="17.235727"
       y2="16.846785" />
    <linearGradient
       inkscape:collect="always"
       xlink:href="#linearGradient2166"
       id="linearGradient2285"
       gradientUnits="userSpaceOnUse"
       gradientTransform="matrix(1.1056374,0,0,1.0135008,-0.2653632,-0.1173184)"
       x1="2.5011485"
       y1="14.915941"
       x2="2.5011485"
       y2="4.0624719" />
    <linearGradient
       inkscape:collect="always"
       xlink:href="#linearGradient2166"
       id="linearGradient2288"
       gradientUnits="userSpaceOnUse"
       gradientTransform="matrix(0,-1.1056374,1.0135008,0,-40.117318,40.265363)"
       x1="2.5011485"
       y1="14.915941"
       x2="2.5011485"
       y2="4.0624719" />
    <linearGradient
       inkscape:collect="always"
       xlink:href="#linearGradient2166"
       id="linearGradient2291"
       gradientUnits="userSpaceOnUse"
       gradientTransform="matrix(0,-0.925,0.7647059,0,-37.764706,40)"
       x1="17.235727"
       y1="3.0536706"
       x2="17.235727"
       y2="16.846785" />
    <linearGradient
       inkscape:collect="always"
       xlink:href="#linearGradient2166"
       id="linearGradient2298"
       gradientUnits="userSpaceOnUse"
       gradientTransform="matrix(1.1056374,0,0,1.0135008,-40.265363,-0.1173184)"
       x1="2.5011485"
       y1="14.915941"
       x2="2.5011485"
       y2="4.0624719" />
    <linearGradient
       inkscape:collect="always"
       xlink:href="#linearGradient2166"
       id="linearGradient2301"
       gradientUnits="userSpaceOnUse"
       gradientTransform="matrix(1,0,0,0.7647059,-40,2.2352941)"
       x1="17.235727"
       y1="3.0536706"
       x2="17.235727"
       y2="16.846785" />
    <linearGradient
       inkscape:collect="always"
       xlink:href="#linearGradient2166"
       id="linearGradient2337"
       gradientUnits="userSpaceOnUse"
       gradientTransform="matrix(0.7818037,-0.7818037,0.7166533,0.7166533,-49.67498,15.449038)"
       x1="2.5011485"
       y1="14.915941"
       x2="2.5011485"
       y2="4.0624719" />
    <linearGradient
       inkscape:collect="always"
       xlink:href="#linearGradient2166"
       id="linearGradient2430"
       gradientUnits="userSpaceOnUse"
       gradientTransform="matrix(1,0,0,-0.7647059,0,16.764706)"
       x1="17.235727"
       y1="3.0536706"
       x2="17.235727"
       y2="16.846785" />
    <linearGradient
       inkscape:collect="always"
       xlink:href="#linearGradient2166"
       id="linearGradient2432"
       gradientUnits="userSpaceOnUse"
       gradientTransform="matrix(1.1056374,0,0,-1.0135008,-0.2653632,19.117318)"
       x1="2.5011485"
       y1="14.915941"
       x2="2.5011485"
       y2="4.0624719" />
  </defs>
  <sodipodi:namedview
     id="base"
     pagecolor="#ffffff"
     bordercolor="#666666"
     borderopacity="1.0"
     gridtolerance="10000"
     guidetolerance="10"
     objecttolerance="10"
     inkscape:pageopacity="0.0"
     inkscape:pageshadow="2"
     inkscape:zoom="8"
     inkscape:cx="-7.0624999"
     inkscape:cy="21.82255"
     inkscape:document-units="px"
     inkscape:current-layer="g2269"
     width="40px"
     height="40px"
     inkscape:window-width="1256"
     inkscape:window-height="971"
     inkscape:window-x="418"
     inkscape:window-y="24"
     inkscape:showpageshadow="true"
     showborder="true"
     showguides="true"
     inkscape:guide-bbox="true" />
  <metadata
     id="metadata7">
    <rdf:RDF>
      <cc:Work
         rdf:about="">
        <dc:format>image/svg+xml</dc:format>
        <dc:type
           rdf:resource="http://purl.org/dc/dcmitype/StillImage" />
      </cc:Work>
    </rdf:RDF>
  </metadata>
  <g
     inkscape:label="Layer 1"
     inkscape:groupmode="layer"
     id="layer1">
    <g
       id="g2269"
       transform="matrix(0,-1,1,0,20,40)">
      <rect
         style="fill:#000000;fill-opacity:1;stroke:none;stroke-width:2;stroke-miterlimit:4;stroke-dasharray:none;stroke-opacity:1"
         id="rect2271"
         width="40"
         height="20"
         x="0"
         y="-3.6177658e-15" />
      <rect
         y="2.8865799e-15"
         x="0"
         height="19"
         width="40"
         id="rect2273"
         style="fill:#333333;fill-opacity:1;stroke:none;stroke-width:2;stroke-miterlimit:4;stroke-dasharray:none;stroke-opacity:1" />
      <path
         style="fill:#cccccc;fill-opacity:1;stroke:none;stroke-width:2;stroke-miterlimit:4;stroke-dasharray:none;stroke-opacity:1"
         d="M 0,1 L 0,18 L 40,18 L 40,1 L 0,1 z "
         id="path2275"
         sodipodi:nodetypes="ccccc" />
      <path
         style="fill:#333333;fill-opacity:1;stroke:none;stroke-width:2;stroke-miterlimit:4;stroke-dasharray:none;stroke-opacity:1"
         d="M 0,2 L 0,17 L 40,17 L 40,2 L 0,2 z "
         id="path2277"
         sodipodi:nodetypes="ccccc" />
      <path
         style="fill:url(#linearGradient2430);fill-opacity:1;stroke:none;stroke-width:2;stroke-miterlimit:4;stroke-dasharray:none;stroke-opacity:1"
         d="M 0,16 L 0,3 L 40,3 L 40,16 L 0,16 z "
         id="path2279"
         sodipodi:nodetypes="ccccc" />
      <path
         style="opacity:1;fill:url(#linearGradient2432);fill-opacity:1;stroke:none;stroke-width:1.4577384;stroke-miterlimit:4;stroke-dasharray:none;stroke-opacity:1"
         d="M 2.5,15 L 2.3125,14.25 L 1.1875,10.21875 L 1,9.5 L 1.1875,8.75 L 2.3125,4.71875 L 2.5,4 L 2.6875,4.71875 L 3.8125,8.75 L 4,9.5 L 3.8125,10.21875 L 2.6875,14.25 L 2.5,15 z M 7.5,15 L 7.3125,14.25 L 6.1875,10.21875 L 6,9.5 L 6.1875,8.75 L 7.3125,4.71875 L 7.5,4 L 7.6875,4.71875 L 8.8125,8.75 L 9,9.5 L 8.8125,10.21875 L 7.6875,14.25 L 7.5,15 z M 12.5,15 L 12.3125,14.25 L 11.1875,10.21875 L 11,9.5 L 11.1875,8.75 L 12.3125,4.71875 L 12.5,4 L 12.6875,4.71875 L 13.8125,8.75 L 14,9.5 L 13.8125,10.21875 L 12.6875,14.25 L 12.5,15 z M 17.5,15 L 17.3125,14.25 L 16.1875,10.21875 L 16,9.5 L 16.1875,8.75 L 17.3125,4.71875 L 17.5,4 L 17.6875,4.71875 L 18.8125,8.75 L 19,9.5 L 18.8125,10.21875 L 17.6875,14.25 L 17.5,15 z M 22.5,15 L 22.3125,14.25 L 21.1875,10.21875 L 21,9.5 L 21.1875,8.75 L 22.3125,4.71875 L 22.5,4 L 22.6875,4.71875 L 23.8125,8.75 L 24,9.5 L 23.8125,10.21875 L 22.6875,14.25 L 22.5,15 z M 27.5,15 L 27.3125,14.25 L 26.1875,10.21875 L 26,9.5 L 26.1875,8.75 L 27.3125,4.71875 L 27.5,4 L 27.6875,4.71875 L 28.8125,8.75 L 29,9.5 L 28.8125,10.21875 L 27.6875,14.25 L 27.5,15 z M 32.5,15 L 32.3125,14.25 L 31.1875,10.21875 L 31,9.5 L 31.1875,8.75 L 32.3125,4.71875 L 32.5,4 L 32.6875,4.71875 L 33.8125,8.75 L 34,9.5 L 33.8125,10.21875 L 32.6875,14.25 L 32.5,15 z M 37.5,15 L 37.3125,14.25 L 36.1875,10.21875 L 36,9.5 L 36.1875,8.75 L 37.3125,4.71875 L 37.5,4 L 37.6875,4.71875 L 38.8125,8.75 L 39,9.5 L 38.8125,10.21875 L 37.6875,14.25 L 37.5,15 z M 2.5,12.125 L 3.21875,9.5 L 2.5,6.875 L 1.78125,9.5 L 2.5,12.125 z M 7.5,12.125 L 8.21875,9.5 L 7.5,6.875 L 6.78125,9.5 L 7.5,12.125 z M 12.5,12.125 L 13.21875,9.5 L 12.5,6.875 L 11.78125,9.5 L 12.5,12.125 z M 17.5,12.125 L 18.21875,9.5 L 17.5,6.875 L 16.78125,9.5 L 17.5,12.125 z M 22.5,12.125 L 23.21875,9.5 L 22.5,6.875 L 21.78125,9.5 L 22.5,12.125 z M 27.5,12.125 L 28.21875,9.5 L 27.5,6.875 L 26.78125,9.5 L 27.5,12.125 z M 32.5,12.125 L 33.21875,9.5 L 32.5,6.875 L 31.78125,9.5 L 32.5,12.125 z M 37.5,12.125 L 38.21875,9.5 L 37.5,6.875 L 36.78125,9.5 L 37.5,12.125 z "
         id="path2281" />
    </g>
  </g>
</svg>
