<?xml version="1.0" encoding="UTF-8" standalone="no"?>
<!-- Created with Inkscape (http://www.inkscape.org/) -->
<svg
   xmlns:dc="http://purl.org/dc/elements/1.1/"
   xmlns:cc="http://web.resource.org/cc/"
   xmlns:rdf="http://www.w3.org/1999/02/22-rdf-syntax-ns#"
   xmlns:svg="http://www.w3.org/2000/svg"
   xmlns="http://www.w3.org/2000/svg"
   xmlns:xlink="http://www.w3.org/1999/xlink"
   xmlns:sodipodi="http://sodipodi.sourceforge.net/DTD/sodipodi-0.dtd"
   xmlns:inkscape="http://www.inkscape.org/namespaces/inkscape"
   width="40"
   height="40"
   id="svg2"
   sodipodi:version="0.32"
   inkscape:version="0.45.1"
   version="1.0"
   sodipodi:docbase="/home/nicu/Desktop"
   sodipodi:docname="dark_top_right.svg"
   inkscape:output_extension="org.inkscape.output.svg.inkscape">
  <defs
     id="defs4">
    <linearGradient
       id="linearGradient2166">
      <stop
         style="stop-color:#666666;stop-opacity:1;"
         offset="0"
         id="stop2168" />
      <stop
         style="stop-color:#a7a7a7;stop-opacity:1;"
         offset="1"
         id="stop2170" />
    </linearGradient>
    <linearGradient
       inkscape:collect="always"
       xlink:href="#linearGradient2166"
       id="linearGradient2258"
       gradientUnits="userSpaceOnUse"
       gradientTransform="matrix(1,0,0,0.7647059,0,2.2352941)"
       x1="17.235727"
       y1="3.0536706"
       x2="17.235727"
       y2="16.846785" />
    <linearGradient
       inkscape:collect="always"
       xlink:href="#linearGradient2166"
       id="linearGradient2192"
       gradientUnits="userSpaceOnUse"
       x1="2.5011485"
       y1="14.915941"
       x2="2.5011485"
       y2="4.0624719"
       gradientTransform="matrix(1.1056374,0,0,1.0135008,-0.2653632,-0.1173184)" />
    <linearGradient
       y2="4.0624719"
       x2="2.5011485"
       y1="14.915941"
       x1="2.5011485"
       gradientTransform="matrix(1.1056374,0,0,-1.0135008,-0.2653632,19.117318)"
       gradientUnits="userSpaceOnUse"
       id="linearGradient2432"
       xlink:href="#linearGradient2166"
       inkscape:collect="always" />
    <linearGradient
       y2="16.846785"
       x2="17.235727"
       y1="3.0536706"
       x1="17.235727"
       gradientTransform="matrix(1,0,0,-0.7647059,0,16.764706)"
       gradientUnits="userSpaceOnUse"
       id="linearGradient2430"
       xlink:href="#linearGradient2166"
       inkscape:collect="always" />
    <linearGradient
       inkscape:collect="always"
       xlink:href="#linearGradient2166"
       id="linearGradient2231"
       gradientUnits="userSpaceOnUse"
       gradientTransform="matrix(1.1056374,0,0,1.0135008,-0.2653632,-0.1173184)"
       x1="2.5011485"
       y1="14.915941"
       x2="2.5011485"
       y2="4.0624719" />
    <linearGradient
       inkscape:collect="always"
       xlink:href="#linearGradient2166"
       id="linearGradient2234"
       gradientUnits="userSpaceOnUse"
       gradientTransform="matrix(1,0,0,0.7647059,0,2.2352941)"
       x1="17.235727"
       y1="3.0536706"
       x2="17.235727"
       y2="16.846785" />
    <linearGradient
       inkscape:collect="always"
       xlink:href="#linearGradient2166"
       id="linearGradient2240"
       gradientUnits="userSpaceOnUse"
       gradientTransform="matrix(1,0,0,-0.7647059,0,16.764706)"
       x1="17.235727"
       y1="3.0536706"
       x2="17.235727"
       y2="16.846785" />
    <linearGradient
       inkscape:collect="always"
       xlink:href="#linearGradient2166"
       id="linearGradient2242"
       gradientUnits="userSpaceOnUse"
       gradientTransform="matrix(1.1056374,0,0,-1.0135008,-0.2653632,19.117318)"
       x1="2.5011485"
       y1="14.915941"
       x2="2.5011485"
       y2="4.0624719" />
    <linearGradient
       inkscape:collect="always"
       xlink:href="#linearGradient2166"
       id="linearGradient2245"
       gradientUnits="userSpaceOnUse"
       gradientTransform="matrix(0,-1.1056374,-1.0135008,0,39.117318,40.265363)"
       x1="2.5011485"
       y1="14.915941"
       x2="2.5011485"
       y2="4.0624719" />
    <linearGradient
       inkscape:collect="always"
       xlink:href="#linearGradient2166"
       id="linearGradient2248"
       gradientUnits="userSpaceOnUse"
       gradientTransform="matrix(0,-0.925,-0.7647059,0,36.764706,40)"
       x1="17.235727"
       y1="3.0536706"
       x2="17.235727"
       y2="16.846785" />
    <linearGradient
       inkscape:collect="always"
       xlink:href="#linearGradient2166"
       id="linearGradient2274"
       gradientUnits="userSpaceOnUse"
       gradientTransform="matrix(1.1056374,0,0,1.0135008,-0.2653632,-0.1173184)"
       x1="2.5011485"
       y1="14.915941"
       x2="2.5011485"
       y2="4.0624719" />
    <linearGradient
       inkscape:collect="always"
       xlink:href="#linearGradient2166"
       id="linearGradient2277"
       gradientUnits="userSpaceOnUse"
       gradientTransform="matrix(0.8443451,0.7138035,-0.6543197,0.7739829,21.544149,-8.9603122)"
       x1="2.5011485"
       y1="14.915941"
       x2="2.5011485"
       y2="4.0624719" />
  </defs>
  <sodipodi:namedview
     id="base"
     pagecolor="#ffffff"
     bordercolor="#666666"
     borderopacity="1.0"
     gridtolerance="10000"
     guidetolerance="10"
     objecttolerance="10"
     inkscape:pageopacity="0.0"
     inkscape:pageshadow="2"
     inkscape:zoom="1"
     inkscape:cx="20"
     inkscape:cy="20"
     inkscape:document-units="px"
     inkscape:current-layer="layer1"
     width="40px"
     height="40px"
     inkscape:window-width="1256"
     inkscape:window-height="971"
     inkscape:window-x="417"
     inkscape:window-y="24"
     inkscape:showpageshadow="true"
     showborder="true"
     showguides="true"
     inkscape:guide-bbox="true" />
  <metadata
     id="metadata7">
    <rdf:RDF>
      <cc:Work
         rdf:about="">
        <dc:format>image/svg+xml</dc:format>
        <dc:type
           rdf:resource="http://purl.org/dc/dcmitype/StillImage" />
      </cc:Work>
    </rdf:RDF>
  </metadata>
  <g
     inkscape:label="Layer 1"
     inkscape:groupmode="layer"
     id="layer1">
    <rect
       style="fill:#000000;fill-opacity:1;stroke:none;stroke-width:2;stroke-miterlimit:4;stroke-dasharray:none;stroke-opacity:1"
       id="rect2160"
       width="40"
       height="20"
       x="0"
       y="-3.6177658e-15" />
    <rect
       y="2.8865799e-15"
       x="0"
       height="19"
       width="40"
       id="rect2176"
       style="fill:#333333;fill-opacity:1;stroke:none;stroke-width:2;stroke-miterlimit:4;stroke-dasharray:none;stroke-opacity:1" />
    <path
       style="fill:#cccccc;fill-opacity:1;stroke:none;stroke-width:2;stroke-miterlimit:4;stroke-dasharray:none;stroke-opacity:1"
       d="M 0,1 L 0,18 L 40,18 L 40,1 L 0,1 z "
       id="rect2162"
       sodipodi:nodetypes="ccccc" />
    <path
       style="fill:#333333;fill-opacity:1;stroke:none;stroke-width:2;stroke-miterlimit:4;stroke-dasharray:none;stroke-opacity:1"
       d="M 0,2 L 0,17 L 40,17 L 40,2 L 0,2 z "
       id="rect2174"
       sodipodi:nodetypes="ccccc" />
    <path
       style="fill:url(#linearGradient2234);fill-opacity:1;stroke:none;stroke-width:2;stroke-miterlimit:4;stroke-dasharray:none;stroke-opacity:1"
       d="M 0,3 L 0,16 L 40,16 L 40,3 L 0,3 z "
       id="rect2164"
       sodipodi:nodetypes="ccccc" />
    <path
       style="fill:url(#linearGradient2231);fill-opacity:1;stroke:none;stroke-width:1.4577384;stroke-miterlimit:4;stroke-dasharray:none;stroke-opacity:1"
       d="M 2.5,4 L 2.3125,4.75 L 1.1875,8.78125 L 1,9.5 L 1.1875,10.25 L 2.3125,14.28125 L 2.5,15 L 2.6875,14.28125 L 3.8125,10.25 L 4,9.5 L 3.8125,8.78125 L 2.6875,4.75 L 2.5,4 z M 7.5,4 L 7.3125,4.75 L 6.1875,8.78125 L 6,9.5 L 6.1875,10.25 L 7.3125,14.28125 L 7.5,15 L 7.6875,14.28125 L 8.8125,10.25 L 9,9.5 L 8.8125,8.78125 L 7.6875,4.75 L 7.5,4 z M 12.5,4 L 12.3125,4.75 L 11.1875,8.78125 L 11,9.5 L 11.1875,10.25 L 12.3125,14.28125 L 12.5,15 L 12.6875,14.28125 L 13.8125,10.25 L 14,9.5 L 13.8125,8.78125 L 12.6875,4.75 L 12.5,4 z M 17.5,4 L 17.3125,4.75 L 16.1875,8.78125 L 16,9.5 L 16.1875,10.25 L 17.3125,14.28125 L 17.5,15 L 17.6875,14.28125 L 18.8125,10.25 L 19,9.5 L 18.8125,8.78125 L 17.6875,4.75 L 17.5,4 z M 2.5,6.875 L 3.21875,9.5 L 2.5,12.125 L 1.78125,9.5 L 2.5,6.875 z M 7.5,6.875 L 8.21875,9.5 L 7.5,12.125 L 6.78125,9.5 L 7.5,6.875 z M 12.5,6.875 L 13.21875,9.5 L 12.5,12.125 L 11.78125,9.5 L 12.5,6.875 z M 17.5,6.875 L 18.21875,9.5 L 17.5,12.125 L 16.78125,9.5 L 17.5,6.875 z "
       id="rect2172"
       sodipodi:nodetypes="cccccccccccccccccccccccccccccccccccccccccccccccccccccccccccccccccccccccc" />
    <path
       transform="matrix(0,-1,1,0,0,0)"
       style="fill:#000000;fill-opacity:1;stroke:none;stroke-width:2;stroke-miterlimit:4;stroke-opacity:1"
       d="M -40,20 L -19.912127,20 L -0.097605117,38.917116 L 0,40 L -40,40 L -40,20 z "
       id="rect2271"
       sodipodi:nodetypes="cccccc" />
    <path
       transform="matrix(0,-1,1,0,0,0)"
       style="fill:#333333;fill-opacity:1;stroke:none;stroke-width:2;stroke-miterlimit:4;stroke-opacity:1"
       d="M -40,20 L -19.147273,20 L 0,39 L -40,39 L -40,20 z "
       id="rect2273"
       sodipodi:nodetypes="ccccc" />
    <path
       sodipodi:nodetypes="ccccc"
       id="path2275"
       d="M 21,40 L 38,40 L 38,0.90509668 L 21,18.002938 L 21,40 z "
       style="fill:#cccccc;fill-opacity:1;stroke:none;stroke-width:2;stroke-miterlimit:4;stroke-dasharray:none;stroke-opacity:1" />
    <path
       sodipodi:nodetypes="ccccc"
       id="path2277"
       d="M 22,40 L 37,40 L 36.924575,1.8985816 L 22,16.946992 L 22,40 z "
       style="fill:#333333;fill-opacity:1;stroke:none;stroke-width:2;stroke-miterlimit:4;stroke-dasharray:none;stroke-opacity:1" />
    <path
       sodipodi:nodetypes="ccccc"
       id="path2279"
       d="M 36,40 L 23,40 L 23,15.671353 L 36,2.7737258 L 36,40 z "
       style="fill:url(#linearGradient2248);fill-opacity:1;stroke:none;stroke-width:2;stroke-miterlimit:4;stroke-dasharray:none;stroke-opacity:1" />
    <path
       id="path2281"
       d="M 35,37.5 L 34.25,37.6875 L 30.21875,38.8125 L 29.5,39 L 28.75,38.8125 L 24.71875,37.6875 L 24,37.5 L 24.71875,37.3125 L 28.75,36.1875 L 29.5,36 L 30.21875,36.1875 L 34.25,37.3125 L 35,37.5 z M 35,32.5 L 34.25,32.6875 L 30.21875,33.8125 L 29.5,34 L 28.75,33.8125 L 24.71875,32.6875 L 24,32.5 L 24.71875,32.3125 L 28.75,31.1875 L 29.5,31 L 30.21875,31.1875 L 34.25,32.3125 L 35,32.5 z M 35,27.5 L 34.25,27.6875 L 30.21875,28.8125 L 29.5,29 L 28.75,28.8125 L 24.71875,27.6875 L 24,27.5 L 24.71875,27.3125 L 28.75,26.1875 L 29.5,26 L 30.21875,26.1875 L 34.25,27.3125 L 35,27.5 z M 35,22.5 L 34.25,22.6875 L 30.21875,23.8125 L 29.5,24 L 28.75,23.8125 L 24.71875,22.6875 L 24,22.5 L 24.71875,22.3125 L 28.75,21.1875 L 29.5,21 L 30.21875,21.1875 L 34.25,22.3125 L 35,22.5 z M 35,17.5 L 34.25,17.6875 L 30.21875,18.8125 L 29.5,19 L 28.75,18.8125 L 24.71875,17.6875 L 24,17.5 L 24.71875,17.3125 L 28.75,16.1875 L 29.5,16 L 30.21875,16.1875 L 34.25,17.3125 L 35,17.5 z M 32.125,37.5 L 29.5,36.78125 L 26.875,37.5 L 29.5,38.21875 L 32.125,37.5 z M 32.125,32.5 L 29.5,31.78125 L 26.875,32.5 L 29.5,33.21875 L 32.125,32.5 z M 32.125,27.5 L 29.5,26.78125 L 26.875,27.5 L 29.5,28.21875 L 32.125,27.5 z M 32.125,22.5 L 29.5,21.78125 L 26.875,22.5 L 29.5,23.21875 L 32.125,22.5 z M 32.125,17.5 L 29.5,16.78125 L 26.875,17.5 L 29.5,18.21875 L 32.125,17.5 z "
       style="fill:url(#linearGradient2245);fill-opacity:1;stroke:none;stroke-width:1.4577384;stroke-miterlimit:4;stroke-dasharray:none;stroke-opacity:1"
       sodipodi:nodetypes="cccccccccccccccccccccccccccccccccccccccccccccccccccccccccccccccccccccccccccccccccccccccccc" />
    <path
       style="fill:url(#linearGradient2277);fill-opacity:1;stroke:none;stroke-width:1.4577384;stroke-miterlimit:4;stroke-dasharray:none;stroke-opacity:1"
       d="M 32.452917,5.6533534 L 31.825525,6.1050573 L 28.363804,8.4573089 L 27.756588,8.885148 L 27.415574,9.5789533 L 25.672116,13.383813 L 25.351277,14.053753 L 25.958494,13.625914 L 29.420215,11.273662 L 30.047606,10.821958 L 30.368445,10.152018 L 32.111903,6.3471586 L 32.452917,5.6533534 z M 30.596806,7.8489125 L 29.450987,10.317581 L 27.207388,11.858194 L 28.353207,9.3895258 L 30.596806,7.8489125 z "
       id="path2266" />
  </g>
</svg>
