<?xml version="1.0" encoding="UTF-8" standalone="no"?>
<!-- Created with Inkscape (http://www.inkscape.org/) -->
<svg
   xmlns:dc="http://purl.org/dc/elements/1.1/"
   xmlns:cc="http://web.resource.org/cc/"
   xmlns:rdf="http://www.w3.org/1999/02/22-rdf-syntax-ns#"
   xmlns:svg="http://www.w3.org/2000/svg"
   xmlns="http://www.w3.org/2000/svg"
   xmlns:xlink="http://www.w3.org/1999/xlink"
   xmlns:sodipodi="http://sodipodi.sourceforge.net/DTD/sodipodi-0.dtd"
   xmlns:inkscape="http://www.inkscape.org/namespaces/inkscape"
   width="40"
   height="40"
   id="svg2"
   sodipodi:version="0.32"
   inkscape:version="0.45.1"
   version="1.0"
   sodipodi:docbase="/home/nicu/Desktop/border"
   sodipodi:docname="ivy_bottom.svg"
   inkscape:output_extension="org.inkscape.output.svg.inkscape">
  <defs
     id="defs4">
    <linearGradient
       id="linearGradient2164">
      <stop
         style="stop-color:#e9c6af;stop-opacity:1;"
         offset="0"
         id="stop2166" />
      <stop
         id="stop2172"
         offset="0.5"
         style="stop-color:#f9f0e9;stop-opacity:1;" />
      <stop
         style="stop-color:#e9c6af;stop-opacity:1;"
         offset="1"
         id="stop2168" />
    </linearGradient>
    <linearGradient
       inkscape:collect="always"
       xlink:href="#linearGradient2164"
       id="linearGradient2170"
       gradientUnits="userSpaceOnUse"
       x1="13.700194"
       y1="7.2401519"
       x2="13.700194"
       y2="16.619091"
       gradientTransform="translate(-40,0)" />
    <linearGradient
       inkscape:collect="always"
       xlink:href="#linearGradient2164"
       id="linearGradient2177"
       gradientUnits="userSpaceOnUse"
       gradientTransform="translate(-40,0)"
       x1="13.700194"
       y1="7.2401519"
       x2="13.700194"
       y2="16.619091" />
    <linearGradient
       inkscape:collect="always"
       xlink:href="#linearGradient2164"
       id="linearGradient2182"
       gradientUnits="userSpaceOnUse"
       gradientTransform="translate(-40,20)"
       x1="13.700194"
       y1="7.2401519"
       x2="13.700194"
       y2="16.619091" />
  </defs>
  <sodipodi:namedview
     id="base"
     pagecolor="#ffffff"
     bordercolor="#666666"
     borderopacity="1.0"
     gridtolerance="10000"
     guidetolerance="10"
     objecttolerance="10"
     inkscape:pageopacity="0.0"
     inkscape:pageshadow="2"
     inkscape:zoom="1"
     inkscape:cx="20"
     inkscape:cy="10"
     inkscape:document-units="px"
     inkscape:current-layer="layer1"
     width="40px"
     height="40px"
     inkscape:window-width="1165"
     inkscape:window-height="675"
     inkscape:window-x="400"
     inkscape:window-y="139"
     showguides="true"
     inkscape:guide-bbox="true" />
  <metadata
     id="metadata7">
    <rdf:RDF>
      <cc:Work
         rdf:about="">
        <dc:format>image/svg+xml</dc:format>
        <dc:type
           rdf:resource="http://purl.org/dc/dcmitype/StillImage" />
      </cc:Work>
    </rdf:RDF>
  </metadata>
  <g
     inkscape:label="Layer 1"
     inkscape:groupmode="layer"
     id="layer1">
    <rect
       y="36"
       x="-40"
       height="2"
       width="40"
       id="rect3226"
       style="fill:#2f1a0d;fill-opacity:1;stroke:none;stroke-width:2;stroke-miterlimit:4;stroke-dasharray:none;stroke-opacity:1"
       transform="scale(-1,1)" />
    <rect
       style="fill:#784421;fill-opacity:1;stroke:none;stroke-width:2;stroke-miterlimit:4;stroke-dasharray:none;stroke-opacity:1"
       id="rect2160"
       width="40"
       height="14"
       x="-40"
       y="23"
       transform="scale(-1,1)" />
    <rect
       y="24"
       x="-40"
       height="12"
       width="40"
       id="rect2162"
       style="fill:url(#linearGradient2182);fill-opacity:1;stroke:none;stroke-width:2;stroke-miterlimit:4;stroke-dasharray:none;stroke-opacity:1"
       transform="scale(-1,1)" />
    <path
       style="fill:#004200;fill-opacity:1;fill-rule:evenodd;stroke:none;stroke-width:1px;stroke-linecap:butt;stroke-linejoin:miter;stroke-opacity:1"
       d="M 26.0625,21.5625 C 22.722703,24.215609 21.59215,24.105154 20.403149,23.431949 C 18.641979,22.845174 17.778243,25.446834 17.1875,26.59375 C 16.429442,28.065505 16.238668,29.75748 15.6875,31.4375 C 17.192065,29.991353 18.560273,28.973069 20.0625,28.03125 C 22.773801,26.287466 25.626853,24.220281 28.53125,22.8125 C 30.161122,22.105032 32.287383,21.4181 34.125,21.28125 C 35.962617,21.1444 37.86842,22.184955 39.84375,23.03125 L 38.21875,23.03125 C 34.56532,21.466004 33.271227,22.022902 30.15625,23.375 C 28.612274,24.045184 25.888573,25.247785 24.53125,26.09375 C 26.544516,25.964014 28.395418,25.910812 30.78125,25.59375 C 32.219761,22.588522 36.738983,25.0037 37.15625,28.28125 C 33.955615,26.322927 32.378806,27.941601 30.78125,26.59375 C 28.866734,26.03615 25.384479,27.170194 23,27.21875 C 18.596448,29.280607 15.294091,33.104784 11.75,36.3125 C 10.11509,37.56591 8.405796,38.572785 6.53125,38.875 C 4.656704,39.177215 2.034739,38.432428 0,36.96875 L 1.25,36.96875 C 1.672988,37.273024 2.030301,36.951302 2.4375,37.15625 C 4.234359,36.498545 4.608601,36.053252 5.46875,35.21875 C 4.77012,33.405562 7.247874,30.291182 7.28125,29.40625 C 8.238449,31.718608 9.740333,35.237183 6.15625,35.9375 C 5.305891,36.389465 4.971968,37.223681 3.9375,37.71875 C 6.594147,38.50062 9.052182,37.04872 11.15625,35.53125 L 13.96875,32.84375 C 15.138054,30.842714 15.122555,28.466503 16.3125,26.15625 C 16.971657,24.876511 18.341743,23.471151 19.824035,22.655276 C 21.269047,21.762287 20.950697,19.39983 26.0625,21.5625 z "
       id="path2176"
       sodipodi:nodetypes="ccscccsccsccccccscccccccccscc" />
  </g>
</svg>
