<?xml version="1.0" encoding="UTF-8" standalone="no"?>
<!-- Created with Inkscape (http://www.inkscape.org/) -->

<svg
   xmlns:dc="http://purl.org/dc/elements/1.1/"
   xmlns:cc="http://creativecommons.org/ns#"
   xmlns:rdf="http://www.w3.org/1999/02/22-rdf-syntax-ns#"
   xmlns:svg="http://www.w3.org/2000/svg"
   xmlns="http://www.w3.org/2000/svg"
   xmlns:sodipodi="http://sodipodi.sourceforge.net/DTD/sodipodi-0.dtd"
   xmlns:inkscape="http://www.inkscape.org/namespaces/inkscape"
   width="210.3141"
   height="210.9287"
   id="svg9474"
   version="1.1"
   inkscape:version="0.48.3.1 r9886"
   sodipodi:docname="New document 3">
  <defs
     id="defs9476" />
  <sodipodi:namedview
     id="base"
     pagecolor="#ffffff"
     bordercolor="#666666"
     borderopacity="1.0"
     inkscape:pageopacity="0.0"
     inkscape:pageshadow="2"
     inkscape:zoom="0.35"
     inkscape:cx="-348.41438"
     inkscape:cy="105.46435"
     inkscape:document-units="px"
     inkscape:current-layer="layer1"
     showgrid="false"
     fit-margin-top="0"
     fit-margin-left="0"
     fit-margin-right="0"
     fit-margin-bottom="0"
     inkscape:window-width="511"
     inkscape:window-height="472"
     inkscape:window-x="5"
     inkscape:window-y="78"
     inkscape:window-maximized="0" />
  <metadata
     id="metadata9479">
    <rdf:RDF>
      <cc:Work
         rdf:about="">
        <dc:format>image/svg+xml</dc:format>
        <dc:type
           rdf:resource="http://purl.org/dc/dcmitype/StillImage" />
        <dc:title></dc:title>
      </cc:Work>
    </rdf:RDF>
  </metadata>
  <g
     inkscape:label="Layer 1"
     inkscape:groupmode="layer"
     id="layer1"
     transform="translate(-723.41438,-426.89784)">
    <g
       id="g176"
       transform="matrix(1.25,0,0,-1.25,909.76893,477.86698)">
      <path
         d="m 0,0 c 0.684,-0.294 1.34,-0.615 1.926,-0.978 0.14,-0.084 0.28,-0.166 0.405,-0.265 0.433,-0.297 0.838,-0.623 1.207,-0.986 0.167,-0.172 0.274,-0.334 0.341,-0.536 0.07,-0.18 0.042,-0.347 -0.097,-0.487 -0.125,-0.125 -0.335,-0.111 -0.657,0.041 -0.32,0.154 -0.809,0.529 -1.452,1.172 l -0.069,0.07 C 1.34,-1.674 1.075,-1.382 0.838,-1.09 0.545,-0.739 0.265,-0.377 0,0 m 0,-87.193 c 0.265,0.377 0.545,0.739 0.838,1.09 0.237,0.292 0.502,0.584 0.766,0.879 l 0.069,0.07 c 0.643,0.642 1.132,1.018 1.452,1.173 0.322,0.151 0.532,0.165 0.657,0.04 0.139,-0.14 0.167,-0.308 0.097,-0.488 C 3.812,-84.63 3.705,-84.792 3.538,-84.965 3.169,-85.327 2.764,-85.653 2.331,-85.951 2.206,-86.049 2.066,-86.131 1.926,-86.215 1.34,-86.578 0.684,-86.899 0,-87.193 m 10.231,80.157 0,-32.408 0,-8.305 0,-32.408 c -0.737,-0.075 -1.457,-0.285 -2.127,-0.649 l 0,33.057 0,8.305 0,33.056 c 0.67,-0.363 1.39,-0.572 2.127,-0.648 m -2.305,2.757 c -0.399,0.402 -0.92,0.24 -1.187,-0.107 -0.138,-0.129 -0.23,-0.315 -0.23,-0.561 l 0,-34.497 0,-8.305 0,-34.497 c 0,-0.246 0.092,-0.432 0.23,-0.561 0.267,-0.347 0.788,-0.508 1.187,-0.107 2.217,2.227 5.866,1.132 7.548,-1.187 1.967,-2.713 2.143,-6.024 2.094,-9.258 l -4.462,0 c 0.054,0.209 0.1,0.419 0.137,0.627 0.111,0.725 0.029,1.422 -0.265,2.049 0.782,1.314 1.297,2.584 1.535,3.798 0.224,1.228 0,2.177 -0.697,2.874 -0.642,0.642 -1.395,0.921 -2.247,0.853 -0.866,-0.085 -1.744,-0.351 -2.666,-0.825 -0.907,-0.488 -1.815,-1.087 -2.706,-1.843 -0.769,-0.655 -1.467,-1.268 -2.108,-1.882 l -0.266,-0.266 -0.056,-0.055 c -1.506,-1.507 -2.777,-3.223 -3.808,-5.15 -0.028,-0.057 -0.07,-0.099 -0.084,-0.139 -1.04,-1.982 -1.996,-4.048 -2.83,-6.208 -0.572,-0.164 -1.132,-0.34 -1.691,-0.492 -0.28,-0.083 -0.586,-0.168 -0.894,-0.249 -0.279,-0.057 -0.558,-0.141 -0.864,-0.226 0.083,0.28 0.179,0.546 0.278,0.811 0.641,1.843 1.325,3.643 2.051,5.373 0.516,1.242 1.088,2.428 1.702,3.572 0.356,0.655 0.737,1.308 1.119,1.935 0.979,0.349 1.893,0.762 2.76,1.246 0.475,0.281 0.949,0.587 1.382,0.935 0.348,0.266 0.685,0.572 1.02,0.906 0.005,0.006 0.011,0.012 0.016,0.017 0.014,0.013 0.027,0.026 0.04,0.039 0.308,0.308 0.544,0.685 0.683,1.104 0.11,0.419 0.056,0.754 -0.209,1.019 -0.459,0.46 -0.964,0.545 -1.506,0.195 -0.532,-0.334 -1.09,-0.78 -1.677,-1.366 l -0.083,-0.084 0,-0.001 -0.057,-0.056 c -0.431,-0.432 -0.822,-0.879 -1.171,-1.311 -0.363,-0.446 -0.726,-0.915 -1.091,-1.386 -1.167,-0.334 -2.418,-0.554 -3.722,-0.694 -0.53,-0.057 -1.063,-0.083 -1.607,-0.095 -1.925,-0.086 -3.878,-0.002 -5.832,0.249 -1.2,0.154 -2.393,0.356 -3.567,0.611 l 0,3.46 c 2.726,-0.261 5.529,0.089 8.106,1.014 3.64,1.307 6.912,3.565 9.263,6.656 2.435,3.2 4.421,7.974 1.678,11.595 -0.486,0.644 -1.114,1.178 -1.82,1.54 l 0,15.46 0,8.305 0,15.46 c 0.706,0.361 1.334,0.896 1.82,1.54 2.743,3.62 0.757,8.395 -1.678,11.594 -2.351,3.092 -5.623,5.35 -9.263,6.657 -2.577,0.925 -5.38,1.274 -8.106,1.014 l 0,3.46 c 1.174,0.255 2.367,0.457 3.567,0.612 1.954,0.251 3.907,0.334 5.832,0.249 0.544,-0.013 1.077,-0.038 1.607,-0.096 1.304,-0.14 2.555,-0.36 3.722,-0.694 0.365,-0.471 0.728,-0.94 1.091,-1.387 0.349,-0.431 0.74,-0.878 1.171,-1.311 l 0.056,-0.056 10e-4,0 0.083,-0.084 c 0.587,-0.586 1.145,-1.032 1.677,-1.367 0.542,-0.349 1.047,-0.264 1.506,0.196 0.265,0.264 0.319,0.599 0.209,1.018 -0.139,0.42 -0.375,0.797 -0.683,1.105 -0.013,0.013 -0.026,0.025 -0.04,0.038 -0.005,0.006 -0.011,0.012 -0.016,0.017 -0.335,0.335 -0.672,0.641 -1.02,0.906 -0.433,0.349 -0.907,0.656 -1.382,0.935 -0.867,0.485 -1.781,0.898 -2.76,1.247 -0.382,0.627 -0.763,1.28 -1.119,1.934 -0.614,1.144 -1.186,2.331 -1.702,3.573 -0.726,1.73 -1.41,3.53 -2.051,5.373 -0.099,0.265 -0.195,0.531 -0.278,0.81 0.306,-0.084 0.585,-0.168 0.864,-0.225 0.308,-0.082 0.614,-0.166 0.894,-0.249 0.559,-0.152 1.119,-0.327 1.691,-0.492 0.834,-2.16 1.79,-4.226 2.83,-6.208 0.014,-0.04 0.056,-0.083 0.084,-0.139 C 0.99,4.059 2.261,2.343 3.767,0.836 l 0.056,-0.055 0,-0.001 0.266,-0.264 c 0.641,-0.615 1.339,-1.228 2.108,-1.883 0.891,-0.756 1.799,-1.355 2.706,-1.842 0.922,-0.476 1.8,-0.742 2.666,-0.826 0.852,-0.068 1.605,0.211 2.247,0.853 0.697,0.697 0.921,1.646 0.697,2.874 -0.238,1.213 -0.753,2.484 -1.535,3.797 0.294,0.627 0.376,1.325 0.265,2.05 -0.037,0.208 -0.083,0.418 -0.137,0.627 l 4.462,0 C 17.617,2.931 17.441,-0.379 15.474,-3.092 13.792,-5.411 10.143,-6.507 7.926,-4.279 m 4.354,-85.536 c -0.53,0.529 -1.089,0.837 -1.702,0.921 -0.6,0.098 -1.214,0.042 -1.8,-0.155 -0.601,-0.181 -1.172,-0.473 -1.745,-0.879 -0.153,-0.098 -0.294,-0.18 -0.432,-0.293 -0.392,-0.305 -0.756,-0.612 -1.076,-0.933 -0.012,-0.012 -0.022,-0.023 -0.034,-0.035 -0.007,-0.007 -0.015,-0.014 -0.021,-0.021 -1.048,-1.047 -1.604,-2.025 -1.69,-2.917 -0.011,-0.164 0.033,-0.247 0.125,-0.243 0.075,-0.316 0.322,-0.584 0.744,-0.584 l 3.142,0 c -1.022,-0.733 -2.094,-1.355 -3.215,-1.867 -0.209,-0.097 -0.404,-0.181 -0.597,-0.266 -1.955,-0.837 -4.008,-1.575 -6.155,-2.218 0.781,2.009 1.647,3.879 2.596,5.637 -0.001,0.028 0.026,0.056 0.041,0.098 0.932,1.713 2.087,3.257 3.449,4.62 0.21,0.211 0.432,0.431 0.667,0.64 0.531,0.476 1.09,0.922 1.702,1.342 0.879,0.627 1.773,1.128 2.654,1.476 0.892,0.364 1.716,0.573 2.467,0.629 0.754,0.057 1.356,-0.125 1.788,-0.557 0.572,-0.572 0.752,-1.312 0.53,-2.177 -0.245,-0.843 -0.621,-1.685 -1.144,-2.512 l -0.294,0.294 z m -0.04,-3.544 -1.328,0 c 0.092,0.109 0.186,0.22 0.28,0.333 0.357,0.439 0.703,0.887 1.035,1.327 0.128,-0.516 0.134,-1.069 0.013,-1.66 m -7.591,0 c -0.01,0 -0.02,-0.001 -0.028,-0.001 0.018,0.032 0.035,0.065 0.053,0.097 0.124,0.202 0.431,0.539 0.908,1.018 0.54,0.537 1.078,0.967 1.633,1.298 0.573,0.349 1.172,0.587 1.771,0.713 1.173,0.251 2.025,0.096 2.582,-0.461 0.055,-0.055 0.111,-0.112 0.154,-0.181 0.055,-0.085 0.097,-0.153 0.153,-0.209 -0.292,-0.351 -0.559,-0.669 -0.823,-0.965 -0.253,-0.278 -0.493,-0.519 -0.708,-0.734 -0.201,-0.201 -0.402,-0.401 -0.601,-0.575 l -5.094,0 z m 6.865,-1.886 c -0.553,-1.045 -1.265,-1.982 -2.127,-2.851 -0.558,-0.551 -1.362,-1.074 -2.409,-1.6 -0.099,-0.041 -0.195,-0.084 -0.266,-0.125 -1.006,-0.474 -2.079,-0.907 -3.238,-1.312 -1.241,-0.433 -2.496,-0.824 -3.767,-1.2 -0.894,-0.251 -1.716,-0.489 -2.484,-0.698 -0.278,-0.086 -0.573,-0.153 -0.852,-0.237 0.099,0.292 0.194,0.559 0.265,0.824 0.176,0.498 0.35,0.972 0.515,1.406 2.4,0.708 4.703,1.571 6.894,2.572 0.281,0.11 0.56,0.25 0.811,0.389 1.656,0.827 3.165,1.869 4.524,3.123 l 2.279,0 c -0.045,-0.102 -0.091,-0.192 -0.145,-0.291 m -15.911,-8.259 c -0.217,-0.064 -0.646,-0.234 -0.652,-0.247 -0.013,-0.005 -0.028,-0.01 -0.041,-0.015 -0.077,-0.205 -0.141,-0.42 -0.206,-0.637 -0.401,-0.109 -1.978,-0.728 -2.274,-0.796 0.084,0.28 0.757,2.623 0.879,3.09 0.467,0.122 2.81,0.795 3.09,0.879 -0.068,-0.296 -0.687,-1.873 -0.796,-2.274 m -1.372,-2.519 c -0.209,-0.768 -0.446,-1.59 -0.699,-2.484 -0.375,-1.27 -0.766,-2.526 -1.2,-3.767 -0.404,-1.16 -0.837,-2.231 -1.311,-3.238 -0.041,-0.071 -0.083,-0.167 -0.125,-0.265 -0.525,-1.048 -1.049,-1.852 -1.6,-2.41 -0.869,-0.862 -1.806,-1.575 -2.852,-2.126 -0.099,-0.055 -0.188,-0.101 -0.29,-0.145 l 0,2.278 c 1.254,1.359 2.295,2.868 3.124,4.523 0.139,0.252 0.279,0.532 0.388,0.811 1.001,2.192 1.863,4.494 2.571,6.895 0.435,0.164 0.909,0.339 1.407,0.514 0.265,0.07 0.532,0.166 0.824,0.266 -0.084,-0.279 -0.152,-0.574 -0.237,-0.852 m -8.661,-6.682 c 0.003,0.092 -0.08,0.136 -0.242,0.125 -0.893,-0.086 -1.871,-0.642 -2.919,-1.689 -0.006,-0.007 -0.013,-0.015 -0.02,-0.022 -0.012,-0.012 -0.024,-0.022 -0.035,-0.034 -0.321,-0.321 -0.628,-0.684 -0.933,-1.076 -0.113,-0.139 -0.195,-0.279 -0.293,-0.432 -0.406,-0.573 -0.699,-1.144 -0.879,-1.745 -0.197,-0.586 -0.253,-1.2 -0.155,-1.799 0.083,-0.614 0.391,-1.173 0.922,-1.703 l 0.293,-0.294 c -0.827,-0.522 -1.669,-0.9 -2.513,-1.144 -0.864,-0.222 -1.604,-0.042 -2.176,0.53 -0.432,0.432 -0.614,1.034 -0.557,1.787 0.056,0.752 0.265,1.576 0.629,2.469 0.348,0.879 0.849,1.774 1.476,2.653 0.42,0.613 0.867,1.171 1.341,1.702 0.21,0.235 0.43,0.457 0.64,0.667 1.364,1.362 2.909,2.518 4.621,3.449 0.042,0.014 0.069,0.042 0.099,0.041 1.756,0.949 3.628,1.815 5.635,2.597 -0.641,-2.148 -1.38,-4.201 -2.217,-6.155 -0.085,-0.195 -0.169,-0.389 -0.266,-0.598 -0.512,-1.121 -1.135,-2.193 -1.867,-3.214 l 0,3.142 c 0,0.421 -0.268,0.667 -0.584,0.743 m -1.011,-0.743 0,-5.094 c -0.173,-0.2 -0.372,-0.399 -0.571,-0.599 -0.217,-0.215 -0.459,-0.457 -0.738,-0.711 -0.296,-0.265 -0.614,-0.531 -0.965,-0.824 -0.056,0.057 -0.124,0.099 -0.208,0.155 -0.071,0.042 -0.127,0.098 -0.181,0.153 -0.559,0.557 -0.713,1.41 -0.462,2.581 0.126,0.6 0.364,1.2 0.712,1.772 0.332,0.555 0.76,1.093 1.298,1.633 0.479,0.477 0.816,0.784 1.019,0.908 0.033,0.017 0.065,0.036 0.097,0.054 0,-0.01 -0.001,-0.018 -0.001,-0.028 m 0,-7.592 c -0.591,-0.121 -1.144,-0.116 -1.66,0.013 0.44,0.333 0.889,0.678 1.327,1.034 0.113,0.096 0.224,0.189 0.333,0.282 l 0,-1.329 z m -6.165,12.24 c -0.295,-0.683 -0.616,-1.341 -0.978,-1.927 -0.084,-0.139 -0.167,-0.28 -0.265,-0.403 -0.297,-0.433 -0.624,-0.84 -0.986,-1.207 -0.173,-0.168 -0.334,-0.275 -0.537,-0.343 -0.18,-0.07 -0.348,-0.041 -0.486,0.098 -0.126,0.125 -0.112,0.335 0.039,0.657 0.155,0.321 0.53,0.809 1.173,1.451 l 0.069,0.07 c 0.295,0.264 0.588,0.529 0.879,0.767 0.351,0.292 0.714,0.572 1.092,0.837 m -86.702,0 c 0.376,-0.265 0.738,-0.545 1.09,-0.837 0.291,-0.238 0.584,-0.503 0.879,-0.767 l 0.069,-0.07 c 0.643,-0.642 1.019,-1.13 1.173,-1.451 0.152,-0.322 0.165,-0.532 0.04,-0.657 -0.14,-0.139 -0.306,-0.168 -0.487,-0.098 -0.202,0.068 -0.364,0.175 -0.536,0.343 -0.363,0.367 -0.689,0.774 -0.986,1.207 -0.099,0.123 -0.182,0.264 -0.264,0.403 -0.364,0.586 -0.684,1.244 -0.978,1.927 m 92.867,-17.569 c -3.235,-0.048 -6.545,0.128 -9.258,2.095 -2.319,1.682 -3.415,5.331 -1.187,7.548 0.401,0.399 0.24,0.92 -0.108,1.186 -0.127,0.139 -0.315,0.231 -0.56,0.231 l -34.006,0 -8.797,0 -34.005,0 c -0.245,0 -0.431,-0.092 -0.56,-0.231 -0.348,-0.266 -0.509,-0.787 -0.108,-1.186 2.228,-2.217 1.133,-5.866 -1.187,-7.548 -2.713,-1.967 -6.024,-2.143 -9.258,-2.095 l 0,4.463 c 0.209,-0.054 0.419,-0.101 0.627,-0.136 0.726,-0.112 1.423,-0.03 2.051,0.263 1.312,-0.781 2.582,-1.297 3.797,-1.534 1.228,-0.224 2.177,0 2.873,0.698 0.643,0.641 0.921,1.395 0.853,2.246 -0.083,0.867 -0.351,1.744 -0.825,2.666 -0.488,0.907 -1.087,1.814 -1.843,2.705 -0.655,0.77 -1.268,1.467 -1.882,2.11 l -0.056,0.055 0,0 -0.265,0.266 c -1.507,1.506 -3.223,2.777 -5.15,3.808 -0.056,0.028 -0.099,0.07 -0.14,0.084 -1.981,1.04 -4.046,1.996 -6.208,2.83 -0.163,0.572 -0.338,1.132 -0.49,1.691 -0.083,0.28 -0.168,0.587 -0.25,0.894 -0.056,0.279 -0.141,0.557 -0.225,0.864 0.279,-0.083 0.546,-0.179 0.81,-0.278 1.843,-0.641 3.643,-1.325 5.374,-2.051 1.241,-0.516 2.427,-1.088 3.572,-1.703 0.655,-0.355 1.308,-0.736 1.934,-1.118 0.35,-0.978 0.763,-1.892 1.247,-2.761 0.28,-0.474 0.587,-0.948 0.935,-1.381 0.265,-0.349 0.571,-0.686 0.905,-1.02 0.006,-0.005 0.012,-0.01 0.017,-0.016 0.014,-0.013 0.026,-0.026 0.04,-0.04 0.307,-0.308 0.685,-0.544 1.104,-0.683 0.419,-0.111 0.754,-0.056 1.018,0.208 0.461,0.461 0.545,0.965 0.195,1.508 -0.334,0.531 -0.78,1.089 -1.366,1.675 l -0.055,0.056 -0.001,0 -0.084,0.084 c -0.433,0.433 -0.88,0.823 -1.311,1.172 -0.447,0.363 -0.916,0.726 -1.386,1.091 -0.334,1.167 -0.555,2.418 -0.695,3.723 -0.057,0.529 -0.083,1.062 -0.096,1.607 -0.085,1.924 -0.002,3.877 0.25,5.832 0.155,1.199 0.356,2.391 0.612,3.567 l 3.459,0 c -0.26,-2.727 0.089,-5.53 1.014,-8.106 1.307,-3.641 3.566,-6.913 6.656,-9.263 3.201,-2.436 7.975,-4.421 11.596,-1.679 0.643,0.487 1.177,1.114 1.539,1.82 l 14.968,0 8.797,0 14.969,0 c 0.361,-0.706 0.896,-1.333 1.539,-1.82 3.622,-2.742 8.396,-0.757 11.595,1.679 3.091,2.35 5.35,5.622 6.657,9.263 0.925,2.576 1.275,5.379 1.014,8.106 l 3.46,0 c 0.256,-1.176 0.457,-2.368 0.611,-3.567 0.252,-1.955 0.335,-3.908 0.25,-5.832 -0.012,-0.545 -0.038,-1.078 -0.097,-1.607 -0.139,-1.305 -0.359,-2.556 -0.693,-3.723 -0.471,-0.365 -0.94,-0.728 -1.387,-1.091 -0.432,-0.349 -0.879,-0.739 -1.31,-1.172 l -0.085,-0.084 -0.001,0 -0.054,-0.056 c -0.587,-0.586 -1.032,-1.144 -1.368,-1.675 -0.348,-0.543 -0.265,-1.047 0.197,-1.508 0.263,-0.264 0.598,-0.319 1.018,-0.208 0.419,0.139 0.796,0.375 1.104,0.683 0.013,0.014 0.026,0.027 0.038,0.04 0.006,0.006 0.012,0.011 0.018,0.016 0.334,0.334 0.64,0.671 0.905,1.02 0.349,0.433 0.656,0.907 0.935,1.381 0.484,0.869 0.897,1.783 1.247,2.761 0.627,0.382 1.281,0.763 1.935,1.118 1.144,0.615 2.33,1.187 3.572,1.703 1.73,0.726 3.531,1.41 5.372,2.051 0.266,0.099 0.532,0.195 0.811,0.278 -0.084,-0.307 -0.168,-0.585 -0.225,-0.864 -0.082,-0.307 -0.166,-0.614 -0.249,-0.894 -0.153,-0.559 -0.328,-1.119 -0.491,-1.691 -2.161,-0.834 -4.227,-1.79 -6.209,-2.83 -0.04,-0.014 -0.082,-0.056 -0.139,-0.084 -1.926,-1.031 -3.643,-2.302 -5.15,-3.808 l -0.264,-0.266 0,0 -0.056,-0.055 c -0.615,-0.643 -1.228,-1.34 -1.883,-2.11 -0.756,-0.891 -1.356,-1.798 -1.842,-2.705 -0.475,-0.922 -0.741,-1.799 -0.826,-2.666 -0.068,-0.851 0.211,-1.605 0.853,-2.246 0.697,-0.698 1.646,-0.922 2.874,-0.698 1.214,0.237 2.484,0.753 3.797,1.534 0.627,-0.293 1.326,-0.375 2.05,-0.263 0.209,0.035 0.418,0.082 0.627,0.136 l 0,-4.463 z m -13.203,7.338 -31.916,0 -8.797,0 -31.916,0 c -0.075,0.737 -0.285,1.457 -0.647,2.127 l 32.563,0 8.797,0 32.565,0 c -0.363,-0.67 -0.572,-1.39 -0.649,-2.127 m -84.17,-1.996 c -0.516,-0.129 -1.069,-0.134 -1.661,-0.013 l 0,1.329 c 0.11,-0.093 0.221,-0.186 0.333,-0.282 0.439,-0.356 0.889,-0.701 1.328,-1.034 m -1.563,7.553 c 0.201,-0.124 0.539,-0.431 1.017,-0.908 0.537,-0.54 0.966,-1.078 1.297,-1.633 0.35,-0.572 0.587,-1.172 0.713,-1.772 0.251,-1.171 0.097,-2.024 -0.461,-2.581 -0.055,-0.055 -0.112,-0.111 -0.182,-0.153 -0.084,-0.056 -0.151,-0.098 -0.208,-0.155 -0.35,0.293 -0.67,0.559 -0.965,0.824 -0.278,0.254 -0.521,0.496 -0.738,0.711 -0.199,0.2 -0.397,0.399 -0.571,0.599 l 0,5.094 c 0,0.01 -0.001,0.018 -0.001,0.028 0.032,-0.018 0.065,-0.037 0.099,-0.054 m -1.108,0.769 c -0.316,-0.076 -0.585,-0.322 -0.585,-0.743 l 0,-3.142 c -0.733,1.021 -1.355,2.093 -1.867,3.214 -0.097,0.209 -0.181,0.403 -0.266,0.598 -0.837,1.954 -1.575,4.007 -2.217,6.155 2.008,-0.782 3.879,-1.648 5.636,-2.597 0.029,0.001 0.056,-0.027 0.099,-0.041 1.712,-0.931 3.256,-2.087 4.62,-3.449 0.211,-0.21 0.432,-0.432 0.64,-0.667 0.475,-0.531 0.921,-1.089 1.341,-1.702 0.627,-0.879 1.128,-1.774 1.477,-2.653 0.363,-0.893 0.573,-1.717 0.628,-2.469 0.057,-0.753 -0.124,-1.355 -0.557,-1.787 -0.572,-0.572 -1.312,-0.752 -2.176,-0.53 -0.843,0.244 -1.685,0.622 -2.514,1.144 l 0.294,0.294 c 0.531,0.53 0.839,1.089 0.923,1.703 0.096,0.599 0.041,1.213 -0.155,1.799 -0.182,0.601 -0.474,1.172 -0.879,1.745 -0.098,0.153 -0.181,0.293 -0.294,0.432 -0.305,0.392 -0.612,0.755 -0.933,1.076 -0.011,0.012 -0.023,0.022 -0.034,0.034 -0.007,0.007 -0.015,0.015 -0.022,0.022 -1.047,1.047 -2.025,1.603 -2.918,1.689 -0.162,0.011 -0.246,-0.033 -0.241,-0.125 m -0.585,-7.753 c -0.101,0.044 -0.191,0.09 -0.291,0.145 -1.043,0.551 -1.982,1.264 -2.851,2.126 -0.551,0.558 -1.074,1.362 -1.6,2.41 -0.041,0.098 -0.084,0.194 -0.125,0.265 -0.474,1.007 -0.907,2.078 -1.312,3.238 -0.432,1.241 -0.823,2.497 -1.2,3.767 -0.252,0.894 -0.489,1.716 -0.698,2.484 -0.085,0.278 -0.152,0.573 -0.237,0.852 0.292,-0.1 0.559,-0.196 0.825,-0.266 0.497,-0.175 0.972,-0.35 1.405,-0.514 0.709,-2.401 1.571,-4.703 2.572,-6.895 0.109,-0.279 0.25,-0.559 0.389,-0.811 0.828,-1.655 1.869,-3.164 3.123,-4.523 l 0,-2.278 z m -8.797,16.707 c -0.006,0.013 -0.009,0.028 -0.014,0.041 -0.205,0.077 -0.421,0.142 -0.637,0.206 -0.11,0.401 -0.728,1.978 -0.797,2.274 0.28,-0.084 0.558,-0.169 0.836,-0.252 0.281,-0.084 0.587,-0.169 0.868,-0.25 0.451,-0.135 0.92,-0.255 1.386,-0.377 0.122,-0.467 0.242,-0.935 0.378,-1.388 0.081,-0.279 0.166,-0.585 0.249,-0.866 0.082,-0.278 0.167,-0.556 0.252,-0.836 -0.295,0.068 -1.872,0.687 -2.275,0.796 -0.063,0.217 -0.233,0.647 -0.246,0.652 m -2.272,0.72 c -0.768,0.209 -1.59,0.447 -2.484,0.698 -1.27,0.376 -2.526,0.767 -3.767,1.2 -1.159,0.405 -2.232,0.838 -3.238,1.312 -0.07,0.041 -0.166,0.084 -0.266,0.125 -1.047,0.526 -1.85,1.049 -2.407,1.6 -0.864,0.869 -1.577,1.806 -2.128,2.851 -0.055,0.099 -0.1,0.189 -0.144,0.291 l 2.277,0 c 1.359,-1.254 2.868,-2.296 4.524,-3.123 0.251,-0.139 0.531,-0.279 0.811,-0.389 2.191,-1.001 4.493,-1.864 6.894,-2.572 0.164,-0.434 0.339,-0.908 0.515,-1.406 0.07,-0.265 0.166,-0.532 0.265,-0.824 -0.279,0.084 -0.573,0.151 -0.852,0.237 m -15.017,9.672 c -0.121,0.591 -0.115,1.144 0.013,1.66 0.333,-0.44 0.678,-0.888 1.035,-1.327 0.095,-0.113 0.189,-0.224 0.281,-0.333 l -1.329,0 z m 2.497,0 c -0.2,0.174 -0.4,0.374 -0.601,0.575 -0.215,0.215 -0.456,0.456 -0.707,0.734 -0.265,0.296 -0.532,0.614 -0.824,0.965 0.056,0.056 0.098,0.124 0.153,0.209 0.043,0.069 0.098,0.126 0.154,0.181 0.558,0.557 1.41,0.712 2.581,0.461 0.6,-0.126 1.199,-0.364 1.773,-0.713 0.554,-0.331 1.093,-0.761 1.632,-1.298 0.477,-0.479 0.785,-0.816 0.909,-1.018 0.017,-0.032 0.035,-0.065 0.053,-0.097 -0.009,0 -0.018,0.001 -0.027,0.001 l -5.096,0 z m -2.831,3.25 c -0.522,0.827 -0.9,1.669 -1.143,2.512 -0.223,0.865 -0.042,1.605 0.529,2.177 0.433,0.432 1.034,0.614 1.787,0.557 0.753,-0.056 1.577,-0.265 2.468,-0.629 0.881,-0.348 1.776,-0.849 2.654,-1.476 0.613,-0.42 1.172,-0.866 1.702,-1.342 0.235,-0.209 0.457,-0.429 0.668,-0.64 1.362,-1.363 2.517,-2.907 3.449,-4.62 0.014,-0.042 0.042,-0.07 0.041,-0.098 0.949,-1.758 1.814,-3.628 2.596,-5.637 -2.148,0.643 -4.201,1.381 -6.155,2.218 -0.194,0.085 -0.389,0.169 -0.598,0.266 -1.12,0.512 -2.193,1.134 -3.214,1.867 l 3.143,0 c 0.42,0 0.667,0.268 0.742,0.584 0.092,-0.004 0.137,0.079 0.125,0.243 -0.086,0.892 -0.642,1.87 -1.689,2.917 l -0.022,0.021 c -0.01,0.012 -0.023,0.023 -0.033,0.035 -0.321,0.321 -0.685,0.628 -1.077,0.933 -0.138,0.113 -0.279,0.195 -0.432,0.293 -0.572,0.406 -1.144,0.698 -1.744,0.879 -0.585,0.197 -1.2,0.253 -1.8,0.155 -0.614,-0.084 -1.173,-0.392 -1.703,-0.921 l -0.294,-0.294 z m 12.574,2.916 c -0.683,0.294 -1.34,0.615 -1.926,0.978 -0.14,0.084 -0.28,0.166 -0.404,0.264 -0.433,0.298 -0.839,0.624 -1.207,0.986 -0.168,0.173 -0.275,0.335 -0.342,0.536 -0.07,0.18 -0.041,0.348 0.097,0.488 0.126,0.125 0.335,0.111 0.658,-0.04 0.32,-0.155 0.808,-0.531 1.451,-1.173 l 0.069,-0.07 c 0.264,-0.295 0.531,-0.587 0.767,-0.879 0.294,-0.351 0.573,-0.713 0.837,-1.09 m 0,87.193 c -0.264,-0.377 -0.543,-0.739 -0.837,-1.09 -0.236,-0.292 -0.503,-0.584 -0.767,-0.879 l -0.069,-0.07 c -0.643,-0.643 -1.131,-1.018 -1.451,-1.172 -0.323,-0.152 -0.532,-0.166 -0.658,-0.041 -0.138,0.14 -0.167,0.307 -0.097,0.487 0.067,0.202 0.174,0.364 0.342,0.536 0.368,0.363 0.774,0.689 1.207,0.986 0.124,0.099 0.264,0.181 0.404,0.265 0.586,0.363 1.243,0.684 1.926,0.978 m -10.23,-80.157 0,32.408 0,8.305 0,32.408 c 0.735,0.076 1.456,0.285 2.126,0.648 l 0,-33.056 0,-8.305 0,-33.057 c -0.67,0.364 -1.391,0.574 -2.126,0.649 m -3.012,-12.575 c 0.036,-0.208 0.082,-0.418 0.137,-0.627 l -4.463,0 c -0.048,3.234 0.127,6.545 2.094,9.258 1.682,2.319 5.331,3.414 7.548,1.187 0.399,-0.401 0.92,-0.24 1.187,0.107 0.138,0.129 0.23,0.315 0.23,0.561 l 0,34.497 0,8.305 0,34.497 c 0,0.246 -0.092,0.432 -0.23,0.561 -0.267,0.347 -0.788,0.509 -1.187,0.107 -2.217,-2.228 -5.866,-1.132 -7.548,1.187 -1.967,2.713 -2.142,6.023 -2.094,9.258 l 4.463,0 c -0.055,-0.209 -0.101,-0.419 -0.137,-0.627 -0.113,-0.725 -0.03,-1.423 0.264,-2.05 -0.78,-1.313 -1.296,-2.584 -1.534,-3.797 -0.224,-1.228 0,-2.177 0.697,-2.874 0.643,-0.642 1.396,-0.921 2.247,-0.853 0.867,0.084 1.744,0.35 2.665,0.826 0.907,0.487 1.815,1.086 2.706,1.842 0.769,0.655 1.467,1.268 2.11,1.883 l 0.264,0.264 0,0.001 0.056,0.055 c 1.507,1.507 2.778,3.223 3.809,5.15 0.027,0.056 0.069,0.099 0.084,0.139 1.04,1.982 1.996,4.048 2.83,6.208 0.57,0.165 1.132,0.34 1.69,0.492 0.28,0.083 0.587,0.167 0.895,0.249 0.279,0.057 0.557,0.141 0.864,0.225 -0.084,-0.279 -0.179,-0.545 -0.279,-0.81 -0.641,-1.843 -1.325,-3.643 -2.05,-5.373 -0.517,-1.242 -1.089,-2.429 -1.703,-3.573 -0.355,-0.654 -0.736,-1.307 -1.119,-1.934 -0.979,-0.349 -1.891,-0.762 -2.761,-1.247 -0.474,-0.279 -0.948,-0.586 -1.381,-0.935 -0.348,-0.265 -0.685,-0.571 -1.019,-0.906 -0.006,-0.005 -0.011,-0.011 -0.017,-0.017 -0.013,-0.013 -0.027,-0.025 -0.039,-0.038 -0.309,-0.308 -0.545,-0.685 -0.683,-1.105 -0.111,-0.419 -0.057,-0.754 0.208,-1.018 0.46,-0.46 0.964,-0.545 1.508,-0.196 0.53,0.335 1.089,0.781 1.675,1.367 l 0.084,0.084 0.056,0.056 c 0.432,0.433 0.822,0.88 1.171,1.311 0.364,0.447 0.727,0.916 1.091,1.387 1.167,0.334 2.418,0.554 3.723,0.694 0.529,0.058 1.062,0.083 1.606,0.096 1.925,0.085 3.879,0.002 5.834,-0.249 1.198,-0.155 2.391,-0.357 3.566,-0.612 l 0,-3.46 c -2.726,0.26 -5.529,-0.089 -8.106,-1.014 -3.641,-1.307 -6.912,-3.565 -9.264,-6.657 -2.434,-3.199 -4.42,-7.974 -1.678,-11.594 0.487,-0.644 1.114,-1.179 1.82,-1.54 l 0,-15.46 0,-8.305 0,-15.46 c -0.706,-0.362 -1.333,-0.896 -1.82,-1.54 -2.742,-3.621 -0.756,-8.395 1.678,-11.595 2.352,-3.091 5.623,-5.349 9.264,-6.656 2.577,-0.925 5.38,-1.275 8.106,-1.014 l 0,-3.46 c -1.175,-0.255 -2.368,-0.457 -3.566,-0.611 -1.955,-0.251 -3.909,-0.335 -5.834,-0.249 -0.544,0.012 -1.077,0.038 -1.606,0.095 -1.305,0.14 -2.556,0.36 -3.723,0.694 -0.364,0.471 -0.727,0.94 -1.091,1.386 -0.349,0.432 -0.739,0.879 -1.171,1.311 l -0.056,0.056 0,0.001 -0.084,0.084 c -0.586,0.586 -1.145,1.032 -1.675,1.366 -0.544,0.35 -1.048,0.265 -1.508,-0.195 -0.265,-0.265 -0.319,-0.6 -0.208,-1.019 0.138,-0.419 0.374,-0.796 0.683,-1.104 0.012,-0.013 0.026,-0.026 0.039,-0.039 0.006,-0.005 0.011,-0.011 0.017,-0.017 0.334,-0.334 0.671,-0.64 1.019,-0.906 0.433,-0.348 0.907,-0.654 1.381,-0.935 0.87,-0.484 1.782,-0.897 2.761,-1.246 0.383,-0.627 0.764,-1.28 1.119,-1.935 0.614,-1.144 1.186,-2.33 1.703,-3.572 0.725,-1.73 1.409,-3.53 2.05,-5.373 0.1,-0.265 0.195,-0.531 0.279,-0.811 -0.307,0.085 -0.585,0.169 -0.864,0.226 -0.308,0.081 -0.615,0.166 -0.895,0.249 -0.558,0.152 -1.12,0.328 -1.69,0.492 -0.834,2.16 -1.79,4.226 -2.83,6.208 -0.015,0.04 -0.057,0.082 -0.084,0.139 -1.031,1.927 -2.302,3.643 -3.809,5.15 l -0.056,0.055 -0.264,0.266 c -0.643,0.614 -1.341,1.227 -2.11,1.882 -0.891,0.756 -1.799,1.355 -2.706,1.843 -0.921,0.474 -1.798,0.74 -2.665,0.825 -0.851,0.068 -1.604,-0.211 -2.247,-0.853 -0.697,-0.697 -0.921,-1.646 -0.697,-2.874 0.238,-1.214 0.754,-2.484 1.534,-3.798 -0.294,-0.627 -0.377,-1.324 -0.264,-2.049 m 0.962,95.355 c 0.53,-0.53 1.089,-0.839 1.703,-0.922 0.6,-0.097 1.215,-0.042 1.8,0.155 0.6,0.181 1.172,0.474 1.744,0.878 0.153,0.099 0.294,0.182 0.432,0.294 0.392,0.305 0.756,0.612 1.077,0.933 0.01,0.012 0.023,0.023 0.033,0.035 l 0.022,0.021 c 1.047,1.047 1.603,2.025 1.689,2.918 0.012,0.163 -0.033,0.246 -0.125,0.242 -0.075,0.316 -0.322,0.584 -0.742,0.584 l -3.143,0 c 1.021,0.733 2.094,1.355 3.214,1.867 0.209,0.097 0.404,0.182 0.598,0.266 1.954,0.837 4.007,1.575 6.155,2.218 -0.782,-2.008 -1.647,-3.879 -2.596,-5.636 0.001,-0.029 -0.027,-0.058 -0.041,-0.099 -0.932,-1.712 -2.087,-3.256 -3.449,-4.621 -0.211,-0.21 -0.433,-0.431 -0.668,-0.639 -0.53,-0.476 -1.089,-0.922 -1.702,-1.342 -0.878,-0.627 -1.773,-1.128 -2.654,-1.477 -0.891,-0.363 -1.715,-0.572 -2.468,-0.628 -0.753,-0.057 -1.354,0.125 -1.787,0.558 -0.571,0.571 -0.752,1.311 -0.529,2.176 0.243,0.843 0.621,1.685 1.143,2.513 l 0.294,-0.294 z m 0.04,3.543 1.329,0 c -0.092,-0.11 -0.186,-0.22 -0.281,-0.333 -0.357,-0.439 -0.702,-0.888 -1.035,-1.327 -0.128,0.516 -0.134,1.069 -0.013,1.66 m 7.593,0 c 0.009,0 0.018,10e-4 0.027,10e-4 -0.018,-0.032 -0.036,-0.065 -0.053,-0.098 -0.124,-0.202 -0.432,-0.539 -0.909,-1.017 -0.539,-0.538 -1.078,-0.967 -1.632,-1.298 -0.574,-0.349 -1.173,-0.587 -1.773,-0.713 -1.171,-0.25 -2.023,-0.096 -2.581,0.461 -0.056,0.056 -0.111,0.112 -0.154,0.182 -0.055,0.084 -0.097,0.152 -0.153,0.208 0.292,0.351 0.559,0.67 0.824,0.964 0.251,0.279 0.492,0.52 0.707,0.735 0.201,0.201 0.401,0.401 0.601,0.575 l 5.096,0 z m -6.866,1.886 c 0.551,1.044 1.264,1.982 2.128,2.851 0.557,0.551 1.36,1.074 2.407,1.6 0.1,0.041 0.196,0.084 0.266,0.125 1.006,0.474 2.079,0.907 3.238,1.311 1.241,0.434 2.497,0.824 3.767,1.201 0.894,0.252 1.716,0.489 2.484,0.698 0.279,0.086 0.573,0.153 0.852,0.237 -0.099,-0.292 -0.195,-0.559 -0.265,-0.825 -0.176,-0.497 -0.351,-0.971 -0.515,-1.405 -2.401,-0.709 -4.703,-1.571 -6.894,-2.572 -0.28,-0.11 -0.56,-0.25 -0.811,-0.389 -1.656,-0.828 -3.165,-1.869 -4.524,-3.123 l -2.277,0 c 0.044,0.102 0.089,0.192 0.144,0.291 m 15.378,6.81 c 0.043,0.097 0.086,0.223 0.14,0.335 0.148,0.337 0.283,0.712 0.393,1.115 0.216,0.063 0.679,0.255 0.692,0.261 0.076,0.205 0.142,0.42 0.205,0.636 0.403,0.11 1.98,0.729 2.275,0.797 -0.085,-0.279 -0.17,-0.558 -0.252,-0.836 -0.083,-0.281 -0.168,-0.587 -0.249,-0.866 -0.136,-0.453 -0.256,-0.922 -0.378,-1.387 -0.466,-0.123 -0.935,-0.243 -1.386,-0.378 -0.281,-0.082 -0.587,-0.166 -0.868,-0.25 -0.278,-0.082 -0.556,-0.168 -0.836,-0.251 0.069,0.295 0.167,0.559 0.264,0.824 m 1.904,3.969 c 0.209,0.767 0.446,1.588 0.698,2.483 0.377,1.27 0.768,2.526 1.2,3.767 0.405,1.16 0.838,2.231 1.312,3.238 0.041,0.071 0.084,0.167 0.125,0.265 0.526,1.048 1.049,1.852 1.6,2.409 0.869,0.863 1.808,1.576 2.851,2.127 0.1,0.055 0.19,0.101 0.291,0.145 l 0,-2.278 c -1.254,-1.36 -2.295,-2.868 -3.123,-4.523 -0.139,-0.252 -0.28,-0.531 -0.389,-0.812 -1.001,-2.191 -1.863,-4.494 -2.572,-6.894 -0.433,-0.165 -0.908,-0.339 -1.405,-0.515 -0.266,-0.07 -0.533,-0.166 -0.825,-0.265 0.085,0.279 0.152,0.574 0.237,0.853 m 8.662,6.681 c -0.005,-0.092 0.079,-0.136 0.241,-0.125 0.893,0.086 1.871,0.642 2.918,1.689 0.007,0.007 0.015,0.015 0.022,0.022 0.011,0.012 0.023,0.022 0.034,0.034 0.321,0.321 0.628,0.684 0.933,1.076 0.113,0.138 0.196,0.279 0.294,0.432 0.405,0.573 0.697,1.144 0.879,1.745 0.196,0.585 0.251,1.199 0.155,1.8 -0.084,0.613 -0.392,1.172 -0.923,1.702 l -0.294,0.294 c 0.829,0.523 1.671,0.9 2.514,1.144 0.864,0.222 1.604,0.042 2.176,-0.53 0.433,-0.433 0.614,-1.034 0.557,-1.787 -0.055,-0.752 -0.265,-1.576 -0.628,-2.468 -0.349,-0.881 -0.85,-1.775 -1.477,-2.654 -0.42,-0.613 -0.866,-1.172 -1.341,-1.701 -0.208,-0.236 -0.429,-0.458 -0.64,-0.668 -1.364,-1.362 -2.908,-2.518 -4.62,-3.45 -0.043,-0.013 -0.07,-0.041 -0.099,-0.04 -1.757,-0.949 -3.628,-1.815 -5.636,-2.597 0.642,2.148 1.38,4.201 2.217,6.155 0.085,0.194 0.169,0.389 0.266,0.598 0.512,1.121 1.134,2.193 1.867,3.214 l 0,-3.142 c 0,-0.422 0.269,-0.668 0.585,-0.743 m 1.01,0.743 0,5.095 c 0.174,0.198 0.372,0.398 0.571,0.598 0.217,0.216 0.46,0.457 0.738,0.711 0.295,0.264 0.615,0.53 0.965,0.823 0.057,-0.056 0.124,-0.098 0.208,-0.153 0.07,-0.042 0.127,-0.099 0.182,-0.154 0.558,-0.557 0.712,-1.41 0.461,-2.581 -0.126,-0.6 -0.363,-1.199 -0.713,-1.772 -0.331,-0.555 -0.76,-1.093 -1.297,-1.633 -0.478,-0.477 -0.816,-0.784 -1.017,-0.908 -0.034,-0.017 -0.067,-0.036 -0.099,-0.053 0,0.009 0.001,0.018 0.001,0.027 m 0,7.592 c 0.592,0.121 1.145,0.116 1.661,-0.013 -0.439,-0.332 -0.889,-0.678 -1.328,-1.035 -0.112,-0.095 -0.223,-0.188 -0.333,-0.281 l 0,1.329 z m 6.167,-12.24 c 0.294,0.683 0.614,1.34 0.978,1.926 0.082,0.14 0.165,0.28 0.264,0.404 0.297,0.434 0.623,0.839 0.986,1.207 0.172,0.168 0.334,0.275 0.536,0.342 0.181,0.07 0.347,0.042 0.487,-0.097 0.125,-0.126 0.112,-0.335 -0.04,-0.657 -0.154,-0.321 -0.53,-0.809 -1.173,-1.451 l -0.069,-0.07 c -0.295,-0.264 -0.588,-0.529 -0.879,-0.767 -0.352,-0.293 -0.714,-0.572 -1.09,-0.837 m 86.702,0 c -0.378,0.265 -0.741,0.544 -1.092,0.837 -0.291,0.238 -0.584,0.503 -0.879,0.767 l -0.069,0.07 c -0.643,0.642 -1.018,1.13 -1.173,1.451 -0.151,0.322 -0.165,0.531 -0.039,0.657 0.138,0.139 0.306,0.167 0.486,0.097 0.203,-0.067 0.364,-0.174 0.537,-0.342 0.362,-0.368 0.689,-0.773 0.986,-1.207 0.098,-0.124 0.181,-0.264 0.265,-0.404 0.362,-0.586 0.683,-1.243 0.978,-1.926 m -92.869,17.568 c 3.234,0.049 6.545,-0.127 9.258,-2.094 2.32,-1.682 3.415,-5.331 1.187,-7.548 -0.401,-0.399 -0.24,-0.92 0.108,-1.187 0.129,-0.138 0.315,-0.23 0.56,-0.23 l 34.005,0 8.797,0 34.006,0 c 0.245,0 0.433,0.092 0.56,0.23 0.348,0.267 0.509,0.788 0.108,1.187 -2.228,2.217 -1.132,5.866 1.187,7.548 2.713,1.967 6.023,2.143 9.258,2.094 l 0,-4.462 c -0.209,0.054 -0.418,0.1 -0.627,0.137 -0.724,0.111 -1.423,0.029 -2.05,-0.265 -1.313,0.781 -2.583,1.297 -3.797,1.535 -1.228,0.224 -2.177,0 -2.874,-0.698 -0.642,-0.641 -0.921,-1.395 -0.853,-2.246 0.085,-0.867 0.351,-1.744 0.826,-2.666 0.486,-0.907 1.086,-1.814 1.842,-2.706 0.655,-0.769 1.268,-1.467 1.883,-2.109 l 0.056,-0.055 0.264,-0.265 c 1.507,-1.507 3.224,-2.778 5.15,-3.81 0.057,-0.026 0.099,-0.069 0.139,-0.084 1.982,-1.04 4.048,-1.995 6.209,-2.829 0.163,-0.572 0.338,-1.132 0.491,-1.691 0.083,-0.279 0.167,-0.586 0.249,-0.894 0.057,-0.279 0.141,-0.558 0.225,-0.864 -0.279,0.083 -0.545,0.178 -0.811,0.278 -1.841,0.641 -3.642,1.325 -5.372,2.051 -1.242,0.516 -2.428,1.088 -3.572,1.702 -0.654,0.356 -1.308,0.737 -1.935,1.119 -0.35,0.979 -0.763,1.892 -1.247,2.761 -0.279,0.474 -0.586,0.948 -0.935,1.381 -0.265,0.349 -0.571,0.685 -0.905,1.02 -0.006,0.006 -0.012,0.01 -0.018,0.016 -0.012,0.013 -0.025,0.026 -0.038,0.04 -0.308,0.308 -0.685,0.544 -1.104,0.683 -0.42,0.11 -0.755,0.056 -1.018,-0.209 -0.462,-0.46 -0.545,-0.963 -0.197,-1.507 0.336,-0.531 0.781,-1.089 1.368,-1.676 l 0.054,-0.055 c 0,0 0.001,0 0.001,-10e-4 l 0.085,-0.083 c 0.431,-0.433 0.878,-0.823 1.31,-1.172 0.447,-0.363 0.916,-0.726 1.387,-1.091 0.334,-1.167 0.554,-2.418 0.693,-3.723 0.059,-0.529 0.085,-1.062 0.097,-1.607 0.085,-1.924 0.002,-3.878 -0.25,-5.832 C -20.869,8.1 -21.07,6.907 -21.326,5.731 l -3.46,0 c 0.261,2.727 -0.089,5.529 -1.014,8.106 -1.307,3.642 -3.566,6.913 -6.657,9.264 -3.199,2.434 -7.973,4.42 -11.595,1.678 -0.643,-0.487 -1.178,-1.114 -1.539,-1.82 l -14.969,0 -8.797,0 -14.968,0 c -0.362,0.706 -0.896,1.333 -1.539,1.82 -3.621,2.742 -8.395,0.756 -11.596,-1.678 -3.09,-2.351 -5.349,-5.622 -6.656,-9.264 -0.925,-2.577 -1.274,-5.379 -1.014,-8.106 l -3.459,0 c -0.256,1.176 -0.457,2.369 -0.612,3.567 -0.252,1.954 -0.335,3.908 -0.25,5.832 0.013,0.545 0.039,1.078 0.096,1.607 0.14,1.305 0.361,2.556 0.695,3.723 0.47,0.365 0.939,0.728 1.386,1.091 0.431,0.349 0.878,0.739 1.311,1.172 l 0.084,0.083 c 0,10e-4 0.001,10e-4 0.001,10e-4 l 0.055,0.055 c 0.586,0.587 1.032,1.145 1.366,1.676 0.35,0.544 0.266,1.047 -0.195,1.507 -0.264,0.265 -0.599,0.319 -1.018,0.209 -0.419,-0.139 -0.797,-0.375 -1.104,-0.683 -0.014,-0.014 -0.026,-0.027 -0.04,-0.04 -0.005,-0.006 -0.011,-0.01 -0.017,-0.016 -0.334,-0.335 -0.64,-0.671 -0.905,-1.02 -0.348,-0.433 -0.655,-0.907 -0.935,-1.381 -0.484,-0.869 -0.897,-1.782 -1.247,-2.761 -0.626,-0.382 -1.279,-0.763 -1.934,-1.119 -1.145,-0.614 -2.331,-1.186 -3.572,-1.702 -1.731,-0.726 -3.531,-1.41 -5.374,-2.051 -0.264,-0.1 -0.531,-0.195 -0.81,-0.278 0.084,0.306 0.169,0.585 0.225,0.864 0.082,0.308 0.167,0.615 0.25,0.894 0.152,0.559 0.327,1.119 0.49,1.691 2.162,0.834 4.227,1.789 6.208,2.829 0.041,0.015 0.084,0.058 0.14,0.084 1.927,1.032 3.643,2.303 5.15,3.81 l 0.265,0.265 0.056,0.055 c 0.614,0.642 1.227,1.34 1.882,2.109 0.756,0.892 1.355,1.799 1.843,2.706 0.474,0.922 0.742,1.799 0.825,2.666 0.068,0.851 -0.21,1.605 -0.853,2.246 -0.696,0.698 -1.645,0.922 -2.873,0.698 -1.215,-0.238 -2.485,-0.754 -3.797,-1.535 -0.628,0.294 -1.325,0.376 -2.051,0.265 -0.208,-0.037 -0.418,-0.083 -0.627,-0.137 l 0,4.462 z m 13.202,-7.337 31.916,0 8.797,0 31.916,0 c 0.077,-0.736 0.286,-1.457 0.649,-2.127 l -32.565,0 -8.797,0 -32.563,0 c 0.362,0.67 0.572,1.391 0.647,2.127 m 84.172,1.996 c 0.516,0.129 1.069,0.134 1.66,0.013 l 0,-1.329 c -0.109,0.093 -0.22,0.186 -0.333,0.281 -0.438,0.357 -0.887,0.703 -1.327,1.035 m 1.564,-7.553 c -0.203,0.124 -0.54,0.431 -1.019,0.908 -0.538,0.54 -0.966,1.078 -1.298,1.633 -0.348,0.573 -0.586,1.172 -0.712,1.772 -0.251,1.171 -0.097,2.024 0.462,2.581 0.054,0.055 0.11,0.112 0.181,0.154 0.084,0.055 0.152,0.097 0.208,0.153 0.351,-0.293 0.669,-0.559 0.965,-0.823 0.279,-0.254 0.521,-0.495 0.738,-0.711 0.199,-0.2 0.398,-0.4 0.571,-0.598 l 0,-5.095 c 0,-0.009 0.001,-0.018 0.001,-0.027 -0.032,0.017 -0.064,0.036 -0.097,0.053 m 1.107,-0.769 c 0.316,0.075 0.584,0.321 0.584,0.743 l 0,3.142 c 0.732,-1.021 1.355,-2.093 1.867,-3.214 0.097,-0.209 0.181,-0.404 0.266,-0.598 0.837,-1.954 1.576,-4.007 2.217,-6.155 -2.007,0.782 -3.879,1.648 -5.635,2.597 -0.03,-0.001 -0.057,0.027 -0.099,0.04 -1.712,0.932 -3.257,2.088 -4.621,3.45 -0.21,0.21 -0.43,0.432 -0.64,0.668 -0.474,0.529 -0.921,1.088 -1.341,1.701 -0.627,0.879 -1.128,1.773 -1.476,2.654 -0.364,0.892 -0.573,1.716 -0.629,2.468 -0.057,0.753 0.125,1.354 0.557,1.787 0.572,0.572 1.312,0.752 2.176,0.53 0.844,-0.244 1.686,-0.621 2.513,-1.144 l -0.293,-0.294 c -0.531,-0.53 -0.839,-1.089 -0.922,-1.702 -0.098,-0.601 -0.042,-1.215 0.155,-1.8 0.18,-0.601 0.473,-1.172 0.879,-1.745 0.098,-0.153 0.18,-0.294 0.293,-0.432 0.305,-0.392 0.612,-0.755 0.933,-1.076 0.011,-0.012 0.023,-0.022 0.035,-0.034 0.007,-0.007 0.014,-0.015 0.02,-0.022 1.048,-1.047 2.026,-1.603 2.919,-1.689 0.162,-0.011 0.245,0.033 0.242,0.125 m 0.584,7.753 c 0.102,-0.044 0.191,-0.09 0.29,-0.145 1.046,-0.551 1.983,-1.264 2.852,-2.127 0.551,-0.557 1.075,-1.361 1.6,-2.409 0.042,-0.098 0.084,-0.194 0.125,-0.265 0.474,-1.007 0.907,-2.078 1.311,-3.238 0.434,-1.241 0.825,-2.497 1.2,-3.767 0.253,-0.895 0.49,-1.716 0.699,-2.483 0.085,-0.279 0.153,-0.574 0.237,-0.853 -0.292,0.099 -0.559,0.195 -0.824,0.265 -0.498,0.176 -0.972,0.35 -1.407,0.515 -0.708,2.4 -1.57,4.703 -2.571,6.894 -0.109,0.281 -0.249,0.56 -0.388,0.812 -0.829,1.655 -1.87,3.163 -3.124,4.523 l 0,2.278 z M -15.875,4.56 c 2.926,2.926 5.853,5.853 8.779,8.779 0.146,-0.433 0.293,-0.854 0.44,-1.269 C -6.098,10.509 -5.54,9 -4.982,7.494 -4.424,5.985 -3.727,4.535 -2.917,3.111 -2.693,2.72 -2.442,2.33 -2.191,1.938 -2.708,2.064 -3.223,2.19 -3.754,2.274 -4.871,2.496 -6.057,2.622 -7.27,2.638 c -1.788,0.054 -3.572,-0.056 -5.345,-0.295 -1.101,-0.151 -2.187,-0.355 -3.26,-0.61 l 0,2.827 z m -1.173,1.171 -2.826,0 c 0.255,1.074 0.459,2.16 0.61,3.261 0.24,1.773 0.349,3.557 0.295,5.345 -0.017,1.213 -0.141,2.399 -0.364,3.517 -0.084,0.53 -0.21,1.045 -0.335,1.562 0.391,-0.251 0.782,-0.502 1.172,-0.726 1.424,-0.809 2.874,-1.507 4.382,-2.065 1.507,-0.558 3.016,-1.116 4.577,-1.674 0.416,-0.147 0.836,-0.294 1.269,-0.44 -2.926,-2.927 -5.853,-5.854 -8.78,-8.78 m -7.168,-8.34 c -0.351,-0.62 -0.704,-1.187 -1.071,-1.69 -0.377,-0.515 -0.767,-0.991 -1.171,-1.395 -0.67,-0.671 -1.145,-1.088 -1.438,-1.27 -0.258,-0.156 -0.48,-0.151 -0.681,-0.006 -0.145,0.2 -0.15,0.423 0.006,0.68 0.182,0.294 0.599,0.768 1.27,1.438 0.404,0.405 0.88,0.795 1.395,1.172 0.502,0.367 1.07,0.719 1.69,1.071 m 3.794,6.339 c 0.047,0.14 0.086,0.27 0.128,0.406 l 2.824,0 0,-2.824 c -0.136,-0.042 -0.267,-0.08 -0.406,-0.127 -1.44,-0.443 -2.763,-0.927 -4.008,-1.462 0.535,1.246 1.019,2.568 1.462,4.007 m -24.066,17.579 c 0.002,0.018 0.008,0.036 0.01,0.054 l 2.399,0 c 0.061,0 0.119,0.007 0.173,0.017 0.009,0.001 0.017,0 0.025,0 0.862,0.03 1.791,-0.85 1.513,-1.771 -0.235,-0.777 -1.013,-1.415 -1.855,-1.379 -1.492,0.063 -2.442,1.689 -2.265,3.079 m -40.949,0.054 c 0.002,-0.018 0.007,-0.036 0.01,-0.054 0.177,-1.39 -0.774,-3.016 -2.266,-3.079 -0.842,-0.036 -1.62,0.602 -1.854,1.379 -0.278,0.921 0.651,1.801 1.512,1.771 0.008,0 0.016,0.001 0.025,0 0.054,-0.01 0.112,-0.017 0.175,-0.017 l 2.398,0 z M -105.7,-2.609 c 0.621,-0.352 1.187,-0.704 1.69,-1.071 0.516,-0.377 0.991,-0.767 1.396,-1.172 0.67,-0.67 1.088,-1.144 1.27,-1.438 0.155,-0.257 0.15,-0.48 0.005,-0.68 -0.2,-0.145 -0.422,-0.15 -0.681,0.006 -0.293,0.182 -0.767,0.599 -1.437,1.27 -0.405,0.404 -0.795,0.88 -1.172,1.395 -0.367,0.503 -0.719,1.07 -1.071,1.69 m -8.34,7.169 0,-2.827 c -1.074,0.255 -2.16,0.459 -3.261,0.61 -1.773,0.239 -3.557,0.349 -5.345,0.295 -1.212,-0.016 -2.399,-0.142 -3.517,-0.364 -0.529,-0.084 -1.045,-0.21 -1.561,-0.336 0.251,0.392 0.502,0.782 0.725,1.173 0.81,1.424 1.508,2.874 2.066,4.383 0.558,1.506 1.115,3.015 1.673,4.576 0.147,0.415 0.294,0.836 0.441,1.269 2.926,-2.926 5.853,-5.853 8.779,-8.779 m 4.418,-0.424 c 0.044,-0.136 0.081,-0.266 0.128,-0.406 0.444,-1.439 0.928,-2.761 1.462,-4.007 -1.245,0.535 -2.568,1.019 -4.008,1.462 -0.138,0.047 -0.269,0.085 -0.404,0.127 l 0,2.824 2.822,0 z m -1.031,4.856 c 0.153,-1.101 0.356,-2.187 0.611,-3.261 l -2.827,0 c -2.925,2.926 -5.852,5.853 -8.778,8.78 0.433,0.146 0.852,0.293 1.268,0.44 1.561,0.558 3.07,1.116 4.577,1.674 1.508,0.558 2.958,1.256 4.383,2.065 0.39,0.224 0.78,0.475 1.171,0.726 -0.125,-0.517 -0.251,-1.032 -0.335,-1.562 -0.222,-1.118 -0.348,-2.304 -0.364,-3.517 -0.054,-1.788 0.056,-3.572 0.294,-5.345 m -19.018,-75.713 0,2.399 c 0.018,0.003 0.035,0.008 0.053,0.01 1.39,0.178 3.015,-0.773 3.08,-2.266 0.036,-0.84 -0.603,-1.62 -1.379,-1.854 -0.922,-0.277 -1.801,0.651 -1.771,1.513 0,0.008 -0.001,0.016 -0.001,0.024 0.011,0.055 0.018,0.113 0.018,0.174 m -0.018,46.423 c 0,0.008 0.001,0.016 0.001,0.025 -0.03,0.861 0.849,1.789 1.771,1.512 0.776,-0.235 1.415,-1.013 1.379,-1.855 -0.065,-1.491 -1.69,-2.443 -3.08,-2.265 -0.018,0.002 -0.035,0.007 -0.053,0.01 l 0,2.398 c 0,0.062 -0.007,0.12 -0.018,0.175 m 23.989,-64.286 c 0.352,0.621 0.704,1.187 1.071,1.69 0.377,0.516 0.767,0.991 1.172,1.395 0.67,0.67 1.144,1.088 1.437,1.27 0.259,0.156 0.481,0.151 0.681,0.005 0.145,-0.199 0.15,-0.422 -0.005,-0.679 -0.182,-0.295 -0.6,-0.768 -1.27,-1.438 -0.405,-0.405 -0.88,-0.795 -1.396,-1.172 -0.503,-0.368 -1.069,-0.719 -1.69,-1.071 m -6.744,-6.745 0,2.823 c 0.135,0.043 0.266,0.081 0.404,0.128 1.44,0.443 2.763,0.927 4.008,1.462 -0.534,-1.246 -1.018,-2.568 -1.462,-4.007 -0.047,-0.14 -0.084,-0.27 -0.128,-0.406 l -2.822,0 z m -10.375,-9.203 c -0.147,0.433 -0.294,0.853 -0.441,1.268 -0.558,1.562 -1.115,3.071 -1.673,4.577 -0.558,1.509 -1.256,2.959 -2.066,4.383 -0.223,0.39 -0.474,0.781 -0.725,1.172 0.516,-0.125 1.032,-0.251 1.561,-0.335 1.118,-0.222 2.305,-0.348 3.517,-0.364 1.788,-0.054 3.572,0.056 5.345,0.294 1.101,0.152 2.187,0.356 3.261,0.611 l 0,-2.826 c -2.926,-2.927 -5.853,-5.854 -8.779,-8.78 m 11.872,-0.998 c 0.016,-1.213 0.142,-2.399 0.364,-3.517 0.084,-0.53 0.21,-1.045 0.335,-1.562 -0.391,0.251 -0.781,0.502 -1.171,0.726 -1.425,0.809 -2.875,1.507 -4.383,2.065 -1.507,0.558 -3.016,1.116 -4.577,1.674 -0.416,0.147 -0.835,0.293 -1.268,0.44 2.926,2.927 5.853,5.853 8.778,8.78 l 2.827,0 c -0.255,-1.074 -0.458,-2.16 -0.611,-3.261 -0.238,-1.773 -0.348,-3.557 -0.294,-5.345 m 25.52,-6.972 c -0.003,-0.019 -0.008,-0.036 -0.01,-0.055 l -2.398,0 c -0.063,0 -0.121,-0.006 -0.175,-0.017 -0.009,0 -0.017,0.001 -0.025,0.001 -0.861,-0.03 -1.79,0.85 -1.512,1.771 0.234,0.777 1.012,1.415 1.854,1.379 1.492,-0.063 2.443,-1.689 2.266,-3.079 m 40.949,-0.055 c -0.002,0.019 -0.008,0.036 -0.01,0.055 -0.177,1.39 0.773,3.016 2.265,3.079 0.842,0.036 1.62,-0.602 1.855,-1.379 0.278,-0.921 -0.651,-1.801 -1.513,-1.771 -0.008,0 -0.016,-0.001 -0.025,-0.001 -0.054,0.011 -0.112,0.017 -0.173,0.017 l -2.399,0 z m 20.262,23.973 c -0.62,0.352 -1.188,0.703 -1.69,1.071 -0.515,0.377 -0.991,0.767 -1.395,1.172 -0.671,0.67 -1.088,1.143 -1.27,1.438 -0.156,0.257 -0.151,0.48 -0.006,0.679 0.201,0.146 0.423,0.151 0.681,-0.005 0.293,-0.182 0.768,-0.6 1.438,-1.27 0.404,-0.404 0.794,-0.879 1.171,-1.395 0.367,-0.503 0.72,-1.069 1.071,-1.69 m 8.341,-7.168 0,2.826 c 1.073,-0.255 2.159,-0.459 3.26,-0.611 1.773,-0.238 3.557,-0.348 5.345,-0.294 1.213,0.016 2.399,0.142 3.516,0.364 0.531,0.084 1.046,0.21 1.563,0.335 -0.251,-0.391 -0.502,-0.782 -0.726,-1.172 -0.81,-1.424 -1.507,-2.874 -2.065,-4.383 -0.558,-1.506 -1.116,-3.015 -1.674,-4.577 -0.147,-0.415 -0.294,-0.835 -0.44,-1.268 -2.926,2.926 -5.853,5.853 -8.779,8.78 m -4.419,0.423 c -0.042,0.136 -0.081,0.266 -0.128,0.406 -0.443,1.439 -0.927,2.761 -1.462,4.007 1.245,-0.535 2.568,-1.019 4.008,-1.462 0.139,-0.047 0.27,-0.085 0.406,-0.128 l 0,-2.823 -2.824,0 z m 1.03,-4.856 c -0.151,1.101 -0.355,2.187 -0.61,3.261 l 2.826,0 c 2.927,-2.927 5.854,-5.853 8.78,-8.78 -0.433,-0.147 -0.853,-0.293 -1.269,-0.44 -1.561,-0.558 -3.07,-1.116 -4.577,-1.674 -1.508,-0.558 -2.958,-1.256 -4.382,-2.065 -0.39,-0.224 -0.781,-0.475 -1.172,-0.726 0.125,0.517 0.251,1.032 0.335,1.562 0.223,1.118 0.347,2.304 0.364,3.517 0.054,1.788 -0.055,3.572 -0.295,5.345 m 19.021,73.314 c -0.019,-0.003 -0.036,-0.008 -0.054,-0.01 -1.39,-0.178 -3.017,0.774 -3.08,2.265 -0.036,0.842 0.602,1.62 1.379,1.855 0.92,0.277 1.8,-0.651 1.77,-1.512 0,-0.009 0.001,-0.017 0.001,-0.025 -0.011,-0.055 -0.016,-2.573 -0.016,-2.573 m 0.016,-44.024 c 0,-0.008 -0.001,-0.016 -0.001,-0.024 0.03,-0.862 -0.85,-1.79 -1.77,-1.513 -0.777,0.234 -1.415,1.014 -1.379,1.854 0.063,1.493 1.69,2.444 3.08,2.266 0.018,-0.002 0.035,-0.007 0.054,-0.01 l 0,-2.399 c 0,-0.061 0.005,-0.119 0.016,-0.174 m 1.576,46.469 c 0.01,0.048 0.017,0.099 0.02,0.153 0.062,1.835 -1.736,3.452 -3.576,3.092 -1.8,-0.352 -3.069,-2.258 -2.702,-4.063 0.337,-1.67 1.789,-2.827 3.408,-3.161 0.424,-0.088 0.846,-0.103 1.258,-0.06 l 0,-14.979 0,-8.305 0,-14.979 c -0.412,0.042 -0.834,0.027 -1.258,-0.06 -1.619,-0.334 -3.071,-1.492 -3.408,-3.161 -0.367,-1.805 0.902,-3.711 2.702,-4.063 1.84,-0.36 3.638,1.257 3.576,3.093 -0.003,0.053 -0.01,0.104 -0.02,0.152 0.001,0.015 0.003,0.03 0.003,0.046 l 0,1.626 c 0.795,-0.707 1.324,-1.775 1.489,-2.774 0.342,-2.072 -0.493,-4.19 -1.547,-5.937 -3.632,-6.023 -10.779,-9.275 -17.764,-8.547 -1.026,0.107 -1,-1.316 -1,-1.595 l 0,-3.142 c -0.201,0.052 -0.402,0.106 -0.601,0.163 -0.39,0.112 -0.769,0.21 -1.13,0.32 -1.438,0.461 -2.751,0.964 -3.922,1.55 -0.419,0.811 -0.825,1.55 -1.256,2.204 -0.419,0.643 -0.866,1.202 -1.327,1.662 -0.962,0.962 -1.66,1.521 -2.106,1.689 -0.443,0.165 -0.842,0.071 -1.174,-0.255 -0.011,-0.01 -0.018,-0.02 -0.027,-0.03 -0.01,-0.009 -0.02,-0.016 -0.029,-0.026 -0.327,-0.333 -0.421,-0.732 -0.256,-1.175 0.169,-0.446 0.727,-1.144 1.689,-2.107 0.46,-0.46 1.019,-0.907 1.661,-1.326 0.654,-0.432 1.394,-0.837 2.205,-1.256 0.585,-1.171 1.089,-2.484 1.551,-3.923 0.109,-0.361 0.207,-0.738 0.319,-1.129 0.056,-0.199 0.11,-0.4 0.164,-0.6 l -3.143,0 c -0.278,0 -1.756,0.185 -1.595,-1.002 0.946,-6.957 -2.524,-14.131 -8.547,-17.763 -1.747,-1.053 -3.864,-1.889 -5.937,-1.547 -0.999,0.165 -2.067,0.693 -2.774,1.489 l 1.626,0 c 0.016,0 0.03,0.002 0.047,0.003 0.048,-0.01 0.098,-0.018 0.151,-0.019 1.836,-0.062 3.452,1.735 3.093,3.574 -0.353,1.801 -2.258,3.069 -4.064,2.704 -1.668,-0.338 -2.826,-1.79 -3.16,-3.408 -0.088,-0.425 -0.103,-0.846 -0.06,-1.259 l -14.488,0 -8.797,0 -14.487,0 c 0.043,0.413 0.028,0.834 -0.059,1.259 -0.334,1.618 -1.493,3.07 -3.161,3.408 -1.806,0.365 -3.711,-0.903 -4.064,-2.704 -0.36,-1.839 1.257,-3.636 3.093,-3.574 0.054,0.001 0.104,0.009 0.153,0.019 0.014,-0.001 0.03,-0.003 0.047,-0.003 l 1.625,0 c -0.707,-0.796 -1.776,-1.324 -2.774,-1.489 -2.073,-0.342 -4.19,0.494 -5.936,1.547 -6.025,3.632 -9.495,10.806 -8.549,17.763 0.161,1.187 -1.317,1.002 -1.594,1.002 l -3.143,0 c 0.053,0.2 0.107,0.401 0.163,0.6 0.112,0.391 0.21,0.768 0.321,1.129 0.461,1.439 0.963,2.752 1.549,3.923 0.811,0.419 1.551,0.824 2.205,1.256 0.643,0.419 1.201,0.866 1.661,1.326 0.963,0.963 1.521,1.661 1.689,2.107 0.165,0.443 0.071,0.842 -0.255,1.175 -0.009,0.01 -0.02,0.017 -0.03,0.026 -0.009,0.01 -0.016,0.02 -0.025,0.03 -0.334,0.326 -0.733,0.42 -1.175,0.255 -0.446,-0.168 -1.144,-0.727 -2.106,-1.689 -0.461,-0.46 -0.908,-1.019 -1.328,-1.662 -0.431,-0.654 -0.836,-1.393 -1.256,-2.204 -1.17,-0.586 -2.484,-1.089 -3.922,-1.55 -0.361,-0.11 -0.739,-0.208 -1.13,-0.32 -0.199,-0.057 -0.399,-0.111 -0.599,-0.163 l 0,3.142 c 0,0.279 0.025,1.702 -1.002,1.595 -6.984,-0.728 -14.132,2.524 -17.764,8.547 -1.053,1.747 -1.889,3.865 -1.546,5.937 0.164,0.999 0.692,2.067 1.488,2.774 l 0,-1.626 c 0,-0.016 0.002,-0.031 0.003,-0.046 -0.01,-0.048 -0.017,-0.099 -0.018,-0.152 -0.063,-1.836 1.735,-3.453 3.574,-3.093 1.801,0.352 3.068,2.258 2.704,4.063 -0.338,1.669 -1.791,2.827 -3.41,3.161 -0.424,0.087 -0.845,0.102 -1.256,0.06 l 0,14.979 0,8.305 0,14.979 c 0.411,-0.043 0.832,-0.028 1.256,0.06 1.619,0.334 3.072,1.491 3.41,3.161 0.364,1.805 -0.903,3.711 -2.704,4.063 -1.839,0.36 -3.637,-1.257 -3.574,-3.092 10e-4,-0.054 0.008,-0.105 0.018,-0.153 -0.001,-0.015 -0.003,-0.031 -0.003,-0.047 l 0,-1.625 c -0.796,0.707 -1.324,1.775 -1.488,2.774 -0.343,2.072 0.493,4.19 1.546,5.936 3.632,6.024 10.78,9.276 17.764,8.548 1.027,-0.107 1.002,1.317 1.002,1.595 l 0,3.142 c 0.2,-0.053 0.4,-0.106 0.599,-0.163 0.391,-0.112 0.769,-0.21 1.13,-0.32 1.438,-0.461 2.752,-0.964 3.922,-1.55 0.42,-0.811 0.825,-1.551 1.256,-2.204 0.42,-0.643 0.867,-1.202 1.328,-1.662 0.962,-0.962 1.66,-1.521 2.106,-1.688 0.442,-0.166 0.841,-0.072 1.175,0.254 0.009,0.01 0.016,0.02 0.025,0.03 0.01,0.009 0.021,0.016 0.03,0.026 0.326,0.333 0.42,0.733 0.255,1.174 -0.168,0.447 -0.726,1.145 -1.689,2.107 -0.46,0.461 -1.018,0.908 -1.661,1.327 -0.654,0.431 -1.394,0.836 -2.205,1.256 -0.586,1.171 -1.088,2.484 -1.549,3.923 -0.111,0.361 -0.209,0.738 -0.321,1.129 -0.056,0.199 -0.11,0.4 -0.163,0.6 l 3.143,0 c 0.277,0 1.755,-0.185 1.594,1.001 -0.946,6.958 2.524,14.132 8.549,17.764 1.746,1.053 3.863,1.889 5.936,1.547 0.998,-0.165 2.067,-0.693 2.774,-1.489 l -1.625,0 c -0.017,0 -0.033,-0.002 -0.047,-0.002 -0.049,0.009 -0.099,0.017 -0.153,0.018 -1.836,0.062 -3.453,-1.735 -3.093,-3.574 0.353,-1.801 2.258,-3.069 4.064,-2.704 1.668,0.338 2.827,1.79 3.161,3.408 0.087,0.425 0.102,0.847 0.059,1.258 l 14.487,0 8.797,0 14.488,0 c -0.043,-0.411 -0.028,-0.833 0.06,-1.258 0.334,-1.618 1.492,-3.07 3.16,-3.408 1.806,-0.365 3.711,0.903 4.064,2.704 0.359,1.839 -1.257,3.636 -3.093,3.574 -0.053,-0.001 -0.103,-0.009 -0.151,-0.018 -0.017,0 -0.031,0.002 -0.047,0.002 l -1.626,0 c 0.707,0.796 1.775,1.324 2.774,1.489 2.073,0.342 4.19,-0.494 5.937,-1.547 6.023,-3.632 9.493,-10.806 8.547,-17.764 -0.161,-1.186 1.317,-1.001 1.595,-1.001 l 3.143,0 c -0.054,-0.2 -0.108,-0.401 -0.164,-0.6 -0.112,-0.391 -0.21,-0.768 -0.319,-1.129 -0.462,-1.439 -0.966,-2.752 -1.551,-3.923 -0.811,-0.42 -1.551,-0.825 -2.205,-1.256 -0.642,-0.419 -1.201,-0.866 -1.661,-1.327 -0.962,-0.962 -1.52,-1.66 -1.689,-2.107 -0.165,-0.441 -0.071,-0.841 0.256,-1.174 0.009,-0.01 0.019,-0.017 0.029,-0.026 0.009,-0.01 0.016,-0.02 0.027,-0.03 0.332,-0.326 0.731,-0.42 1.174,-0.254 0.446,0.167 1.144,0.726 2.106,1.688 0.461,0.46 0.908,1.019 1.327,1.662 0.431,0.653 0.837,1.393 1.256,2.204 1.171,0.586 2.484,1.089 3.922,1.55 0.361,0.11 0.74,0.208 1.13,0.32 0.199,0.057 0.4,0.11 0.601,0.163 l 0,-3.142 c 0,-0.278 -0.026,-1.702 1,-1.595 6.985,0.728 14.132,-2.524 17.764,-8.548 1.054,-1.746 1.889,-3.864 1.547,-5.936 -0.165,-0.999 -0.694,-2.067 -1.489,-2.774 l 0,1.625 c 0,0.016 -0.002,0.032 -0.003,0.047 m -6.398,36.985 c 0.006,-0.015 0.435,-0.184 0.652,-0.247 0.109,-0.403 0.728,-1.979 0.796,-2.274 -0.28,0.083 -2.623,0.756 -3.09,0.879 -0.122,0.465 -0.795,2.81 -0.879,3.089 0.296,-0.068 1.873,-0.687 2.274,-0.797 0.065,-0.216 0.234,-0.646 0.247,-0.65 m 2.272,-0.721 c 0.768,-0.209 1.59,-0.446 2.484,-0.698 1.271,-0.377 2.526,-0.767 3.767,-1.201 1.159,-0.404 2.232,-0.837 3.238,-1.311 0.071,-0.041 0.167,-0.084 0.266,-0.125 1.047,-0.526 1.851,-1.049 2.409,-1.6 0.862,-0.869 1.574,-1.807 2.127,-2.851 0.054,-0.099 0.1,-0.189 0.145,-0.291 l -2.279,0 c -1.359,1.254 -2.868,2.295 -4.524,3.123 -0.251,0.139 -0.53,0.279 -0.811,0.389 -2.191,1.001 -4.494,1.863 -6.894,2.572 -0.165,0.434 -0.339,0.908 -0.515,1.405 -0.071,0.266 -0.166,0.533 -0.265,0.825 0.279,-0.084 0.574,-0.151 0.852,-0.237 M 12.24,6.166 c 0.121,-0.591 0.115,-1.144 -0.013,-1.66 -0.332,0.439 -0.678,0.888 -1.035,1.327 -0.094,0.113 -0.188,0.223 -0.28,0.333 l 1.328,0 z m -2.497,0 C 9.942,5.992 10.143,5.792 10.344,5.591 10.559,5.376 10.799,5.135 11.052,4.856 11.316,4.562 11.583,4.243 11.875,3.892 11.819,3.836 11.777,3.768 11.722,3.684 11.679,3.614 11.623,3.558 11.568,3.502 11.011,2.945 10.159,2.791 8.986,3.041 8.387,3.167 7.788,3.405 7.215,3.754 6.66,4.085 6.122,4.514 5.582,5.052 5.105,5.53 4.798,5.867 4.674,6.069 4.656,6.102 4.639,6.135 4.621,6.167 c 0.008,0 0.018,-10e-4 0.028,-10e-4 l 5.094,0 z M 12.574,2.917 C 13.097,2.089 13.473,1.247 13.718,0.404 13.94,-0.461 13.76,-1.201 13.188,-1.772 12.756,-2.205 12.154,-2.387 11.4,-2.33 10.649,-2.274 9.825,-2.065 8.933,-1.702 8.052,-1.353 7.158,-0.852 6.279,-0.225 5.667,0.195 5.108,0.641 4.577,1.117 4.342,1.325 4.12,1.546 3.91,1.756 2.548,3.121 1.393,4.665 0.461,6.377 0.446,6.418 0.419,6.447 0.42,6.476 -0.529,8.233 -1.395,10.104 -2.176,12.112 -0.029,11.469 2.024,10.731 3.979,9.894 4.172,9.81 4.367,9.725 4.576,9.628 5.697,9.116 6.769,8.494 7.791,7.761 l -3.142,0 C 4.227,7.761 3.98,7.493 3.905,7.177 3.813,7.181 3.769,7.098 3.78,6.935 3.866,6.042 4.422,5.064 5.47,4.017 5.476,4.01 5.484,4.003 5.491,3.996 5.503,3.984 5.513,3.973 5.525,3.961 5.845,3.64 6.209,3.333 6.601,3.028 6.739,2.916 6.88,2.833 7.033,2.734 7.606,2.33 8.177,2.037 8.778,1.856 c 0.586,-0.197 1.2,-0.252 1.8,-0.155 0.613,0.083 1.172,0.392 1.702,0.922 l 0.294,0.294 z m -0.748,-42.361 0,32.446 c 1.588,0.234 3.131,1.027 4.281,2.203 3.023,3.092 3.135,7.732 3.04,11.777 -0.012,0.536 -0.451,0.792 -0.866,0.769 -0.041,0.006 -0.083,0.01 -0.128,0.01 l -5.661,0 c -0.133,0.257 -0.26,0.503 -0.407,0.751 -0.25,0.39 -0.502,0.781 -0.794,1.158 -0.504,0.642 -0.991,1.186 -1.452,1.647 -0.008,0.008 -0.016,0.016 -0.026,0.024 -0.009,0.011 -0.02,0.022 -0.03,0.033 -0.739,0.739 -1.536,1.421 -2.416,2.021 -1.185,0.797 -2.483,1.48 -3.907,2.039 -1.59,0.614 -3.252,1.213 -4.967,1.786 -0.719,0.232 -1.453,0.448 -2.2,0.68 -0.231,0.747 -0.448,1.481 -0.681,2.2 -0.572,1.716 -1.172,3.377 -1.786,4.967 -0.557,1.424 -1.242,2.722 -2.037,3.908 -0.601,0.879 -1.284,1.675 -2.023,2.415 -0.009,0.01 -0.021,0.021 -0.031,0.031 -0.009,0.008 -0.017,0.017 -0.025,0.025 -0.46,0.461 -1.005,0.949 -1.647,1.451 -0.377,0.293 -0.767,0.545 -1.157,0.795 -0.248,0.147 -0.496,0.274 -0.752,0.407 l 0,5.662 c 0,0.044 -0.004,0.086 -0.01,0.127 0.023,0.415 -0.233,0.854 -0.769,0.867 -4.045,0.094 -8.685,-0.018 -11.777,-3.041 -1.176,-1.15 -1.969,-2.693 -2.202,-4.28 l -31.956,0 -8.797,0 -31.955,0 c -0.232,1.587 -1.025,3.13 -2.202,4.28 -3.092,3.023 -7.732,3.135 -11.778,3.041 -0.535,-0.013 -0.791,-0.452 -0.768,-0.867 -0.005,-0.041 -0.01,-0.083 -0.01,-0.127 l 0,-5.662 c -0.256,-0.133 -0.503,-0.26 -0.751,-0.407 -0.389,-0.25 -0.781,-0.502 -1.158,-0.795 -0.641,-0.502 -1.186,-0.99 -1.647,-1.451 -0.008,-0.008 -0.017,-0.017 -0.024,-0.025 -0.01,-0.01 -0.022,-0.021 -0.032,-0.031 -0.74,-0.74 -1.422,-1.536 -2.021,-2.415 -0.798,-1.186 -1.482,-2.484 -2.039,-3.908 -0.615,-1.59 -1.214,-3.251 -1.786,-4.967 -0.232,-0.719 -0.449,-1.453 -0.68,-2.2 -0.748,-0.232 -1.482,-0.448 -2.201,-0.68 -1.716,-0.573 -3.377,-1.172 -4.967,-1.786 -1.424,-0.559 -2.721,-1.242 -3.907,-2.039 -0.88,-0.6 -1.677,-1.282 -2.416,-2.021 -0.01,-0.011 -0.021,-0.022 -0.031,-0.033 -0.008,-0.008 -0.017,-0.016 -0.025,-0.024 -0.461,-0.461 -0.948,-1.005 -1.451,-1.647 -0.293,-0.377 -0.544,-0.768 -0.795,-1.158 -0.147,-0.248 -0.274,-0.494 -0.407,-0.751 l -5.662,0 c -0.044,0 -0.086,-0.004 -0.127,-0.01 -0.414,0.023 -0.853,-0.233 -0.866,-0.769 -0.095,-4.045 0.017,-8.685 3.041,-11.777 1.149,-1.176 2.692,-1.969 4.28,-2.203 l 0,-32.446 0,-8.305 0,-32.447 c -1.588,-0.233 -3.131,-1.026 -4.28,-2.202 -3.024,-3.093 -3.136,-7.732 -3.041,-11.777 0.013,-0.536 0.452,-0.792 0.866,-0.769 0.041,-0.006 0.083,-0.01 0.127,-0.01 l 5.662,0 c 0.133,-0.256 0.26,-0.504 0.407,-0.751 0.251,-0.391 0.502,-0.781 0.795,-1.158 0.503,-0.641 0.99,-1.186 1.451,-1.647 0.008,-0.009 0.017,-0.016 0.025,-0.025 0.01,-0.01 0.021,-0.021 0.031,-0.031 0.739,-0.74 1.536,-1.422 2.416,-2.022 1.186,-0.797 2.483,-1.481 3.907,-2.038 1.59,-0.615 3.251,-1.214 4.967,-1.787 0.719,-0.232 1.453,-0.449 2.201,-0.68 0.231,-0.747 0.448,-1.481 0.68,-2.2 0.572,-1.716 1.171,-3.377 1.786,-4.968 0.557,-1.423 1.241,-2.721 2.039,-3.907 0.599,-0.879 1.281,-1.676 2.021,-2.415 0.01,-0.01 0.022,-0.021 0.032,-0.031 0.007,-0.009 0.016,-0.017 0.024,-0.025 0.461,-0.461 1.006,-0.949 1.647,-1.452 0.377,-0.292 0.769,-0.544 1.158,-0.794 0.248,-0.147 0.495,-0.274 0.751,-0.407 l 0,-5.662 c 0,-0.045 0.005,-0.086 0.01,-0.128 -0.023,-0.414 0.233,-0.854 0.768,-0.865 4.046,-0.095 8.686,0.017 11.778,3.04 1.177,1.15 1.97,2.693 2.202,4.281 l 31.955,0 8.797,0 31.956,0 c 0.233,-1.588 1.026,-3.131 2.202,-4.281 3.092,-3.023 7.732,-3.135 11.777,-3.04 0.536,0.011 0.792,0.451 0.769,0.865 0.006,0.042 0.01,0.083 0.01,0.128 l 0,5.662 c 0.256,0.133 0.504,0.26 0.752,0.407 0.39,0.25 0.78,0.502 1.157,0.794 0.642,0.503 1.187,0.991 1.647,1.452 0.008,0.008 0.016,0.016 0.025,0.025 0.01,0.01 0.022,0.021 0.031,0.031 0.739,0.739 1.422,1.536 2.023,2.415 0.795,1.186 1.48,2.484 2.037,3.907 0.614,1.591 1.214,3.252 1.786,4.968 0.233,0.719 0.45,1.453 0.681,2.2 0.747,0.231 1.481,0.448 2.2,0.68 1.715,0.573 3.377,1.172 4.967,1.787 1.424,0.557 2.722,1.241 3.907,2.038 0.88,0.6 1.677,1.282 2.416,2.022 0.01,0.01 0.021,0.021 0.03,0.031 0.01,0.009 0.018,0.016 0.026,0.025 0.461,0.461 0.948,1.006 1.452,1.647 0.292,0.377 0.544,0.767 0.794,1.158 0.147,0.247 0.274,0.495 0.407,0.751 l 5.661,0 c 0.045,0 0.087,0.004 0.128,0.01 0.415,-0.023 0.854,0.233 0.866,0.769 0.095,4.045 -0.017,8.684 -3.04,11.777 -1.15,1.176 -2.693,1.969 -4.281,2.202 l 0,32.447 0,8.305 z"
         style="fill:#434040;fill-opacity:1;fill-rule:nonzero;stroke:none"
         id="path178"
         inkscape:connector-curvature="0" />
    </g>
  </g>
</svg>
