<?xml version="1.0" encoding="UTF-8" standalone="no"?>
<!-- Created with Inkscape (http://www.inkscape.org/) -->
<svg
   xmlns:dc="http://purl.org/dc/elements/1.1/"
   xmlns:cc="http://web.resource.org/cc/"
   xmlns:rdf="http://www.w3.org/1999/02/22-rdf-syntax-ns#"
   xmlns:svg="http://www.w3.org/2000/svg"
   xmlns="http://www.w3.org/2000/svg"
   xmlns:xlink="http://www.w3.org/1999/xlink"
   xmlns:sodipodi="http://sodipodi.sourceforge.net/DTD/sodipodi-0.dtd"
   xmlns:inkscape="http://www.inkscape.org/namespaces/inkscape"
   width="40"
   height="40"
   id="svg2"
   sodipodi:version="0.32"
   inkscape:version="0.45.1"
   version="1.0"
   sodipodi:docbase="/home/nicu/Desktop/golden_border"
   sodipodi:docname="corner_bottom_right.svg"
   inkscape:output_extension="org.inkscape.output.svg.inkscape">
  <defs
     id="defs4">
    <linearGradient
       id="linearGradient4112">
      <stop
         style="stop-color:#818100;stop-opacity:1;"
         offset="0"
         id="stop4114" />
      <stop
         id="stop4122"
         offset="0.5"
         style="stop-color:#d7d700;stop-opacity:1;" />
      <stop
         style="stop-color:#a9a900;stop-opacity:1;"
         offset="1"
         id="stop4116" />
    </linearGradient>
    <linearGradient
       id="linearGradient5163">
      <stop
         id="stop5165"
         offset="0"
         style="stop-color:#00039e;stop-opacity:1;" />
      <stop
         id="stop5167"
         offset="1"
         style="stop-color:#0c5c9f;stop-opacity:1;" />
    </linearGradient>
    <linearGradient
       id="linearGradient5173"
       inkscape:collect="always">
      <stop
         id="stop5175"
         offset="0"
         style="stop-color:#ffffff;stop-opacity:1;" />
      <stop
         id="stop5177"
         offset="1"
         style="stop-color:#ffffff;stop-opacity:0;" />
    </linearGradient>
    <linearGradient
       inkscape:collect="always"
       xlink:href="#linearGradient4112"
       id="linearGradient2218"
       gradientUnits="userSpaceOnUse"
       gradientTransform="translate(-9.7160903,0)"
       x1="11.5"
       y1="3.4375"
       x2="11.5"
       y2="19.1875" />
    <linearGradient
       inkscape:collect="always"
       xlink:href="#linearGradient4112"
       id="linearGradient2220"
       gradientUnits="userSpaceOnUse"
       x1="11.5"
       y1="3.4375"
       x2="11.5"
       y2="19.1875" />
    <linearGradient
       inkscape:collect="always"
       xlink:href="#linearGradient4112"
       id="linearGradient2222"
       gradientUnits="userSpaceOnUse"
       gradientTransform="translate(9.9999097,0)"
       x1="11.5"
       y1="3.4375"
       x2="11.5"
       y2="19.1875" />
    <linearGradient
       inkscape:collect="always"
       xlink:href="#linearGradient5163"
       id="linearGradient2232"
       gradientUnits="userSpaceOnUse"
       x1="27.854416"
       y1="1.5567189"
       x2="38.626747"
       y2="20.25" />
    <linearGradient
       inkscape:collect="always"
       xlink:href="#linearGradient4112"
       id="linearGradient2241"
       gradientUnits="userSpaceOnUse"
       gradientTransform="matrix(-1,0,0,-1,10.024774,39.972556)"
       x1="11.5"
       y1="3.4375"
       x2="11.5"
       y2="19.1875" />
    <linearGradient
       inkscape:collect="always"
       xlink:href="#linearGradient4112"
       id="linearGradient2244"
       gradientUnits="userSpaceOnUse"
       gradientTransform="matrix(-1,0,0,-1,20.024684,39.972556)"
       x1="11.5"
       y1="3.4375"
       x2="11.5"
       y2="19.1875" />
    <linearGradient
       inkscape:collect="always"
       xlink:href="#linearGradient4112"
       id="linearGradient2247"
       gradientUnits="userSpaceOnUse"
       gradientTransform="matrix(-1,0,0,-1,29.740774,39.972556)"
       x1="11.5"
       y1="3.4375"
       x2="11.5"
       y2="19.1875" />
    <linearGradient
       inkscape:collect="always"
       xlink:href="#linearGradient5173"
       id="linearGradient2253"
       gradientUnits="userSpaceOnUse"
       x1="25.941755"
       y1="-13.143359"
       x2="40.463482"
       y2="22.511934" />
    <linearGradient
       inkscape:collect="always"
       xlink:href="#linearGradient4112"
       id="linearGradient2255"
       gradientUnits="userSpaceOnUse"
       x1="24.896488"
       y1="12.444031"
       x2="44.941719"
       y2="11.338768" />
  </defs>
  <sodipodi:namedview
     id="base"
     pagecolor="#ffffff"
     bordercolor="#666666"
     borderopacity="1.0"
     gridtolerance="10000"
     guidetolerance="10"
     objecttolerance="10"
     inkscape:pageopacity="0.0"
     inkscape:pageshadow="2"
     inkscape:zoom="1"
     inkscape:cx="29.745868"
     inkscape:cy="14.016504"
     inkscape:document-units="px"
     inkscape:current-layer="g2392"
     width="40px"
     height="40px"
     showgrid="false"
     inkscape:window-width="1274"
     inkscape:window-height="721"
     inkscape:window-x="73"
     inkscape:window-y="258" />
  <metadata
     id="metadata7">
    <rdf:RDF>
      <cc:Work
         rdf:about="">
        <dc:format>image/svg+xml</dc:format>
        <dc:type
           rdf:resource="http://purl.org/dc/dcmitype/StillImage" />
      </cc:Work>
    </rdf:RDF>
  </metadata>
  <g
     inkscape:label="Layer 1"
     inkscape:groupmode="layer"
     id="layer1">
    <g
       id="g4134"
       mask="none"
       transform="matrix(0,-1,-1,0,40.070274,19.911236)">
      <path
         style="opacity:1;fill:url(#linearGradient2218);fill-opacity:1;stroke:#4c4b00;stroke-width:0.99999988;stroke-miterlimit:4;stroke-dasharray:none;stroke-opacity:1"
         d="M -8.8580001,3.1826179 L -7.1510723,9.5536789 L -3.5108778,8.5781812 L -2.2916437,13.128939 L -0.58471551,19.5 L 5.7856247,17.792879 L 9.4258197,16.817382 L 7.7188917,10.446321 L 4.0786967,11.421818 L 2.8594637,6.8710606 L 1.1525347,0.49999994 L -5.2178053,2.2071204 L -8.8580001,3.1826179 z "
         id="path4128" />
      <path
         id="rect2160"
         d="M 0.85809025,3.1826179 L 2.565018,9.5536789 L 6.2052125,8.5781812 L 7.4244466,13.128939 L 9.1313748,19.5 L 15.501715,17.792879 L 19.14191,16.817382 L 17.434982,10.446321 L 13.794787,11.421818 L 12.575554,6.8710606 L 10.868625,0.49999994 L 4.498285,2.2071204 L 0.85809025,3.1826179 z "
         style="opacity:1;fill:url(#linearGradient2220);fill-opacity:1;stroke:#4c4b00;stroke-width:0.99999988;stroke-miterlimit:4;stroke-dasharray:none;stroke-opacity:1" />
      <path
         style="opacity:1;fill:url(#linearGradient2222);fill-opacity:1;stroke:#4c4b00;stroke-width:0.99999988;stroke-miterlimit:4;stroke-dasharray:none;stroke-opacity:1"
         d="M 10.858,3.1826179 L 12.564928,9.5536789 L 16.205122,8.5781812 L 17.424356,13.128939 L 19.131284,19.5 L 25.501625,17.792879 L 29.14182,16.817382 L 27.434892,10.446321 L 23.794697,11.421818 L 22.575464,6.8710606 L 20.868535,0.49999994 L 14.498195,2.2071204 L 10.858,3.1826179 z "
         id="path4124" />
    </g>
    <path
       id="path2270"
       d="M 28.882684,36.789938 L 27.175756,30.418877 L 23.535562,31.394375 L 22.316328,26.843617 L 20.6094,20.472556 L 14.239059,22.179677 L 10.598864,23.155174 L 12.305792,29.526235 L 15.945987,28.550738 L 17.16522,33.101495 L 18.872149,39.472556 L 25.242489,37.765436 L 28.882684,36.789938 z "
       style="fill:url(#linearGradient2247);fill-opacity:1;stroke:#4c4b00;stroke-width:0.99999988;stroke-miterlimit:4;stroke-dasharray:none;stroke-opacity:1" />
    <path
       style="fill:url(#linearGradient2244);fill-opacity:1;stroke:#4c4b00;stroke-width:0.99999988;stroke-miterlimit:4;stroke-dasharray:none;stroke-opacity:1"
       d="M 19.166594,36.789938 L 17.459666,30.418877 L 13.819472,31.394375 L 12.600237,26.843617 L 10.893309,20.472556 L 4.522969,22.179677 L 0.882774,23.155174 L 2.589702,29.526235 L 6.229897,28.550738 L 7.44913,33.101495 L 9.156059,39.472556 L 15.526399,37.765436 L 19.166594,36.789938 z "
       id="path2272" />
    <path
       id="path2274"
       d="M 9.166684,36.789938 L 7.459756,30.418877 L 3.819562,31.394375 L 2.600328,26.843617 L 0.8934,20.472556 L -5.476941,22.179677 L -9.117136,23.155174 L -7.410208,29.526235 L -3.770013,28.550738 L -2.55078,33.101495 L -0.843851,39.472556 L 5.526489,37.765436 L 9.166684,36.789938 z "
       style="fill:url(#linearGradient2241);fill-opacity:1;stroke:#4c4b00;stroke-width:0.99999988;stroke-miterlimit:4;stroke-dasharray:none;stroke-opacity:1" />
    <g
       id="g2392"
       transform="matrix(0,1,-1,0,-25.179726,20.492134)">
      <path
         transform="matrix(-0.7794872,0,0,0.7916667,36.12905,-61.781251)"
         d="M 46.375 8.25 A 12.1875 12 0 1 1  22,8.25 A 12.1875 12 0 1 1  46.375 8.25 z"
         sodipodi:ry="12"
         sodipodi:rx="12.1875"
         sodipodi:cy="8.25"
         sodipodi:cx="34.1875"
         id="path4176"
         style="fill:url(#linearGradient2255);fill-opacity:1;stroke:#4c4b00;stroke-width:1.27298808;stroke-miterlimit:4;stroke-dasharray:none;stroke-opacity:1"
         sodipodi:type="arc" />
      <path
         sodipodi:type="arc"
         style="fill:url(#linearGradient2232);fill-opacity:1;stroke:none;stroke-width:1.27298808;stroke-miterlimit:4;stroke-dasharray:none;stroke-opacity:1"
         id="path5159"
         sodipodi:cx="34.1875"
         sodipodi:cy="8.25"
         sodipodi:rx="12.1875"
         sodipodi:ry="12"
         d="M 46.375 8.25 A 12.1875 12 0 1 1  22,8.25 A 12.1875 12 0 1 1  46.375 8.25 z"
         transform="matrix(-0.4923077,0,0,0.5,26.311101,-59.375)" />
      <path
         transform="matrix(0.3230292,-0.1061009,-0.1077588,-0.3280766,-1.9634342,-47.705255)"
         d="M 46.375 8.25 A 12.1875 12 0 1 1  22,8.25 A 12.1875 12 0 1 1  46.375 8.25 z"
         sodipodi:ry="12"
         sodipodi:rx="12.1875"
         sodipodi:cy="8.25"
         sodipodi:cx="34.1875"
         id="path5171"
         style="fill:url(#linearGradient2253);fill-opacity:1;stroke:none;stroke-width:1.27298808;stroke-miterlimit:4;stroke-dasharray:none;stroke-opacity:1"
         sodipodi:type="arc" />
    </g>
  </g>
</svg>
