<?xml version="1.0" encoding="UTF-8" standalone="no"?>
<!-- Created with Inkscape (http://www.inkscape.org/) -->
<svg
   xmlns:dc="http://purl.org/dc/elements/1.1/"
   xmlns:cc="http://web.resource.org/cc/"
   xmlns:rdf="http://www.w3.org/1999/02/22-rdf-syntax-ns#"
   xmlns:svg="http://www.w3.org/2000/svg"
   xmlns="http://www.w3.org/2000/svg"
   xmlns:xlink="http://www.w3.org/1999/xlink"
   xmlns:sodipodi="http://sodipodi.sourceforge.net/DTD/sodipodi-0.dtd"
   xmlns:inkscape="http://www.inkscape.org/namespaces/inkscape"
   width="40"
   height="40"
   id="svg2"
   sodipodi:version="0.32"
   inkscape:version="0.45.1"
   version="1.0"
   sodipodi:docbase="/home/nicu/Desktop"
   sodipodi:docname="dark_bottom_right.svg"
   inkscape:output_extension="org.inkscape.output.svg.inkscape">
  <defs
     id="defs4">
    <linearGradient
       id="linearGradient2166">
      <stop
         style="stop-color:#666666;stop-opacity:1;"
         offset="0"
         id="stop2168" />
      <stop
         style="stop-color:#a7a7a7;stop-opacity:1;"
         offset="1"
         id="stop2170" />
    </linearGradient>
    <linearGradient
       inkscape:collect="always"
       xlink:href="#linearGradient2166"
       id="linearGradient2258"
       gradientUnits="userSpaceOnUse"
       gradientTransform="matrix(1,0,0,-0.7647059,0,16.764706)"
       x1="17.235727"
       y1="3.0536706"
       x2="17.235727"
       y2="16.846785" />
    <linearGradient
       inkscape:collect="always"
       xlink:href="#linearGradient2166"
       id="linearGradient2192"
       gradientUnits="userSpaceOnUse"
       x1="2.5011485"
       y1="14.915941"
       x2="2.5011485"
       y2="4.0624719"
       gradientTransform="matrix(1.1056374,0,0,-1.0135008,-0.2653632,19.117318)" />
    <linearGradient
       y2="4.0624719"
       x2="2.5011485"
       y1="14.915941"
       x1="2.5011485"
       gradientTransform="matrix(1.1056374,0,0,-1.0135008,-0.2653632,19.117318)"
       gradientUnits="userSpaceOnUse"
       id="linearGradient2432"
       xlink:href="#linearGradient2166"
       inkscape:collect="always" />
    <linearGradient
       y2="16.846785"
       x2="17.235727"
       y1="3.0536706"
       x1="17.235727"
       gradientTransform="matrix(1,0,0,-0.7647059,0,16.764706)"
       gradientUnits="userSpaceOnUse"
       id="linearGradient2430"
       xlink:href="#linearGradient2166"
       inkscape:collect="always" />
    <linearGradient
       inkscape:collect="always"
       xlink:href="#linearGradient2166"
       id="linearGradient2234"
       gradientUnits="userSpaceOnUse"
       gradientTransform="matrix(1,0,0,-0.7647059,0,16.764706)"
       x1="17.235727"
       y1="3.0536706"
       x2="17.235727"
       y2="16.846785" />
    <linearGradient
       inkscape:collect="always"
       xlink:href="#linearGradient2166"
       id="linearGradient2236"
       gradientUnits="userSpaceOnUse"
       gradientTransform="matrix(1.1056374,0,0,-1.0135008,-0.2653632,19.117318)"
       x1="2.5011485"
       y1="14.915941"
       x2="2.5011485"
       y2="4.0624719" />
    <linearGradient
       inkscape:collect="always"
       xlink:href="#linearGradient2166"
       id="linearGradient2239"
       gradientUnits="userSpaceOnUse"
       gradientTransform="matrix(0,-1.1056374,-1.0135008,0,39.117318,20.265363)"
       x1="2.5011485"
       y1="14.915941"
       x2="2.5011485"
       y2="4.0624719" />
    <linearGradient
       inkscape:collect="always"
       xlink:href="#linearGradient2166"
       id="linearGradient2242"
       gradientUnits="userSpaceOnUse"
       gradientTransform="matrix(0,-0.9,-0.7647059,0,36.764706,16)"
       x1="17.235727"
       y1="3.0536706"
       x2="17.235727"
       y2="16.846785" />
    <linearGradient
       inkscape:collect="always"
       xlink:href="#linearGradient2166"
       id="linearGradient2252"
       gradientUnits="userSpaceOnUse"
       gradientTransform="matrix(1.1056374,0,0,-1.0135008,-0.2653632,19.117318)"
       x1="2.5011485"
       y1="14.915941"
       x2="2.5011485"
       y2="4.0624719" />
    <linearGradient
       inkscape:collect="always"
       xlink:href="#linearGradient2166"
       id="linearGradient2255"
       gradientUnits="userSpaceOnUse"
       gradientTransform="matrix(1.1056374,0,0,-1.0135008,-0.2653632,39.117318)"
       x1="2.5011485"
       y1="14.915941"
       x2="2.5011485"
       y2="4.0624719" />
    <linearGradient
       inkscape:collect="always"
       xlink:href="#linearGradient2166"
       id="linearGradient2259"
       gradientUnits="userSpaceOnUse"
       gradientTransform="matrix(0,-1.1056374,-1.0135008,0,39.117318,40.265363)"
       x1="2.5011485"
       y1="14.915941"
       x2="2.5011485"
       y2="4.0624719" />
    <linearGradient
       inkscape:collect="always"
       xlink:href="#linearGradient2166"
       id="linearGradient2262"
       gradientUnits="userSpaceOnUse"
       gradientTransform="matrix(0,-0.9,-0.7647059,0,36.764706,36)"
       x1="17.235727"
       y1="3.0536706"
       x2="17.235727"
       y2="16.846785" />
    <linearGradient
       inkscape:collect="always"
       xlink:href="#linearGradient2166"
       id="linearGradient2269"
       gradientUnits="userSpaceOnUse"
       gradientTransform="matrix(1.1056374,0,0,-1.0135008,-0.2653632,39.117318)"
       x1="2.5011485"
       y1="14.915941"
       x2="2.5011485"
       y2="4.0624719" />
    <linearGradient
       inkscape:collect="always"
       xlink:href="#linearGradient2166"
       id="linearGradient2272"
       gradientUnits="userSpaceOnUse"
       gradientTransform="matrix(1,0,0,-0.7647059,0,36.764706)"
       x1="17.235727"
       y1="3.0536706"
       x2="17.235727"
       y2="16.846785" />
    <linearGradient
       inkscape:collect="always"
       xlink:href="#linearGradient2166"
       id="linearGradient2294"
       gradientUnits="userSpaceOnUse"
       gradientTransform="matrix(1.1056374,0,0,-1.0135008,-0.2653632,39.117318)"
       x1="2.5011485"
       y1="14.915941"
       x2="2.5011485"
       y2="4.0624719" />
    <linearGradient
       inkscape:collect="always"
       xlink:href="#linearGradient2166"
       id="linearGradient2297"
       gradientUnits="userSpaceOnUse"
       gradientTransform="matrix(0.7818037,-0.7818037,-0.7166533,-0.7166533,23.238462,48.549979)"
       x1="2.5011485"
       y1="14.915941"
       x2="2.5011485"
       y2="4.0624719" />
  </defs>
  <sodipodi:namedview
     id="base"
     pagecolor="#ffffff"
     bordercolor="#666666"
     borderopacity="1.0"
     gridtolerance="10000"
     guidetolerance="10"
     objecttolerance="10"
     inkscape:pageopacity="0.0"
     inkscape:pageshadow="2"
     inkscape:zoom="1"
     inkscape:cx="20.944687"
     inkscape:cy="19.32255"
     inkscape:document-units="px"
     inkscape:current-layer="layer1"
     width="40px"
     height="40px"
     inkscape:window-width="1256"
     inkscape:window-height="971"
     inkscape:window-x="413"
     inkscape:window-y="24"
     inkscape:showpageshadow="true"
     showborder="true"
     showguides="true"
     inkscape:guide-bbox="true" />
  <metadata
     id="metadata7">
    <rdf:RDF>
      <cc:Work
         rdf:about="">
        <dc:format>image/svg+xml</dc:format>
        <dc:type
           rdf:resource="http://purl.org/dc/dcmitype/StillImage" />
      </cc:Work>
    </rdf:RDF>
  </metadata>
  <g
     inkscape:label="Layer 1"
     inkscape:groupmode="layer"
     id="layer1">
    <rect
       style="fill:#000000;fill-opacity:1;stroke:none;stroke-width:2;stroke-miterlimit:4;stroke-dasharray:none;stroke-opacity:1"
       id="rect2160"
       width="40"
       height="20"
       x="0"
       y="20" />
    <rect
       y="20"
       x="0"
       height="19"
       width="40"
       id="rect2176"
       style="fill:#333333;fill-opacity:1;stroke:none;stroke-width:2;stroke-miterlimit:4;stroke-dasharray:none;stroke-opacity:1" />
    <path
       style="fill:#cccccc;fill-opacity:1;stroke:none;stroke-width:2;stroke-miterlimit:4;stroke-dasharray:none;stroke-opacity:1"
       d="M 0,21 L 0,38 L 40,38 L 40,21 L 0,21 z "
       id="rect2162"
       sodipodi:nodetypes="ccccc" />
    <path
       style="fill:#333333;fill-opacity:1;stroke:none;stroke-width:2;stroke-miterlimit:4;stroke-dasharray:none;stroke-opacity:1"
       d="M 0,22 L 0,37 L 40,37 L 40,22 L 0,22 z "
       id="rect2174"
       sodipodi:nodetypes="ccccc" />
    <path
       style="fill:url(#linearGradient2272);fill-opacity:1;stroke:none;stroke-width:2;stroke-miterlimit:4;stroke-dasharray:none;stroke-opacity:1"
       d="M 0,36 L 0,23 L 40,23 L 40,36 L 0,36 z "
       id="rect2164"
       sodipodi:nodetypes="ccccc" />
    <path
       sodipodi:nodetypes="cccccccccccccccccccccccccccccccccccccccccccccccccccccccccccccccccccccccc"
       style="fill:url(#linearGradient2269);fill-opacity:1;stroke:none;stroke-width:1.4577384;stroke-miterlimit:4;stroke-dasharray:none;stroke-opacity:1"
       d="M 2.5,35 L 2.3125,34.25 L 1.1875,30.21875 L 1,29.5 L 1.1875,28.75 L 2.3125,24.71875 L 2.5,24 L 2.6875,24.71875 L 3.8125,28.75 L 4,29.5 L 3.8125,30.21875 L 2.6875,34.25 L 2.5,35 z M 7.5,35 L 7.3125,34.25 L 6.1875,30.21875 L 6,29.5 L 6.1875,28.75 L 7.3125,24.71875 L 7.5,24 L 7.6875,24.71875 L 8.8125,28.75 L 9,29.5 L 8.8125,30.21875 L 7.6875,34.25 L 7.5,35 z M 12.5,35 L 12.3125,34.25 L 11.1875,30.21875 L 11,29.5 L 11.1875,28.75 L 12.3125,24.71875 L 12.5,24 L 12.6875,24.71875 L 13.8125,28.75 L 14,29.5 L 13.8125,30.21875 L 12.6875,34.25 L 12.5,35 z M 17.5,35 L 17.3125,34.25 L 16.1875,30.21875 L 16,29.5 L 16.1875,28.75 L 17.3125,24.71875 L 17.5,24 L 17.6875,24.71875 L 18.8125,28.75 L 19,29.5 L 18.8125,30.21875 L 17.6875,34.25 L 17.5,35 z M 2.5,32.125 L 3.21875,29.5 L 2.5,26.875 L 1.78125,29.5 L 2.5,32.125 z M 7.5,32.125 L 8.21875,29.5 L 7.5,26.875 L 6.78125,29.5 L 7.5,32.125 z M 12.5,32.125 L 13.21875,29.5 L 12.5,26.875 L 11.78125,29.5 L 12.5,32.125 z M 17.5,32.125 L 18.21875,29.5 L 17.5,26.875 L 16.78125,29.5 L 17.5,32.125 z "
       id="rect2172" />
    <path
       sodipodi:nodetypes="ccccc"
       id="rect2271"
       d="M 20,20 L 20,0 L 40,0 L 40,40 L 20,20 z "
       style="fill:#000000;fill-opacity:1;stroke:none;stroke-width:2;stroke-miterlimit:4;stroke-opacity:1" />
    <path
       sodipodi:nodetypes="ccccc"
       id="rect2273"
       d="M 20,20.1875 L 20,0 L 39,0 L 39,39 L 20,20.1875 z "
       style="fill:#333333;fill-opacity:1;stroke:none;stroke-width:2;stroke-miterlimit:4;stroke-opacity:1" />
    <path
       style="fill:#cccccc;fill-opacity:1;stroke:none;stroke-width:2;stroke-miterlimit:4;stroke-dasharray:none;stroke-opacity:1"
       d="M 21,21.1875 L 38,38 L 38,0 L 21,0 L 21,21.1875 z "
       id="path2275"
       sodipodi:nodetypes="ccccc" />
    <path
       style="fill:#333333;fill-opacity:1;stroke:none;stroke-width:2;stroke-miterlimit:4;stroke-dasharray:none;stroke-opacity:1"
       d="M 21.875,22.1875 L 37,37 L 37,0 L 22,0 L 21.875,22.1875 z "
       id="path2277"
       sodipodi:nodetypes="ccccc" />
    <path
       style="fill:url(#linearGradient2262);fill-opacity:1;stroke:none;stroke-width:2;stroke-miterlimit:4;stroke-dasharray:none;stroke-opacity:1"
       d="M 36,36.125 L 23,23.375 L 23,0 L 36,0 L 36,36.125 z "
       id="path2279"
       sodipodi:nodetypes="ccccc" />
    <path
       sodipodi:nodetypes="cccccccccccccccccccccccccccccccccccccccccccccccccccccccccccccccccccccccc"
       style="fill:url(#linearGradient2259);fill-opacity:1;stroke:none;stroke-width:1.4577384;stroke-miterlimit:4;stroke-dasharray:none;stroke-opacity:1"
       d="M 35,17.5 L 34.25,17.6875 L 30.21875,18.8125 L 29.5,19 L 28.75,18.8125 L 24.71875,17.6875 L 24,17.5 L 24.71875,17.3125 L 28.75,16.1875 L 29.5,16 L 30.21875,16.1875 L 34.25,17.3125 L 35,17.5 z M 35,12.5 L 34.25,12.6875 L 30.21875,13.8125 L 29.5,14 L 28.75,13.8125 L 24.71875,12.6875 L 24,12.5 L 24.71875,12.3125 L 28.75,11.1875 L 29.5,11 L 30.21875,11.1875 L 34.25,12.3125 L 35,12.5 z M 35,7.5 L 34.25,7.6875 L 30.21875,8.8125 L 29.5,9 L 28.75,8.8125 L 24.71875,7.6875 L 24,7.5 L 24.71875,7.3125 L 28.75,6.1875 L 29.5,6 L 30.21875,6.1875 L 34.25,7.3125 L 35,7.5 z M 35,2.5 L 34.25,2.6875 L 30.21875,3.8125 L 29.5,4 L 28.75,3.8125 L 24.71875,2.6875 L 24,2.5 L 24.71875,2.3125 L 28.75,1.1875 L 29.5,1 L 30.21875,1.1875 L 34.25,2.3125 L 35,2.5 z M 32.125,17.5 L 29.5,16.78125 L 26.875,17.5 L 29.5,18.21875 L 32.125,17.5 z M 32.125,12.5 L 29.5,11.78125 L 26.875,12.5 L 29.5,13.21875 L 32.125,12.5 z M 32.125,7.5 L 29.5,6.78125 L 26.875,7.5 L 29.5,8.21875 L 32.125,7.5 z M 32.125,2.5 L 29.5,1.78125 L 26.875,2.5 L 29.5,3.21875 L 32.125,2.5 z "
       id="path2281" />
    <path
       style="fill:url(#linearGradient2297);fill-opacity:1;stroke:none;stroke-width:1.4577384;stroke-miterlimit:4;stroke-dasharray:none;stroke-opacity:1"
       d="M 25.110913,25.298413 L 25.486563,25.939228 L 27.541592,29.585248 L 27.93934,30.24816 L 28.580155,30.623811 L 32.226175,32.67884 L 32.889087,33.076587 L 32.49134,32.413675 L 30.436311,28.767655 L 30.06066,28.12684 L 29.397748,27.729092 L 25.751728,25.674063 L 25.110913,25.298413 z M 27.143845,27.331345 L 29.508233,28.679267 L 30.856155,31.043655 L 28.491767,29.695733 L 27.143845,27.331345 z "
       id="path2286" />
  </g>
</svg>
