<?xml version="1.0" encoding="UTF-8" standalone="no"?>
<!-- Created with Inkscape (http://www.inkscape.org/) -->
<svg
   xmlns:dc="http://purl.org/dc/elements/1.1/"
   xmlns:cc="http://web.resource.org/cc/"
   xmlns:rdf="http://www.w3.org/1999/02/22-rdf-syntax-ns#"
   xmlns:svg="http://www.w3.org/2000/svg"
   xmlns="http://www.w3.org/2000/svg"
   xmlns:xlink="http://www.w3.org/1999/xlink"
   xmlns:sodipodi="http://sodipodi.sourceforge.net/DTD/sodipodi-0.dtd"
   xmlns:inkscape="http://www.inkscape.org/namespaces/inkscape"
   width="40"
   height="40"
   id="svg2"
   sodipodi:version="0.32"
   inkscape:version="0.45.1"
   version="1.0"
   sodipodi:docbase="/home/nicu/Desktop/border"
   sodipodi:docname="ivy_right.svg"
   inkscape:output_extension="org.inkscape.output.svg.inkscape">
  <defs
     id="defs4">
    <linearGradient
       id="linearGradient2164">
      <stop
         style="stop-color:#e9c6af;stop-opacity:1;"
         offset="0"
         id="stop2166" />
      <stop
         id="stop2172"
         offset="0.5"
         style="stop-color:#f9f0e9;stop-opacity:1;" />
      <stop
         style="stop-color:#e9c6af;stop-opacity:1;"
         offset="1"
         id="stop2168" />
    </linearGradient>
    <linearGradient
       inkscape:collect="always"
       xlink:href="#linearGradient2164"
       id="linearGradient2171"
       gradientUnits="userSpaceOnUse"
       x1="13.700194"
       y1="7.2401519"
       x2="13.700194"
       y2="16.619091"
       gradientTransform="translate(-40,0)" />
    <linearGradient
       inkscape:collect="always"
       xlink:href="#linearGradient2164"
       id="linearGradient2176"
       gradientUnits="userSpaceOnUse"
       gradientTransform="translate(-40,0)"
       x1="13.700194"
       y1="7.2401519"
       x2="13.700194"
       y2="16.619091" />
    <linearGradient
       inkscape:collect="always"
       xlink:href="#linearGradient2164"
       id="linearGradient2181"
       gradientUnits="userSpaceOnUse"
       gradientTransform="translate(-40,20)"
       x1="13.700194"
       y1="7.2401519"
       x2="13.700194"
       y2="16.619091" />
  </defs>
  <sodipodi:namedview
     id="base"
     pagecolor="#ffffff"
     bordercolor="#666666"
     borderopacity="1.0"
     gridtolerance="10000"
     guidetolerance="10"
     objecttolerance="10"
     inkscape:pageopacity="0.0"
     inkscape:pageshadow="2"
     inkscape:zoom="1"
     inkscape:cx="20"
     inkscape:cy="20"
     inkscape:document-units="px"
     inkscape:current-layer="layer1"
     width="40px"
     height="40px"
     inkscape:window-width="1165"
     inkscape:window-height="675"
     inkscape:window-x="400"
     inkscape:window-y="139"
     showguides="true"
     inkscape:guide-bbox="true" />
  <metadata
     id="metadata7">
    <rdf:RDF>
      <cc:Work
         rdf:about="">
        <dc:format>image/svg+xml</dc:format>
        <dc:type
           rdf:resource="http://purl.org/dc/dcmitype/StillImage" />
      </cc:Work>
    </rdf:RDF>
  </metadata>
  <g
     inkscape:label="Layer 1"
     inkscape:groupmode="layer"
     id="layer1">
    <rect
       y="36"
       x="-40"
       height="2"
       width="40"
       id="rect3226"
       style="fill:#2f1a0d;fill-opacity:1;stroke:none;stroke-width:2;stroke-miterlimit:4;stroke-dasharray:none;stroke-opacity:1"
       transform="matrix(0,-1,1,0,0,0)" />
    <rect
       style="fill:#784421;fill-opacity:1;stroke:none;stroke-width:2;stroke-miterlimit:4;stroke-dasharray:none;stroke-opacity:1"
       id="rect2160"
       width="40"
       height="14"
       x="-40"
       y="23"
       transform="matrix(0,-1,1,0,0,0)" />
    <rect
       y="24"
       x="-40"
       height="12"
       width="40"
       id="rect2162"
       style="fill:url(#linearGradient2181);fill-opacity:1;stroke:none;stroke-width:2;stroke-miterlimit:4;stroke-dasharray:none;stroke-opacity:1"
       transform="matrix(0,-1,1,0,0,0)" />
    <path
       style="fill:#004200;fill-opacity:1;fill-rule:evenodd;stroke:none;stroke-width:1px;stroke-linecap:butt;stroke-linejoin:miter;stroke-opacity:1"
       d="M 21.5625,26.03125 C 24.215609,22.691453 24.105154,21.5609 23.431949,20.371899 C 22.845174,18.610729 25.446834,17.746993 26.59375,17.15625 C 28.065505,16.398192 29.75748,16.207418 31.4375,15.65625 C 29.991353,17.160815 28.973069,18.529023 28.03125,20.03125 C 26.287466,22.742551 24.220281,25.595603 22.8125,28.5 C 22.105032,30.129872 21.4181,32.256133 21.28125,34.09375 C 21.1444,35.931367 22.184955,37.83717 23.03125,39.8125 L 23.03125,38.1875 C 21.466004,34.53407 22.022902,33.239977 23.375,30.125 C 24.045184,28.581024 25.247785,25.857323 26.09375,24.5 C 25.964014,26.513266 25.910812,28.364168 25.59375,30.75 C 22.588522,32.188511 25.0037,36.707733 28.28125,37.125 C 26.322927,33.924365 27.941601,32.347556 26.59375,30.75 C 26.03615,28.835484 27.170194,25.353229 27.21875,22.96875 C 29.280607,18.565198 33.104784,15.262841 36.3125,11.71875 C 37.56591,10.08384 38.572785,8.374546 38.875,6.5 C 39.177215,4.625454 38.432428,2.003489 36.96875,-0.03125 L 36.96875,1.21875 C 37.273024,1.641738 36.951302,1.999051 37.15625,2.40625 C 36.498545,4.203109 36.053252,4.577351 35.21875,5.4375 C 33.405562,4.73887 30.291182,7.216624 29.40625,7.25 C 31.718608,8.207199 35.237183,9.709083 35.9375,6.125 C 36.389465,5.274641 37.223681,4.940718 37.71875,3.90625 C 38.50062,6.562897 37.04872,9.020932 35.53125,11.125 L 32.84375,13.9375 C 30.842714,15.106804 28.466503,15.091305 26.15625,16.28125 C 24.876511,16.940407 23.471151,18.310493 22.655276,19.792785 C 21.762287,21.237797 19.39983,20.919447 21.5625,26.03125 z "
       id="path2176"
       sodipodi:nodetypes="ccscccsccsccccccscccccccccscc" />
  </g>
</svg>
