<?xml version="1.0" encoding="UTF-8" standalone="no"?>
<!-- Created with Inkscape (http://www.inkscape.org/) -->
<svg
   xmlns:dc="http://purl.org/dc/elements/1.1/"
   xmlns:cc="http://web.resource.org/cc/"
   xmlns:rdf="http://www.w3.org/1999/02/22-rdf-syntax-ns#"
   xmlns:svg="http://www.w3.org/2000/svg"
   xmlns="http://www.w3.org/2000/svg"
   xmlns:xlink="http://www.w3.org/1999/xlink"
   xmlns:sodipodi="http://sodipodi.sourceforge.net/DTD/sodipodi-0.dtd"
   xmlns:inkscape="http://www.inkscape.org/namespaces/inkscape"
   width="40"
   height="40"
   id="svg2"
   sodipodi:version="0.32"
   inkscape:version="0.45.1"
   version="1.0"
   sodipodi:docbase="/home/nicu/Desktop/ivy_border"
   sodipodi:docname="ivy_bottom_right.svg"
   inkscape:output_extension="org.inkscape.output.svg.inkscape">
  <defs
     id="defs4">
    <linearGradient
       inkscape:collect="always"
       id="linearGradient2499">
      <stop
         style="stop-color:#ffffff;stop-opacity:1;"
         offset="0"
         id="stop2501" />
      <stop
         style="stop-color:#ffffff;stop-opacity:0;"
         offset="1"
         id="stop2503" />
    </linearGradient>
    <linearGradient
       id="linearGradient2453">
      <stop
         style="stop-color:#b400b4;stop-opacity:1;"
         offset="0"
         id="stop2455" />
      <stop
         style="stop-color:#ff38ff;stop-opacity:1;"
         offset="1"
         id="stop2457" />
    </linearGradient>
    <linearGradient
       id="linearGradient2164">
      <stop
         id="stop2166"
         offset="0"
         style="stop-color:#e9c6af;stop-opacity:1;" />
      <stop
         style="stop-color:#f9f0e9;stop-opacity:1;"
         offset="0.5"
         id="stop2172" />
      <stop
         id="stop2168"
         offset="1"
         style="stop-color:#e9c6af;stop-opacity:1;" />
    </linearGradient>
    <linearGradient
       inkscape:collect="always"
       xlink:href="#linearGradient2453"
       id="linearGradient2459"
       x1="2.4555407"
       y1="3.4698336"
       x2="14.07953"
       y2="19.582291"
       gradientUnits="userSpaceOnUse" />
    <linearGradient
       inkscape:collect="always"
       xlink:href="#linearGradient2453"
       id="linearGradient2481"
       x1="0.79198045"
       y1="0.98283488"
       x2="5.5131259"
       y2="3.4938674"
       gradientUnits="userSpaceOnUse" />
    <linearGradient
       inkscape:collect="always"
       xlink:href="#linearGradient2453"
       id="linearGradient2483"
       x1="12.553861"
       y1="5.8939762"
       x2="19.02154"
       y2="9.3314762"
       gradientUnits="userSpaceOnUse" />
    <linearGradient
       inkscape:collect="always"
       xlink:href="#linearGradient2453"
       id="linearGradient2485"
       x1="20.062498"
       y1="5.7322617"
       x2="26.137901"
       y2="11.607262"
       gradientUnits="userSpaceOnUse" />
    <linearGradient
       inkscape:collect="always"
       xlink:href="#linearGradient2453"
       id="linearGradient2487"
       x1="22.047325"
       y1="13.768977"
       x2="26.965574"
       y2="19.143978"
       gradientUnits="userSpaceOnUse" />
    <linearGradient
       inkscape:collect="always"
       xlink:href="#linearGradient2453"
       id="linearGradient2489"
       x1="5.3598261"
       y1="13.456476"
       x2="10.903075"
       y2="17.393976"
       gradientUnits="userSpaceOnUse" />
    <linearGradient
       inkscape:collect="always"
       xlink:href="#linearGradient2453"
       id="linearGradient2491"
       x1="5.437499"
       y1="20.732262"
       x2="13.012902"
       y2="24.419762"
       gradientUnits="userSpaceOnUse" />
    <linearGradient
       inkscape:collect="always"
       xlink:href="#linearGradient2453"
       id="linearGradient2493"
       x1="12.678861"
       y1="22.456476"
       x2="20.08404"
       y2="25.956476"
       gradientUnits="userSpaceOnUse" />
    <linearGradient
       inkscape:collect="always"
       xlink:href="#linearGradient2453"
       id="linearGradient2495"
       x1="18.812498"
       y1="21.169762"
       x2="26.825401"
       y2="23.544762"
       gradientUnits="userSpaceOnUse" />
    <linearGradient
       inkscape:collect="always"
       xlink:href="#linearGradient2499"
       id="linearGradient2505"
       x1="8.3831215"
       y1="10.5"
       x2="17.722271"
       y2="17.165291"
       gradientUnits="userSpaceOnUse" />
    <linearGradient
       inkscape:collect="always"
       xlink:href="#linearGradient2499"
       id="linearGradient2509"
       x1="-3.358757"
       y1="10.677166"
       x2="12.330174"
       y2="9.7490883"
       gradientUnits="userSpaceOnUse" />
    <linearGradient
       inkscape:collect="always"
       xlink:href="#linearGradient2499"
       id="linearGradient3482"
       x1="1.5131021"
       y1="9.9487619"
       x2="9.1875"
       y2="15.3125"
       gradientUnits="userSpaceOnUse" />
    <linearGradient
       inkscape:collect="always"
       xlink:href="#linearGradient2164"
       id="linearGradient2563"
       gradientUnits="userSpaceOnUse"
       gradientTransform="matrix(0.7657709,0,0,0.9999938,-30.630835,20.031124)"
       x1="13.700194"
       y1="7.2401519"
       x2="13.700194"
       y2="16.619091" />
    <linearGradient
       inkscape:collect="always"
       xlink:href="#linearGradient2164"
       id="linearGradient2569"
       gradientUnits="userSpaceOnUse"
       gradientTransform="matrix(0.8055344,0,0,1,-32.22138,20)"
       x1="13.700194"
       y1="7.2401519"
       x2="13.700194"
       y2="16.619091" />
  </defs>
  <sodipodi:namedview
     id="base"
     pagecolor="#ffffff"
     bordercolor="#666666"
     borderopacity="1.0"
     gridtolerance="10000"
     guidetolerance="10"
     objecttolerance="10"
     inkscape:pageopacity="0.0"
     inkscape:pageshadow="2"
     inkscape:zoom="1"
     inkscape:cx="21.626502"
     inkscape:cy="12.071068"
     inkscape:document-units="px"
     inkscape:current-layer="layer1"
     width="40px"
     height="40px"
     inkscape:window-width="872"
     inkscape:window-height="627"
     inkscape:window-x="347"
     inkscape:window-y="125" />
  <metadata
     id="metadata7">
    <rdf:RDF>
      <cc:Work
         rdf:about="">
        <dc:format>image/svg+xml</dc:format>
        <dc:type
           rdf:resource="http://purl.org/dc/dcmitype/StillImage" />
      </cc:Work>
    </rdf:RDF>
  </metadata>
  <g
     inkscape:label="Layer 1"
     inkscape:groupmode="layer"
     id="layer1">
    <rect
       y="-38"
       x="-30.807611"
       height="2"
       width="30.807611"
       id="rect3226"
       style="fill:#2f1a0d;fill-opacity:1;stroke:none;stroke-width:2;stroke-miterlimit:4;stroke-dasharray:none;stroke-opacity:1"
       transform="scale(-1,-1)" />
    <rect
       style="fill:#784421;fill-opacity:1;stroke:none;stroke-width:2;stroke-miterlimit:4;stroke-dasharray:none;stroke-opacity:1"
       id="rect2160"
       width="32.221378"
       height="14"
       x="-32.221378"
       y="-37"
       transform="scale(-1,-1)" />
    <rect
       y="24"
       x="-32.221378"
       height="12"
       width="32.221378"
       id="rect2162"
       style="fill:url(#linearGradient2569);fill-opacity:1;stroke:none;stroke-width:2;stroke-miterlimit:4;stroke-dasharray:none;stroke-opacity:1"
       transform="scale(-1,1)" />
    <path
       style="fill:#004200;fill-opacity:1;fill-rule:evenodd;stroke:none;stroke-width:1px;stroke-linecap:butt;stroke-linejoin:miter;stroke-opacity:1"
       d="M 3.7812123,32.9375 C 4.9884004,32.125142 9.2402519,24.731567 5.6562131,24.03125 C 4.8058644,23.579285 4.9719284,22.745069 3.9374738,22.25 C 2.9588508,20.671043 1.2924282,20.152476 -1.80625e-06,23 L 1.2499904,23 C 1.6729738,22.695726 2.0302896,23.017448 2.4374831,22.8125 C 4.2343199,23.470205 3.4835836,24.165498 4.3437213,25 C 1.5201006,27.813188 3.7478366,32.052568 3.7812123,32.9375 z "
       id="path2176"
       sodipodi:nodetypes="cccccccc" />
    <rect
       y="-37.999989"
       x="-28.863068"
       height="1.9999876"
       width="28.863068"
       id="rect2392"
       style="fill:#2f1a0d;fill-opacity:1;stroke:none;stroke-width:2;stroke-miterlimit:4;stroke-dasharray:none;stroke-opacity:1"
       transform="matrix(0,-1,-1,0,0,0)" />
    <rect
       style="fill:#784421;fill-opacity:1;stroke:none;stroke-width:2;stroke-miterlimit:4;stroke-dasharray:none;stroke-opacity:1"
       id="rect2394"
       width="30.630835"
       height="13.999913"
       x="-30.630836"
       y="-37.031017"
       transform="matrix(0,-1,-1,0,0,0)" />
    <rect
       y="24.031099"
       x="-30.630836"
       height="11.999926"
       width="30.630835"
       id="rect2396"
       style="fill:url(#linearGradient2563);fill-opacity:1;stroke:none;stroke-width:2;stroke-miterlimit:4;stroke-dasharray:none;stroke-opacity:1"
       transform="matrix(0,-1,1,0,0,0)" />
    <path
       sodipodi:nodetypes="cccccccc"
       id="path2445"
       d="M 33.999193,4.594348 C 31.686849,5.551542 28.543312,8.928409 24.093,5.844348 C 23.641038,4.993994 22.806827,5.160059 22.311761,4.125598 C 20.732814,3.146969 20.21425,1.480536 23.061756,0.188098 L 23.061756,1.438098 C 22.757484,1.861084 23.079204,2.218402 22.874257,2.625598 C 23.531958,4.422446 24.477247,2.921705 25.311744,3.781848 C 28.124921,1.333223 32.614267,4.435972 33.999193,4.594348 z "
       style="fill:#004200;fill-opacity:1;fill-rule:evenodd;stroke:none;stroke-width:1px;stroke-linecap:butt;stroke-linejoin:miter;stroke-opacity:1" />
    <g
       id="g2205"
       transform="translate(7,7)">
      <path
         sodipodi:type="arc"
         style="opacity:1;fill:#2f1a0d;fill-opacity:1;stroke:none;stroke-width:2;stroke-miterlimit:4;stroke-dasharray:none;stroke-opacity:1"
         id="path2447"
         sodipodi:cx="19.1875"
         sodipodi:cy="16.5625"
         sodipodi:rx="14.4375"
         sodipodi:ry="14.4375"
         d="M 33.625 16.5625 A 14.4375 14.4375 0 1 1  4.75,16.5625 A 14.4375 14.4375 0 1 1  33.625 16.5625 z"
         transform="matrix(1.1082251,0,0,1.1082251,-4.2640692,-1.3549781)" />
      <path
         transform="matrix(1.1082251,0,0,1.1082251,-5.2640692,-2.3549781)"
         d="M 33.625 16.5625 A 14.4375 14.4375 0 1 1  4.75,16.5625 A 14.4375 14.4375 0 1 1  33.625 16.5625 z"
         sodipodi:ry="14.4375"
         sodipodi:rx="14.4375"
         sodipodi:cy="16.5625"
         sodipodi:cx="19.1875"
         id="path2436"
         style="opacity:1;fill:#784421;fill-opacity:1;stroke:none;stroke-width:2;stroke-miterlimit:4;stroke-dasharray:none;stroke-opacity:1"
         sodipodi:type="arc" />
      <path
         sodipodi:type="arc"
         style="opacity:1;fill:#f1ddce;fill-opacity:1;stroke:none;stroke-width:2;stroke-miterlimit:4;stroke-dasharray:none;stroke-opacity:1"
         id="path2438"
         sodipodi:cx="19.1875"
         sodipodi:cy="16.5625"
         sodipodi:rx="14.4375"
         sodipodi:ry="14.4375"
         d="M 33.625 16.5625 A 14.4375 14.4375 0 1 1  4.75,16.5625 A 14.4375 14.4375 0 1 1  33.625 16.5625 z"
         transform="matrix(1.038961,0,0,1.038961,-3.9350649,-1.2077922)" />
      <path
         id="path2449"
         d="M 27.972271,21.283494 L 21.57695,27.747164 L 12.484271,27.795494 L 6.0206013,21.400173 L 5.9722712,12.307494 L 12.367592,5.8438247 L 21.460271,5.7954946 L 27.923941,12.190815 L 27.972271,21.283494 z "
         style="fill:#5b005b;fill-opacity:1;stroke:none;stroke-width:2;stroke-miterlimit:4;stroke-opacity:1" />
      <path
         id="path2465"
         d="M 13.564791,10.321851 L 11.303861,5.0144314 L 20.39654,4.9661013 L 18.42271,10.111422 L 13.564791,10.321851 z "
         style="fill:url(#linearGradient2483);fill-opacity:1;stroke:none;stroke-width:2;stroke-miterlimit:4;stroke-opacity:1"
         sodipodi:nodetypes="ccccc" />
      <path
         sodipodi:nodetypes="ccccc"
         transform="matrix(0.9956064,0,0,0.9956064,7.0239986,7.5037446)"
         style="fill:url(#linearGradient2481);fill-opacity:1;stroke:none;stroke-width:2;stroke-miterlimit:4;stroke-opacity:1"
         d="M 3.3423166,6.1896432 L -2.1584827,4.2142705 L 4.390612,-2.4662507 L 6.6430906,2.5899642 L 3.3423166,6.1896432 z "
         id="path2463" />
      <path
         sodipodi:nodetypes="ccccc"
         style="fill:url(#linearGradient2493);fill-opacity:1;stroke:none;stroke-width:2;stroke-miterlimit:4;stroke-opacity:1"
         d="M 13.564791,21.716101 L 11.303861,27.023521 L 20.39654,27.071851 L 18.42271,21.92653 L 13.564791,21.716101 z "
         id="path2467" />
      <path
         id="path2469"
         d="M 21.723771,13.666193 L 26.825402,11.261999 L 20.367582,4.8608296 L 18.437499,10.14483 L 21.723771,13.666193 z "
         style="fill:url(#linearGradient2485);fill-opacity:1;stroke:none;stroke-width:2;stroke-miterlimit:4;stroke-opacity:1"
         sodipodi:nodetypes="ccccc" />
      <path
         sodipodi:nodetypes="ccccc"
         style="fill:url(#linearGradient2495);fill-opacity:1;stroke:none;stroke-width:2;stroke-miterlimit:4;stroke-opacity:1"
         d="M 21.473771,18.48583 L 26.950402,20.640024 L 20.430082,27.103693 L 18.312499,21.819693 L 21.473771,18.48583 z "
         id="path2471" />
      <path
         id="path2473"
         d="M 10.28913,18.48583 L 4.937499,20.640024 L 11.332819,27.103693 L 13.637902,21.757193 L 10.28913,18.48583 z "
         style="fill:url(#linearGradient2491);fill-opacity:1;stroke:none;stroke-width:2;stroke-miterlimit:4;stroke-opacity:1"
         sodipodi:nodetypes="ccccc" />
      <path
         sodipodi:nodetypes="ccccc"
         style="fill:url(#linearGradient2489);fill-opacity:1;stroke:none;stroke-width:2;stroke-miterlimit:4;stroke-opacity:1"
         d="M 10.403075,18.491886 L 5.033156,20.627816 L 4.984826,11.535137 L 10.130146,13.508967 L 10.403075,18.491886 z "
         id="path2477" />
      <path
         id="path2479"
         d="M 21.609826,18.616886 L 26.987328,20.73451 L 26.965575,11.160137 L 21.757755,13.571467 L 21.609826,18.616886 z "
         style="fill:url(#linearGradient2487);fill-opacity:1;stroke:none;stroke-width:2;stroke-miterlimit:4;stroke-opacity:1"
         sodipodi:nodetypes="ccccc" />
      <path
         id="path2451"
         d="M 20.064154,13.041554 L 13.640611,19.533748 L 4.5078062,19.582291 L -1.9843877,13.158748 L -2.0329311,4.0259431 L 4.390612,-2.4662507 L 13.523417,-2.5147941 L 20.015611,3.9087489 L 20.064154,13.041554 z "
         style="fill:url(#linearGradient2459);fill-opacity:1;stroke:none;stroke-width:2;stroke-miterlimit:4;stroke-opacity:1"
         transform="matrix(0.543058,0,0,0.543058,11.103999,11.365679)" />
      <path
         sodipodi:nodetypes="ccccccc"
         style="fill:url(#linearGradient2505);fill-opacity:1;stroke:none;stroke-width:2;stroke-miterlimit:4;stroke-opacity:1"
         d="M 12.320001,19.990794 L 10.52389,18.213676 L 10.5,13.719 L 13.661323,10.52389 L 18.155999,10.5 L 19.903871,12.22939 C 13.681311,14.649406 17.263588,18.721276 12.320001,19.990794 z "
         id="path2497" />
      <path
         sodipodi:nodetypes="cccc"
         id="path2507"
         d="M 10.739184,6.5008162 L 5.9662135,11.273787 L 9.9436891,12.99736 C 7.3440235,11.279475 9.8857922,8.7582412 10.739184,6.5008162 z "
         style="fill:url(#linearGradient2509);fill-rule:evenodd;stroke:none;stroke-width:1px;stroke-linecap:butt;stroke-linejoin:miter;stroke-opacity:1" />
      <path
         sodipodi:nodetypes="cccc"
         id="path3480"
         d="M 5.4375,19.4375 L 5.5,12.5625 L 9.1875,13.75 C 5.2650247,13.864183 6.1644854,17.19299 5.4375,19.4375 z "
         style="fill:url(#linearGradient3482);fill-rule:evenodd;stroke:none;stroke-width:1px;stroke-linecap:butt;stroke-linejoin:miter;stroke-opacity:1" />
    </g>
  </g>
</svg>
