<?xml version="1.0" encoding="UTF-8" standalone="no"?>
<!-- Created with Inkscape (http://www.inkscape.org/) -->
<svg
   xmlns:dc="http://purl.org/dc/elements/1.1/"
   xmlns:cc="http://web.resource.org/cc/"
   xmlns:rdf="http://www.w3.org/1999/02/22-rdf-syntax-ns#"
   xmlns:svg="http://www.w3.org/2000/svg"
   xmlns="http://www.w3.org/2000/svg"
   xmlns:xlink="http://www.w3.org/1999/xlink"
   xmlns:sodipodi="http://sodipodi.sourceforge.net/DTD/sodipodi-0.dtd"
   xmlns:inkscape="http://www.inkscape.org/namespaces/inkscape"
   width="40"
   height="40"
   id="svg2"
   sodipodi:version="0.32"
   inkscape:version="0.45.1"
   version="1.0"
   sodipodi:docbase="/home/nicu/Desktop/border"
   sodipodi:docname="ivy_left.svg"
   inkscape:output_extension="org.inkscape.output.svg.inkscape">
  <defs
     id="defs4">
    <linearGradient
       id="linearGradient2164">
      <stop
         style="stop-color:#e9c6af;stop-opacity:1;"
         offset="0"
         id="stop2166" />
      <stop
         id="stop2172"
         offset="0.5"
         style="stop-color:#f9f0e9;stop-opacity:1;" />
      <stop
         style="stop-color:#e9c6af;stop-opacity:1;"
         offset="1"
         id="stop2168" />
    </linearGradient>
    <linearGradient
       inkscape:collect="always"
       xlink:href="#linearGradient2164"
       id="linearGradient2170"
       gradientUnits="userSpaceOnUse"
       x1="13.700194"
       y1="7.2401519"
       x2="13.700194"
       y2="16.619091"
       gradientTransform="translate(-3.125e-2,0)" />
    <linearGradient
       inkscape:collect="always"
       xlink:href="#linearGradient2164"
       id="linearGradient2176"
       gradientUnits="userSpaceOnUse"
       gradientTransform="translate(-3.125e-2,0)"
       x1="13.700194"
       y1="7.2401519"
       x2="13.700194"
       y2="16.619091" />
    <linearGradient
       inkscape:collect="always"
       xlink:href="#linearGradient2164"
       id="linearGradient2181"
       gradientUnits="userSpaceOnUse"
       gradientTransform="translate(-3.125e-2,0)"
       x1="13.700194"
       y1="7.2401519"
       x2="13.700194"
       y2="16.619091" />
  </defs>
  <sodipodi:namedview
     id="base"
     pagecolor="#ffffff"
     bordercolor="#666666"
     borderopacity="1.0"
     gridtolerance="10000"
     guidetolerance="10"
     objecttolerance="10"
     inkscape:pageopacity="0.0"
     inkscape:pageshadow="2"
     inkscape:zoom="5.6568542"
     inkscape:cx="20"
     inkscape:cy="10"
     inkscape:document-units="px"
     inkscape:current-layer="layer1"
     width="40px"
     height="40px"
     inkscape:window-width="1165"
     inkscape:window-height="675"
     inkscape:window-x="400"
     inkscape:window-y="139"
     showguides="true"
     inkscape:guide-bbox="true" />
  <metadata
     id="metadata7">
    <rdf:RDF>
      <cc:Work
         rdf:about="">
        <dc:format>image/svg+xml</dc:format>
        <dc:type
           rdf:resource="http://purl.org/dc/dcmitype/StillImage" />
      </cc:Work>
    </rdf:RDF>
  </metadata>
  <g
     inkscape:label="Layer 1"
     inkscape:groupmode="layer"
     id="layer1">
    <rect
       y="16"
       x="-0.03125"
       height="2"
       width="40"
       id="rect3226"
       style="fill:#2f1a0d;fill-opacity:1;stroke:none;stroke-width:2;stroke-miterlimit:4;stroke-dasharray:none;stroke-opacity:1"
       transform="matrix(0,1,1,0,0,0)" />
    <rect
       style="fill:#784421;fill-opacity:1;stroke:none;stroke-width:2;stroke-miterlimit:4;stroke-dasharray:none;stroke-opacity:1"
       id="rect2160"
       width="40"
       height="14"
       x="-0.03125"
       y="3"
       transform="matrix(0,1,1,0,0,0)" />
    <rect
       y="4"
       x="-0.03125"
       height="12"
       width="40"
       id="rect2162"
       style="fill:url(#linearGradient2181);fill-opacity:1;stroke:none;stroke-width:2;stroke-miterlimit:4;stroke-dasharray:none;stroke-opacity:1"
       transform="matrix(0,1,1,0,0,0)" />
    <path
       style="fill:#004200;fill-opacity:1;fill-rule:evenodd;stroke:none;stroke-width:1px;stroke-linecap:butt;stroke-linejoin:miter;stroke-opacity:1"
       d="M 1.5625,13.9375 C 4.215609,17.277297 4.1051536,18.40785 3.4319491,19.596851 C 2.8451736,21.358021 5.4468344,22.221757 6.59375,22.8125 C 8.0655046,23.570558 9.75748,23.761332 11.4375,24.3125 C 9.9913533,22.807935 8.9730685,21.439727 8.03125,19.9375 C 6.287466,17.226199 4.2202811,14.373147 2.8125,11.46875 C 2.1050317,9.838878 1.4180999,7.7126166 1.28125,5.875 C 1.1444001,4.0373834 2.1849553,2.1315804 3.03125,0.15625 L 3.03125,1.78125 C 1.4660039,5.4346799 2.0229016,6.7287734 3.375,9.84375 C 4.0451837,11.387726 5.2477853,14.111427 6.09375,15.46875 C 5.9640136,13.455484 5.9108122,11.604582 5.59375,9.21875 C 2.5885218,7.7802391 5.0036997,3.261017 8.28125,2.84375 C 6.3229265,6.0443855 7.9416007,7.621194 6.59375,9.21875 C 6.0361503,11.133266 7.1701936,14.615521 7.21875,17 C 9.2806071,21.403552 13.104784,24.705909 16.3125,28.25 C 17.56591,29.88491 18.572785,31.594204 18.875,33.46875 C 19.177215,35.343296 18.432428,37.965261 16.96875,40 L 16.96875,38.75 C 17.273024,38.327012 16.951302,37.969699 17.15625,37.5625 C 16.498545,35.765641 16.053252,35.391399 15.21875,34.53125 C 13.405562,35.22988 10.291182,32.752126 9.40625,32.71875 C 11.718608,31.761551 15.237183,30.259667 15.9375,33.84375 C 16.389465,34.694109 17.223681,35.028032 17.71875,36.0625 C 18.50062,33.405853 17.04872,30.947818 15.53125,28.84375 L 12.84375,26.03125 C 10.842714,24.861946 8.4665028,24.877445 6.15625,23.6875 C 4.8765105,23.028343 3.4711513,21.658257 2.6552755,20.175965 C 1.762287,18.730953 -0.60017022,19.049303 1.5625,13.9375 z "
       id="path2176"
       sodipodi:nodetypes="ccscccsccsccccccscccccccccscc" />
  </g>
</svg>
