<?xml version="1.0" encoding="UTF-8" standalone="no"?>
<!-- Created with Inkscape (http://www.inkscape.org/) -->
<svg
   xmlns:dc="http://purl.org/dc/elements/1.1/"
   xmlns:cc="http://web.resource.org/cc/"
   xmlns:rdf="http://www.w3.org/1999/02/22-rdf-syntax-ns#"
   xmlns:svg="http://www.w3.org/2000/svg"
   xmlns="http://www.w3.org/2000/svg"
   xmlns:xlink="http://www.w3.org/1999/xlink"
   xmlns:sodipodi="http://sodipodi.sourceforge.net/DTD/sodipodi-0.dtd"
   xmlns:inkscape="http://www.inkscape.org/namespaces/inkscape"
   width="40"
   height="40"
   id="svg2"
   sodipodi:version="0.32"
   inkscape:version="0.45.1"
   version="1.0"
   sodipodi:docbase="/home/nicu/Desktop/border"
   sodipodi:docname="ivy_top.svg"
   inkscape:output_extension="org.inkscape.output.svg.inkscape">
  <defs
     id="defs4">
    <linearGradient
       id="linearGradient2164">
      <stop
         style="stop-color:#e9c6af;stop-opacity:1;"
         offset="0"
         id="stop2166" />
      <stop
         id="stop2172"
         offset="0.5"
         style="stop-color:#f9f0e9;stop-opacity:1;" />
      <stop
         style="stop-color:#e9c6af;stop-opacity:1;"
         offset="1"
         id="stop2168" />
    </linearGradient>
    <linearGradient
       inkscape:collect="always"
       xlink:href="#linearGradient2164"
       id="linearGradient2170"
       gradientUnits="userSpaceOnUse"
       x1="13.700194"
       y1="7.2401519"
       x2="13.700194"
       y2="16.619091" />
    <linearGradient
       inkscape:collect="always"
       xlink:href="#linearGradient2164"
       id="linearGradient2176"
       gradientUnits="userSpaceOnUse"
       x1="13.700194"
       y1="7.2401519"
       x2="13.700194"
       y2="16.619091" />
    <linearGradient
       inkscape:collect="always"
       xlink:href="#linearGradient2164"
       id="linearGradient2181"
       gradientUnits="userSpaceOnUse"
       x1="13.700194"
       y1="7.2401519"
       x2="13.700194"
       y2="16.619091" />
  </defs>
  <sodipodi:namedview
     id="base"
     pagecolor="#ffffff"
     bordercolor="#666666"
     borderopacity="1.0"
     gridtolerance="10000"
     guidetolerance="10"
     objecttolerance="10"
     inkscape:pageopacity="0.0"
     inkscape:pageshadow="2"
     inkscape:zoom="5.6568542"
     inkscape:cx="20"
     inkscape:cy="10"
     inkscape:document-units="px"
     inkscape:current-layer="layer1"
     width="40px"
     height="40px"
     inkscape:window-width="1165"
     inkscape:window-height="675"
     inkscape:window-x="400"
     inkscape:window-y="139"
     showguides="true"
     inkscape:guide-bbox="true" />
  <metadata
     id="metadata7">
    <rdf:RDF>
      <cc:Work
         rdf:about="">
        <dc:format>image/svg+xml</dc:format>
        <dc:type
           rdf:resource="http://purl.org/dc/dcmitype/StillImage" />
      </cc:Work>
    </rdf:RDF>
  </metadata>
  <g
     inkscape:label="Layer 1"
     inkscape:groupmode="layer"
     id="layer1">
    <rect
       y="16"
       x="0"
       height="2"
       width="40"
       id="rect3226"
       style="fill:#2f1a0d;fill-opacity:1;stroke:none;stroke-width:2;stroke-miterlimit:4;stroke-dasharray:none;stroke-opacity:1" />
    <rect
       style="fill:#784421;fill-opacity:1;stroke:none;stroke-width:2;stroke-miterlimit:4;stroke-dasharray:none;stroke-opacity:1"
       id="rect2160"
       width="40"
       height="14"
       x="0"
       y="3" />
    <rect
       y="4"
       x="0"
       height="12"
       width="40"
       id="rect2162"
       style="fill:url(#linearGradient2181);fill-opacity:1;stroke:none;stroke-width:2;stroke-miterlimit:4;stroke-dasharray:none;stroke-opacity:1" />
    <path
       style="fill:#004200;fill-opacity:1;fill-rule:evenodd;stroke:none;stroke-width:1px;stroke-linecap:butt;stroke-linejoin:miter;stroke-opacity:1"
       d="M 13.96875,1.5625 C 17.308547,4.215609 18.4391,4.1051536 19.628101,3.4319491 C 21.389271,2.8451736 22.253007,5.4468344 22.84375,6.59375 C 23.601808,8.0655046 23.792582,9.75748 24.34375,11.4375 C 22.839185,9.9913533 21.470977,8.9730685 19.96875,8.03125 C 17.257449,6.287466 14.404397,4.2202811 11.5,2.8125 C 9.870128,2.1050317 7.7438666,1.4180999 5.90625,1.28125 C 4.0686334,1.1444001 2.1628304,2.1849553 0.1875,3.03125 L 1.8125,3.03125 C 5.4659299,1.4660039 6.7600234,2.0229016 9.875,3.375 C 11.418976,4.0451837 14.142677,5.2477853 15.5,6.09375 C 13.486734,5.9640136 11.635832,5.9108122 9.25,5.59375 C 7.8114891,2.5885218 3.292267,5.0036997 2.875,8.28125 C 6.0756355,6.3229265 7.652444,7.9416007 9.25,6.59375 C 11.164516,6.0361503 14.646771,7.1701936 17.03125,7.21875 C 21.434802,9.2806071 24.737159,13.104784 28.28125,16.3125 C 29.91616,17.56591 31.625454,18.572785 33.5,18.875 C 35.374546,19.177215 37.996511,18.432428 40.03125,16.96875 L 38.78125,16.96875 C 38.358262,17.273024 38.000949,16.951302 37.59375,17.15625 C 35.796891,16.498545 35.422649,16.053252 34.5625,15.21875 C 35.26113,13.405562 32.783376,10.291182 32.75,9.40625 C 31.792801,11.718608 30.290917,15.237183 33.875,15.9375 C 34.725359,16.389465 35.059282,17.223681 36.09375,17.71875 C 33.437103,18.50062 30.979068,17.04872 28.875,15.53125 L 26.0625,12.84375 C 24.893196,10.842714 24.908695,8.4665028 23.71875,6.15625 C 23.059593,4.8765105 21.689507,3.4711513 20.207215,2.6552755 C 18.762203,1.762287 19.080553,-0.60017022 13.96875,1.5625 z "
       id="path2176"
       sodipodi:nodetypes="ccscccsccsccccccscccccccccscc" />
  </g>
</svg>
